%TF.GenerationSoftware,KiCad,Pcbnew,10.0.1*%
%TF.CreationDate,2026-07-01T20:36:16+02:00*%
%TF.ProjectId,Amiga-HID_rev1.1,416d6967-612d-4484-9944-5f726576312e,1.1*%
%TF.SameCoordinates,Original*%
%TF.FileFunction,Copper,L3,Inr*%
%TF.FilePolarity,Positive*%
%FSLAX46Y46*%
G04 Gerber Fmt 4.6, Leading zero omitted, Abs format (unit mm)*
G04 Created by KiCad (PCBNEW 10.0.1) date 2026-07-01 20:36:16*
%MOMM*%
%LPD*%
G01*
G04 APERTURE LIST*
%TA.AperFunction,ComponentPad*%
%ADD10R,1.700000X1.700000*%
%TD*%
%TA.AperFunction,ComponentPad*%
%ADD11C,1.700000*%
%TD*%
%TA.AperFunction,ComponentPad*%
%ADD12C,0.600000*%
%TD*%
%TA.AperFunction,ComponentPad*%
%ADD13R,1.000000X1.000000*%
%TD*%
%TA.AperFunction,ComponentPad*%
%ADD14C,1.000000*%
%TD*%
%TA.AperFunction,ComponentPad*%
%ADD15R,1.400000X1.400000*%
%TD*%
%TA.AperFunction,ComponentPad*%
%ADD16C,1.450000*%
%TD*%
%TA.AperFunction,ComponentPad*%
%ADD17C,1.600000*%
%TD*%
%TA.AperFunction,ComponentPad*%
%ADD18C,3.000000*%
%TD*%
%TA.AperFunction,ViaPad*%
%ADD19C,0.500000*%
%TD*%
%TA.AperFunction,ViaPad*%
%ADD20C,0.600000*%
%TD*%
%TA.AperFunction,ViaPad*%
%ADD21C,0.800000*%
%TD*%
%TA.AperFunction,Conductor*%
%ADD22C,0.150000*%
%TD*%
%TA.AperFunction,Conductor*%
%ADD23C,0.300000*%
%TD*%
%TA.AperFunction,Conductor*%
%ADD24C,0.500000*%
%TD*%
G04 APERTURE END LIST*
D10*
%TO.N,GND*%
%TO.C,J4*%
X165400000Y-116160000D03*
D11*
%TO.N,VSYS*%
X165400000Y-118700000D03*
%TO.N,+3V3*%
X165400000Y-121240000D03*
%TO.N,/GPIO8*%
X165400000Y-123780000D03*
%TO.N,/GPIO9*%
X165400000Y-126320000D03*
%TD*%
D12*
%TO.N,GND*%
%TO.C,U4*%
X156705000Y-129762500D03*
X158080000Y-129762500D03*
X159455000Y-129762500D03*
X156705000Y-128387500D03*
X158080000Y-128387500D03*
X159455000Y-128387500D03*
X156705000Y-127012500D03*
X158080000Y-127012500D03*
X159455000Y-127012500D03*
%TD*%
D13*
%TO.N,/SWCLK*%
%TO.C,J7*%
X153220000Y-107630000D03*
D14*
%TO.N,GND*%
X153220000Y-108900000D03*
%TO.N,/SWDIO*%
X153220000Y-110170000D03*
%TO.N,/UART_TX*%
X153220000Y-111440000D03*
%TO.N,GND*%
X153220000Y-112710000D03*
%TO.N,/UART_RX*%
X153220000Y-113980000D03*
%TD*%
D15*
%TO.N,GND*%
%TO.C,J2*%
X153500000Y-147372500D03*
D16*
%TO.N,+5V_AMIGA*%
X156000000Y-147372500D03*
%TO.N,/KB_DATA_5V*%
X158500000Y-147372500D03*
%TO.N,/GPIO7*%
X161000000Y-147372500D03*
%TO.N,/KB_CLOCK_5V*%
X163500000Y-147372500D03*
%TD*%
D10*
%TO.N,GND*%
%TO.C,J3*%
X165400000Y-106000000D03*
D11*
%TO.N,Net-(J3-Pin_2)*%
X165400000Y-108540000D03*
%TO.N,/I2C1_SCL*%
X165400000Y-111080000D03*
%TO.N,/I2C1_SDA*%
X165400000Y-113620000D03*
%TD*%
D17*
%TO.N,VBUS*%
%TO.C,J1*%
X162000000Y-102940000D03*
%TO.N,/USB_DN*%
X159500000Y-102940000D03*
%TO.N,/USB_DP*%
X157500000Y-102940000D03*
%TO.N,GND*%
X155000000Y-102940000D03*
D18*
X165000000Y-101480000D03*
X152000000Y-101480000D03*
%TD*%
D19*
%TO.N,GND*%
X152270000Y-121660000D03*
D20*
X157080000Y-141090000D03*
D19*
X152420000Y-131824269D03*
X156730000Y-137420000D03*
X153700000Y-125240000D03*
X162120000Y-109270000D03*
X163740000Y-103620000D03*
X166360000Y-112360000D03*
X151830000Y-118580000D03*
X161840000Y-107060000D03*
X166160000Y-137860000D03*
X160200000Y-122950000D03*
D20*
X162440000Y-122190000D03*
X156180000Y-145490000D03*
D19*
X151850000Y-126720000D03*
X163510000Y-141425000D03*
D20*
X151220000Y-146780000D03*
D19*
X156420000Y-110020000D03*
X156530000Y-117380000D03*
D20*
X151000000Y-154000000D03*
X162300000Y-148470000D03*
D19*
X163930000Y-113110000D03*
X163430000Y-144710000D03*
X154500000Y-101240000D03*
D20*
X165690000Y-146960000D03*
D19*
X158500000Y-109652500D03*
X160800000Y-134240000D03*
X160470000Y-137320000D03*
X151700000Y-113940000D03*
X151850000Y-130820000D03*
D20*
X157260000Y-148520000D03*
X157940000Y-132880000D03*
D19*
X160100000Y-144860000D03*
D20*
X159820000Y-148460000D03*
X151310000Y-134480000D03*
D19*
X153750000Y-139010000D03*
X154780000Y-118300000D03*
X151370000Y-138630000D03*
X164831967Y-134620000D03*
X166410000Y-122550000D03*
X166440000Y-119970000D03*
X150770000Y-106650000D03*
X165790000Y-130080000D03*
X161680000Y-113770000D03*
X165720000Y-140010000D03*
X159170000Y-142490000D03*
X154390000Y-110800000D03*
X155340000Y-119900000D03*
X162410000Y-101360000D03*
D20*
X164000000Y-126800000D03*
D19*
X152850000Y-116210000D03*
X164110000Y-117830000D03*
X160860000Y-138580000D03*
D20*
X166000000Y-154000000D03*
X154640000Y-142430000D03*
X161750000Y-142640000D03*
D19*
X166390000Y-109820000D03*
X166420000Y-125130000D03*
D20*
X153360000Y-105470000D03*
D19*
X165050000Y-127780000D03*
X166160000Y-135660000D03*
X162680000Y-132380000D03*
X157160000Y-134660000D03*
X161760000Y-140220000D03*
%TO.N,/~{USB_BOOT}*%
X153460000Y-143575000D03*
D21*
%TO.N,VSYS*%
X160240000Y-118350000D03*
D19*
X158820000Y-118340000D03*
D21*
X157620000Y-115650000D03*
X156790000Y-116400000D03*
D20*
X160250000Y-114840000D03*
D21*
X157620000Y-117410000D03*
D20*
X159114000Y-113640000D03*
D19*
X158750000Y-144730000D03*
D21*
X156870000Y-114840000D03*
X161710000Y-118360000D03*
D19*
%TO.N,+3V3*%
X158240000Y-142400000D03*
D21*
X158100000Y-125887000D03*
X158620000Y-120650000D03*
D20*
X159110000Y-111050000D03*
D21*
X161620000Y-111050000D03*
X161517500Y-124850000D03*
X161730000Y-120650000D03*
X155470000Y-123980000D03*
D19*
X160841535Y-129590000D03*
D21*
X155760000Y-120650000D03*
X155460000Y-128600000D03*
D19*
X155440000Y-126890000D03*
D21*
X153900000Y-120650000D03*
D19*
X153700000Y-138100000D03*
D20*
X153900000Y-122900000D03*
D19*
X154870000Y-131825000D03*
X153780000Y-128940000D03*
X154900000Y-138820000D03*
X154900000Y-140760000D03*
X159280000Y-131050000D03*
%TO.N,/GPIO8*%
X158671206Y-130514500D03*
%TO.N,/GPIO9*%
X160290000Y-129000000D03*
D21*
%TO.N,Net-(J3-Pin_2)*%
X161690000Y-112350000D03*
D20*
X159114000Y-112360000D03*
D19*
%TO.N,Net-(LED2-A)*%
X166060000Y-139155937D03*
%TO.N,Net-(U4-GPIO0)*%
X155290000Y-132760000D03*
%TO.N,Net-(U4-GPIO1)*%
X156120000Y-132760000D03*
%TO.N,/I2C1_SDA*%
X156480000Y-131150000D03*
%TO.N,/I2C1_SCL*%
X156880000Y-132510000D03*
%TO.N,+1V1*%
X160840000Y-128387500D03*
D20*
X153264888Y-127724996D03*
X155493814Y-127750167D03*
D21*
X157680000Y-123940000D03*
D19*
X157280000Y-130520000D03*
%TO.N,/GPIO7*%
X161810000Y-132370000D03*
%TO.N,/RUN*%
X160700000Y-127400000D03*
%TO.N,/LED2*%
X160590000Y-126600000D03*
%TO.N,/LED1*%
X158700000Y-123930000D03*
%TO.N,/VREG_AVDD*%
X156280000Y-125770000D03*
%TO.N,/QSPI_SS*%
X155800000Y-140010000D03*
D21*
%TO.N,VBUS*%
X157630000Y-111910000D03*
X158500000Y-105552500D03*
X157620000Y-113560000D03*
D20*
X160240000Y-106840000D03*
D19*
%TO.N,Net-(LED1-A)*%
X151490000Y-139690000D03*
D21*
%TO.N,+5V_AMIGA*%
X154370000Y-116082000D03*
X154370000Y-117180000D03*
D20*
%TO.N,Net-(R7-Pad2)*%
X163500000Y-143572667D03*
D21*
%TO.N,Net-(D3-K)*%
X156350000Y-118390000D03*
X161650000Y-105600000D03*
X160251917Y-104430000D03*
X155530000Y-117780000D03*
%TD*%
%TO.N,GND*%
D22*
X166625000Y-116385000D02*
X166625000Y-117780000D01*
D23*
X165400000Y-116160000D02*
X166550000Y-116160000D01*
D22*
X166625000Y-116385000D02*
X166625000Y-114610000D01*
D24*
X156705000Y-127012500D02*
X156787500Y-127012500D01*
%TO.N,VSYS*%
X156870000Y-116320000D02*
X156790000Y-116400000D01*
X157620000Y-117410000D02*
X157620000Y-115650000D01*
X160240000Y-118350000D02*
X160240000Y-118270000D01*
X159114000Y-113640000D02*
X159114000Y-113704000D01*
X161700000Y-118350000D02*
X161710000Y-118360000D01*
X160240000Y-118350000D02*
X158560000Y-118350000D01*
X161710000Y-116300000D02*
X160250000Y-114840000D01*
X152100000Y-138310000D02*
X152100000Y-133320000D01*
X152587288Y-119250000D02*
X159340000Y-119250000D01*
X156870000Y-114840000D02*
X156870000Y-116320000D01*
X161710000Y-118360000D02*
X161710000Y-116300000D01*
X151200000Y-120637288D02*
X152587288Y-119250000D01*
X156870000Y-114840000D02*
X157914000Y-114840000D01*
X157914000Y-114840000D02*
X159114000Y-113640000D01*
X159114000Y-113704000D02*
X160250000Y-114840000D01*
X157620000Y-117410000D02*
X157680000Y-117410000D01*
X156870000Y-114840000D02*
X156870000Y-114900000D01*
D23*
X160250000Y-118340000D02*
X160240000Y-118350000D01*
D24*
X151200000Y-132420000D02*
X151200000Y-120637288D01*
X158750000Y-144730000D02*
X155870000Y-144730000D01*
X162050000Y-118700000D02*
X161710000Y-118360000D01*
X160240000Y-118350000D02*
X161700000Y-118350000D01*
X153640000Y-139850000D02*
X152100000Y-138310000D01*
X160240000Y-114850000D02*
X160250000Y-114840000D01*
X155870000Y-144730000D02*
X153640000Y-142500000D01*
X152100000Y-133320000D02*
X151200000Y-132420000D01*
X159340000Y-119250000D02*
X160240000Y-118350000D01*
X158560000Y-118350000D02*
X157620000Y-117410000D01*
X153640000Y-142500000D02*
X153640000Y-139850000D01*
X165500000Y-118700000D02*
X162050000Y-118700000D01*
%TO.N,+3V3*%
X153790000Y-130720000D02*
X153790000Y-128950000D01*
X160480500Y-125887000D02*
X161517500Y-124850000D01*
X155470000Y-120940000D02*
X155760000Y-120650000D01*
X158100000Y-125887000D02*
X160480500Y-125887000D01*
X155470000Y-123980000D02*
X155470000Y-124562461D01*
D23*
X156830000Y-125997818D02*
X156830000Y-125887000D01*
X155450000Y-126890000D02*
X156036091Y-126303909D01*
D24*
X159280000Y-131050000D02*
X159381535Y-131050000D01*
X152520000Y-127970000D02*
X153490000Y-128940000D01*
X162320000Y-121240000D02*
X161730000Y-120650000D01*
D23*
X154420000Y-138820000D02*
X153700000Y-138100000D01*
D24*
X158240000Y-142400000D02*
X158230000Y-142410000D01*
D23*
X156036091Y-126303909D02*
X156052182Y-126320000D01*
X154900000Y-138820000D02*
X154420000Y-138820000D01*
D24*
X153700000Y-138100000D02*
X153700000Y-132995000D01*
X153790000Y-128950000D02*
X153780000Y-128940000D01*
X154870000Y-131800000D02*
X153790000Y-130720000D01*
D23*
X155440000Y-126890000D02*
X155450000Y-126890000D01*
D24*
X155470000Y-124562461D02*
X152520000Y-127512461D01*
X154900000Y-141600000D02*
X154900000Y-138820000D01*
X158240000Y-142400000D02*
X162580000Y-138060000D01*
D23*
X159694002Y-129185500D02*
X160098502Y-129590000D01*
X156507818Y-126320000D02*
X156830000Y-125997818D01*
D24*
X155710000Y-142410000D02*
X154900000Y-141600000D01*
X154870000Y-131825000D02*
X154870000Y-131800000D01*
X161730000Y-120650000D02*
X158620000Y-120650000D01*
X161730000Y-124637500D02*
X161517500Y-124850000D01*
X153900000Y-120650000D02*
X155760000Y-120650000D01*
X158230000Y-142410000D02*
X155710000Y-142410000D01*
X158505000Y-131825000D02*
X159280000Y-131050000D01*
D23*
X156052182Y-126320000D02*
X156507818Y-126320000D01*
D24*
X154870000Y-131825000D02*
X158505000Y-131825000D01*
X153490000Y-128940000D02*
X153780000Y-128940000D01*
X160841535Y-129590000D02*
X161517500Y-128914035D01*
X153700000Y-132995000D02*
X154870000Y-131825000D01*
D23*
X160098502Y-129590000D02*
X160841535Y-129590000D01*
D24*
X159381535Y-131050000D02*
X160841535Y-129590000D01*
D23*
X155460000Y-128600000D02*
X156045500Y-129185500D01*
D24*
X162531535Y-134200000D02*
X159381535Y-131050000D01*
X158620000Y-120650000D02*
X155760000Y-120650000D01*
X159110000Y-111050000D02*
X161620000Y-111050000D01*
X153900000Y-122940000D02*
X154940000Y-123980000D01*
X162580000Y-134200000D02*
X162531535Y-134200000D01*
D23*
X156830000Y-125887000D02*
X158100000Y-125887000D01*
D24*
X154940000Y-123980000D02*
X155470000Y-123980000D01*
X162580000Y-138060000D02*
X162580000Y-134200000D01*
X153900000Y-120650000D02*
X153900000Y-122900000D01*
X155470000Y-123980000D02*
X155470000Y-120940000D01*
X153900000Y-122900000D02*
X153900000Y-122940000D01*
X161517500Y-128914035D02*
X161517500Y-124850000D01*
X161730000Y-120650000D02*
X161730000Y-124637500D01*
X152520000Y-127512461D02*
X152520000Y-127970000D01*
D23*
X156045500Y-129185500D02*
X159694002Y-129185500D01*
D24*
X165500000Y-121240000D02*
X162320000Y-121240000D01*
%TO.N,Net-(J3-Pin_2)*%
X161690000Y-112350000D02*
X163160000Y-112350000D01*
X164230000Y-108540000D02*
X165500000Y-108540000D01*
X163160000Y-112350000D02*
X163440000Y-112070000D01*
X163440000Y-112070000D02*
X163440000Y-109330000D01*
X163440000Y-109330000D02*
X164230000Y-108540000D01*
%TO.N,+1V1*%
X157680000Y-123940000D02*
X157049884Y-123940000D01*
X157280000Y-130520000D02*
X157260000Y-130500000D01*
X153264888Y-127724996D02*
X155468643Y-127724996D01*
X160840000Y-128387500D02*
X160559577Y-128107077D01*
X157049884Y-123940000D02*
X153264888Y-127724996D01*
X155554481Y-127689500D02*
X155493814Y-127750167D01*
X160559577Y-128107077D02*
X160132000Y-128107077D01*
X155468643Y-127724996D02*
X155493814Y-127750167D01*
X159714423Y-127689500D02*
X155554481Y-127689500D01*
X160132000Y-128107077D02*
X159714423Y-127689500D01*
X153484235Y-127724996D02*
X153264888Y-127724996D01*
X157260000Y-130500000D02*
X156259239Y-130500000D01*
X156259239Y-130500000D02*
X153484235Y-127724996D01*
%TO.N,VBUS*%
D23*
X157620000Y-112200000D02*
X157630000Y-112190000D01*
D24*
X158500000Y-105552500D02*
X157630000Y-106422500D01*
X161680000Y-108280000D02*
X160240000Y-106840000D01*
X160200000Y-106840000D02*
X158912500Y-105552500D01*
X162180000Y-108280000D02*
X161680000Y-108280000D01*
X162740000Y-103680000D02*
X162740000Y-107720000D01*
X160240000Y-106840000D02*
X160200000Y-106840000D01*
X157630000Y-111910000D02*
X157630000Y-113550000D01*
X157630000Y-113550000D02*
X157620000Y-113560000D01*
X162000000Y-102940000D02*
X162740000Y-103680000D01*
X158912500Y-105552500D02*
X158500000Y-105552500D01*
X162740000Y-107720000D02*
X162180000Y-108280000D01*
X157630000Y-106422500D02*
X157630000Y-111910000D01*
%TO.N,+5V_AMIGA*%
X150550000Y-118460000D02*
X151840000Y-117170000D01*
X154360000Y-117170000D02*
X154370000Y-117180000D01*
X151840000Y-117170000D02*
X154360000Y-117170000D01*
X150550000Y-141922500D02*
X150550000Y-118460000D01*
X156000000Y-147372500D02*
X150550000Y-141922500D01*
X154370000Y-117180000D02*
X154370000Y-116082000D01*
%TO.N,Net-(D3-K)*%
X155570000Y-117740000D02*
X155570000Y-106880000D01*
X158020000Y-104430000D02*
X160251917Y-104430000D01*
X160251917Y-104430000D02*
X160480000Y-104430000D01*
X155530000Y-117780000D02*
X155740000Y-117780000D01*
X155570000Y-106880000D02*
X158020000Y-104430000D01*
X155740000Y-117780000D02*
X156350000Y-118390000D01*
X155530000Y-117780000D02*
X155570000Y-117740000D01*
X160480000Y-104430000D02*
X161650000Y-105600000D01*
%TD*%
%TA.AperFunction,Conductor*%
%TO.N,GND*%
G36*
X166586726Y-117456483D02*
G01*
X166599787Y-117457573D01*
X166601891Y-117459033D01*
X166609962Y-117460391D01*
X166642252Y-117487052D01*
X166663145Y-117501556D01*
X166665263Y-117506052D01*
X166669436Y-117509497D01*
X166670702Y-117511275D01*
X166670780Y-117511384D01*
X166696023Y-117571322D01*
X166697131Y-117577468D01*
X166699500Y-117603925D01*
X166699500Y-138886890D01*
X166694419Y-138925467D01*
X166691790Y-138935275D01*
X166653220Y-139002066D01*
X166586422Y-139040624D01*
X166509294Y-139040617D01*
X166442512Y-139002057D01*
X166435331Y-138994876D01*
X166411656Y-138964023D01*
X166380481Y-138910025D01*
X166305911Y-138835455D01*
X166305910Y-138835454D01*
X166245030Y-138800305D01*
X166214587Y-138782729D01*
X166112730Y-138755437D01*
X166112727Y-138755437D01*
X166007273Y-138755437D01*
X166007269Y-138755437D01*
X165933791Y-138775126D01*
X165933789Y-138775126D01*
X165905413Y-138782730D01*
X165905411Y-138782730D01*
X165905411Y-138782731D01*
X165879976Y-138797415D01*
X165879965Y-138797420D01*
X165814090Y-138835453D01*
X165814088Y-138835454D01*
X165739517Y-138910025D01*
X165739513Y-138910030D01*
X165686794Y-139001346D01*
X165672282Y-139055507D01*
X165660392Y-139099881D01*
X165659500Y-139103209D01*
X165659500Y-139208665D01*
X165681160Y-139289500D01*
X165686793Y-139310524D01*
X165690413Y-139316794D01*
X165739516Y-139401846D01*
X165739518Y-139401848D01*
X165814088Y-139476418D01*
X165844529Y-139493992D01*
X165905413Y-139529144D01*
X166007273Y-139556437D01*
X166112727Y-139556437D01*
X166214587Y-139529144D01*
X166305913Y-139476417D01*
X166380480Y-139401850D01*
X166399145Y-139369522D01*
X166401784Y-139364952D01*
X166405727Y-139358120D01*
X166411651Y-139347859D01*
X166435327Y-139317001D01*
X166442515Y-139309812D01*
X166509307Y-139271251D01*
X166586435Y-139271251D01*
X166653230Y-139309815D01*
X166691791Y-139376601D01*
X166691792Y-139376608D01*
X166691794Y-139376610D01*
X166691794Y-139376612D01*
X166694420Y-139386410D01*
X166699500Y-139424983D01*
X166699500Y-154530883D01*
X166694422Y-154569452D01*
X166690276Y-154584923D01*
X166672046Y-154616493D01*
X166651718Y-154651708D01*
X166651711Y-154651711D01*
X166651709Y-154651716D01*
X166584925Y-154690275D01*
X166569455Y-154694421D01*
X166530884Y-154699500D01*
X150469116Y-154699500D01*
X150430549Y-154694422D01*
X150420627Y-154691763D01*
X150415076Y-154690276D01*
X150348283Y-154651709D01*
X150309721Y-154584914D01*
X150305576Y-154569443D01*
X150300500Y-154530883D01*
X150300500Y-142586199D01*
X150305574Y-142547645D01*
X150309165Y-142534242D01*
X150347723Y-142467449D01*
X150414515Y-142428881D01*
X150491618Y-142428869D01*
X150491640Y-142428875D01*
X150491643Y-142428875D01*
X150491645Y-142428876D01*
X150493716Y-142429430D01*
X150495208Y-142429830D01*
X150562012Y-142468377D01*
X153997904Y-145904269D01*
X154021581Y-145935126D01*
X154028497Y-145947105D01*
X154028500Y-145947108D01*
X154028500Y-145947110D01*
X154028517Y-145947139D01*
X154038111Y-145982940D01*
X154048481Y-146021603D01*
X154048476Y-146021620D01*
X154048481Y-146021638D01*
X154038675Y-146058236D01*
X154028538Y-146096108D01*
X154028524Y-146096121D01*
X154028520Y-146096139D01*
X153974014Y-146150660D01*
X153970796Y-146152519D01*
X153896301Y-146172500D01*
X153750000Y-146172500D01*
X153750000Y-146753550D01*
X153730038Y-146828050D01*
X153675500Y-146882588D01*
X153601000Y-146902550D01*
X153581382Y-146902550D01*
X153562535Y-146897500D01*
X153437465Y-146897500D01*
X153418618Y-146902550D01*
X153399000Y-146902550D01*
X153380050Y-146897472D01*
X153360432Y-146897472D01*
X153343446Y-146887664D01*
X153324500Y-146882588D01*
X153310627Y-146868715D01*
X153293638Y-146858906D01*
X153283831Y-146841919D01*
X153269962Y-146828050D01*
X153264884Y-146809099D01*
X153255076Y-146792110D01*
X153250000Y-146753550D01*
X153250000Y-146172500D01*
X152752177Y-146172500D01*
X152752172Y-146172500D01*
X152752162Y-146172500D01*
X152752157Y-146172501D01*
X152752151Y-146172501D01*
X152752133Y-146172503D01*
X152692625Y-146178900D01*
X152692618Y-146178901D01*
X152557928Y-146229139D01*
X152557911Y-146229146D01*
X152557902Y-146229152D01*
X152442810Y-146315310D01*
X152356652Y-146430402D01*
X152356646Y-146430411D01*
X152356639Y-146430428D01*
X152306401Y-146565118D01*
X152306400Y-146565125D01*
X152300003Y-146624633D01*
X152300001Y-146624653D01*
X152300001Y-146624657D01*
X152300000Y-146624677D01*
X152300000Y-147122500D01*
X152881050Y-147122500D01*
X152955550Y-147142462D01*
X153010088Y-147197000D01*
X153030050Y-147271500D01*
X153030050Y-147291117D01*
X153025000Y-147309965D01*
X153025000Y-147435035D01*
X153030050Y-147453882D01*
X153030050Y-147473500D01*
X153024972Y-147492449D01*
X153024972Y-147512068D01*
X153015164Y-147529053D01*
X153010088Y-147548000D01*
X152996215Y-147561872D01*
X152986406Y-147578862D01*
X152969419Y-147588668D01*
X152955550Y-147602538D01*
X152936599Y-147607615D01*
X152919610Y-147617424D01*
X152881050Y-147622500D01*
X152300000Y-147622500D01*
X152300000Y-148120327D01*
X152300003Y-148120365D01*
X152306400Y-148179873D01*
X152306401Y-148179880D01*
X152356639Y-148314570D01*
X152356645Y-148314584D01*
X152356650Y-148314594D01*
X152442809Y-148429687D01*
X152442812Y-148429690D01*
X152557905Y-148515849D01*
X152557915Y-148515854D01*
X152590044Y-148527837D01*
X152635091Y-148559914D01*
X152752125Y-148572495D01*
X152752163Y-148572499D01*
X152752175Y-148572499D01*
X152752177Y-148572500D01*
X153250000Y-148572500D01*
X153250000Y-147991449D01*
X153269962Y-147916949D01*
X153324500Y-147862411D01*
X153399000Y-147842449D01*
X153418614Y-147842449D01*
X153437465Y-147847500D01*
X153562535Y-147847500D01*
X153581386Y-147842449D01*
X153601000Y-147842449D01*
X153619942Y-147847524D01*
X153639554Y-147847523D01*
X153656547Y-147857332D01*
X153675500Y-147862411D01*
X153689367Y-147876278D01*
X153706352Y-147886083D01*
X153716163Y-147903074D01*
X153730038Y-147916949D01*
X153735113Y-147935892D01*
X153744920Y-147952875D01*
X153750000Y-147991449D01*
X153750000Y-148572500D01*
X154247816Y-148572500D01*
X154247823Y-148572500D01*
X154247842Y-148572498D01*
X154307377Y-148566098D01*
X154442084Y-148515854D01*
X154442094Y-148515849D01*
X154557187Y-148429690D01*
X154557190Y-148429687D01*
X154643349Y-148314594D01*
X154643354Y-148314584D01*
X154693598Y-148179877D01*
X154699998Y-148120342D01*
X154700000Y-148120322D01*
X154700000Y-147622500D01*
X154118950Y-147622500D01*
X154044450Y-147602538D01*
X153989912Y-147548000D01*
X153969950Y-147473500D01*
X153969950Y-147453882D01*
X153975000Y-147435035D01*
X153975000Y-147309965D01*
X153969950Y-147291117D01*
X153969950Y-147271500D01*
X153975027Y-147252550D01*
X153975028Y-147232932D01*
X153984835Y-147215946D01*
X153989912Y-147197000D01*
X154003784Y-147183127D01*
X154013594Y-147166138D01*
X154030580Y-147156331D01*
X154044450Y-147142462D01*
X154063400Y-147137384D01*
X154080390Y-147127576D01*
X154118950Y-147122500D01*
X154700000Y-147122500D01*
X154700000Y-146985699D01*
X154700345Y-146984387D01*
X154703845Y-146956831D01*
X154703801Y-146956826D01*
X154704423Y-146952099D01*
X154704457Y-146952015D01*
X154705078Y-146947133D01*
X154707606Y-146937699D01*
X154710108Y-146938369D01*
X154716529Y-146922864D01*
X154719289Y-146912377D01*
X154725214Y-146901893D01*
X154733934Y-146880840D01*
X154778981Y-146846269D01*
X154780412Y-146844813D01*
X154781145Y-146844609D01*
X154795121Y-146833884D01*
X154841993Y-146827709D01*
X154854727Y-146824173D01*
X154859494Y-146825404D01*
X154871589Y-146823811D01*
X154909154Y-146833874D01*
X154913088Y-146835503D01*
X154922211Y-146841598D01*
X154929406Y-146843456D01*
X154938800Y-146852681D01*
X154961443Y-146867808D01*
X155116247Y-147022612D01*
X155139924Y-147053468D01*
X155150020Y-147070954D01*
X155169904Y-147140581D01*
X155170336Y-147153776D01*
X155167553Y-147187720D01*
X155147500Y-147288534D01*
X155147500Y-147456464D01*
X155180259Y-147621158D01*
X155180260Y-147621162D01*
X155244522Y-147776308D01*
X155252675Y-147788509D01*
X155337820Y-147915937D01*
X155456563Y-148034680D01*
X155596190Y-148127976D01*
X155751335Y-148192239D01*
X155916036Y-148225000D01*
X156083964Y-148225000D01*
X156248665Y-148192239D01*
X156403810Y-148127976D01*
X156543437Y-148034680D01*
X156662180Y-147915937D01*
X156755476Y-147776310D01*
X156819739Y-147621165D01*
X156852500Y-147456464D01*
X156852500Y-147288536D01*
X156852500Y-147288534D01*
X157647500Y-147288534D01*
X157647500Y-147456464D01*
X157680259Y-147621158D01*
X157680260Y-147621162D01*
X157744522Y-147776308D01*
X157752675Y-147788509D01*
X157837820Y-147915937D01*
X157956563Y-148034680D01*
X158096190Y-148127976D01*
X158251335Y-148192239D01*
X158416036Y-148225000D01*
X158583964Y-148225000D01*
X158748665Y-148192239D01*
X158903810Y-148127976D01*
X159043437Y-148034680D01*
X159162180Y-147915937D01*
X159255476Y-147776310D01*
X159319739Y-147621165D01*
X159352500Y-147456464D01*
X159352500Y-147288536D01*
X159352500Y-147288534D01*
X160147500Y-147288534D01*
X160147500Y-147456464D01*
X160180259Y-147621158D01*
X160180260Y-147621162D01*
X160244522Y-147776308D01*
X160252675Y-147788509D01*
X160337820Y-147915937D01*
X160456563Y-148034680D01*
X160596190Y-148127976D01*
X160751335Y-148192239D01*
X160916036Y-148225000D01*
X161083964Y-148225000D01*
X161248665Y-148192239D01*
X161403810Y-148127976D01*
X161543437Y-148034680D01*
X161662180Y-147915937D01*
X161755476Y-147776310D01*
X161819739Y-147621165D01*
X161852500Y-147456464D01*
X161852500Y-147288536D01*
X161852500Y-147288534D01*
X162647500Y-147288534D01*
X162647500Y-147456464D01*
X162680259Y-147621158D01*
X162680260Y-147621162D01*
X162744522Y-147776308D01*
X162752675Y-147788509D01*
X162837820Y-147915937D01*
X162956563Y-148034680D01*
X163096190Y-148127976D01*
X163251335Y-148192239D01*
X163416036Y-148225000D01*
X163583964Y-148225000D01*
X163748665Y-148192239D01*
X163903810Y-148127976D01*
X164043437Y-148034680D01*
X164162180Y-147915937D01*
X164255476Y-147776310D01*
X164319739Y-147621165D01*
X164352500Y-147456464D01*
X164352500Y-147288536D01*
X164319739Y-147123835D01*
X164255476Y-146968690D01*
X164162180Y-146829063D01*
X164043437Y-146710320D01*
X163938716Y-146640348D01*
X163903809Y-146617023D01*
X163774975Y-146563659D01*
X163771348Y-146562156D01*
X163771330Y-146562148D01*
X163753549Y-146554783D01*
X163749601Y-146552981D01*
X163738157Y-146550279D01*
X163734269Y-146549897D01*
X163583964Y-146520000D01*
X163416036Y-146520000D01*
X163251337Y-146552759D01*
X163251329Y-146552762D01*
X163096197Y-146617019D01*
X163096189Y-146617023D01*
X162956562Y-146710320D01*
X162956557Y-146710324D01*
X162837824Y-146829057D01*
X162837820Y-146829062D01*
X162796045Y-146891583D01*
X162744523Y-146968690D01*
X162702165Y-147070954D01*
X162680258Y-147123842D01*
X162647500Y-147288534D01*
X161852500Y-147288534D01*
X161819739Y-147123835D01*
X161755476Y-146968690D01*
X161662180Y-146829063D01*
X161543437Y-146710320D01*
X161438716Y-146640348D01*
X161403809Y-146617023D01*
X161274975Y-146563659D01*
X161271348Y-146562156D01*
X161271330Y-146562148D01*
X161253549Y-146554783D01*
X161249601Y-146552981D01*
X161238157Y-146550279D01*
X161234269Y-146549897D01*
X161083964Y-146520000D01*
X160916036Y-146520000D01*
X160751337Y-146552759D01*
X160751329Y-146552762D01*
X160596197Y-146617019D01*
X160596189Y-146617023D01*
X160456562Y-146710320D01*
X160456557Y-146710324D01*
X160337824Y-146829057D01*
X160337820Y-146829062D01*
X160296045Y-146891583D01*
X160244523Y-146968690D01*
X160202165Y-147070954D01*
X160180258Y-147123842D01*
X160147500Y-147288534D01*
X159352500Y-147288534D01*
X159319739Y-147123835D01*
X159255476Y-146968690D01*
X159162180Y-146829063D01*
X159043437Y-146710320D01*
X158938716Y-146640348D01*
X158903809Y-146617023D01*
X158774975Y-146563659D01*
X158771348Y-146562156D01*
X158771330Y-146562148D01*
X158753549Y-146554783D01*
X158749601Y-146552981D01*
X158738157Y-146550279D01*
X158734269Y-146549897D01*
X158583964Y-146520000D01*
X158416036Y-146520000D01*
X158251337Y-146552759D01*
X158251329Y-146552762D01*
X158096197Y-146617019D01*
X158096189Y-146617023D01*
X157956562Y-146710320D01*
X157956557Y-146710324D01*
X157837824Y-146829057D01*
X157837820Y-146829062D01*
X157796045Y-146891583D01*
X157744523Y-146968690D01*
X157702165Y-147070954D01*
X157680258Y-147123842D01*
X157647500Y-147288534D01*
X156852500Y-147288534D01*
X156819739Y-147123835D01*
X156755476Y-146968690D01*
X156662180Y-146829063D01*
X156543437Y-146710320D01*
X156438716Y-146640348D01*
X156403809Y-146617023D01*
X156274975Y-146563659D01*
X156271348Y-146562156D01*
X156271330Y-146562148D01*
X156253549Y-146554783D01*
X156249601Y-146552981D01*
X156238157Y-146550279D01*
X156234269Y-146549897D01*
X156083964Y-146520000D01*
X155916036Y-146520000D01*
X155817649Y-146539570D01*
X155778832Y-146542113D01*
X155772443Y-146541695D01*
X155758686Y-146540793D01*
X155689756Y-146518645D01*
X155678542Y-146511672D01*
X155651863Y-146490498D01*
X153405095Y-144243730D01*
X153381418Y-144212873D01*
X153374482Y-144200860D01*
X153374479Y-144200850D01*
X153374472Y-144200843D01*
X153364416Y-144163299D01*
X153354518Y-144126361D01*
X153354520Y-144126351D01*
X153354518Y-144126341D01*
X153365522Y-144085292D01*
X153374479Y-144051860D01*
X153374486Y-144051852D01*
X153374489Y-144051843D01*
X153401760Y-144024578D01*
X153429016Y-143997322D01*
X153429033Y-143997312D01*
X153432252Y-143995454D01*
X153506737Y-143975500D01*
X153512727Y-143975500D01*
X153614587Y-143948207D01*
X153705913Y-143895480D01*
X153780480Y-143820913D01*
X153833207Y-143729587D01*
X153860500Y-143627727D01*
X153860500Y-143627720D01*
X153861774Y-143618048D01*
X153862546Y-143618149D01*
X153865574Y-143595144D01*
X153869165Y-143581741D01*
X153907723Y-143514948D01*
X153974515Y-143476380D01*
X154051628Y-143476370D01*
X154055219Y-143477332D01*
X154122019Y-143515884D01*
X155567925Y-144961790D01*
X155638210Y-145032075D01*
X155638212Y-145032076D01*
X155638213Y-145032077D01*
X155638215Y-145032078D01*
X155639041Y-145032673D01*
X155642058Y-145034297D01*
X155724287Y-145081772D01*
X155724289Y-145081773D01*
X155724291Y-145081774D01*
X155820301Y-145107500D01*
X158582055Y-145107500D01*
X158601502Y-145108774D01*
X158620699Y-145111302D01*
X158639813Y-145115104D01*
X158697269Y-145130499D01*
X158697273Y-145130500D01*
X158802727Y-145130500D01*
X158904587Y-145103207D01*
X158995913Y-145050480D01*
X159070480Y-144975913D01*
X159123207Y-144884587D01*
X159150500Y-144782727D01*
X159150500Y-144677273D01*
X159123207Y-144575413D01*
X159070480Y-144484087D01*
X158995913Y-144409520D01*
X158995911Y-144409518D01*
X158995910Y-144409517D01*
X158935030Y-144374368D01*
X158904587Y-144356792D01*
X158802730Y-144329500D01*
X158802727Y-144329500D01*
X158697273Y-144329500D01*
X158697269Y-144329500D01*
X158697265Y-144329500D01*
X158639809Y-144344896D01*
X158620699Y-144348697D01*
X158601498Y-144351225D01*
X158582055Y-144352500D01*
X156107699Y-144352500D01*
X156069135Y-144347423D01*
X156042339Y-144340243D01*
X155975544Y-144301679D01*
X155190246Y-143516381D01*
X163072500Y-143516381D01*
X163072500Y-143628951D01*
X163101633Y-143737678D01*
X163146019Y-143814554D01*
X163157914Y-143835156D01*
X163157919Y-143835163D01*
X163218237Y-143895480D01*
X163237509Y-143914752D01*
X163334991Y-143971034D01*
X163443719Y-144000167D01*
X163443721Y-144000167D01*
X163556279Y-144000167D01*
X163556281Y-144000167D01*
X163665009Y-143971034D01*
X163762491Y-143914752D01*
X163842085Y-143835158D01*
X163898367Y-143737676D01*
X163927500Y-143628948D01*
X163927500Y-143516386D01*
X163898367Y-143407658D01*
X163842085Y-143310176D01*
X163842079Y-143310170D01*
X163762496Y-143230586D01*
X163762492Y-143230583D01*
X163762491Y-143230582D01*
X163741887Y-143218686D01*
X163712630Y-143201794D01*
X163665011Y-143174300D01*
X163556283Y-143145167D01*
X163556281Y-143145167D01*
X163443719Y-143145167D01*
X163443716Y-143145167D01*
X163334987Y-143174300D01*
X163237513Y-143230578D01*
X163237508Y-143230582D01*
X163157915Y-143310175D01*
X163157911Y-143310180D01*
X163101633Y-143407654D01*
X163072500Y-143516381D01*
X155190246Y-143516381D01*
X154075012Y-142401147D01*
X154051332Y-142370286D01*
X154037461Y-142346260D01*
X154023938Y-142295790D01*
X154017500Y-142271762D01*
X154017500Y-139800302D01*
X154017500Y-139800301D01*
X154011581Y-139778210D01*
X153991774Y-139704290D01*
X153942075Y-139618210D01*
X152535012Y-138211147D01*
X152511332Y-138180286D01*
X152497461Y-138156260D01*
X152479414Y-138088905D01*
X152477500Y-138081762D01*
X152477500Y-133270301D01*
X152477499Y-133270299D01*
X152467424Y-133232699D01*
X152451774Y-133174291D01*
X152413341Y-133107724D01*
X152404303Y-133092069D01*
X152402514Y-133088745D01*
X152402236Y-133088371D01*
X151635012Y-132321147D01*
X151611332Y-132290286D01*
X151597461Y-132266260D01*
X151590248Y-132239339D01*
X151577500Y-132191762D01*
X151577500Y-120874987D01*
X151582576Y-120836428D01*
X151584941Y-120827597D01*
X151589756Y-120809630D01*
X151628317Y-120742836D01*
X151628316Y-120742836D01*
X152686145Y-119685008D01*
X152716999Y-119661333D01*
X152741028Y-119647460D01*
X152761182Y-119642061D01*
X152815526Y-119627500D01*
X153428651Y-119627500D01*
X153503151Y-119647462D01*
X153557689Y-119702000D01*
X153577651Y-119776500D01*
X153557689Y-119851000D01*
X153503151Y-119905538D01*
X153499315Y-119907677D01*
X153482338Y-119916818D01*
X153408431Y-119956607D01*
X153306089Y-120057745D01*
X153263888Y-120113429D01*
X153194188Y-120239298D01*
X153162772Y-120379706D01*
X153157376Y-120449365D01*
X153166789Y-120592935D01*
X153514509Y-122238243D01*
X153519280Y-122260817D01*
X153522500Y-122291627D01*
X153522500Y-122639307D01*
X153517423Y-122677872D01*
X153505644Y-122721831D01*
X153503440Y-122728238D01*
X153472500Y-122843707D01*
X153472500Y-122956284D01*
X153501633Y-123065011D01*
X153535196Y-123123142D01*
X153546019Y-123141887D01*
X153557915Y-123162491D01*
X153637509Y-123242085D01*
X153693185Y-123274230D01*
X153700498Y-123279841D01*
X153709517Y-123288391D01*
X153720797Y-123306777D01*
X153736047Y-123322027D01*
X153745851Y-123347613D01*
X153749851Y-123354132D01*
X153749963Y-123358343D01*
X153752789Y-123365717D01*
X153873928Y-123938909D01*
X153934284Y-124224500D01*
X153936735Y-124270426D01*
X153795459Y-125655764D01*
X153768042Y-125727854D01*
X153752587Y-125746006D01*
X152217923Y-127280673D01*
X152217920Y-127280677D01*
X152184982Y-127337728D01*
X152168227Y-127366746D01*
X152168226Y-127366749D01*
X152165029Y-127378680D01*
X152162687Y-127387425D01*
X152162687Y-127387426D01*
X152153175Y-127422922D01*
X152142500Y-127462756D01*
X152142500Y-128019703D01*
X152149562Y-128046056D01*
X152151916Y-128054842D01*
X152168226Y-128115710D01*
X152217925Y-128201790D01*
X153187925Y-129171790D01*
X153258210Y-129242075D01*
X153258213Y-129242077D01*
X153258216Y-129242079D01*
X153305746Y-129269520D01*
X153306068Y-129269706D01*
X153306111Y-129269731D01*
X153321009Y-129278332D01*
X153351869Y-129302011D01*
X153364306Y-129314448D01*
X153402868Y-129381236D01*
X153404960Y-129389042D01*
X153409270Y-129442729D01*
X153285779Y-130653676D01*
X153284383Y-130669974D01*
X153283832Y-130677904D01*
X153282964Y-130694180D01*
X153282965Y-130694185D01*
X153298137Y-130837259D01*
X153315265Y-130904775D01*
X153315318Y-130904986D01*
X153315319Y-130904989D01*
X153370189Y-131037997D01*
X153417814Y-131097269D01*
X153460309Y-131150158D01*
X153511378Y-131197842D01*
X153625160Y-131277084D01*
X153629443Y-131280067D01*
X153629446Y-131280070D01*
X153983260Y-131457814D01*
X154021732Y-131485598D01*
X154229405Y-131693271D01*
X154253085Y-131724132D01*
X154261092Y-131738001D01*
X154266168Y-131756947D01*
X154267969Y-131760066D01*
X154267969Y-131763667D01*
X154281053Y-131812501D01*
X154261090Y-131887001D01*
X154261088Y-131887003D01*
X154253079Y-131900874D01*
X154229403Y-131931729D01*
X153397922Y-132763213D01*
X153397918Y-132763219D01*
X153348228Y-132849283D01*
X153348227Y-132849286D01*
X153348227Y-132849287D01*
X153348227Y-132849288D01*
X153348226Y-132849292D01*
X153322573Y-132945029D01*
X153322500Y-132945300D01*
X153322500Y-137932054D01*
X153321226Y-137951492D01*
X153319007Y-137968348D01*
X153318698Y-137970697D01*
X153314896Y-137989809D01*
X153299500Y-138047265D01*
X153299500Y-138152730D01*
X153326792Y-138254586D01*
X153326793Y-138254587D01*
X153326794Y-138254589D01*
X153379515Y-138345908D01*
X153379518Y-138345911D01*
X153454088Y-138420481D01*
X153484529Y-138438055D01*
X153545413Y-138473207D01*
X153612448Y-138491168D01*
X153614036Y-138491843D01*
X153656752Y-138503289D01*
X153656752Y-138503290D01*
X153692083Y-138512757D01*
X153758875Y-138551320D01*
X154249611Y-139042056D01*
X154249613Y-139042057D01*
X154249614Y-139042058D01*
X154312884Y-139078587D01*
X154312886Y-139078588D01*
X154312888Y-139078588D01*
X154312889Y-139078589D01*
X154383466Y-139097501D01*
X154383471Y-139097501D01*
X154392353Y-139099881D01*
X154410807Y-139106146D01*
X154427318Y-139112985D01*
X154488497Y-139159922D01*
X154489996Y-139161875D01*
X154517934Y-139223523D01*
X154519636Y-139232078D01*
X154522500Y-139261151D01*
X154522500Y-140592054D01*
X154521225Y-140611505D01*
X154518698Y-140630697D01*
X154514896Y-140649809D01*
X154499500Y-140707265D01*
X154499500Y-140812730D01*
X154514896Y-140870187D01*
X154518698Y-140889301D01*
X154521225Y-140908495D01*
X154522500Y-140927944D01*
X154522500Y-141649700D01*
X154534441Y-141694262D01*
X154548228Y-141745715D01*
X154573075Y-141788750D01*
X154597922Y-141831786D01*
X154597924Y-141831789D01*
X154597925Y-141831790D01*
X155478210Y-142712075D01*
X155564290Y-142761774D01*
X155660301Y-142787500D01*
X158109374Y-142787500D01*
X158128817Y-142788774D01*
X158140878Y-142790361D01*
X158148018Y-142791301D01*
X158167136Y-142795103D01*
X158187273Y-142800500D01*
X158292727Y-142800500D01*
X158394587Y-142773207D01*
X158485913Y-142720480D01*
X158560480Y-142645913D01*
X158590228Y-142594386D01*
X158601041Y-142578201D01*
X158612840Y-142562824D01*
X158625679Y-142548183D01*
X162882075Y-138291790D01*
X162931774Y-138205710D01*
X162957500Y-138109699D01*
X162957500Y-138010301D01*
X162957500Y-134150301D01*
X162931774Y-134054291D01*
X162882075Y-133968210D01*
X162811790Y-133897925D01*
X162811787Y-133897923D01*
X162811783Y-133897920D01*
X162748274Y-133861253D01*
X162747901Y-133861035D01*
X162747812Y-133860945D01*
X162740470Y-133856379D01*
X162696324Y-133826877D01*
X162673754Y-133808353D01*
X161880193Y-133014792D01*
X161856513Y-132983931D01*
X161849577Y-132971917D01*
X161839829Y-132935533D01*
X161829616Y-132897419D01*
X161829616Y-132897416D01*
X161841152Y-132854366D01*
X161849578Y-132822919D01*
X161904112Y-132768384D01*
X161916133Y-132761443D01*
X161952062Y-132746562D01*
X161964587Y-132743207D01*
X162055913Y-132690480D01*
X162130480Y-132615913D01*
X162183207Y-132524587D01*
X162210500Y-132422727D01*
X162210500Y-132317273D01*
X162183207Y-132215413D01*
X162148055Y-132154529D01*
X162130481Y-132124088D01*
X162055911Y-132049518D01*
X162055910Y-132049517D01*
X161995030Y-132014368D01*
X161964587Y-131996792D01*
X161862730Y-131969500D01*
X161862727Y-131969500D01*
X161757273Y-131969500D01*
X161757269Y-131969500D01*
X161683791Y-131989189D01*
X161683789Y-131989189D01*
X161655413Y-131996793D01*
X161655411Y-131996793D01*
X161655411Y-131996794D01*
X161629976Y-132011478D01*
X161629965Y-132011483D01*
X161564090Y-132049516D01*
X161564088Y-132049517D01*
X161489517Y-132124088D01*
X161436792Y-132215411D01*
X161436791Y-132215415D01*
X161433435Y-132227939D01*
X161418550Y-132263871D01*
X161411614Y-132275884D01*
X161357076Y-132330421D01*
X161282575Y-132350382D01*
X161208079Y-132330420D01*
X161196067Y-132323485D01*
X161165207Y-132299806D01*
X160034630Y-131169229D01*
X160010954Y-131138374D01*
X160002945Y-131124503D01*
X159982980Y-131050004D01*
X160002940Y-130975503D01*
X160010953Y-130961623D01*
X160034626Y-130930772D01*
X160503628Y-130461771D01*
X160989718Y-129975679D01*
X161004360Y-129962839D01*
X161019733Y-129951044D01*
X161035932Y-129940222D01*
X161044095Y-129935509D01*
X161087448Y-129910480D01*
X161162015Y-129835913D01*
X161187044Y-129792560D01*
X161191757Y-129784396D01*
X161202579Y-129768198D01*
X161214374Y-129752825D01*
X161227214Y-129738183D01*
X161819575Y-129145825D01*
X161869274Y-129059745D01*
X161895000Y-128963734D01*
X161895000Y-128864336D01*
X161895000Y-126223722D01*
X164422500Y-126223722D01*
X164422500Y-126416276D01*
X164460060Y-126605115D01*
X164460061Y-126605117D01*
X164460064Y-126605125D01*
X164460071Y-126605146D01*
X164489616Y-126676473D01*
X164533746Y-126783012D01*
X164533754Y-126783027D01*
X164533758Y-126783034D01*
X164533758Y-126783035D01*
X164575772Y-126845911D01*
X164625598Y-126920480D01*
X164640726Y-126943120D01*
X164776880Y-127079274D01*
X164776883Y-127079276D01*
X164936972Y-127186245D01*
X164936974Y-127186246D01*
X164936980Y-127186250D01*
X164936986Y-127186252D01*
X164936987Y-127186253D01*
X164936991Y-127186254D01*
X164937665Y-127186705D01*
X164941848Y-127188266D01*
X164977285Y-127202945D01*
X165114874Y-127259936D01*
X165303725Y-127297500D01*
X165496275Y-127297500D01*
X165685126Y-127259936D01*
X165863020Y-127186250D01*
X166023120Y-127079274D01*
X166159274Y-126943120D01*
X166266250Y-126783020D01*
X166339936Y-126605126D01*
X166377500Y-126416275D01*
X166377500Y-126223725D01*
X166374556Y-126208926D01*
X166364978Y-126160774D01*
X166339936Y-126034874D01*
X166269343Y-125864447D01*
X166266253Y-125856987D01*
X166266252Y-125856986D01*
X166266250Y-125856980D01*
X166159274Y-125696880D01*
X166023120Y-125560726D01*
X166023116Y-125560723D01*
X166023106Y-125560716D01*
X165875222Y-125461902D01*
X165863027Y-125453754D01*
X165863026Y-125453753D01*
X165862545Y-125453432D01*
X165862273Y-125453270D01*
X165858136Y-125451726D01*
X165685146Y-125380071D01*
X165685133Y-125380066D01*
X165685129Y-125380065D01*
X165685123Y-125380063D01*
X165685121Y-125380062D01*
X165685117Y-125380061D01*
X165685115Y-125380060D01*
X165496276Y-125342500D01*
X165496275Y-125342500D01*
X165303725Y-125342500D01*
X165114883Y-125380060D01*
X165114881Y-125380061D01*
X165114873Y-125380064D01*
X165114852Y-125380071D01*
X164955738Y-125445979D01*
X164938137Y-125453270D01*
X164936985Y-125453747D01*
X164936964Y-125453758D01*
X164936963Y-125453758D01*
X164776884Y-125560721D01*
X164776883Y-125560722D01*
X164776874Y-125560730D01*
X164640730Y-125696874D01*
X164640722Y-125696883D01*
X164640721Y-125696884D01*
X164533758Y-125856963D01*
X164533758Y-125856964D01*
X164533754Y-125856972D01*
X164533746Y-125856987D01*
X164530656Y-125864447D01*
X164460071Y-126034852D01*
X164460064Y-126034873D01*
X164460061Y-126034881D01*
X164460060Y-126034883D01*
X164422500Y-126223722D01*
X161895000Y-126223722D01*
X161895000Y-125651249D01*
X161914962Y-125576749D01*
X161952193Y-125533893D01*
X164184497Y-123787654D01*
X164255471Y-123757478D01*
X164332030Y-123766831D01*
X164393655Y-123813211D01*
X164422434Y-123875947D01*
X164460061Y-124065117D01*
X164460064Y-124065125D01*
X164460071Y-124065146D01*
X164507226Y-124178987D01*
X164533746Y-124243012D01*
X164533754Y-124243027D01*
X164533758Y-124243034D01*
X164533758Y-124243035D01*
X164637266Y-124397943D01*
X164637267Y-124397944D01*
X164640726Y-124403120D01*
X164776880Y-124539274D01*
X164776883Y-124539276D01*
X164936972Y-124646245D01*
X164936974Y-124646246D01*
X164936980Y-124646250D01*
X164937005Y-124646260D01*
X164937006Y-124646261D01*
X164970320Y-124660059D01*
X165114874Y-124719936D01*
X165303725Y-124757500D01*
X165496275Y-124757500D01*
X165685126Y-124719936D01*
X165863020Y-124646250D01*
X166023120Y-124539274D01*
X166159274Y-124403120D01*
X166266250Y-124243020D01*
X166339936Y-124065126D01*
X166377500Y-123876275D01*
X166377500Y-123683725D01*
X166370352Y-123647791D01*
X166353387Y-123562500D01*
X166339936Y-123494874D01*
X166266250Y-123316980D01*
X166263869Y-123313417D01*
X166159276Y-123156883D01*
X166159274Y-123156880D01*
X166023120Y-123020726D01*
X166023116Y-123020723D01*
X166023106Y-123020716D01*
X165875222Y-122921902D01*
X165863027Y-122913754D01*
X165863026Y-122913753D01*
X165862545Y-122913432D01*
X165862273Y-122913270D01*
X165858136Y-122911726D01*
X165685146Y-122840071D01*
X165685133Y-122840066D01*
X165685129Y-122840065D01*
X165685123Y-122840063D01*
X165685121Y-122840062D01*
X165685117Y-122840061D01*
X165685115Y-122840060D01*
X165496278Y-122802500D01*
X165489527Y-122801835D01*
X165417345Y-122774661D01*
X165368419Y-122715037D01*
X165355177Y-122656775D01*
X165354841Y-122641281D01*
X165365721Y-122583354D01*
X165351364Y-122440192D01*
X165350409Y-122436337D01*
X165350127Y-122423282D01*
X165357959Y-122391300D01*
X165363264Y-122358808D01*
X165367372Y-122352859D01*
X165368473Y-122348368D01*
X165375660Y-122340862D01*
X165393733Y-122314701D01*
X165457649Y-122250784D01*
X165524443Y-122212222D01*
X165533929Y-122210010D01*
X165685126Y-122179936D01*
X165863020Y-122106250D01*
X166023120Y-121999274D01*
X166159274Y-121863120D01*
X166266250Y-121703020D01*
X166339936Y-121525126D01*
X166377500Y-121336275D01*
X166377500Y-121143725D01*
X166377067Y-121141550D01*
X166362071Y-121066159D01*
X166339936Y-120954874D01*
X166267862Y-120780871D01*
X166266253Y-120776986D01*
X166266248Y-120776976D01*
X166248230Y-120750011D01*
X166243435Y-120742836D01*
X166203523Y-120683103D01*
X166193820Y-120668583D01*
X166159276Y-120616883D01*
X166159274Y-120616880D01*
X166023120Y-120480726D01*
X166023116Y-120480723D01*
X165976186Y-120449365D01*
X165875222Y-120381902D01*
X165863027Y-120373754D01*
X165863026Y-120373753D01*
X165862545Y-120373432D01*
X165862273Y-120373270D01*
X165858136Y-120371726D01*
X165685146Y-120300071D01*
X165685133Y-120300066D01*
X165685129Y-120300065D01*
X165685123Y-120300063D01*
X165685121Y-120300062D01*
X165685117Y-120300061D01*
X165685115Y-120300060D01*
X165496276Y-120262500D01*
X165496275Y-120262500D01*
X165303725Y-120262500D01*
X165114883Y-120300060D01*
X165114881Y-120300061D01*
X165114873Y-120300064D01*
X165114842Y-120300075D01*
X165055130Y-120324809D01*
X164978662Y-120334876D01*
X164907405Y-120305360D01*
X164860453Y-120244170D01*
X164855662Y-120230847D01*
X164851013Y-120215694D01*
X164848982Y-120192033D01*
X164824437Y-120128989D01*
X164804386Y-120064373D01*
X164772696Y-120016683D01*
X164773287Y-120016350D01*
X164762429Y-119997122D01*
X164762425Y-119997116D01*
X164742664Y-119971489D01*
X164724755Y-119944538D01*
X164710040Y-119928072D01*
X164710039Y-119928072D01*
X164707401Y-119925120D01*
X164700507Y-119916818D01*
X164674566Y-119883176D01*
X164624076Y-119846492D01*
X164621834Y-119843723D01*
X164615816Y-119840034D01*
X164568045Y-119799902D01*
X164568038Y-119799897D01*
X164529149Y-119782851D01*
X164529146Y-119782850D01*
X164515561Y-119776894D01*
X164515880Y-119776292D01*
X164496350Y-119765988D01*
X164465862Y-119755108D01*
X164461066Y-119753006D01*
X164461058Y-119753003D01*
X164436270Y-119742138D01*
X164436268Y-119742137D01*
X164436265Y-119742136D01*
X164414984Y-119736239D01*
X164414983Y-119736239D01*
X164411208Y-119735193D01*
X164400926Y-119731938D01*
X164360898Y-119717655D01*
X164360888Y-119717653D01*
X164298562Y-119714084D01*
X164288141Y-119713119D01*
X164226222Y-119705183D01*
X164226215Y-119705183D01*
X163485151Y-119716520D01*
X159711591Y-119774252D01*
X159636795Y-119755431D01*
X159581429Y-119701734D01*
X159560329Y-119627548D01*
X159579150Y-119552752D01*
X159603946Y-119519918D01*
X160188856Y-118935008D01*
X160219710Y-118911333D01*
X160243739Y-118897460D01*
X160255275Y-118894370D01*
X160300235Y-118882323D01*
X160299768Y-118878774D01*
X160309440Y-118877500D01*
X160309447Y-118877500D01*
X160443607Y-118841552D01*
X160563893Y-118772105D01*
X160563895Y-118772102D01*
X160570004Y-118768576D01*
X160574488Y-118765579D01*
X160605874Y-118747459D01*
X160614759Y-118745079D01*
X160680369Y-118727500D01*
X161250168Y-118727500D01*
X161288727Y-118732575D01*
X161315526Y-118739756D01*
X161382319Y-118778318D01*
X161382322Y-118778320D01*
X161386107Y-118782105D01*
X161506393Y-118851552D01*
X161640553Y-118887500D01*
X161640555Y-118887500D01*
X161647370Y-118889326D01*
X161652661Y-118890378D01*
X161687662Y-118899757D01*
X161754454Y-118938320D01*
X161818210Y-119002076D01*
X161904290Y-119051774D01*
X162000301Y-119077500D01*
X164379152Y-119077500D01*
X164417711Y-119082576D01*
X164425954Y-119084784D01*
X164434699Y-119087127D01*
X164501494Y-119125688D01*
X164510402Y-119134596D01*
X164538688Y-119174076D01*
X164541844Y-119180480D01*
X164544730Y-119182342D01*
X164558179Y-119199582D01*
X164640723Y-119323116D01*
X164640726Y-119323120D01*
X164776880Y-119459274D01*
X164776883Y-119459276D01*
X164936972Y-119566245D01*
X164936974Y-119566246D01*
X164936980Y-119566250D01*
X165114874Y-119639936D01*
X165303725Y-119677500D01*
X165496275Y-119677500D01*
X165685126Y-119639936D01*
X165863020Y-119566250D01*
X166023120Y-119459274D01*
X166159274Y-119323120D01*
X166266250Y-119163020D01*
X166339936Y-118985126D01*
X166377500Y-118796275D01*
X166377500Y-118603725D01*
X166375487Y-118593607D01*
X166374556Y-118588928D01*
X166348802Y-118459447D01*
X166346969Y-118450234D01*
X166339936Y-118414874D01*
X166296969Y-118311142D01*
X166268327Y-118241993D01*
X166268294Y-118241914D01*
X166268239Y-118241781D01*
X166266698Y-118237651D01*
X166266246Y-118236975D01*
X166242946Y-118202104D01*
X166159276Y-118076883D01*
X166159274Y-118076880D01*
X166023120Y-117940726D01*
X166021929Y-117939930D01*
X166021924Y-117939926D01*
X165875222Y-117841902D01*
X165863027Y-117833754D01*
X165863026Y-117833753D01*
X165862545Y-117833432D01*
X165862274Y-117833270D01*
X165858138Y-117831727D01*
X165819966Y-117815916D01*
X165791596Y-117804165D01*
X165786736Y-117800436D01*
X165780746Y-117799152D01*
X165757914Y-117784719D01*
X165749857Y-117778537D01*
X165737915Y-117762975D01*
X165730407Y-117757214D01*
X165723516Y-117747446D01*
X165718659Y-117739939D01*
X165717511Y-117736385D01*
X165702903Y-117717349D01*
X165697081Y-117673143D01*
X165694950Y-117666545D01*
X165695732Y-117662895D01*
X165692833Y-117640881D01*
X165708620Y-117602764D01*
X165711114Y-117591130D01*
X165715407Y-117586377D01*
X165722347Y-117569623D01*
X165749077Y-117549110D01*
X165762820Y-117533900D01*
X165773319Y-117530508D01*
X165783534Y-117522669D01*
X165784977Y-117522072D01*
X165786757Y-117521335D01*
X165825670Y-117513596D01*
X165836214Y-117510191D01*
X165839382Y-117510870D01*
X165843759Y-117510000D01*
X166297816Y-117510000D01*
X166297823Y-117510000D01*
X166297842Y-117509998D01*
X166357377Y-117503598D01*
X166480056Y-117457840D01*
X166517954Y-117449123D01*
X166533904Y-117447600D01*
X166586726Y-117456483D01*
G37*
%TD.AperFunction*%
%TA.AperFunction,Conductor*%
G36*
X151118640Y-132903375D02*
G01*
X151118643Y-132903375D01*
X151118645Y-132903376D01*
X151120716Y-132903930D01*
X151122208Y-132904330D01*
X151189012Y-132942877D01*
X151664987Y-133418852D01*
X151688664Y-133449709D01*
X151702536Y-133473735D01*
X151722500Y-133548234D01*
X151722500Y-138260301D01*
X151722500Y-138359699D01*
X151748226Y-138455710D01*
X151797925Y-138541790D01*
X152502609Y-139246474D01*
X153204989Y-139948854D01*
X153228667Y-139979712D01*
X153242537Y-140003735D01*
X153262500Y-140078235D01*
X153262500Y-142549700D01*
X153288226Y-142645710D01*
X153288336Y-142645901D01*
X153337925Y-142731790D01*
X153512407Y-142906272D01*
X153536086Y-142937131D01*
X153543020Y-142949141D01*
X153562982Y-143023641D01*
X153543020Y-143098141D01*
X153488515Y-143152660D01*
X153485297Y-143154519D01*
X153416904Y-143172863D01*
X153416952Y-143173226D01*
X153414202Y-143173587D01*
X153410802Y-143174500D01*
X153407269Y-143174500D01*
X153333791Y-143194189D01*
X153333789Y-143194189D01*
X153305413Y-143201793D01*
X153305411Y-143201793D01*
X153305411Y-143201794D01*
X153279976Y-143216478D01*
X153279965Y-143216483D01*
X153214090Y-143254516D01*
X153214088Y-143254517D01*
X153139517Y-143329088D01*
X153139513Y-143329093D01*
X153086794Y-143420409D01*
X153074824Y-143465082D01*
X153061212Y-143515884D01*
X153059500Y-143522272D01*
X153058225Y-143531957D01*
X153057775Y-143531897D01*
X153054423Y-143557364D01*
X153050833Y-143570762D01*
X153012269Y-143637557D01*
X152945474Y-143676121D01*
X152868381Y-143676130D01*
X152868347Y-143676121D01*
X152868346Y-143676121D01*
X152868344Y-143676120D01*
X152864791Y-143675169D01*
X152797987Y-143636622D01*
X150985012Y-141823647D01*
X150961332Y-141792786D01*
X150947461Y-141768760D01*
X150927500Y-141694262D01*
X150927500Y-140073227D01*
X150932574Y-140034673D01*
X150936165Y-140021270D01*
X150974723Y-139954477D01*
X151041515Y-139915909D01*
X151118618Y-139915897D01*
X151118640Y-139915903D01*
X151118643Y-139915903D01*
X151118645Y-139915904D01*
X151120716Y-139916458D01*
X151122208Y-139916858D01*
X151189012Y-139955405D01*
X151244088Y-140010481D01*
X151274529Y-140028055D01*
X151335413Y-140063207D01*
X151437273Y-140090500D01*
X151542727Y-140090500D01*
X151644587Y-140063207D01*
X151735913Y-140010480D01*
X151810480Y-139935913D01*
X151863207Y-139844587D01*
X151890500Y-139742727D01*
X151890500Y-139637273D01*
X151863207Y-139535413D01*
X151817612Y-139456440D01*
X151810481Y-139444088D01*
X151735910Y-139369517D01*
X151668960Y-139330865D01*
X151668959Y-139330864D01*
X151644590Y-139316794D01*
X151644588Y-139316793D01*
X151542727Y-139289500D01*
X151437273Y-139289500D01*
X151437269Y-139289500D01*
X151363791Y-139309189D01*
X151363789Y-139309189D01*
X151335413Y-139316793D01*
X151335411Y-139316793D01*
X151335411Y-139316794D01*
X151309976Y-139331478D01*
X151309965Y-139331483D01*
X151244091Y-139369515D01*
X151244088Y-139369517D01*
X151244088Y-139369518D01*
X151244086Y-139369520D01*
X151219668Y-139393938D01*
X151195729Y-139417877D01*
X151164873Y-139441553D01*
X151152860Y-139448489D01*
X151133910Y-139453567D01*
X151128934Y-139456440D01*
X151123190Y-139456440D01*
X151078361Y-139468453D01*
X151003860Y-139448492D01*
X150949322Y-139393955D01*
X150949312Y-139393938D01*
X150947454Y-139390719D01*
X150927500Y-139316234D01*
X150927500Y-133060699D01*
X150932574Y-133022145D01*
X150936165Y-133008742D01*
X150974723Y-132941949D01*
X151041515Y-132903381D01*
X151118618Y-132903369D01*
X151118640Y-132903375D01*
G37*
%TD.AperFunction*%
%TA.AperFunction,Conductor*%
G36*
X159405266Y-131620639D02*
G01*
X159419138Y-131628648D01*
X159449997Y-131652327D01*
X162144987Y-134347317D01*
X162168664Y-134378174D01*
X162182536Y-134402200D01*
X162202500Y-134476699D01*
X162202500Y-137822300D01*
X162197423Y-137860864D01*
X162190243Y-137887660D01*
X162151679Y-137954455D01*
X158131147Y-141974987D01*
X158100293Y-141998663D01*
X158076268Y-142012535D01*
X158001768Y-142032500D01*
X155947699Y-142032500D01*
X155909135Y-142027423D01*
X155882339Y-142020243D01*
X155815544Y-141981679D01*
X155335012Y-141501147D01*
X155311332Y-141470286D01*
X155297461Y-141446260D01*
X155277500Y-141371762D01*
X155277500Y-140927944D01*
X155278774Y-140908504D01*
X155278886Y-140907650D01*
X155281302Y-140889295D01*
X155285101Y-140870194D01*
X155300500Y-140812727D01*
X155300500Y-140707273D01*
X155285103Y-140649809D01*
X155281302Y-140630697D01*
X155278775Y-140611501D01*
X155277500Y-140592054D01*
X155277500Y-140433227D01*
X155282574Y-140394673D01*
X155286165Y-140381270D01*
X155324723Y-140314477D01*
X155391515Y-140275909D01*
X155468618Y-140275897D01*
X155471085Y-140276557D01*
X155472208Y-140276858D01*
X155539012Y-140315405D01*
X155554088Y-140330481D01*
X155569028Y-140339106D01*
X155569034Y-140339112D01*
X155569035Y-140339111D01*
X155645409Y-140383205D01*
X155645413Y-140383207D01*
X155747273Y-140410500D01*
X155852727Y-140410500D01*
X155954587Y-140383207D01*
X156045913Y-140330480D01*
X156120480Y-140255913D01*
X156173207Y-140164587D01*
X156200500Y-140062727D01*
X156200500Y-139957273D01*
X156173207Y-139855413D01*
X156128635Y-139778212D01*
X156120481Y-139764088D01*
X156045911Y-139689518D01*
X156045910Y-139689517D01*
X155985030Y-139654368D01*
X155954587Y-139636792D01*
X155852730Y-139609500D01*
X155852727Y-139609500D01*
X155747273Y-139609500D01*
X155747269Y-139609500D01*
X155673791Y-139629189D01*
X155673789Y-139629189D01*
X155645413Y-139636793D01*
X155645411Y-139636793D01*
X155645411Y-139636794D01*
X155619976Y-139651478D01*
X155619965Y-139651483D01*
X155554090Y-139689516D01*
X155554088Y-139689517D01*
X155554085Y-139689521D01*
X155554079Y-139689527D01*
X155545722Y-139697883D01*
X155514873Y-139721554D01*
X155502862Y-139728489D01*
X155483900Y-139733570D01*
X155478924Y-139736443D01*
X155473181Y-139736442D01*
X155428362Y-139748453D01*
X155353862Y-139728493D01*
X155299322Y-139673957D01*
X155299312Y-139673938D01*
X155297454Y-139670719D01*
X155277500Y-139596234D01*
X155277500Y-138987944D01*
X155278773Y-138968508D01*
X155281303Y-138949286D01*
X155285099Y-138930202D01*
X155290506Y-138910024D01*
X155300500Y-138872727D01*
X155300500Y-138767273D01*
X155273207Y-138665413D01*
X155220480Y-138574087D01*
X155145913Y-138499520D01*
X155145911Y-138499518D01*
X155096228Y-138470834D01*
X155070034Y-138455711D01*
X155070033Y-138455711D01*
X155070031Y-138455709D01*
X155054592Y-138446795D01*
X155054589Y-138446794D01*
X155054587Y-138446793D01*
X154952727Y-138419500D01*
X154847267Y-138419500D01*
X154763370Y-138441980D01*
X154763364Y-138441983D01*
X154745413Y-138446793D01*
X154745412Y-138446793D01*
X154745410Y-138446794D01*
X154664516Y-138493496D01*
X154661669Y-138494981D01*
X154657708Y-138495860D01*
X154631367Y-138506771D01*
X154614376Y-138511323D01*
X154588113Y-138511322D01*
X154586377Y-138511708D01*
X154585151Y-138511322D01*
X154537252Y-138511321D01*
X154530072Y-138509397D01*
X154463279Y-138470834D01*
X154158012Y-138165567D01*
X154134333Y-138134707D01*
X154120236Y-138110290D01*
X154101548Y-138055235D01*
X154100500Y-138047279D01*
X154100500Y-138047273D01*
X154085102Y-137989807D01*
X154081300Y-137970687D01*
X154078774Y-137951492D01*
X154077500Y-137932052D01*
X154077500Y-136064038D01*
X156899500Y-136064038D01*
X156899500Y-136315962D01*
X156938910Y-136564785D01*
X157016759Y-136804379D01*
X157131130Y-137028845D01*
X157279207Y-137232656D01*
X157457344Y-137410793D01*
X157661155Y-137558870D01*
X157885621Y-137673241D01*
X158125215Y-137751090D01*
X158374038Y-137790500D01*
X158374043Y-137790500D01*
X158625957Y-137790500D01*
X158625962Y-137790500D01*
X158874785Y-137751090D01*
X159114379Y-137673241D01*
X159338845Y-137558870D01*
X159542656Y-137410793D01*
X159720793Y-137232656D01*
X159868870Y-137028845D01*
X159983241Y-136804379D01*
X160061090Y-136564785D01*
X160100500Y-136315962D01*
X160100500Y-136064038D01*
X160061090Y-135815215D01*
X159983241Y-135575621D01*
X159868870Y-135351155D01*
X159720793Y-135147344D01*
X159542656Y-134969207D01*
X159338845Y-134821130D01*
X159114379Y-134706759D01*
X158874785Y-134628910D01*
X158625962Y-134589500D01*
X158625957Y-134589500D01*
X158374043Y-134589500D01*
X158374038Y-134589500D01*
X158166685Y-134622341D01*
X158166682Y-134622341D01*
X158125212Y-134628910D01*
X158125207Y-134628911D01*
X157893707Y-134704130D01*
X157893696Y-134704135D01*
X157885627Y-134706757D01*
X157885621Y-134706759D01*
X157885615Y-134706761D01*
X157885615Y-134706762D01*
X157851623Y-134724081D01*
X157851574Y-134724105D01*
X157671603Y-134815806D01*
X157664341Y-134818813D01*
X157459771Y-134967443D01*
X157457944Y-134968714D01*
X157457344Y-134969206D01*
X157279206Y-135147344D01*
X157278895Y-135147724D01*
X157278565Y-135148205D01*
X157277980Y-135149031D01*
X157131131Y-135351152D01*
X157131131Y-135351153D01*
X157131130Y-135351155D01*
X157120927Y-135371177D01*
X157120920Y-135371189D01*
X157016764Y-135575609D01*
X157016762Y-135575615D01*
X157016759Y-135575621D01*
X156938910Y-135815215D01*
X156899500Y-136064038D01*
X154077500Y-136064038D01*
X154077500Y-133232699D01*
X154082576Y-133194140D01*
X154087894Y-133174291D01*
X154089756Y-133167342D01*
X154128317Y-133100548D01*
X154621273Y-132607591D01*
X154652126Y-132583918D01*
X154664139Y-132576982D01*
X154738638Y-132557018D01*
X154813139Y-132576979D01*
X154867670Y-132631503D01*
X154869529Y-132634722D01*
X154889500Y-132709219D01*
X154889500Y-132812730D01*
X154916792Y-132914587D01*
X154934366Y-132945027D01*
X154969517Y-133005910D01*
X155044088Y-133080481D01*
X155057483Y-133088215D01*
X155135409Y-133133205D01*
X155135413Y-133133207D01*
X155237273Y-133160500D01*
X155342727Y-133160500D01*
X155444587Y-133133207D01*
X155535913Y-133080480D01*
X155585772Y-133030620D01*
X155616624Y-133006946D01*
X155630501Y-132998934D01*
X155705000Y-132978973D01*
X155779498Y-132998934D01*
X155779503Y-132998937D01*
X155779504Y-132998938D01*
X155793375Y-133006947D01*
X155824230Y-133030623D01*
X155874088Y-133080481D01*
X155887483Y-133088215D01*
X155965409Y-133133205D01*
X155965413Y-133133207D01*
X156067273Y-133160500D01*
X156172727Y-133160500D01*
X156274587Y-133133207D01*
X156365913Y-133080480D01*
X156440480Y-133005913D01*
X156480540Y-132936525D01*
X156504212Y-132905674D01*
X156515544Y-132894342D01*
X156582337Y-132855780D01*
X156659452Y-132855777D01*
X156674932Y-132859924D01*
X156710867Y-132874809D01*
X156725413Y-132883207D01*
X156827273Y-132910500D01*
X156932727Y-132910500D01*
X157034587Y-132883207D01*
X157125913Y-132830480D01*
X157200480Y-132755913D01*
X157253207Y-132664587D01*
X157280500Y-132562727D01*
X157280500Y-132457273D01*
X157267568Y-132409009D01*
X157262491Y-132370445D01*
X157262491Y-132354431D01*
X157282453Y-132279931D01*
X157336991Y-132225393D01*
X157336995Y-132225391D01*
X157342072Y-132222460D01*
X157416568Y-132202500D01*
X158554699Y-132202500D01*
X158650710Y-132176774D01*
X158736790Y-132127075D01*
X159211540Y-131652322D01*
X159242398Y-131628646D01*
X159256269Y-131620638D01*
X159330769Y-131600677D01*
X159405266Y-131620639D01*
G37*
%TD.AperFunction*%
%TA.AperFunction,Conductor*%
G36*
X159536282Y-129468075D02*
G01*
X159563081Y-129475256D01*
X159629874Y-129513818D01*
X159629877Y-129513820D01*
X159876444Y-129760386D01*
X159876446Y-129760389D01*
X159884247Y-129768190D01*
X159887638Y-129771581D01*
X159911311Y-129802434D01*
X159919319Y-129816304D01*
X159939282Y-129890804D01*
X159919320Y-129965304D01*
X159919317Y-129965309D01*
X159911308Y-129979180D01*
X159887632Y-130010035D01*
X159339935Y-130557733D01*
X159309075Y-130581412D01*
X159297063Y-130588347D01*
X159222563Y-130608309D01*
X159148063Y-130588346D01*
X159093526Y-130533808D01*
X159093518Y-130533794D01*
X159091660Y-130530575D01*
X159077629Y-130478200D01*
X159075692Y-130478658D01*
X159069029Y-130450435D01*
X159067799Y-130447193D01*
X159044414Y-130359917D01*
X159044413Y-130359914D01*
X159044413Y-130359913D01*
X158994862Y-130274088D01*
X158991687Y-130268588D01*
X158917117Y-130194018D01*
X158865761Y-130164368D01*
X158835318Y-130146792D01*
X158835318Y-130146791D01*
X158825797Y-130141295D01*
X158825795Y-130141294D01*
X158825793Y-130141293D01*
X158723933Y-130114000D01*
X158618475Y-130114000D01*
X158544997Y-130133689D01*
X158544995Y-130133689D01*
X158516619Y-130141293D01*
X158516617Y-130141293D01*
X158516617Y-130141294D01*
X158491182Y-130155978D01*
X158491171Y-130155983D01*
X158425296Y-130194016D01*
X158425294Y-130194017D01*
X158350723Y-130268588D01*
X158350722Y-130268590D01*
X158298003Y-130359904D01*
X158297998Y-130359914D01*
X158285332Y-130407186D01*
X158270706Y-130461767D01*
X158270706Y-130461771D01*
X158270706Y-130567228D01*
X158272180Y-130572728D01*
X158297999Y-130669087D01*
X158301175Y-130674588D01*
X158309226Y-130688533D01*
X158350723Y-130760410D01*
X158425294Y-130834981D01*
X158447560Y-130847837D01*
X158447567Y-130847840D01*
X158454381Y-130851774D01*
X158516619Y-130887707D01*
X158568679Y-130901655D01*
X158579338Y-130906392D01*
X158582707Y-130909116D01*
X158593333Y-130913517D01*
X158605353Y-130920457D01*
X158659888Y-130974998D01*
X158679846Y-131049499D01*
X158659880Y-131123997D01*
X158652943Y-131136011D01*
X158629268Y-131166863D01*
X158406148Y-131389985D01*
X158375293Y-131413662D01*
X158351266Y-131427535D01*
X158276767Y-131447500D01*
X157028710Y-131447500D01*
X156990143Y-131442422D01*
X156980221Y-131439763D01*
X156974670Y-131438276D01*
X156907877Y-131399709D01*
X156869315Y-131332913D01*
X156869314Y-131332909D01*
X156867797Y-131327246D01*
X156867798Y-131250127D01*
X156880500Y-131202727D01*
X156880500Y-131097273D01*
X156874226Y-131073862D01*
X156870674Y-131014037D01*
X156871542Y-131008016D01*
X156882226Y-130970207D01*
X156882302Y-130970031D01*
X156894425Y-130954632D01*
X156901930Y-130937126D01*
X156917205Y-130925699D01*
X156929575Y-130909989D01*
X156929736Y-130909868D01*
X156963932Y-130890630D01*
X156970084Y-130888170D01*
X157006682Y-130878700D01*
X157006832Y-130878681D01*
X157025556Y-130877500D01*
X157038670Y-130877500D01*
X157077222Y-130882573D01*
X157115043Y-130892705D01*
X157115043Y-130892704D01*
X157150106Y-130902097D01*
X157172199Y-130905743D01*
X157227273Y-130920500D01*
X157332727Y-130920500D01*
X157434587Y-130893207D01*
X157525913Y-130840480D01*
X157600480Y-130765913D01*
X157653207Y-130674587D01*
X157680500Y-130572727D01*
X157680500Y-130467273D01*
X157653207Y-130365413D01*
X157600480Y-130274087D01*
X157525913Y-130199520D01*
X157525911Y-130199518D01*
X157525910Y-130199517D01*
X157465030Y-130164368D01*
X157434587Y-130146792D01*
X157332730Y-130119500D01*
X157332727Y-130119500D01*
X157227273Y-130119500D01*
X157217587Y-130120775D01*
X157217450Y-130119736D01*
X157199201Y-130122138D01*
X157192203Y-130122398D01*
X157191321Y-130122196D01*
X157186690Y-130122500D01*
X156496939Y-130122500D01*
X156458375Y-130117423D01*
X156431579Y-130110243D01*
X156364784Y-130071679D01*
X156269340Y-129976235D01*
X156230776Y-129909440D01*
X156230776Y-129832312D01*
X156263873Y-129771284D01*
X156273662Y-129760391D01*
X156334572Y-129692609D01*
X156396696Y-129562832D01*
X156396697Y-129562827D01*
X156398645Y-129557882D01*
X156400789Y-129558726D01*
X156436558Y-129502340D01*
X156504902Y-129466595D01*
X156537433Y-129463000D01*
X159497723Y-129463000D01*
X159536282Y-129468075D01*
G37*
%TD.AperFunction*%
%TA.AperFunction,Conductor*%
G36*
X159515283Y-128072075D02*
G01*
X159542082Y-128079256D01*
X159608875Y-128117818D01*
X159608878Y-128117820D01*
X159900210Y-128409152D01*
X159977680Y-128453880D01*
X160008536Y-128477558D01*
X160018394Y-128487416D01*
X160019865Y-128488887D01*
X160058426Y-128555683D01*
X160058422Y-128632811D01*
X160058420Y-128632819D01*
X160056902Y-128638482D01*
X160018344Y-128705261D01*
X159969519Y-128754086D01*
X159924586Y-128831913D01*
X159889707Y-128872891D01*
X159888817Y-128873616D01*
X159884512Y-128877020D01*
X159883933Y-128877598D01*
X159880586Y-128880328D01*
X159848311Y-128894827D01*
X159821686Y-128908197D01*
X159822006Y-128909389D01*
X159817422Y-128910617D01*
X159816867Y-128910616D01*
X159816563Y-128910770D01*
X159813585Y-128911385D01*
X159813426Y-128910616D01*
X159813166Y-128910616D01*
X159810232Y-128911935D01*
X159797265Y-128910616D01*
X159740298Y-128910614D01*
X159730540Y-128907999D01*
X159730539Y-128907999D01*
X159730536Y-128907999D01*
X159657468Y-128907999D01*
X159648339Y-128907999D01*
X159646046Y-128907999D01*
X159645982Y-128908000D01*
X156600400Y-128908000D01*
X156525900Y-128888038D01*
X156471362Y-128833500D01*
X156451400Y-128759000D01*
X156451424Y-128756311D01*
X156453653Y-128632819D01*
X156461226Y-128213309D01*
X156482530Y-128139183D01*
X156538043Y-128085639D01*
X156610202Y-128067000D01*
X159476724Y-128067000D01*
X159515283Y-128072075D01*
G37*
%TD.AperFunction*%
%TA.AperFunction,Conductor*%
G36*
X160118348Y-126581655D02*
G01*
X160176142Y-126632729D01*
X160195862Y-126676473D01*
X160216792Y-126754586D01*
X160216793Y-126754587D01*
X160216794Y-126754589D01*
X160269515Y-126845908D01*
X160269516Y-126845909D01*
X160269517Y-126845910D01*
X160269518Y-126845911D01*
X160344086Y-126920479D01*
X160344090Y-126920482D01*
X160344094Y-126920486D01*
X160347167Y-126923237D01*
X160347102Y-126923309D01*
X160354994Y-126930373D01*
X160371684Y-126947064D01*
X160410246Y-127013860D01*
X160410245Y-127090985D01*
X160408693Y-127096777D01*
X160382980Y-127148917D01*
X160368748Y-127167464D01*
X160368280Y-127171014D01*
X160359678Y-127188451D01*
X160326794Y-127245409D01*
X160322902Y-127259934D01*
X160302058Y-127337727D01*
X160299500Y-127347272D01*
X160299500Y-127361377D01*
X160294423Y-127399941D01*
X160290833Y-127413339D01*
X160252269Y-127480134D01*
X160185474Y-127518698D01*
X160108391Y-127518710D01*
X160105239Y-127517866D01*
X160104799Y-127517748D01*
X160037997Y-127479208D01*
X159946218Y-127387430D01*
X159946213Y-127387425D01*
X159876665Y-127347271D01*
X159860135Y-127337727D01*
X159860134Y-127337726D01*
X159860133Y-127337726D01*
X159764122Y-127312000D01*
X156629210Y-127312000D01*
X156554710Y-127292038D01*
X156500172Y-127237500D01*
X156480210Y-127163000D01*
X156480234Y-127160312D01*
X156483553Y-126976406D01*
X156484640Y-126916145D01*
X156505943Y-126842020D01*
X156561456Y-126788475D01*
X156636304Y-126769860D01*
X156645681Y-126770325D01*
X156685291Y-126773547D01*
X160042763Y-126566320D01*
X160118348Y-126581655D01*
G37*
%TD.AperFunction*%
%TA.AperFunction,Conductor*%
G36*
X154936736Y-117519168D02*
G01*
X154991271Y-117573709D01*
X155011229Y-117648202D01*
X155011229Y-117658354D01*
X155006151Y-117696920D01*
X155002500Y-117710541D01*
X155002500Y-117849451D01*
X155005997Y-117862500D01*
X155012132Y-117885396D01*
X155038448Y-117983607D01*
X155107895Y-118103893D01*
X155206107Y-118202105D01*
X155326393Y-118271552D01*
X155460553Y-118307500D01*
X155599442Y-118307500D01*
X155599444Y-118307500D01*
X155599447Y-118307500D01*
X155603242Y-118306482D01*
X155641802Y-118301407D01*
X155659387Y-118301407D01*
X155733884Y-118321368D01*
X155735845Y-118322500D01*
X155739614Y-118324676D01*
X155794152Y-118379213D01*
X155802537Y-118393736D01*
X155817676Y-118450234D01*
X155821226Y-118449767D01*
X155822500Y-118459446D01*
X155822500Y-118459447D01*
X155852852Y-118572724D01*
X155858449Y-118593610D01*
X155864289Y-118603725D01*
X155880621Y-118632014D01*
X155895504Y-118667945D01*
X155899094Y-118681342D01*
X155899096Y-118758470D01*
X155860533Y-118825266D01*
X155793749Y-118863828D01*
X155793740Y-118863830D01*
X155793739Y-118863831D01*
X155793737Y-118863831D01*
X155780352Y-118867419D01*
X155741775Y-118872500D01*
X152537585Y-118872500D01*
X152469961Y-118890620D01*
X152469955Y-118890622D01*
X152441578Y-118898226D01*
X152441576Y-118898226D01*
X152441576Y-118898227D01*
X152416130Y-118912917D01*
X152416125Y-118912920D01*
X152355496Y-118947924D01*
X151195729Y-120107692D01*
X151164869Y-120131371D01*
X151152857Y-120138306D01*
X151078357Y-120158268D01*
X151003857Y-120138305D01*
X150949320Y-120083767D01*
X150949312Y-120083753D01*
X150947454Y-120080534D01*
X150927500Y-120006049D01*
X150927500Y-118697699D01*
X150932576Y-118659140D01*
X150935791Y-118647141D01*
X150939756Y-118632342D01*
X150978317Y-118565548D01*
X150978316Y-118565548D01*
X151938857Y-117605008D01*
X151969711Y-117581333D01*
X151993740Y-117567460D01*
X152068238Y-117547500D01*
X153910168Y-117547500D01*
X153948727Y-117552575D01*
X153975526Y-117559756D01*
X154042319Y-117598318D01*
X154042322Y-117598320D01*
X154046107Y-117602105D01*
X154166393Y-117671552D01*
X154300553Y-117707500D01*
X154439447Y-117707500D01*
X154573607Y-117671552D01*
X154693893Y-117602105D01*
X154748080Y-117547917D01*
X154778938Y-117524239D01*
X154787736Y-117519159D01*
X154862237Y-117499202D01*
X154936736Y-117519168D01*
G37*
%TD.AperFunction*%
%TA.AperFunction,Conductor*%
G36*
X156105796Y-116378377D02*
G01*
X156115335Y-116377081D01*
X156142571Y-116388230D01*
X156171000Y-116395848D01*
X156177806Y-116402654D01*
X156186714Y-116406301D01*
X156204726Y-116429574D01*
X156225538Y-116450386D01*
X156229654Y-116461783D01*
X156233920Y-116467295D01*
X156240492Y-116482978D01*
X156247624Y-116524623D01*
X156302545Y-116657609D01*
X156338134Y-116717735D01*
X156338135Y-116717737D01*
X156427944Y-116829423D01*
X156428300Y-116829865D01*
X157050596Y-117410460D01*
X157052005Y-117412716D01*
X157054310Y-117414047D01*
X157072355Y-117445302D01*
X157091451Y-117475879D01*
X157092862Y-117480802D01*
X157097277Y-117497275D01*
X157128448Y-117613607D01*
X157197895Y-117733893D01*
X157296107Y-117832105D01*
X157416393Y-117901552D01*
X157550553Y-117937500D01*
X157550554Y-117937500D01*
X157557368Y-117939326D01*
X157562661Y-117940378D01*
X157597661Y-117949756D01*
X157664453Y-117988319D01*
X157664455Y-117988320D01*
X158280407Y-118604272D01*
X158304086Y-118635131D01*
X158311020Y-118647141D01*
X158330982Y-118721641D01*
X158311020Y-118796141D01*
X158256515Y-118850660D01*
X158253297Y-118852519D01*
X158178802Y-118872500D01*
X156958225Y-118872500D01*
X156919661Y-118867423D01*
X156906263Y-118863833D01*
X156839468Y-118825269D01*
X156800904Y-118758474D01*
X156800904Y-118721641D01*
X156800903Y-118681350D01*
X156804495Y-118667942D01*
X156819378Y-118632014D01*
X156841550Y-118593610D01*
X156844252Y-118588930D01*
X156844253Y-118588928D01*
X156851358Y-118576621D01*
X156851360Y-118576616D01*
X156852843Y-118574045D01*
X156852447Y-118572565D01*
X156857525Y-118533994D01*
X156877499Y-118459452D01*
X156877500Y-118459446D01*
X156877500Y-118320553D01*
X156877499Y-118320551D01*
X156876661Y-118317423D01*
X156841552Y-118186393D01*
X156772105Y-118066107D01*
X156673893Y-117967895D01*
X156553607Y-117898448D01*
X156485676Y-117880246D01*
X156412632Y-117860673D01*
X156407332Y-117859619D01*
X156372340Y-117850243D01*
X156305547Y-117811680D01*
X156305545Y-117811679D01*
X156005012Y-117511146D01*
X155981332Y-117480285D01*
X155967461Y-117456259D01*
X155947500Y-117381761D01*
X155947500Y-116524886D01*
X155949991Y-116515589D01*
X155948695Y-116506051D01*
X155959844Y-116478814D01*
X155967462Y-116450386D01*
X155974268Y-116443579D01*
X155977915Y-116434672D01*
X156001188Y-116416659D01*
X156022000Y-116395848D01*
X156031297Y-116393356D01*
X156038909Y-116387466D01*
X156068071Y-116383503D01*
X156096500Y-116375886D01*
X156105796Y-116378377D01*
G37*
%TD.AperFunction*%
%TA.AperFunction,Conductor*%
G36*
X163132447Y-100305574D02*
G01*
X163145848Y-100309165D01*
X163212643Y-100347725D01*
X163251210Y-100414518D01*
X163251214Y-100491646D01*
X163251213Y-100491651D01*
X163247623Y-100505050D01*
X163232737Y-100540987D01*
X163202411Y-100593513D01*
X163101697Y-100836654D01*
X163100810Y-100840458D01*
X163034223Y-101088968D01*
X163034218Y-101088989D01*
X163034216Y-101089002D01*
X163000000Y-101348901D01*
X163000000Y-101611097D01*
X163034216Y-101870996D01*
X163034218Y-101871009D01*
X163034223Y-101871030D01*
X163100810Y-102119540D01*
X163101697Y-102123344D01*
X163102074Y-102124254D01*
X163102074Y-102124255D01*
X163157741Y-102258645D01*
X163195065Y-102348753D01*
X163202408Y-102366479D01*
X163333492Y-102593522D01*
X163420078Y-102706364D01*
X163975401Y-102151040D01*
X164042194Y-102112478D01*
X164119322Y-102112478D01*
X164186117Y-102151042D01*
X164328954Y-102293879D01*
X164367518Y-102360674D01*
X164367518Y-102437802D01*
X164328954Y-102504597D01*
X163773633Y-103059919D01*
X163773633Y-103059920D01*
X163886477Y-103146507D01*
X164113520Y-103277591D01*
X164355744Y-103377925D01*
X164545679Y-103428817D01*
X164583802Y-103439032D01*
X164608987Y-103445780D01*
X164608992Y-103445781D01*
X164860474Y-103478888D01*
X164861556Y-103479094D01*
X164868908Y-103480000D01*
X165131089Y-103480000D01*
X165131316Y-103480000D01*
X165133325Y-103479704D01*
X165391007Y-103445781D01*
X165391012Y-103445780D01*
X165639549Y-103379185D01*
X165643349Y-103378299D01*
X165644248Y-103377926D01*
X165644254Y-103377925D01*
X165644255Y-103377925D01*
X165886479Y-103277591D01*
X166109663Y-103148735D01*
X166111796Y-103147587D01*
X166113515Y-103146510D01*
X166113526Y-103146505D01*
X166113528Y-103146504D01*
X166226366Y-103059920D01*
X165671043Y-102504597D01*
X165632480Y-102437803D01*
X165632480Y-102360674D01*
X165671042Y-102293882D01*
X165813881Y-102151044D01*
X165880676Y-102112480D01*
X165957805Y-102112480D01*
X166024599Y-102151044D01*
X166592849Y-102719294D01*
X166592851Y-102719294D01*
X166612340Y-102729711D01*
X166610546Y-102733066D01*
X166612099Y-102733831D01*
X166644865Y-102749986D01*
X166644868Y-102749990D01*
X166644875Y-102749994D01*
X166687705Y-102814086D01*
X166687722Y-102814111D01*
X166691588Y-102825500D01*
X166699500Y-102873405D01*
X166699500Y-104549789D01*
X166694422Y-104588358D01*
X166690276Y-104603829D01*
X166651709Y-104670622D01*
X166584936Y-104709178D01*
X166582724Y-104709771D01*
X166517684Y-104712485D01*
X166511549Y-104711378D01*
X166485938Y-104704352D01*
X166357371Y-104656400D01*
X166297848Y-104650001D01*
X166297828Y-104650000D01*
X166297823Y-104650000D01*
X165650000Y-104650000D01*
X165650000Y-105355169D01*
X165630038Y-105429669D01*
X165575500Y-105484207D01*
X165501000Y-105504169D01*
X165481385Y-105504169D01*
X165465826Y-105500000D01*
X165334174Y-105500000D01*
X165318615Y-105504169D01*
X165299000Y-105504169D01*
X165280050Y-105499091D01*
X165260431Y-105499091D01*
X165243445Y-105489283D01*
X165224500Y-105484207D01*
X165210626Y-105470333D01*
X165193638Y-105460524D01*
X165183832Y-105443539D01*
X165169962Y-105429669D01*
X165164883Y-105410716D01*
X165155076Y-105393728D01*
X165150000Y-105355169D01*
X165150000Y-104650000D01*
X164502177Y-104650000D01*
X164502172Y-104650000D01*
X164502162Y-104650000D01*
X164502157Y-104650001D01*
X164502151Y-104650001D01*
X164502133Y-104650003D01*
X164442625Y-104656400D01*
X164442618Y-104656401D01*
X164307928Y-104706639D01*
X164307911Y-104706646D01*
X164307902Y-104706652D01*
X164192810Y-104792810D01*
X164106652Y-104907902D01*
X164106646Y-104907911D01*
X164106639Y-104907928D01*
X164056401Y-105042618D01*
X164056400Y-105042625D01*
X164050003Y-105102133D01*
X164050001Y-105102153D01*
X164050001Y-105102157D01*
X164050000Y-105102177D01*
X164050000Y-105750000D01*
X164755169Y-105750000D01*
X164829669Y-105769962D01*
X164884207Y-105824500D01*
X164904169Y-105899000D01*
X164904169Y-105918615D01*
X164900000Y-105934174D01*
X164900000Y-106065826D01*
X164904169Y-106081384D01*
X164904169Y-106101000D01*
X164899091Y-106119949D01*
X164899091Y-106139569D01*
X164889283Y-106156554D01*
X164884207Y-106175500D01*
X164870333Y-106189373D01*
X164860524Y-106206362D01*
X164843539Y-106216167D01*
X164829669Y-106230038D01*
X164810716Y-106235116D01*
X164793728Y-106244924D01*
X164755169Y-106250000D01*
X164050000Y-106250000D01*
X164050000Y-106897827D01*
X164050003Y-106897865D01*
X164056400Y-106957373D01*
X164056401Y-106957380D01*
X164106639Y-107092070D01*
X164106645Y-107092084D01*
X164106650Y-107092094D01*
X164192809Y-107207187D01*
X164192812Y-107207190D01*
X164307905Y-107293349D01*
X164307915Y-107293354D01*
X164340044Y-107305337D01*
X164385091Y-107337414D01*
X164502125Y-107349995D01*
X164502163Y-107349999D01*
X164502175Y-107349999D01*
X164502177Y-107350000D01*
X164949892Y-107350000D01*
X164955808Y-107351585D01*
X164961833Y-107350479D01*
X164988459Y-107355078D01*
X164998266Y-107357706D01*
X165015251Y-107367512D01*
X165024392Y-107369962D01*
X165034494Y-107376348D01*
X165041853Y-107381424D01*
X165044276Y-107384271D01*
X165065060Y-107396271D01*
X165087344Y-107434870D01*
X165091844Y-107440157D01*
X165092519Y-107443833D01*
X165103623Y-107463067D01*
X165103621Y-107504306D01*
X165105772Y-107516017D01*
X165103621Y-107522057D01*
X165103621Y-107540195D01*
X165086777Y-107569367D01*
X165079903Y-107588678D01*
X165071498Y-107595831D01*
X165065058Y-107606987D01*
X165062610Y-107609435D01*
X165029614Y-107631481D01*
X165021170Y-107638669D01*
X165017980Y-107639254D01*
X165014270Y-107641734D01*
X164937001Y-107673739D01*
X164936992Y-107673743D01*
X164936964Y-107673758D01*
X164936963Y-107673758D01*
X164776884Y-107780721D01*
X164776883Y-107780722D01*
X164776874Y-107780730D01*
X164640730Y-107916874D01*
X164640725Y-107916880D01*
X164551947Y-108049743D01*
X164546294Y-108057634D01*
X164513801Y-108100004D01*
X164452624Y-108146973D01*
X164442567Y-108151142D01*
X164385509Y-108162500D01*
X164180297Y-108162500D01*
X164112673Y-108180620D01*
X164112667Y-108180622D01*
X164084290Y-108188226D01*
X164084288Y-108188226D01*
X164084288Y-108188227D01*
X164058842Y-108202917D01*
X164058837Y-108202920D01*
X163998208Y-108237924D01*
X163137922Y-109098213D01*
X163137918Y-109098219D01*
X163088228Y-109184283D01*
X163088227Y-109184288D01*
X163088226Y-109184292D01*
X163062500Y-109280300D01*
X163062500Y-111803883D01*
X163057422Y-111842452D01*
X163053276Y-111857923D01*
X163014709Y-111924716D01*
X162947925Y-111963275D01*
X162932455Y-111967421D01*
X162893884Y-111972500D01*
X162139832Y-111972500D01*
X162101265Y-111967422D01*
X162074467Y-111960241D01*
X162023813Y-111930995D01*
X162021634Y-111933836D01*
X162013889Y-111927892D01*
X161893611Y-111858449D01*
X161893608Y-111858448D01*
X161823343Y-111839620D01*
X161806380Y-111829826D01*
X161787460Y-111824765D01*
X161787441Y-111824754D01*
X161778606Y-111819653D01*
X161764740Y-111805785D01*
X161756549Y-111801056D01*
X161751817Y-111792860D01*
X161724072Y-111765111D01*
X161704115Y-111690610D01*
X161724082Y-111616111D01*
X161778611Y-111561585D01*
X161787411Y-111556504D01*
X161823344Y-111541622D01*
X161823607Y-111541552D01*
X161943893Y-111472105D01*
X162042105Y-111373893D01*
X162111552Y-111253607D01*
X162147500Y-111119447D01*
X162147500Y-110980553D01*
X162111552Y-110846393D01*
X162042105Y-110726107D01*
X161943893Y-110627895D01*
X161823607Y-110558448D01*
X161689447Y-110522500D01*
X161550549Y-110522500D01*
X161444773Y-110550843D01*
X161444768Y-110550844D01*
X161416393Y-110558448D01*
X161416391Y-110558448D01*
X161416391Y-110558449D01*
X161390949Y-110573137D01*
X161390941Y-110573141D01*
X161289974Y-110631435D01*
X161285498Y-110634426D01*
X161264492Y-110646555D01*
X161254133Y-110652535D01*
X161179636Y-110672500D01*
X159370692Y-110672500D01*
X159332126Y-110667422D01*
X159287758Y-110655533D01*
X159269306Y-110649270D01*
X159265869Y-110647846D01*
X159256060Y-110646555D01*
X159225198Y-110638285D01*
X159166285Y-110622500D01*
X159166283Y-110622500D01*
X159166281Y-110622500D01*
X159053719Y-110622500D01*
X159053716Y-110622500D01*
X158944987Y-110651633D01*
X158847513Y-110707911D01*
X158847508Y-110707915D01*
X158767915Y-110787508D01*
X158767911Y-110787513D01*
X158711633Y-110884987D01*
X158682500Y-110993714D01*
X158682500Y-111106284D01*
X158711633Y-111215011D01*
X158733918Y-111253608D01*
X158756019Y-111291887D01*
X158767915Y-111312491D01*
X158847509Y-111392085D01*
X158908849Y-111427500D01*
X158943423Y-111447462D01*
X158944991Y-111448367D01*
X158944993Y-111448367D01*
X158944994Y-111448368D01*
X159053713Y-111477499D01*
X159053717Y-111477499D01*
X159053719Y-111477500D01*
X159053721Y-111477500D01*
X159166279Y-111477500D01*
X159166281Y-111477500D01*
X159275009Y-111448367D01*
X159275012Y-111448365D01*
X159280973Y-111446768D01*
X159287754Y-111444465D01*
X159332130Y-111432575D01*
X159370689Y-111427500D01*
X161170168Y-111427500D01*
X161208727Y-111432575D01*
X161235526Y-111439756D01*
X161286177Y-111468999D01*
X161288357Y-111466159D01*
X161296102Y-111472101D01*
X161296104Y-111472102D01*
X161296107Y-111472105D01*
X161416393Y-111541552D01*
X161486652Y-111560377D01*
X161503608Y-111570167D01*
X161522524Y-111575226D01*
X161522590Y-111575264D01*
X161531385Y-111580342D01*
X161545254Y-111594211D01*
X161553446Y-111598941D01*
X161558176Y-111607133D01*
X161585922Y-111634880D01*
X161605883Y-111709381D01*
X161585919Y-111783880D01*
X161531384Y-111838415D01*
X161522657Y-111843453D01*
X161522657Y-111843454D01*
X161522655Y-111843454D01*
X161522594Y-111843490D01*
X161486664Y-111858374D01*
X161486397Y-111858445D01*
X161486392Y-111858447D01*
X161366109Y-111927892D01*
X161366103Y-111927897D01*
X161267897Y-112026102D01*
X161198449Y-112146390D01*
X161198449Y-112146391D01*
X161162500Y-112280551D01*
X161162500Y-112280553D01*
X161162500Y-112419447D01*
X161198448Y-112553607D01*
X161267895Y-112673893D01*
X161366107Y-112772105D01*
X161486393Y-112841552D01*
X161620553Y-112877500D01*
X161759447Y-112877500D01*
X161893607Y-112841552D01*
X162013893Y-112772105D01*
X162013895Y-112772102D01*
X162020004Y-112768576D01*
X162024488Y-112765579D01*
X162055874Y-112747459D01*
X162066196Y-112744694D01*
X162130369Y-112727500D01*
X163209699Y-112727500D01*
X163305710Y-112701774D01*
X163391790Y-112652075D01*
X163742075Y-112301790D01*
X163791774Y-112215710D01*
X163817500Y-112119699D01*
X163817500Y-112020301D01*
X163817500Y-110983722D01*
X164422500Y-110983722D01*
X164422500Y-111176276D01*
X164460060Y-111365115D01*
X164460061Y-111365117D01*
X164460064Y-111365125D01*
X164460071Y-111365146D01*
X164493974Y-111446994D01*
X164533746Y-111543012D01*
X164533754Y-111543027D01*
X164640723Y-111703116D01*
X164640726Y-111703120D01*
X164776880Y-111839274D01*
X164776883Y-111839276D01*
X164936972Y-111946245D01*
X164936974Y-111946246D01*
X164936980Y-111946250D01*
X164936986Y-111946252D01*
X164936987Y-111946253D01*
X164936991Y-111946254D01*
X164937665Y-111946705D01*
X164941852Y-111948268D01*
X164974118Y-111961633D01*
X165114874Y-112019936D01*
X165303725Y-112057500D01*
X165496275Y-112057500D01*
X165685126Y-112019936D01*
X165863020Y-111946250D01*
X166023120Y-111839274D01*
X166159274Y-111703120D01*
X166266250Y-111543020D01*
X166339936Y-111365126D01*
X166377500Y-111176275D01*
X166377500Y-110983725D01*
X166366592Y-110928888D01*
X166357861Y-110884991D01*
X166339936Y-110794874D01*
X166271453Y-110629542D01*
X166266253Y-110616987D01*
X166266252Y-110616986D01*
X166266250Y-110616980D01*
X166159274Y-110456880D01*
X166023120Y-110320726D01*
X166023114Y-110320722D01*
X165890044Y-110231807D01*
X165890039Y-110231803D01*
X165879139Y-110224519D01*
X165875219Y-110221900D01*
X165872206Y-110219427D01*
X165865277Y-110215145D01*
X165863561Y-110214042D01*
X165862273Y-110213270D01*
X165858136Y-110211726D01*
X165685146Y-110140071D01*
X165685133Y-110140066D01*
X165685129Y-110140065D01*
X165685123Y-110140063D01*
X165685121Y-110140062D01*
X165685117Y-110140061D01*
X165685115Y-110140060D01*
X165496276Y-110102500D01*
X165496275Y-110102500D01*
X165303725Y-110102500D01*
X165114883Y-110140060D01*
X165114881Y-110140061D01*
X165114873Y-110140064D01*
X165114852Y-110140071D01*
X164955738Y-110205979D01*
X164938137Y-110213270D01*
X164936985Y-110213747D01*
X164936964Y-110213758D01*
X164936963Y-110213758D01*
X164776884Y-110320721D01*
X164776883Y-110320722D01*
X164776874Y-110320730D01*
X164640730Y-110456874D01*
X164640722Y-110456883D01*
X164640721Y-110456884D01*
X164533758Y-110616963D01*
X164533758Y-110616964D01*
X164533754Y-110616972D01*
X164533746Y-110616987D01*
X164527071Y-110633103D01*
X164460071Y-110794852D01*
X164460064Y-110794873D01*
X164460061Y-110794881D01*
X164460060Y-110794883D01*
X164422500Y-110983722D01*
X163817500Y-110983722D01*
X163817500Y-109567699D01*
X163822576Y-109529140D01*
X163825695Y-109517500D01*
X163829756Y-109502342D01*
X163868317Y-109435548D01*
X164101014Y-109202851D01*
X164298214Y-109005650D01*
X164329068Y-108981976D01*
X164336559Y-108977651D01*
X164342943Y-108973965D01*
X164397477Y-108959353D01*
X164417438Y-108954005D01*
X164417440Y-108954005D01*
X164457364Y-108964703D01*
X164491938Y-108973967D01*
X164491940Y-108973968D01*
X164498319Y-108977651D01*
X164547705Y-109023905D01*
X164640726Y-109163120D01*
X164776880Y-109299274D01*
X164776883Y-109299276D01*
X164936972Y-109406245D01*
X164936974Y-109406246D01*
X164936980Y-109406250D01*
X164937005Y-109406260D01*
X164937006Y-109406261D01*
X164943665Y-109409019D01*
X165114874Y-109479936D01*
X165303725Y-109517500D01*
X165496275Y-109517500D01*
X165685126Y-109479936D01*
X165863020Y-109406250D01*
X166023120Y-109299274D01*
X166159274Y-109163120D01*
X166266250Y-109003020D01*
X166339936Y-108825126D01*
X166377500Y-108636275D01*
X166377500Y-108443725D01*
X166374039Y-108426327D01*
X166361722Y-108364404D01*
X166342799Y-108269268D01*
X166342799Y-108269267D01*
X166339936Y-108254873D01*
X166266252Y-108076984D01*
X166266245Y-108076972D01*
X166159276Y-107916883D01*
X166159274Y-107916880D01*
X166023120Y-107780726D01*
X166006619Y-107769700D01*
X166006616Y-107769698D01*
X165875219Y-107681900D01*
X165872202Y-107679424D01*
X165865286Y-107675150D01*
X165863573Y-107674049D01*
X165862274Y-107673270D01*
X165858138Y-107671727D01*
X165842096Y-107665082D01*
X165791596Y-107644165D01*
X165786736Y-107640436D01*
X165780746Y-107639152D01*
X165757914Y-107624719D01*
X165749857Y-107618537D01*
X165737915Y-107602975D01*
X165730407Y-107597214D01*
X165723516Y-107587446D01*
X165718659Y-107579939D01*
X165717511Y-107576385D01*
X165702903Y-107557349D01*
X165697081Y-107513143D01*
X165694950Y-107506545D01*
X165695732Y-107502895D01*
X165692833Y-107480881D01*
X165708620Y-107442764D01*
X165711114Y-107431130D01*
X165715407Y-107426377D01*
X165722347Y-107409623D01*
X165749077Y-107389110D01*
X165762820Y-107373900D01*
X165773319Y-107370508D01*
X165783534Y-107362669D01*
X165784977Y-107362072D01*
X165786757Y-107361335D01*
X165825670Y-107353596D01*
X165836214Y-107350191D01*
X165839382Y-107350870D01*
X165843759Y-107350000D01*
X166297816Y-107350000D01*
X166297823Y-107350000D01*
X166297842Y-107349998D01*
X166357377Y-107343598D01*
X166480056Y-107297840D01*
X166517954Y-107289123D01*
X166533904Y-107287600D01*
X166609962Y-107300391D01*
X166669436Y-107349497D01*
X166670414Y-107350870D01*
X166670780Y-107351384D01*
X166696023Y-107411322D01*
X166697131Y-107417468D01*
X166699500Y-107443925D01*
X166699500Y-114709789D01*
X166694422Y-114748358D01*
X166690276Y-114763829D01*
X166651709Y-114830622D01*
X166584936Y-114869178D01*
X166582724Y-114869771D01*
X166517684Y-114872485D01*
X166511549Y-114871378D01*
X166485938Y-114864352D01*
X166357371Y-114816400D01*
X166297848Y-114810001D01*
X166297828Y-114810000D01*
X166297823Y-114810000D01*
X165850108Y-114810000D01*
X165844200Y-114808417D01*
X165838186Y-114809522D01*
X165811531Y-114804919D01*
X165801723Y-114802290D01*
X165784746Y-114792486D01*
X165775608Y-114790038D01*
X165765522Y-114783663D01*
X165758161Y-114778587D01*
X165755727Y-114775728D01*
X165734932Y-114763720D01*
X165712673Y-114725158D01*
X165708162Y-114719860D01*
X165707483Y-114716168D01*
X165696374Y-114696922D01*
X165696377Y-114655719D01*
X165694225Y-114644002D01*
X165696379Y-114637948D01*
X165696381Y-114619794D01*
X165713215Y-114590638D01*
X165720084Y-114571338D01*
X165728493Y-114564178D01*
X165734939Y-114553014D01*
X165737391Y-114550562D01*
X165770360Y-114528533D01*
X165778811Y-114521339D01*
X165782006Y-114520751D01*
X165785727Y-114518266D01*
X165834855Y-114497916D01*
X165834865Y-114497912D01*
X165863020Y-114486250D01*
X165863023Y-114486247D01*
X165863025Y-114486247D01*
X166023117Y-114379276D01*
X166023120Y-114379274D01*
X166159274Y-114243120D01*
X166266250Y-114083020D01*
X166339936Y-113905126D01*
X166377500Y-113716275D01*
X166377500Y-113523725D01*
X166370902Y-113490555D01*
X166370901Y-113490550D01*
X166370901Y-113490549D01*
X166348417Y-113377513D01*
X166348417Y-113377511D01*
X166344213Y-113356379D01*
X166339936Y-113334874D01*
X166266250Y-113156980D01*
X166241396Y-113119784D01*
X166159276Y-112996883D01*
X166159274Y-112996880D01*
X166023120Y-112860726D01*
X166023116Y-112860723D01*
X166023106Y-112860716D01*
X165875222Y-112761902D01*
X165863027Y-112753754D01*
X165863026Y-112753753D01*
X165862545Y-112753432D01*
X165862273Y-112753270D01*
X165858136Y-112751726D01*
X165685146Y-112680071D01*
X165685133Y-112680066D01*
X165685129Y-112680065D01*
X165685123Y-112680063D01*
X165685121Y-112680062D01*
X165685117Y-112680061D01*
X165685115Y-112680060D01*
X165496276Y-112642500D01*
X165496275Y-112642500D01*
X165303725Y-112642500D01*
X165114883Y-112680060D01*
X165114881Y-112680061D01*
X165114873Y-112680064D01*
X165114852Y-112680071D01*
X164958841Y-112744694D01*
X164938137Y-112753270D01*
X164936985Y-112753747D01*
X164936964Y-112753758D01*
X164936963Y-112753758D01*
X164776884Y-112860721D01*
X164776883Y-112860722D01*
X164776874Y-112860730D01*
X164640730Y-112996874D01*
X164640723Y-112996883D01*
X164533758Y-113156963D01*
X164533758Y-113156964D01*
X164533747Y-113156985D01*
X164460071Y-113334852D01*
X164460064Y-113334873D01*
X164460061Y-113334881D01*
X164460060Y-113334883D01*
X164422500Y-113523722D01*
X164422500Y-113716276D01*
X164460060Y-113905115D01*
X164460061Y-113905117D01*
X164460064Y-113905125D01*
X164460071Y-113905146D01*
X164491949Y-113982104D01*
X164533746Y-114083012D01*
X164533754Y-114083027D01*
X164640723Y-114243116D01*
X164640726Y-114243120D01*
X164776880Y-114379274D01*
X164776883Y-114379276D01*
X164936972Y-114486245D01*
X164936974Y-114486246D01*
X164936980Y-114486250D01*
X164936986Y-114486252D01*
X164936987Y-114486253D01*
X164936989Y-114486254D01*
X164937666Y-114486706D01*
X164941866Y-114488274D01*
X164965136Y-114497913D01*
X165008404Y-114515835D01*
X165013263Y-114519564D01*
X165019254Y-114520848D01*
X165042083Y-114535278D01*
X165050141Y-114541461D01*
X165062085Y-114557026D01*
X165069594Y-114562788D01*
X165076484Y-114572554D01*
X165081341Y-114580061D01*
X165082488Y-114583614D01*
X165097095Y-114602648D01*
X165102916Y-114646850D01*
X165105050Y-114653455D01*
X165104267Y-114657106D01*
X165107166Y-114679116D01*
X165091380Y-114717229D01*
X165088886Y-114728870D01*
X165084591Y-114733623D01*
X165077654Y-114750374D01*
X165050914Y-114770898D01*
X165037180Y-114786100D01*
X165026697Y-114789486D01*
X165016494Y-114797318D01*
X165014208Y-114798265D01*
X165013293Y-114798644D01*
X164974356Y-114806394D01*
X164963786Y-114809809D01*
X164960615Y-114809129D01*
X164956241Y-114810000D01*
X164502172Y-114810000D01*
X164502162Y-114810000D01*
X164502157Y-114810001D01*
X164502151Y-114810001D01*
X164502133Y-114810003D01*
X164442625Y-114816400D01*
X164442618Y-114816401D01*
X164307928Y-114866639D01*
X164307911Y-114866646D01*
X164307902Y-114866652D01*
X164192810Y-114952810D01*
X164106652Y-115067902D01*
X164106646Y-115067911D01*
X164106639Y-115067928D01*
X164056401Y-115202618D01*
X164056400Y-115202625D01*
X164050003Y-115262133D01*
X164050001Y-115262153D01*
X164050001Y-115262157D01*
X164050000Y-115262177D01*
X164050000Y-115910000D01*
X164755169Y-115910000D01*
X164829669Y-115929962D01*
X164884207Y-115984500D01*
X164904169Y-116059000D01*
X164904169Y-116078615D01*
X164900000Y-116094174D01*
X164900000Y-116225826D01*
X164904169Y-116241384D01*
X164904169Y-116261000D01*
X164899091Y-116279949D01*
X164899091Y-116299569D01*
X164889283Y-116316554D01*
X164884207Y-116335500D01*
X164870333Y-116349373D01*
X164860524Y-116366362D01*
X164843539Y-116376167D01*
X164829669Y-116390038D01*
X164810716Y-116395116D01*
X164793728Y-116404924D01*
X164755169Y-116410000D01*
X164050000Y-116410000D01*
X164050000Y-117057827D01*
X164050003Y-117057865D01*
X164056400Y-117117373D01*
X164056401Y-117117380D01*
X164106639Y-117252070D01*
X164106645Y-117252084D01*
X164106650Y-117252094D01*
X164192809Y-117367187D01*
X164192812Y-117367190D01*
X164307905Y-117453349D01*
X164307915Y-117453354D01*
X164340044Y-117465337D01*
X164385091Y-117497414D01*
X164502125Y-117509995D01*
X164502163Y-117509999D01*
X164502175Y-117509999D01*
X164502177Y-117510000D01*
X164949892Y-117510000D01*
X164955808Y-117511585D01*
X164961833Y-117510479D01*
X164988459Y-117515078D01*
X164998266Y-117517706D01*
X165015251Y-117527512D01*
X165024392Y-117529962D01*
X165034494Y-117536348D01*
X165041853Y-117541424D01*
X165044276Y-117544271D01*
X165065060Y-117556271D01*
X165087344Y-117594870D01*
X165091844Y-117600157D01*
X165092519Y-117603833D01*
X165103623Y-117623067D01*
X165103621Y-117664306D01*
X165105772Y-117676017D01*
X165103621Y-117682057D01*
X165103621Y-117700195D01*
X165086777Y-117729367D01*
X165079903Y-117748678D01*
X165071498Y-117755831D01*
X165065058Y-117766987D01*
X165062610Y-117769435D01*
X165029614Y-117791481D01*
X165021170Y-117798669D01*
X165017980Y-117799254D01*
X165014270Y-117801734D01*
X164937001Y-117833739D01*
X164936992Y-117833743D01*
X164936964Y-117833758D01*
X164936963Y-117833758D01*
X164776884Y-117940721D01*
X164776883Y-117940722D01*
X164776874Y-117940730D01*
X164640730Y-118076874D01*
X164640725Y-118076880D01*
X164551947Y-118209743D01*
X164546294Y-118217634D01*
X164513801Y-118260004D01*
X164452624Y-118306973D01*
X164442567Y-118311142D01*
X164385509Y-118322500D01*
X162380008Y-118322500D01*
X162341445Y-118317423D01*
X162324454Y-118312870D01*
X162257661Y-118274307D01*
X162252404Y-118269050D01*
X162213840Y-118202256D01*
X162201552Y-118156393D01*
X162132105Y-118036107D01*
X162132102Y-118036104D01*
X162132101Y-118036102D01*
X162126159Y-118028357D01*
X162127875Y-118027039D01*
X162103056Y-117988802D01*
X162097497Y-117974301D01*
X162088889Y-117940335D01*
X162088764Y-117939385D01*
X162087500Y-117920020D01*
X162087500Y-116250301D01*
X162087498Y-116250293D01*
X162065693Y-116168914D01*
X162065693Y-116168913D01*
X162064503Y-116164474D01*
X162064501Y-116164467D01*
X162061774Y-116154291D01*
X162061774Y-116154290D01*
X162012075Y-116068210D01*
X160701269Y-114757404D01*
X160677590Y-114726544D01*
X160672212Y-114717229D01*
X160654624Y-114686765D01*
X160651457Y-114680343D01*
X160635933Y-114653455D01*
X160592085Y-114577509D01*
X160512491Y-114497915D01*
X160492292Y-114486253D01*
X160415006Y-114441631D01*
X160412005Y-114440131D01*
X160404139Y-114435898D01*
X160363454Y-114412408D01*
X160332596Y-114388730D01*
X159588695Y-113644829D01*
X159565017Y-113613971D01*
X159546068Y-113581151D01*
X159531183Y-113545214D01*
X159525425Y-113523725D01*
X159512367Y-113474991D01*
X159456085Y-113377509D01*
X159434955Y-113356379D01*
X159376496Y-113297919D01*
X159376492Y-113297916D01*
X159376491Y-113297915D01*
X159355887Y-113286019D01*
X159279011Y-113241633D01*
X159170283Y-113212500D01*
X159170281Y-113212500D01*
X159057719Y-113212500D01*
X159057716Y-113212500D01*
X158948987Y-113241633D01*
X158851513Y-113297911D01*
X158851504Y-113297918D01*
X158771916Y-113377507D01*
X158771916Y-113377508D01*
X158771912Y-113377513D01*
X158714194Y-113477480D01*
X158709965Y-113485742D01*
X158686407Y-113526545D01*
X158662729Y-113557403D01*
X158392358Y-113827774D01*
X158361508Y-113851448D01*
X158352714Y-113856526D01*
X158278215Y-113876493D01*
X158203714Y-113856536D01*
X158149172Y-113802002D01*
X158129205Y-113727503D01*
X158129205Y-113717340D01*
X158134283Y-113678774D01*
X158147499Y-113629452D01*
X158147500Y-113629446D01*
X158147500Y-113490552D01*
X158141938Y-113469797D01*
X158111552Y-113356393D01*
X158042105Y-113236107D01*
X158040795Y-113233838D01*
X158040645Y-113233279D01*
X158032147Y-113216308D01*
X158018837Y-113184167D01*
X158007500Y-113127159D01*
X158007500Y-112359832D01*
X158012576Y-112321271D01*
X158017280Y-112303714D01*
X158686500Y-112303714D01*
X158686500Y-112416284D01*
X158715633Y-112525011D01*
X158750012Y-112584555D01*
X158771912Y-112622487D01*
X158771919Y-112622496D01*
X158816637Y-112667213D01*
X158851509Y-112702085D01*
X158904322Y-112732577D01*
X158937488Y-112751726D01*
X158948991Y-112758367D01*
X159057719Y-112787500D01*
X159057721Y-112787500D01*
X159170279Y-112787500D01*
X159170281Y-112787500D01*
X159279009Y-112758367D01*
X159376491Y-112702085D01*
X159456085Y-112622491D01*
X159512367Y-112525009D01*
X159541500Y-112416281D01*
X159541500Y-112303719D01*
X159512367Y-112194991D01*
X159456085Y-112097509D01*
X159456079Y-112097503D01*
X159376496Y-112017919D01*
X159376492Y-112017916D01*
X159376491Y-112017915D01*
X159355887Y-112006019D01*
X159279011Y-111961633D01*
X159170283Y-111932500D01*
X159170281Y-111932500D01*
X159057719Y-111932500D01*
X159057716Y-111932500D01*
X158948987Y-111961633D01*
X158851513Y-112017911D01*
X158851508Y-112017915D01*
X158771915Y-112097508D01*
X158771911Y-112097513D01*
X158715633Y-112194987D01*
X158686500Y-112303714D01*
X158017280Y-112303714D01*
X158019756Y-112294473D01*
X158048997Y-112243824D01*
X158046157Y-112241645D01*
X158052102Y-112233896D01*
X158052102Y-112233895D01*
X158052105Y-112233893D01*
X158121552Y-112113607D01*
X158157500Y-111979447D01*
X158157500Y-111840553D01*
X158121552Y-111706393D01*
X158052105Y-111586107D01*
X158052104Y-111586106D01*
X158048571Y-111579986D01*
X158045577Y-111575507D01*
X158027460Y-111544126D01*
X158026303Y-111539809D01*
X158007500Y-111469630D01*
X158007500Y-106660199D01*
X158012576Y-106621640D01*
X158014941Y-106612809D01*
X158019756Y-106594842D01*
X158058317Y-106528048D01*
X158449050Y-106137314D01*
X158479437Y-106113911D01*
X158502940Y-106100228D01*
X158560214Y-106084663D01*
X158559768Y-106081274D01*
X158569442Y-106080000D01*
X158569447Y-106080000D01*
X158703607Y-106044052D01*
X158703609Y-106044051D01*
X158712632Y-106040314D01*
X158713069Y-106041370D01*
X158755820Y-106026773D01*
X158755820Y-106026771D01*
X158755830Y-106026769D01*
X158755838Y-106026767D01*
X158762756Y-106025831D01*
X158764196Y-106025637D01*
X158764197Y-106025637D01*
X158764228Y-106025633D01*
X158772193Y-106026653D01*
X158775796Y-106025424D01*
X158775810Y-106025424D01*
X158775810Y-106027117D01*
X158802620Y-106030552D01*
X158840700Y-106035424D01*
X158840703Y-106035425D01*
X158840729Y-106035435D01*
X158840731Y-106035436D01*
X158840732Y-106035437D01*
X158848365Y-106038566D01*
X158897207Y-106071072D01*
X159835187Y-107009052D01*
X159848039Y-107023707D01*
X159859821Y-107039062D01*
X159870646Y-107055263D01*
X159897915Y-107102491D01*
X159897915Y-107102492D01*
X159897917Y-107102494D01*
X159897918Y-107102495D01*
X159977503Y-107182079D01*
X159977509Y-107182085D01*
X160074991Y-107238367D01*
X160074992Y-107238367D01*
X160080337Y-107241453D01*
X160086749Y-107244615D01*
X160126537Y-107267584D01*
X160157399Y-107291264D01*
X161448210Y-108582076D01*
X161534290Y-108631774D01*
X161630301Y-108657500D01*
X162229699Y-108657500D01*
X162325710Y-108631774D01*
X162411790Y-108582075D01*
X163042076Y-107951790D01*
X163091774Y-107865710D01*
X163117500Y-107769699D01*
X163117500Y-107670301D01*
X163117500Y-103630301D01*
X163115100Y-103621345D01*
X163092643Y-103537533D01*
X163091774Y-103534291D01*
X163091774Y-103534290D01*
X163042075Y-103448210D01*
X162999790Y-103405925D01*
X162975600Y-103381735D01*
X162947532Y-103353666D01*
X162924886Y-103324568D01*
X162924383Y-103323724D01*
X162918045Y-103312746D01*
X162916889Y-103311145D01*
X162914107Y-103306475D01*
X162904347Y-103271950D01*
X162893307Y-103237810D01*
X162892847Y-103228775D01*
X162895516Y-103192142D01*
X162927500Y-103031351D01*
X162927500Y-102848649D01*
X162927338Y-102847837D01*
X162903616Y-102728576D01*
X162891857Y-102669458D01*
X162838193Y-102539901D01*
X162821942Y-102500668D01*
X162821941Y-102500666D01*
X162821940Y-102500664D01*
X162720436Y-102348753D01*
X162591247Y-102219564D01*
X162488700Y-102151044D01*
X162439332Y-102118057D01*
X162437618Y-102117218D01*
X162434457Y-102116038D01*
X162305497Y-102062622D01*
X162284310Y-102053846D01*
X162275427Y-102050166D01*
X162271476Y-102048363D01*
X162260034Y-102045662D01*
X162256145Y-102045279D01*
X162091351Y-102012500D01*
X161908649Y-102012500D01*
X161729463Y-102048141D01*
X161729459Y-102048142D01*
X161560670Y-102118056D01*
X161559684Y-102118617D01*
X161557291Y-102120313D01*
X161408752Y-102219564D01*
X161408745Y-102219570D01*
X161276058Y-102352257D01*
X161271409Y-102360955D01*
X161217940Y-102440978D01*
X161217939Y-102440981D01*
X161180312Y-102497292D01*
X161178619Y-102499681D01*
X161178058Y-102500666D01*
X161178057Y-102500667D01*
X161178057Y-102500668D01*
X161177928Y-102500979D01*
X161108142Y-102669459D01*
X161108141Y-102669463D01*
X161072794Y-102847168D01*
X161072500Y-102848648D01*
X161072500Y-103031351D01*
X161108142Y-103210539D01*
X161108142Y-103210540D01*
X161108143Y-103210542D01*
X161113500Y-103223475D01*
X161113503Y-103223485D01*
X161122171Y-103244411D01*
X161122174Y-103244416D01*
X161170887Y-103362023D01*
X161178057Y-103379331D01*
X161178059Y-103379333D01*
X161178060Y-103379336D01*
X161279564Y-103531247D01*
X161408753Y-103660436D01*
X161560664Y-103761940D01*
X161560666Y-103761941D01*
X161560668Y-103761942D01*
X161585386Y-103772180D01*
X161610101Y-103782418D01*
X161610104Y-103782418D01*
X161610105Y-103782419D01*
X161729458Y-103831857D01*
X161908649Y-103867500D01*
X162091349Y-103867500D01*
X162091350Y-103867500D01*
X162091351Y-103867500D01*
X162165200Y-103852810D01*
X162204001Y-103850267D01*
X162219995Y-103851315D01*
X162293027Y-103876110D01*
X162343875Y-103934091D01*
X162347132Y-103940695D01*
X162362500Y-104006600D01*
X162362500Y-105203393D01*
X162357419Y-105241970D01*
X162354794Y-105251763D01*
X162354794Y-105251765D01*
X162354793Y-105251766D01*
X162354790Y-105251778D01*
X162338518Y-105279955D01*
X162316230Y-105318560D01*
X162316222Y-105318564D01*
X162316220Y-105318569D01*
X162288345Y-105334658D01*
X162249435Y-105357124D01*
X162249427Y-105357124D01*
X162249422Y-105357127D01*
X162216367Y-105357124D01*
X162172307Y-105357124D01*
X162172300Y-105357120D01*
X162172294Y-105357120D01*
X162105512Y-105318560D01*
X162098333Y-105311381D01*
X162074655Y-105280523D01*
X162072107Y-105276110D01*
X162072103Y-105276105D01*
X161973893Y-105177895D01*
X161904086Y-105137592D01*
X161904085Y-105137591D01*
X161891620Y-105130395D01*
X161853607Y-105108448D01*
X161719447Y-105072500D01*
X161718083Y-105072500D01*
X161716766Y-105072147D01*
X161711629Y-105071470D01*
X161709817Y-105070848D01*
X161709889Y-105070304D01*
X161702364Y-105068287D01*
X161702359Y-105068286D01*
X161672340Y-105060243D01*
X161605545Y-105021680D01*
X160711790Y-104127925D01*
X160711782Y-104127919D01*
X160699484Y-104120818D01*
X160683294Y-104110001D01*
X160667923Y-104098207D01*
X160653278Y-104085363D01*
X160575810Y-104007895D01*
X160493750Y-103960518D01*
X160493747Y-103960516D01*
X160455529Y-103938450D01*
X160455526Y-103938449D01*
X160455524Y-103938448D01*
X160321364Y-103902500D01*
X160228517Y-103902500D01*
X160189953Y-103897423D01*
X160176555Y-103893833D01*
X160109760Y-103855269D01*
X160071196Y-103788474D01*
X160071187Y-103711381D01*
X160071569Y-103709950D01*
X160072149Y-103707789D01*
X160110693Y-103640989D01*
X160130338Y-103621345D01*
X160220436Y-103531247D01*
X160321940Y-103379336D01*
X160391857Y-103210542D01*
X160427500Y-103031351D01*
X160427500Y-102848649D01*
X160427338Y-102847837D01*
X160403616Y-102728576D01*
X160391857Y-102669458D01*
X160338193Y-102539901D01*
X160321942Y-102500668D01*
X160321941Y-102500666D01*
X160321940Y-102500664D01*
X160220436Y-102348753D01*
X160091247Y-102219564D01*
X159988700Y-102151044D01*
X159939332Y-102118057D01*
X159937618Y-102117218D01*
X159934457Y-102116038D01*
X159805497Y-102062622D01*
X159784310Y-102053846D01*
X159775427Y-102050166D01*
X159771476Y-102048363D01*
X159760034Y-102045662D01*
X159756145Y-102045279D01*
X159591351Y-102012500D01*
X159408649Y-102012500D01*
X159229463Y-102048141D01*
X159229459Y-102048142D01*
X159060670Y-102118056D01*
X159059684Y-102118617D01*
X159057291Y-102120313D01*
X158908752Y-102219564D01*
X158908745Y-102219570D01*
X158776058Y-102352257D01*
X158771409Y-102360955D01*
X158717940Y-102440978D01*
X158717939Y-102440981D01*
X158680312Y-102497292D01*
X158678619Y-102499681D01*
X158678053Y-102500674D01*
X158645162Y-102580081D01*
X158625714Y-102613766D01*
X158617272Y-102624768D01*
X158556083Y-102671721D01*
X158479615Y-102681788D01*
X158408359Y-102652274D01*
X158408358Y-102652273D01*
X158408357Y-102652273D01*
X158408356Y-102652271D01*
X158405411Y-102650012D01*
X158358457Y-102588823D01*
X158358456Y-102588820D01*
X158321947Y-102500679D01*
X158321941Y-102500666D01*
X158321940Y-102500664D01*
X158220436Y-102348753D01*
X158091247Y-102219564D01*
X157988700Y-102151044D01*
X157939332Y-102118057D01*
X157937618Y-102117218D01*
X157934457Y-102116038D01*
X157805497Y-102062622D01*
X157784310Y-102053846D01*
X157775427Y-102050166D01*
X157771476Y-102048363D01*
X157760034Y-102045662D01*
X157756145Y-102045279D01*
X157591351Y-102012500D01*
X157408649Y-102012500D01*
X157229463Y-102048141D01*
X157229459Y-102048142D01*
X157060670Y-102118056D01*
X157059684Y-102118617D01*
X157057291Y-102120313D01*
X156908752Y-102219564D01*
X156908745Y-102219570D01*
X156776058Y-102352257D01*
X156771409Y-102360955D01*
X156717940Y-102440978D01*
X156717939Y-102440981D01*
X156680312Y-102497292D01*
X156678619Y-102499681D01*
X156678058Y-102500666D01*
X156678057Y-102500667D01*
X156678057Y-102500668D01*
X156623705Y-102631887D01*
X156608142Y-102669459D01*
X156608141Y-102669460D01*
X156588365Y-102768883D01*
X156585092Y-102775983D01*
X156575860Y-102805720D01*
X156571369Y-102814826D01*
X156562555Y-102824875D01*
X156559249Y-102832048D01*
X156553526Y-102839309D01*
X156543002Y-102847168D01*
X156520512Y-102872812D01*
X156498802Y-102880180D01*
X156491731Y-102885462D01*
X156478690Y-102887006D01*
X156447477Y-102897601D01*
X156425748Y-102893278D01*
X156415139Y-102894535D01*
X156400535Y-102888262D01*
X156371831Y-102882552D01*
X156357042Y-102869581D01*
X156344271Y-102864096D01*
X156331895Y-102847526D01*
X156313845Y-102831695D01*
X156313824Y-102831663D01*
X156312592Y-102829818D01*
X156305905Y-102812728D01*
X156298118Y-102802301D01*
X156296507Y-102788706D01*
X156289339Y-102770384D01*
X156286104Y-102749958D01*
X156267989Y-102635583D01*
X156255843Y-102598202D01*
X156204758Y-102440978D01*
X156204744Y-102440949D01*
X156111858Y-102258649D01*
X156111856Y-102258645D01*
X156079474Y-102214077D01*
X156079473Y-102214077D01*
X155632740Y-102660810D01*
X155565945Y-102699374D01*
X155488817Y-102699374D01*
X155422022Y-102660810D01*
X155408150Y-102646938D01*
X155400099Y-102632993D01*
X155307007Y-102539901D01*
X155293059Y-102531848D01*
X155279186Y-102517975D01*
X155269373Y-102500979D01*
X155255499Y-102487102D01*
X155250426Y-102468162D01*
X155240622Y-102451181D01*
X155240622Y-102431555D01*
X155235545Y-102412600D01*
X155240622Y-102393660D01*
X155240622Y-102374052D01*
X155250433Y-102357057D01*
X155255515Y-102338102D01*
X155279181Y-102307262D01*
X155725921Y-101860524D01*
X155681350Y-101828141D01*
X155681347Y-101828139D01*
X155681345Y-101828138D01*
X155499049Y-101735254D01*
X155499036Y-101735248D01*
X155499032Y-101735246D01*
X155499020Y-101735241D01*
X155499021Y-101735241D01*
X155499016Y-101735239D01*
X155499017Y-101735239D01*
X155499014Y-101735238D01*
X155304423Y-101672012D01*
X155304413Y-101672009D01*
X155223851Y-101659250D01*
X155102307Y-101640000D01*
X155102302Y-101640000D01*
X154897698Y-101640000D01*
X154897693Y-101640000D01*
X154789198Y-101657183D01*
X154695585Y-101672009D01*
X154695575Y-101672012D01*
X154500984Y-101735238D01*
X154500981Y-101735239D01*
X154500960Y-101735249D01*
X154318644Y-101828143D01*
X154231141Y-101891719D01*
X154196957Y-101910279D01*
X154184007Y-101915250D01*
X154107302Y-101923312D01*
X154036842Y-101891941D01*
X153991512Y-101829554D01*
X153990970Y-101828143D01*
X153989979Y-101825562D01*
X153981354Y-101752711D01*
X153999017Y-101618545D01*
X154000000Y-101613188D01*
X154000000Y-101348908D01*
X153999094Y-101341556D01*
X153998888Y-101340470D01*
X153965782Y-101089002D01*
X153965781Y-101088992D01*
X153965780Y-101088987D01*
X153899187Y-100840456D01*
X153898300Y-100836651D01*
X153897925Y-100835745D01*
X153897925Y-100835744D01*
X153797591Y-100593520D01*
X153767260Y-100540985D01*
X153752376Y-100505048D01*
X153748786Y-100491648D01*
X153748788Y-100414520D01*
X153787355Y-100347726D01*
X153854148Y-100309166D01*
X153867556Y-100305573D01*
X153906108Y-100300500D01*
X163093892Y-100300500D01*
X163132447Y-100305574D01*
G37*
%TD.AperFunction*%
%TA.AperFunction,Conductor*%
G36*
X151186118Y-102151043D02*
G01*
X151328954Y-102293879D01*
X151367518Y-102360674D01*
X151367518Y-102437802D01*
X151328954Y-102504597D01*
X150773633Y-103059919D01*
X150773633Y-103059920D01*
X150886477Y-103146507D01*
X151113520Y-103277591D01*
X151355744Y-103377925D01*
X151545679Y-103428817D01*
X151583802Y-103439032D01*
X151608987Y-103445780D01*
X151608992Y-103445781D01*
X151860474Y-103478888D01*
X151861556Y-103479094D01*
X151868908Y-103480000D01*
X152131089Y-103480000D01*
X152131316Y-103480000D01*
X152133325Y-103479704D01*
X152391007Y-103445781D01*
X152391012Y-103445780D01*
X152639549Y-103379185D01*
X152643349Y-103378299D01*
X152644248Y-103377926D01*
X152644254Y-103377925D01*
X152644255Y-103377925D01*
X152886479Y-103277591D01*
X153109663Y-103148735D01*
X153111796Y-103147587D01*
X153113515Y-103146510D01*
X153113526Y-103146505D01*
X153113528Y-103146504D01*
X153226366Y-103059920D01*
X152671043Y-102504597D01*
X152632480Y-102437803D01*
X152632480Y-102360674D01*
X152671042Y-102293882D01*
X152813881Y-102151044D01*
X152880676Y-102112480D01*
X152957805Y-102112480D01*
X153024599Y-102151044D01*
X153592685Y-102719130D01*
X153612175Y-102729548D01*
X153610465Y-102732746D01*
X153613158Y-102734075D01*
X153645370Y-102749958D01*
X153645372Y-102749961D01*
X153645377Y-102749964D01*
X153688223Y-102814086D01*
X153692090Y-102825476D01*
X153700000Y-102873377D01*
X153700000Y-103042307D01*
X153726645Y-103210539D01*
X153732010Y-103244416D01*
X153795238Y-103439014D01*
X153795239Y-103439017D01*
X153795254Y-103439048D01*
X153882815Y-103610897D01*
X153885825Y-103618163D01*
X153920523Y-103665920D01*
X153920524Y-103665921D01*
X154367259Y-103219184D01*
X154434052Y-103180622D01*
X154511180Y-103180622D01*
X154577975Y-103219186D01*
X154591848Y-103233059D01*
X154599901Y-103247007D01*
X154692993Y-103340099D01*
X154706940Y-103348151D01*
X154720811Y-103362022D01*
X154730616Y-103379005D01*
X154744485Y-103392872D01*
X154749564Y-103411825D01*
X154759375Y-103428817D01*
X154759375Y-103448428D01*
X154764452Y-103467371D01*
X154759375Y-103486323D01*
X154759375Y-103505945D01*
X154749569Y-103522928D01*
X154744495Y-103541872D01*
X154720811Y-103572740D01*
X154540051Y-103753500D01*
X154274077Y-104019474D01*
X154274077Y-104019475D01*
X154318645Y-104051856D01*
X154500967Y-104144753D01*
X154500977Y-104144757D01*
X154500981Y-104144759D01*
X154500984Y-104144760D01*
X154601666Y-104177473D01*
X154695583Y-104207989D01*
X154897693Y-104240000D01*
X155102303Y-104240000D01*
X155102307Y-104240000D01*
X155304416Y-104207989D01*
X155499020Y-104144758D01*
X155499038Y-104144751D01*
X155681345Y-104051861D01*
X155681352Y-104051857D01*
X155725921Y-104019475D01*
X155725921Y-104019474D01*
X155279187Y-103572740D01*
X155240624Y-103505946D01*
X155240624Y-103428818D01*
X155279188Y-103362023D01*
X155293059Y-103348151D01*
X155307007Y-103340099D01*
X155400099Y-103247007D01*
X155408151Y-103233059D01*
X155422023Y-103219188D01*
X155439010Y-103209380D01*
X155452881Y-103195510D01*
X155471828Y-103190432D01*
X155488818Y-103180624D01*
X155508433Y-103180624D01*
X155527380Y-103175547D01*
X155546329Y-103180624D01*
X155565946Y-103180624D01*
X155582932Y-103190431D01*
X155601881Y-103195508D01*
X155632741Y-103219188D01*
X156079474Y-103665921D01*
X156079475Y-103665921D01*
X156111857Y-103621352D01*
X156111861Y-103621345D01*
X156204751Y-103439038D01*
X156204758Y-103439020D01*
X156267990Y-103244415D01*
X156288168Y-103117009D01*
X156291159Y-103109786D01*
X156299213Y-103079720D01*
X156303346Y-103070436D01*
X156311757Y-103060050D01*
X156314780Y-103052752D01*
X156320214Y-103045271D01*
X156330420Y-103037004D01*
X156351884Y-103010499D01*
X156373287Y-103002283D01*
X156380148Y-102996726D01*
X156393119Y-102994670D01*
X156423889Y-102982859D01*
X156445773Y-102986325D01*
X156456325Y-102984653D01*
X156471163Y-102990346D01*
X156500067Y-102994925D01*
X156515353Y-103007304D01*
X156528334Y-103012285D01*
X156541352Y-103028357D01*
X156560007Y-103043464D01*
X156560011Y-103043469D01*
X156561315Y-103045264D01*
X156568673Y-103062088D01*
X156576879Y-103072219D01*
X156579023Y-103085752D01*
X156586904Y-103103769D01*
X156608141Y-103210538D01*
X156608143Y-103210543D01*
X156676040Y-103374462D01*
X156676041Y-103374464D01*
X156678057Y-103379332D01*
X156707210Y-103422962D01*
X156779564Y-103531247D01*
X156908753Y-103660436D01*
X157060664Y-103761940D01*
X157060666Y-103761941D01*
X157060668Y-103761942D01*
X157085386Y-103772180D01*
X157110101Y-103782418D01*
X157110104Y-103782418D01*
X157110105Y-103782419D01*
X157229458Y-103831857D01*
X157408649Y-103867500D01*
X157591350Y-103867500D01*
X157591351Y-103867500D01*
X157770542Y-103831857D01*
X157939336Y-103761940D01*
X158091247Y-103660436D01*
X158220436Y-103531247D01*
X158321940Y-103379336D01*
X158321942Y-103379330D01*
X158321944Y-103379328D01*
X158321947Y-103379320D01*
X158322781Y-103377618D01*
X158323957Y-103374467D01*
X158354837Y-103299915D01*
X158374277Y-103266243D01*
X158382728Y-103255229D01*
X158443914Y-103208278D01*
X158520382Y-103198209D01*
X158591636Y-103227721D01*
X158591640Y-103227724D01*
X158594588Y-103229986D01*
X158641541Y-103291174D01*
X158676040Y-103374464D01*
X158676042Y-103374467D01*
X158677515Y-103378413D01*
X158679477Y-103381735D01*
X158681602Y-103384637D01*
X158779564Y-103531247D01*
X158908753Y-103660436D01*
X159060664Y-103761940D01*
X159079041Y-103774219D01*
X159078489Y-103775043D01*
X159089335Y-103780614D01*
X159093696Y-103783960D01*
X159140651Y-103845148D01*
X159150722Y-103921616D01*
X159121210Y-103992874D01*
X159060065Y-104039812D01*
X159058009Y-104040664D01*
X159056864Y-104041138D01*
X158999798Y-104052500D01*
X157970301Y-104052500D01*
X157874291Y-104078226D01*
X157826000Y-104106107D01*
X157788210Y-104127925D01*
X157787281Y-104128853D01*
X157787280Y-104128854D01*
X157787279Y-104128854D01*
X157787278Y-104128855D01*
X155284948Y-106631186D01*
X155284946Y-106631187D01*
X155267926Y-106648209D01*
X155267924Y-106648211D01*
X155218224Y-106734292D01*
X155218224Y-106734293D01*
X155204982Y-106783716D01*
X155204982Y-106783718D01*
X155201049Y-106798392D01*
X155201048Y-106798396D01*
X155192500Y-106830299D01*
X155192500Y-117060121D01*
X155187419Y-117098698D01*
X155184790Y-117108506D01*
X155146220Y-117175297D01*
X155079422Y-117213855D01*
X155002294Y-117213848D01*
X154935503Y-117175278D01*
X154896948Y-117108493D01*
X154894323Y-117098698D01*
X154872794Y-117018348D01*
X154861552Y-116976393D01*
X154792105Y-116856107D01*
X154792103Y-116856105D01*
X154790347Y-116853063D01*
X154788981Y-116851113D01*
X154786873Y-116847808D01*
X154786896Y-116847791D01*
X154781333Y-116838155D01*
X154779637Y-116836459D01*
X154774214Y-116827954D01*
X154772637Y-116822962D01*
X154762185Y-116804856D01*
X154758838Y-116796774D01*
X154747500Y-116739764D01*
X154747500Y-116531832D01*
X154752576Y-116493273D01*
X154759536Y-116467295D01*
X154759756Y-116466475D01*
X154788998Y-116415821D01*
X154786159Y-116413643D01*
X154792101Y-116405897D01*
X154792105Y-116405893D01*
X154861552Y-116285607D01*
X154897500Y-116151447D01*
X154897500Y-116012553D01*
X154889983Y-115984500D01*
X154861551Y-115878391D01*
X154861549Y-115878387D01*
X154842943Y-115846160D01*
X154842943Y-115846161D01*
X154792107Y-115758110D01*
X154792102Y-115758104D01*
X154693896Y-115659897D01*
X154599054Y-115605140D01*
X154573607Y-115590448D01*
X154439447Y-115554500D01*
X154300549Y-115554500D01*
X154194773Y-115582843D01*
X154194768Y-115582844D01*
X154166393Y-115590448D01*
X154166391Y-115590448D01*
X154166391Y-115590449D01*
X154140950Y-115605136D01*
X154140943Y-115605140D01*
X154046105Y-115659895D01*
X153947895Y-115758105D01*
X153878449Y-115878390D01*
X153878449Y-115878391D01*
X153842500Y-116012551D01*
X153842500Y-116151448D01*
X153843262Y-116154290D01*
X153878448Y-116285607D01*
X153904398Y-116330553D01*
X153911108Y-116342175D01*
X153951430Y-116412016D01*
X153954423Y-116416496D01*
X153963549Y-116432304D01*
X153963493Y-116432336D01*
X153977799Y-116457112D01*
X153981150Y-116465199D01*
X153992500Y-116522237D01*
X153992500Y-116623883D01*
X153987422Y-116662452D01*
X153983276Y-116677923D01*
X153944709Y-116744716D01*
X153877925Y-116783275D01*
X153862455Y-116787421D01*
X153823884Y-116792500D01*
X151790301Y-116792500D01*
X151694285Y-116818227D01*
X151674894Y-116829423D01*
X151608216Y-116867919D01*
X151608209Y-116867924D01*
X150568730Y-117907403D01*
X150537873Y-117931080D01*
X150525860Y-117938016D01*
X150451361Y-117957980D01*
X150376860Y-117938019D01*
X150322322Y-117883482D01*
X150322312Y-117883465D01*
X150320454Y-117880246D01*
X150300500Y-117805761D01*
X150300500Y-108801508D01*
X152220000Y-108801508D01*
X152220000Y-108809596D01*
X152220000Y-108998492D01*
X152258425Y-109191678D01*
X152258426Y-109191680D01*
X152258427Y-109191683D01*
X152258428Y-109191686D01*
X152258430Y-109191690D01*
X152258436Y-109191709D01*
X152333804Y-109373664D01*
X152333805Y-109373666D01*
X152333807Y-109373670D01*
X152357426Y-109409019D01*
X152715371Y-109051074D01*
X152782162Y-109012513D01*
X152859290Y-109012513D01*
X152926085Y-109051077D01*
X152939956Y-109064948D01*
X152959936Y-109099554D01*
X153020446Y-109160064D01*
X153055049Y-109180042D01*
X153068920Y-109193913D01*
X153078728Y-109210901D01*
X153092598Y-109224771D01*
X153097675Y-109243718D01*
X153107484Y-109260708D01*
X153107484Y-109280324D01*
X153112561Y-109299271D01*
X153107484Y-109318218D01*
X153107484Y-109337837D01*
X153097675Y-109354826D01*
X153092599Y-109373771D01*
X153068920Y-109404631D01*
X152705166Y-109768384D01*
X152705166Y-109768385D01*
X152701056Y-109793277D01*
X152688988Y-109832183D01*
X152684199Y-109842410D01*
X152663919Y-109872763D01*
X152663913Y-109872775D01*
X152617364Y-109985153D01*
X152616875Y-109986199D01*
X152616613Y-109986966D01*
X152592500Y-110108192D01*
X152592500Y-110231806D01*
X152616613Y-110353032D01*
X152616992Y-110354140D01*
X152617322Y-110354841D01*
X152617994Y-110356366D01*
X152663915Y-110467230D01*
X152663916Y-110467232D01*
X152663917Y-110467233D01*
X152732589Y-110570008D01*
X152732592Y-110570011D01*
X152819991Y-110657410D01*
X152832912Y-110666043D01*
X152839153Y-110670214D01*
X152868394Y-110695858D01*
X152878954Y-110707899D01*
X152913068Y-110777072D01*
X152908024Y-110854035D01*
X152908015Y-110854062D01*
X152907728Y-110854907D01*
X152872003Y-110912347D01*
X152865839Y-110918511D01*
X152843261Y-110937040D01*
X152819995Y-110952586D01*
X152819989Y-110952591D01*
X152732593Y-111039986D01*
X152732589Y-111039991D01*
X152663915Y-111142768D01*
X152663913Y-111142773D01*
X152618641Y-111252071D01*
X152617234Y-111255153D01*
X152616613Y-111256966D01*
X152592500Y-111378192D01*
X152592500Y-111501806D01*
X152616613Y-111623032D01*
X152616909Y-111623897D01*
X152617536Y-111625261D01*
X152663913Y-111737224D01*
X152663918Y-111737235D01*
X152680419Y-111761930D01*
X152685345Y-111772636D01*
X152686068Y-111776864D01*
X152691077Y-111787021D01*
X152701252Y-111816995D01*
X152703447Y-111831005D01*
X152709489Y-111845936D01*
X153068921Y-112205368D01*
X153107485Y-112272163D01*
X153107485Y-112349291D01*
X153068921Y-112416086D01*
X153055049Y-112429957D01*
X153020446Y-112449936D01*
X152959936Y-112510446D01*
X152939957Y-112545049D01*
X152926086Y-112558921D01*
X152909096Y-112568730D01*
X152895226Y-112582600D01*
X152876279Y-112587676D01*
X152859291Y-112597485D01*
X152839674Y-112597485D01*
X152820726Y-112602562D01*
X152801779Y-112597485D01*
X152782163Y-112597485D01*
X152765173Y-112587676D01*
X152746226Y-112582599D01*
X152715368Y-112558921D01*
X152357426Y-112200979D01*
X152357425Y-112200979D01*
X152339635Y-112227604D01*
X152333810Y-112236323D01*
X152333805Y-112236331D01*
X152260455Y-112413418D01*
X152259050Y-112416495D01*
X152258427Y-112418316D01*
X152220000Y-112611507D01*
X152220000Y-112808492D01*
X152258425Y-113001678D01*
X152258426Y-113001680D01*
X152258427Y-113001683D01*
X152258428Y-113001686D01*
X152258430Y-113001690D01*
X152258436Y-113001709D01*
X152333804Y-113183664D01*
X152333805Y-113183666D01*
X152333807Y-113183670D01*
X152357426Y-113219019D01*
X152715371Y-112861074D01*
X152782162Y-112822513D01*
X152859290Y-112822513D01*
X152926085Y-112861077D01*
X152939956Y-112874948D01*
X152959936Y-112909554D01*
X153020446Y-112970064D01*
X153055049Y-112990042D01*
X153068920Y-113003913D01*
X153078728Y-113020901D01*
X153092598Y-113034771D01*
X153097675Y-113053718D01*
X153107484Y-113070708D01*
X153107484Y-113090324D01*
X153112561Y-113109271D01*
X153107484Y-113128218D01*
X153107484Y-113147837D01*
X153097675Y-113164826D01*
X153092599Y-113183771D01*
X153068920Y-113214631D01*
X152705166Y-113578384D01*
X152705166Y-113578385D01*
X152701056Y-113603277D01*
X152688988Y-113642183D01*
X152684199Y-113652410D01*
X152663919Y-113682763D01*
X152663913Y-113682775D01*
X152617364Y-113795153D01*
X152616875Y-113796199D01*
X152616613Y-113796966D01*
X152592500Y-113918192D01*
X152592500Y-114041806D01*
X152616613Y-114163032D01*
X152616992Y-114164140D01*
X152617322Y-114164841D01*
X152617994Y-114166366D01*
X152663915Y-114277230D01*
X152663916Y-114277232D01*
X152663917Y-114277233D01*
X152732589Y-114380008D01*
X152819992Y-114467411D01*
X152922767Y-114536083D01*
X152922768Y-114536083D01*
X152922769Y-114536084D01*
X152973328Y-114557026D01*
X153036965Y-114583385D01*
X153158197Y-114607500D01*
X153158201Y-114607500D01*
X153281799Y-114607500D01*
X153281803Y-114607500D01*
X153403035Y-114583385D01*
X153517233Y-114536083D01*
X153620008Y-114467411D01*
X153707411Y-114380008D01*
X153776083Y-114277233D01*
X153823385Y-114163035D01*
X153847500Y-114041803D01*
X153847500Y-113918197D01*
X153823385Y-113796965D01*
X153776083Y-113682767D01*
X153766122Y-113667859D01*
X153748920Y-113632977D01*
X153738743Y-113602995D01*
X153736549Y-113588990D01*
X153730508Y-113574061D01*
X153371078Y-113214631D01*
X153332514Y-113147836D01*
X153332514Y-113070708D01*
X153371078Y-113003913D01*
X153384945Y-112990045D01*
X153419554Y-112970064D01*
X153480064Y-112909554D01*
X153500045Y-112874945D01*
X153513913Y-112861078D01*
X153530898Y-112851271D01*
X153544767Y-112837402D01*
X153563717Y-112832323D01*
X153580708Y-112822514D01*
X153600321Y-112822514D01*
X153619266Y-112817437D01*
X153638217Y-112822514D01*
X153657836Y-112822514D01*
X153674821Y-112832320D01*
X153693767Y-112837396D01*
X153724631Y-112861078D01*
X154082572Y-113219019D01*
X154106188Y-113183678D01*
X154106193Y-113183668D01*
X154181569Y-113001692D01*
X154181571Y-113001686D01*
X154220000Y-112808491D01*
X154220000Y-112611508D01*
X154181571Y-112418313D01*
X154181569Y-112418307D01*
X154106192Y-112236328D01*
X154106187Y-112236318D01*
X154082573Y-112200979D01*
X154082572Y-112200979D01*
X153724631Y-112558920D01*
X153657836Y-112597484D01*
X153580708Y-112597484D01*
X153513913Y-112558920D01*
X153500042Y-112545049D01*
X153480064Y-112510446D01*
X153419554Y-112449936D01*
X153384948Y-112429956D01*
X153371077Y-112416085D01*
X153361268Y-112399096D01*
X153347398Y-112385226D01*
X153342321Y-112366279D01*
X153332513Y-112349291D01*
X153332513Y-112329673D01*
X153327436Y-112310726D01*
X153332513Y-112291778D01*
X153332513Y-112272162D01*
X153342320Y-112255174D01*
X153347398Y-112236226D01*
X153371073Y-112205371D01*
X153734831Y-111841614D01*
X153738940Y-111816724D01*
X153762063Y-111758213D01*
X153776083Y-111737233D01*
X153823385Y-111623035D01*
X153847500Y-111501803D01*
X153847500Y-111378197D01*
X153823385Y-111256965D01*
X153789962Y-111176275D01*
X153776084Y-111142769D01*
X153776083Y-111142767D01*
X153707411Y-111039992D01*
X153620008Y-110952589D01*
X153619750Y-110952416D01*
X153600843Y-110939783D01*
X153571607Y-110914144D01*
X153570031Y-110912347D01*
X153561046Y-110902102D01*
X153526931Y-110832933D01*
X153531972Y-110755970D01*
X153531983Y-110755938D01*
X153532270Y-110755093D01*
X153567993Y-110697655D01*
X153574167Y-110691481D01*
X153596738Y-110672959D01*
X153620008Y-110657411D01*
X153707411Y-110570008D01*
X153776083Y-110467233D01*
X153823385Y-110353035D01*
X153847500Y-110231803D01*
X153847500Y-110108197D01*
X153823385Y-109986965D01*
X153776083Y-109872767D01*
X153766122Y-109857859D01*
X153748920Y-109822977D01*
X153738743Y-109792995D01*
X153736549Y-109778990D01*
X153730508Y-109764061D01*
X153371078Y-109404631D01*
X153332514Y-109337836D01*
X153332514Y-109260708D01*
X153371078Y-109193913D01*
X153384945Y-109180045D01*
X153419554Y-109160064D01*
X153480064Y-109099554D01*
X153500045Y-109064945D01*
X153513913Y-109051078D01*
X153530898Y-109041271D01*
X153544767Y-109027402D01*
X153563717Y-109022323D01*
X153580708Y-109012514D01*
X153600321Y-109012514D01*
X153619266Y-109007437D01*
X153638217Y-109012514D01*
X153657836Y-109012514D01*
X153674821Y-109022320D01*
X153693767Y-109027396D01*
X153724631Y-109051078D01*
X154082572Y-109409019D01*
X154106188Y-109373678D01*
X154106193Y-109373668D01*
X154181569Y-109191692D01*
X154181571Y-109191686D01*
X154220000Y-108998491D01*
X154220000Y-108801508D01*
X154181571Y-108608313D01*
X154181569Y-108608307D01*
X154106192Y-108426328D01*
X154106187Y-108426318D01*
X154082573Y-108390979D01*
X154082572Y-108390979D01*
X153724631Y-108748920D01*
X153657836Y-108787484D01*
X153580708Y-108787484D01*
X153513913Y-108748920D01*
X153500042Y-108735049D01*
X153480064Y-108700446D01*
X153419554Y-108639936D01*
X153384950Y-108619957D01*
X153371078Y-108606085D01*
X153361269Y-108589095D01*
X153347398Y-108575224D01*
X153342321Y-108556277D01*
X153332514Y-108539290D01*
X153332514Y-108519672D01*
X153327437Y-108500723D01*
X153332514Y-108481776D01*
X153332514Y-108462162D01*
X153342322Y-108445173D01*
X153347400Y-108426224D01*
X153371073Y-108395372D01*
X153451439Y-108315007D01*
X153482292Y-108291333D01*
X153506321Y-108277460D01*
X153580819Y-108257500D01*
X153732554Y-108257500D01*
X153732558Y-108257500D01*
X153769748Y-108250102D01*
X153811922Y-108221922D01*
X153840102Y-108179748D01*
X153847500Y-108142558D01*
X153847500Y-107117442D01*
X153840102Y-107080252D01*
X153840100Y-107080249D01*
X153840100Y-107080248D01*
X153811926Y-107038083D01*
X153811924Y-107038081D01*
X153811922Y-107038078D01*
X153811920Y-107038076D01*
X153811916Y-107038073D01*
X153769755Y-107009902D01*
X153769746Y-107009897D01*
X153765498Y-107009052D01*
X153732561Y-107002500D01*
X153732559Y-107002500D01*
X152707439Y-107002500D01*
X152707438Y-107002500D01*
X152688845Y-107006198D01*
X152670252Y-107009897D01*
X152670243Y-107009902D01*
X152628082Y-107038073D01*
X152628077Y-107038077D01*
X152628073Y-107038082D01*
X152599902Y-107080243D01*
X152599897Y-107080252D01*
X152597541Y-107092096D01*
X152592500Y-107117438D01*
X152592500Y-108142561D01*
X152599897Y-108179746D01*
X152599902Y-108179755D01*
X152628073Y-108221916D01*
X152628076Y-108221920D01*
X152628078Y-108221922D01*
X152628081Y-108221924D01*
X152628083Y-108221926D01*
X152670248Y-108250100D01*
X152670250Y-108250101D01*
X152670252Y-108250102D01*
X152707442Y-108257500D01*
X152707446Y-108257500D01*
X152849719Y-108257500D01*
X152888278Y-108262575D01*
X152915077Y-108269756D01*
X152981870Y-108308318D01*
X152981872Y-108308319D01*
X153068920Y-108395367D01*
X153107485Y-108462161D01*
X153107485Y-108539289D01*
X153068922Y-108606084D01*
X153038066Y-108629761D01*
X153020455Y-108639929D01*
X153020448Y-108639934D01*
X152959934Y-108700448D01*
X152959931Y-108700452D01*
X152949764Y-108718063D01*
X152895226Y-108772600D01*
X152820726Y-108792562D01*
X152746226Y-108772599D01*
X152715368Y-108748921D01*
X152357426Y-108390979D01*
X152357425Y-108390979D01*
X152339635Y-108417604D01*
X152333810Y-108426323D01*
X152333805Y-108426331D01*
X152265792Y-108590532D01*
X152265790Y-108590537D01*
X152258429Y-108608311D01*
X152258428Y-108608313D01*
X152220000Y-108801508D01*
X150300500Y-108801508D01*
X150300500Y-102877230D01*
X150305575Y-102838672D01*
X150307350Y-102832048D01*
X150309722Y-102823196D01*
X150348282Y-102756404D01*
X150390436Y-102732063D01*
X150389252Y-102730013D01*
X150406237Y-102720205D01*
X150406239Y-102720205D01*
X150975400Y-102151042D01*
X151042195Y-102112479D01*
X151119323Y-102112479D01*
X151186118Y-102151043D01*
G37*
%TD.AperFunction*%
%TA.AperFunction,Conductor*%
G36*
X157927030Y-105216854D02*
G01*
X157981569Y-105271390D01*
X158001436Y-105340524D01*
X158001728Y-105348623D01*
X157996748Y-105392556D01*
X157972500Y-105483049D01*
X157971226Y-105492732D01*
X157967846Y-105492287D01*
X157955133Y-105543391D01*
X157942895Y-105566466D01*
X157916621Y-105602013D01*
X157327922Y-106190713D01*
X157327918Y-106190719D01*
X157278228Y-106276783D01*
X157278227Y-106276788D01*
X157278226Y-106276792D01*
X157252500Y-106372800D01*
X157252500Y-111460167D01*
X157247422Y-111498735D01*
X157240244Y-111525521D01*
X157211026Y-111576169D01*
X157213856Y-111578342D01*
X157207895Y-111586105D01*
X157140337Y-111703119D01*
X157140338Y-111703120D01*
X157138448Y-111706392D01*
X157138446Y-111706397D01*
X157130183Y-111737233D01*
X157130184Y-111737234D01*
X157102500Y-111840550D01*
X157102500Y-111979451D01*
X157112132Y-112015396D01*
X157134135Y-112097513D01*
X157138448Y-112113607D01*
X157141966Y-112119700D01*
X157207895Y-112233893D01*
X157208784Y-112234782D01*
X157214240Y-112244179D01*
X157214259Y-112244249D01*
X157214421Y-112244492D01*
X157232537Y-112275869D01*
X157252500Y-112350368D01*
X157252500Y-113100167D01*
X157247423Y-113138731D01*
X157240243Y-113165527D01*
X157201679Y-113232322D01*
X157197895Y-113236105D01*
X157128455Y-113356379D01*
X157128446Y-113356397D01*
X157122789Y-113377507D01*
X157122790Y-113377508D01*
X157122789Y-113377511D01*
X157092500Y-113490551D01*
X157092500Y-113490552D01*
X157092500Y-113490555D01*
X157092500Y-113629448D01*
X157098422Y-113651549D01*
X157128448Y-113763607D01*
X157197895Y-113883893D01*
X157296107Y-113982105D01*
X157395777Y-114039649D01*
X157450315Y-114094187D01*
X157470277Y-114168687D01*
X157450315Y-114243187D01*
X157395777Y-114297725D01*
X157321277Y-114317687D01*
X157317117Y-114317629D01*
X156973164Y-114308021D01*
X156918845Y-114311782D01*
X156918835Y-114311783D01*
X156908483Y-114312500D01*
X156800553Y-114312500D01*
X156676506Y-114345738D01*
X156667451Y-114347007D01*
X156664531Y-114346647D01*
X156649400Y-114358258D01*
X156546105Y-114417895D01*
X156447894Y-114516106D01*
X156410491Y-114580890D01*
X156410489Y-114580895D01*
X156400903Y-114597500D01*
X156378448Y-114636393D01*
X156367217Y-114678308D01*
X156342500Y-114770551D01*
X156342500Y-114770553D01*
X156342500Y-114824605D01*
X156338316Y-114844137D01*
X156338311Y-114844156D01*
X156327555Y-114894369D01*
X156245153Y-116100451D01*
X156220159Y-116173417D01*
X156162031Y-116224111D01*
X156086344Y-116238948D01*
X156013378Y-116213954D01*
X155962684Y-116155826D01*
X155947500Y-116090295D01*
X155947500Y-107117699D01*
X155952576Y-107079140D01*
X155958973Y-107055263D01*
X155959756Y-107052342D01*
X155998317Y-106985548D01*
X156860224Y-106123641D01*
X157738080Y-105245783D01*
X157768927Y-105222113D01*
X157778033Y-105216856D01*
X157852530Y-105196893D01*
X157927030Y-105216854D01*
G37*
%TD.AperFunction*%
%TA.AperFunction,Conductor*%
G36*
X159840644Y-104812575D02*
G01*
X159867443Y-104819756D01*
X159918094Y-104848999D01*
X159920274Y-104846159D01*
X159928019Y-104852101D01*
X159928021Y-104852102D01*
X159928024Y-104852105D01*
X160048310Y-104921552D01*
X160182470Y-104957500D01*
X160321364Y-104957500D01*
X160321369Y-104957499D01*
X160339415Y-104952663D01*
X160377975Y-104947586D01*
X160395566Y-104947586D01*
X160470063Y-104967547D01*
X160470066Y-104967548D01*
X160470067Y-104967549D01*
X160485292Y-104976339D01*
X160516154Y-105000019D01*
X161064987Y-105548852D01*
X161088664Y-105579709D01*
X161102536Y-105603735D01*
X161117676Y-105660235D01*
X161121226Y-105659768D01*
X161122500Y-105669447D01*
X161158448Y-105803607D01*
X161227895Y-105923893D01*
X161326107Y-106022105D01*
X161446393Y-106091552D01*
X161580553Y-106127500D01*
X161719447Y-106127500D01*
X161853607Y-106091552D01*
X161973893Y-106022105D01*
X162072105Y-105923893D01*
X162074652Y-105919480D01*
X162098329Y-105888621D01*
X162105514Y-105881436D01*
X162172307Y-105842874D01*
X162249435Y-105842874D01*
X162316230Y-105881438D01*
X162354791Y-105948224D01*
X162354792Y-105948231D01*
X162354794Y-105948233D01*
X162354794Y-105948235D01*
X162357420Y-105958033D01*
X162362500Y-105996606D01*
X162362500Y-107482299D01*
X162357423Y-107520863D01*
X162350243Y-107547659D01*
X162311679Y-107614454D01*
X162081148Y-107844986D01*
X162058354Y-107863659D01*
X162054387Y-107866299D01*
X162050288Y-107868666D01*
X162049204Y-107869749D01*
X162042546Y-107874182D01*
X162037871Y-107875759D01*
X162017011Y-107887804D01*
X162008925Y-107891154D01*
X161951895Y-107902500D01*
X161917700Y-107902500D01*
X161879136Y-107897423D01*
X161852340Y-107890243D01*
X161785545Y-107851679D01*
X160691269Y-106757404D01*
X160667590Y-106726544D01*
X160644625Y-106686767D01*
X160641457Y-106680343D01*
X160582087Y-106577513D01*
X160582085Y-106577509D01*
X160502491Y-106497915D01*
X160405009Y-106441633D01*
X160367563Y-106431598D01*
X160331631Y-106416715D01*
X160298812Y-106397767D01*
X160267953Y-106374088D01*
X159144291Y-105250426D01*
X159144286Y-105250422D01*
X159101250Y-105225575D01*
X159075197Y-105210533D01*
X159067348Y-105204511D01*
X159049071Y-105196940D01*
X159039263Y-105195649D01*
X158962202Y-105175000D01*
X158962199Y-105175000D01*
X158949832Y-105175000D01*
X158911268Y-105169923D01*
X158884472Y-105162743D01*
X158833822Y-105133500D01*
X158831643Y-105136341D01*
X158823894Y-105130395D01*
X158760903Y-105094028D01*
X158725718Y-105065837D01*
X158722513Y-105062352D01*
X158720423Y-105060079D01*
X158684695Y-104991725D01*
X158687931Y-104914665D01*
X158729263Y-104849547D01*
X158791554Y-104815308D01*
X158801572Y-104812624D01*
X158801760Y-104812574D01*
X158840312Y-104807500D01*
X159802085Y-104807500D01*
X159840644Y-104812575D01*
G37*
%TD.AperFunction*%
%TD*%
%TA.AperFunction,Conductor*%
%TO.N,VSYS*%
G36*
X159157400Y-114005084D02*
G01*
X159185759Y-114026481D01*
X160160009Y-115010009D01*
X161531218Y-116332594D01*
X161565804Y-116393302D01*
X161569116Y-116423876D01*
X161541978Y-118079301D01*
X161521198Y-118146008D01*
X161467651Y-118190892D01*
X161419291Y-118201261D01*
X158719610Y-118229481D01*
X158652369Y-118210498D01*
X158633723Y-118196154D01*
X156773142Y-116460251D01*
X156737553Y-116400125D01*
X156734021Y-116361139D01*
X156831881Y-114928823D01*
X156856090Y-114863283D01*
X156911890Y-114821234D01*
X156959052Y-114813325D01*
X157914000Y-114840000D01*
X159023637Y-114014266D01*
X159089170Y-113990037D01*
X159157400Y-114005084D01*
G37*
%TD.AperFunction*%
%TD*%
%TA.AperFunction,Conductor*%
%TO.N,+3V3*%
G36*
X154171424Y-128946050D02*
G01*
X155044154Y-129818781D01*
X155873767Y-130648394D01*
X155907252Y-130709717D01*
X155910066Y-130738313D01*
X155893556Y-131652972D01*
X155872665Y-131719645D01*
X155819043Y-131764440D01*
X155749717Y-131773133D01*
X155713912Y-131761538D01*
X153856366Y-130828364D01*
X153805297Y-130780680D01*
X153788116Y-130712955D01*
X153788670Y-130704980D01*
X153794441Y-130648394D01*
X153960385Y-129021149D01*
X153986768Y-128956455D01*
X154043942Y-128916294D01*
X154113752Y-128913418D01*
X154171424Y-128946050D01*
G37*
%TD.AperFunction*%
%TA.AperFunction,Conductor*%
G36*
X155899065Y-128086685D02*
G01*
X155944820Y-128139489D01*
X155956006Y-128193238D01*
X155935215Y-129345007D01*
X155914323Y-129411680D01*
X155860702Y-129456475D01*
X155791376Y-129465168D01*
X155728354Y-129435001D01*
X155723566Y-129430462D01*
X154607280Y-128314176D01*
X154573796Y-128252854D01*
X154578780Y-128183162D01*
X154620652Y-128127229D01*
X154686116Y-128102812D01*
X154694962Y-128102496D01*
X155215839Y-128102496D01*
X155277840Y-128119109D01*
X155316772Y-128141587D01*
X155328805Y-128148534D01*
X155437533Y-128177667D01*
X155437535Y-128177667D01*
X155550093Y-128177667D01*
X155550095Y-128177667D01*
X155658823Y-128148534D01*
X155756305Y-128092252D01*
X155756306Y-128092250D01*
X155763343Y-128088188D01*
X155764064Y-128089437D01*
X155777138Y-128084382D01*
X155796371Y-128072023D01*
X155816646Y-128069107D01*
X155820986Y-128067430D01*
X155831306Y-128067000D01*
X155832026Y-128067000D01*
X155899065Y-128086685D01*
G37*
%TD.AperFunction*%
%TA.AperFunction,Conductor*%
G36*
X155820930Y-125805332D02*
G01*
X155876863Y-125847204D01*
X155897369Y-125889418D01*
X155906793Y-125924586D01*
X155906793Y-125924587D01*
X155906794Y-125924589D01*
X155959521Y-126015914D01*
X156039834Y-126096227D01*
X156038584Y-126097476D01*
X156073900Y-126145846D01*
X156078052Y-126215592D01*
X156043836Y-126276511D01*
X155999577Y-126299996D01*
X155989999Y-126310000D01*
X155974111Y-127190238D01*
X155953220Y-127256911D01*
X155899598Y-127301706D01*
X155850131Y-127312000D01*
X155504781Y-127312000D01*
X155480740Y-127318442D01*
X155473751Y-127320099D01*
X155461329Y-127322667D01*
X155437533Y-127322667D01*
X155357171Y-127344199D01*
X155353647Y-127344928D01*
X155350196Y-127344645D01*
X155328543Y-127347496D01*
X154475615Y-127347496D01*
X154408576Y-127327811D01*
X154362821Y-127275007D01*
X154352877Y-127205849D01*
X154381902Y-127142293D01*
X154387934Y-127135815D01*
X154986240Y-126537509D01*
X155689917Y-125833831D01*
X155751238Y-125800348D01*
X155820930Y-125805332D01*
G37*
%TD.AperFunction*%
%TA.AperFunction,Conductor*%
G36*
X164246983Y-120214235D02*
G01*
X164260466Y-120213078D01*
X164279996Y-120223382D01*
X164301277Y-120229279D01*
X164310293Y-120239368D01*
X164322261Y-120245683D01*
X164333119Y-120264911D01*
X164347834Y-120281377D01*
X164349964Y-120294739D01*
X164356618Y-120306522D01*
X164355357Y-120328568D01*
X164358834Y-120350375D01*
X164353316Y-120364274D01*
X164352630Y-120376278D01*
X164336159Y-120407493D01*
X164245379Y-120532442D01*
X164148904Y-120721782D01*
X164083242Y-120923869D01*
X164083242Y-120923872D01*
X164050000Y-121133753D01*
X164050000Y-121346246D01*
X164083242Y-121556127D01*
X164083242Y-121556130D01*
X164148904Y-121758217D01*
X164245375Y-121947550D01*
X164284728Y-122001716D01*
X164917036Y-121369407D01*
X164934075Y-121432993D01*
X164999901Y-121547007D01*
X165092993Y-121640099D01*
X165207007Y-121705925D01*
X165270588Y-121722962D01*
X164638282Y-122355269D01*
X164638282Y-122355270D01*
X164692449Y-122394624D01*
X164793094Y-122445906D01*
X164843890Y-122493881D01*
X164860685Y-122561702D01*
X164838147Y-122627837D01*
X164813200Y-122654058D01*
X160525410Y-126008217D01*
X160460479Y-126034018D01*
X160456648Y-126034314D01*
X156654150Y-126269007D01*
X156586025Y-126253490D01*
X156537104Y-126203605D01*
X156522919Y-126135191D01*
X156547974Y-126069968D01*
X156558823Y-126057569D01*
X156600480Y-126015913D01*
X156653207Y-125924587D01*
X156680500Y-125822727D01*
X156680500Y-125717273D01*
X156653207Y-125615413D01*
X156600480Y-125524087D01*
X156525913Y-125449520D01*
X156434587Y-125396793D01*
X156434586Y-125396792D01*
X156434582Y-125396791D01*
X156399419Y-125387369D01*
X156339759Y-125351004D01*
X156309231Y-125288156D01*
X156317526Y-125218781D01*
X156343830Y-125179918D01*
X157169931Y-124353819D01*
X157196858Y-124339115D01*
X157222677Y-124322523D01*
X157228877Y-124321631D01*
X157231254Y-124320334D01*
X157257612Y-124317500D01*
X157260140Y-124317500D01*
X157327179Y-124337185D01*
X157347821Y-124353819D01*
X157356107Y-124362105D01*
X157476393Y-124431552D01*
X157610553Y-124467500D01*
X157610555Y-124467500D01*
X157749445Y-124467500D01*
X157749447Y-124467500D01*
X157883607Y-124431552D01*
X158003893Y-124362105D01*
X158102105Y-124263893D01*
X158158824Y-124165651D01*
X158209389Y-124117438D01*
X158277996Y-124104214D01*
X158342861Y-124130182D01*
X158373595Y-124165650D01*
X158379520Y-124175913D01*
X158454087Y-124250480D01*
X158545413Y-124303207D01*
X158647273Y-124330500D01*
X158647275Y-124330500D01*
X158752725Y-124330500D01*
X158752727Y-124330500D01*
X158854587Y-124303207D01*
X158945913Y-124250480D01*
X159020480Y-124175913D01*
X159073207Y-124084587D01*
X159100500Y-123982727D01*
X159100500Y-123877273D01*
X159073207Y-123775413D01*
X159020480Y-123684087D01*
X158945913Y-123609520D01*
X158854587Y-123556793D01*
X158752727Y-123529500D01*
X158647273Y-123529500D01*
X158545413Y-123556793D01*
X158545410Y-123556794D01*
X158454085Y-123609521D01*
X158379520Y-123684086D01*
X158367821Y-123704349D01*
X158317253Y-123752563D01*
X158248645Y-123765784D01*
X158183781Y-123739814D01*
X158153051Y-123704348D01*
X158102105Y-123616107D01*
X158003893Y-123517895D01*
X158003892Y-123517894D01*
X158003889Y-123517892D01*
X157883609Y-123448449D01*
X157883608Y-123448448D01*
X157883607Y-123448448D01*
X157749447Y-123412500D01*
X157610553Y-123412500D01*
X157476393Y-123448448D01*
X157476390Y-123448449D01*
X157356110Y-123517892D01*
X157356105Y-123517896D01*
X157347821Y-123526181D01*
X157286498Y-123559666D01*
X157260140Y-123562500D01*
X157000185Y-123562500D01*
X156904174Y-123588226D01*
X156904167Y-123588229D01*
X156818100Y-123637919D01*
X156818092Y-123637925D01*
X154493573Y-125962443D01*
X154432250Y-125995928D01*
X154362558Y-125990944D01*
X154306625Y-125949072D01*
X154282208Y-125883608D01*
X154282532Y-125862182D01*
X154284060Y-125847204D01*
X154428426Y-124431551D01*
X154450000Y-124220002D01*
X154449999Y-124219996D01*
X154438514Y-124165654D01*
X154266240Y-123350500D01*
X154174156Y-122914786D01*
X154170455Y-122897273D01*
X159799500Y-122897273D01*
X159799500Y-123002727D01*
X159826793Y-123104587D01*
X159879520Y-123195913D01*
X159954087Y-123270480D01*
X160045413Y-123323207D01*
X160147273Y-123350500D01*
X160147275Y-123350500D01*
X160252725Y-123350500D01*
X160252727Y-123350500D01*
X160354587Y-123323207D01*
X160445913Y-123270480D01*
X160520480Y-123195913D01*
X160573207Y-123104587D01*
X160600500Y-123002727D01*
X160600500Y-122897273D01*
X160573207Y-122795413D01*
X160520480Y-122704087D01*
X160445913Y-122629520D01*
X160354587Y-122576793D01*
X160252727Y-122549500D01*
X160147273Y-122549500D01*
X160045413Y-122576793D01*
X160045410Y-122576794D01*
X159954085Y-122629521D01*
X159879521Y-122704085D01*
X159826794Y-122795410D01*
X159826793Y-122795413D01*
X159799500Y-122897273D01*
X154170455Y-122897273D01*
X154012786Y-122151232D01*
X154009085Y-122133719D01*
X162012500Y-122133719D01*
X162012500Y-122246280D01*
X162041633Y-122355010D01*
X162069774Y-122403750D01*
X162097915Y-122452491D01*
X162177509Y-122532085D01*
X162274991Y-122588367D01*
X162383719Y-122617500D01*
X162383721Y-122617500D01*
X162496279Y-122617500D01*
X162496281Y-122617500D01*
X162605009Y-122588367D01*
X162702491Y-122532085D01*
X162782085Y-122452491D01*
X162838367Y-122355009D01*
X162867500Y-122246281D01*
X162867500Y-122133719D01*
X162838367Y-122024991D01*
X162782085Y-121927509D01*
X162702491Y-121847915D01*
X162653750Y-121819774D01*
X162605010Y-121791633D01*
X162550645Y-121777066D01*
X162496281Y-121762500D01*
X162383719Y-121762500D01*
X162274989Y-121791633D01*
X162177509Y-121847915D01*
X162177506Y-121847917D01*
X162097917Y-121927506D01*
X162097915Y-121927509D01*
X162041633Y-122024989D01*
X162012500Y-122133719D01*
X154009085Y-122133719D01*
X153887016Y-121556127D01*
X153661366Y-120488414D01*
X153666763Y-120418753D01*
X153708965Y-120363068D01*
X153774573Y-120339040D01*
X153781655Y-120338779D01*
X158162235Y-120303516D01*
X158162295Y-120303515D01*
X158162305Y-120303515D01*
X158473493Y-120298754D01*
X164233948Y-120210624D01*
X164246983Y-120214235D01*
G37*
%TD.AperFunction*%
%TD*%
M02*
