M48
; DRILL file KiCad 10.0.1 date 2026-07-01T20:36:17
; FORMAT={-:-/ absolute / metric / decimal}
; #@! TF.CreationDate,2026-07-01T20:36:17+02:00
; #@! TF.GenerationSoftware,Kicad,Pcbnew,10.0.1
; #@! TF.FileFunction,Plated,1,4,PTH
FMAT,2
METRIC
; #@! TA.AperFunction,Plated,PTH,ViaDrill
T1C0.300
; #@! TA.AperFunction,Plated,PTH,ComponentDrill
T2C0.300
; #@! TA.AperFunction,Plated,PTH,ViaDrill
T3C0.400
; #@! TA.AperFunction,Plated,PTH,ComponentDrill
T4C0.650
; #@! TA.AperFunction,Plated,PTH,ComponentDrill
T5C0.950
; #@! TA.AperFunction,Plated,PTH,ComponentDrill
T6C1.000
; #@! TA.AperFunction,Plated,PTH,ComponentDrill
T7C2.100
%
G90
G05
T1
X150.77Y-106.65
X151.0Y-154.0
X151.22Y-146.78
X151.31Y-134.48
X151.37Y-138.63
X151.49Y-139.69
X151.7Y-113.94
X151.83Y-118.58
X151.85Y-126.72
X151.85Y-130.82
X152.27Y-121.66
X152.42Y-131.824
X152.85Y-116.21
X153.265Y-127.725
X153.36Y-105.47
X153.46Y-143.575
X153.7Y-125.24
X153.7Y-138.1
X153.75Y-139.01
X153.78Y-128.94
X153.9Y-122.9
X154.39Y-110.8
X154.5Y-101.24
X154.64Y-142.43
X154.78Y-118.3
X154.87Y-131.825
X154.9Y-138.82
X154.9Y-140.76
X155.29Y-132.76
X155.34Y-119.9
X155.44Y-126.89
X155.494Y-127.75
X155.8Y-140.01
X156.12Y-132.76
X156.18Y-145.49
X156.28Y-125.77
X156.42Y-110.02
X156.48Y-131.15
X156.53Y-117.38
X156.73Y-137.42
X156.88Y-132.51
X157.08Y-141.09
X157.16Y-134.66
X157.26Y-148.52
X157.28Y-130.52
X157.94Y-132.88
X158.24Y-142.4
X158.5Y-109.652
X158.671Y-130.514
X158.7Y-123.93
X158.75Y-144.73
X158.82Y-118.34
X159.11Y-111.05
X159.114Y-112.36
X159.114Y-113.64
X159.17Y-142.49
X159.28Y-131.05
X159.82Y-148.46
X160.1Y-144.86
X160.2Y-122.95
X160.24Y-106.84
X160.25Y-114.84
X160.29Y-129.0
X160.47Y-137.32
X160.59Y-126.6
X160.7Y-127.4
X160.8Y-134.24
X160.84Y-128.387
X160.842Y-129.59
X160.86Y-138.58
X161.68Y-113.77
X161.75Y-142.64
X161.76Y-140.22
X161.81Y-132.37
X161.84Y-107.06
X162.12Y-109.27
X162.3Y-148.47
X162.41Y-101.36
X162.44Y-122.19
X162.68Y-132.38
X163.43Y-144.71
X163.5Y-143.573
X163.51Y-141.425
X163.74Y-103.62
X163.93Y-113.11
X164.0Y-126.8
X164.11Y-117.83
X164.832Y-134.62
X165.05Y-127.78
X165.69Y-146.96
X165.72Y-140.01
X165.79Y-130.08
X166.0Y-154.0
X166.06Y-139.156
X166.16Y-135.66
X166.16Y-137.86
X166.36Y-112.36
X166.39Y-109.82
X166.41Y-122.55
X166.42Y-125.13
X166.44Y-119.97
T2
X156.705Y-127.012
X156.705Y-128.387
X156.705Y-129.762
X158.08Y-127.012
X158.08Y-128.387
X158.08Y-129.762
X159.455Y-127.012
X159.455Y-128.387
X159.455Y-129.762
T3
X153.9Y-120.65
X154.37Y-116.082
X154.37Y-117.18
X155.46Y-128.6
X155.47Y-123.98
X155.53Y-117.78
X155.76Y-120.65
X156.35Y-118.39
X156.79Y-116.4
X156.87Y-114.84
X157.62Y-113.56
X157.62Y-115.65
X157.62Y-117.41
X157.63Y-111.91
X157.68Y-123.94
X158.1Y-125.887
X158.5Y-105.552
X158.62Y-120.65
X160.24Y-118.35
X160.252Y-104.43
X161.517Y-124.85
X161.62Y-111.05
X161.65Y-105.6
X161.69Y-112.35
X161.71Y-118.36
X161.73Y-120.65
T4
X153.22Y-107.63
X153.22Y-108.9
X153.22Y-110.17
X153.22Y-111.44
X153.22Y-112.71
X153.22Y-113.98
T5
X153.5Y-147.373
X156.0Y-147.373
X158.5Y-147.373
X161.0Y-147.373
X163.5Y-147.373
T6
X155.0Y-102.94
X157.5Y-102.94
X159.5Y-102.94
X162.0Y-102.94
X165.4Y-106.0
X165.4Y-108.54
X165.4Y-111.08
X165.4Y-113.62
X165.4Y-116.16
X165.4Y-118.7
X165.4Y-121.24
X165.4Y-123.78
X165.4Y-126.32
T7
X152.0Y-101.48
X165.0Y-101.48
M30
