%TF.GenerationSoftware,KiCad,Pcbnew,10.0.1*%
%TF.CreationDate,2026-07-01T20:36:16+02:00*%
%TF.ProjectId,Amiga-HID_rev1.1,416d6967-612d-4484-9944-5f726576312e,1.1*%
%TF.SameCoordinates,Original*%
%TF.FileFunction,Legend,Top*%
%TF.FilePolarity,Positive*%
%FSLAX46Y46*%
G04 Gerber Fmt 4.6, Leading zero omitted, Abs format (unit mm)*
G04 Created by KiCad (PCBNEW 10.0.1) date 2026-07-01 20:36:16*
%MOMM*%
%LPD*%
G01*
G04 APERTURE LIST*
G04 Aperture macros list*
%AMRoundRect*
0 Rectangle with rounded corners*
0 $1 Rounding radius*
0 $2 $3 $4 $5 $6 $7 $8 $9 X,Y pos of 4 corners*
0 Add a 4 corners polygon primitive as box body*
4,1,4,$2,$3,$4,$5,$6,$7,$8,$9,$2,$3,0*
0 Add four circle primitives for the rounded corners*
1,1,$1+$1,$2,$3*
1,1,$1+$1,$4,$5*
1,1,$1+$1,$6,$7*
1,1,$1+$1,$8,$9*
0 Add four rect primitives between the rounded corners*
20,1,$1+$1,$2,$3,$4,$5,0*
20,1,$1+$1,$4,$5,$6,$7,0*
20,1,$1+$1,$6,$7,$8,$9,0*
20,1,$1+$1,$8,$9,$2,$3,0*%
%AMFreePoly0*
4,1,23,0.550000,-0.750000,0.000000,-0.750000,0.000000,-0.745722,-0.065263,-0.745722,-0.191342,-0.711940,-0.304381,-0.646677,-0.396677,-0.554381,-0.461940,-0.441342,-0.495722,-0.315263,-0.495722,-0.250000,-0.500000,-0.250000,-0.500000,0.250000,-0.495722,0.250000,-0.495722,0.315263,-0.461940,0.441342,-0.396677,0.554381,-0.304381,0.646677,-0.191342,0.711940,-0.065263,0.745722,0.000000,0.745722,
0.000000,0.750000,0.550000,0.750000,0.550000,-0.750000,0.550000,-0.750000,$1*%
%AMFreePoly1*
4,1,23,0.000000,0.745722,0.065263,0.745722,0.191342,0.711940,0.304381,0.646677,0.396677,0.554381,0.461940,0.441342,0.495722,0.315263,0.495722,0.250000,0.500000,0.250000,0.500000,-0.250000,0.495722,-0.250000,0.495722,-0.315263,0.461940,-0.441342,0.396677,-0.554381,0.304381,-0.646677,0.191342,-0.711940,0.065263,-0.745722,0.000000,-0.745722,0.000000,-0.750000,-0.550000,-0.750000,
-0.550000,0.750000,0.000000,0.750000,0.000000,0.745722,0.000000,0.745722,$1*%
%AMFreePoly2*
4,1,18,-0.437500,0.050000,-0.433694,0.069134,-0.422855,0.085355,-0.406634,0.096194,-0.387500,0.100000,0.387500,0.100000,0.437500,0.050000,0.437500,-0.050000,0.433694,-0.069134,0.422855,-0.085355,0.406634,-0.096194,0.387500,-0.100000,-0.387500,-0.100000,-0.406634,-0.096194,-0.422855,-0.085355,-0.433694,-0.069134,-0.437500,-0.050000,-0.437500,0.050000,-0.437500,0.050000,$1*%
%AMFreePoly3*
4,1,18,-0.437500,0.050000,-0.433694,0.069134,-0.422855,0.085355,-0.406634,0.096194,-0.387500,0.100000,0.387500,0.100000,0.406634,0.096194,0.422855,0.085355,0.433694,0.069134,0.437500,0.050000,0.437500,-0.050000,0.387500,-0.100000,-0.387500,-0.100000,-0.406634,-0.096194,-0.422855,-0.085355,-0.433694,-0.069134,-0.437500,-0.050000,-0.437500,0.050000,-0.437500,0.050000,$1*%
%AMFreePoly4*
4,1,18,-0.100000,0.387500,-0.050000,0.437500,0.050000,0.437500,0.069134,0.433694,0.085355,0.422855,0.096194,0.406634,0.100000,0.387500,0.100000,-0.387500,0.096194,-0.406634,0.085355,-0.422855,0.069134,-0.433694,0.050000,-0.437500,-0.050000,-0.437500,-0.069134,-0.433694,-0.085355,-0.422855,-0.096194,-0.406634,-0.100000,-0.387500,-0.100000,0.387500,-0.100000,0.387500,$1*%
%AMFreePoly5*
4,1,18,-0.100000,0.387500,-0.096194,0.406634,-0.085355,0.422855,-0.069134,0.433694,-0.050000,0.437500,0.050000,0.437500,0.100000,0.387500,0.100000,-0.387500,0.096194,-0.406634,0.085355,-0.422855,0.069134,-0.433694,0.050000,-0.437500,-0.050000,-0.437500,-0.069134,-0.433694,-0.085355,-0.422855,-0.096194,-0.406634,-0.100000,-0.387500,-0.100000,0.387500,-0.100000,0.387500,$1*%
%AMFreePoly6*
4,1,18,-0.437500,0.050000,-0.433694,0.069134,-0.422855,0.085355,-0.406634,0.096194,-0.387500,0.100000,0.387500,0.100000,0.406634,0.096194,0.422855,0.085355,0.433694,0.069134,0.437500,0.050000,0.437500,-0.050000,0.433694,-0.069134,0.422855,-0.085355,0.406634,-0.096194,0.387500,-0.100000,-0.387500,-0.100000,-0.437500,-0.050000,-0.437500,0.050000,-0.437500,0.050000,$1*%
%AMFreePoly7*
4,1,18,-0.437500,0.050000,-0.387500,0.100000,0.387500,0.100000,0.406634,0.096194,0.422855,0.085355,0.433694,0.069134,0.437500,0.050000,0.437500,-0.050000,0.433694,-0.069134,0.422855,-0.085355,0.406634,-0.096194,0.387500,-0.100000,-0.387500,-0.100000,-0.406634,-0.096194,-0.422855,-0.085355,-0.433694,-0.069134,-0.437500,-0.050000,-0.437500,0.050000,-0.437500,0.050000,$1*%
%AMFreePoly8*
4,1,18,-0.100000,0.387500,-0.096194,0.406634,-0.085355,0.422855,-0.069134,0.433694,-0.050000,0.437500,0.050000,0.437500,0.069134,0.433694,0.085355,0.422855,0.096194,0.406634,0.100000,0.387500,0.100000,-0.387500,0.050000,-0.437500,-0.050000,-0.437500,-0.069134,-0.433694,-0.085355,-0.422855,-0.096194,-0.406634,-0.100000,-0.387500,-0.100000,0.387500,-0.100000,0.387500,$1*%
%AMFreePoly9*
4,1,18,-0.100000,0.387500,-0.096194,0.406634,-0.085355,0.422855,-0.069134,0.433694,-0.050000,0.437500,0.050000,0.437500,0.069134,0.433694,0.085355,0.422855,0.096194,0.406634,0.100000,0.387500,0.100000,-0.387500,0.096194,-0.406634,0.085355,-0.422855,0.069134,-0.433694,0.050000,-0.437500,-0.050000,-0.437500,-0.100000,-0.387500,-0.100000,0.387500,-0.100000,0.387500,$1*%
G04 Aperture macros list end*
%ADD10C,0.150000*%
%ADD11C,0.070000*%
%ADD12C,0.068750*%
%ADD13C,0.110000*%
%ADD14C,0.100000*%
%ADD15C,0.120000*%
%ADD16C,0.158750*%
%ADD17C,0.180000*%
%ADD18C,0.254000*%
%ADD19C,0.191421*%
%ADD20C,0.200000*%
%ADD21C,0.000000*%
%ADD22C,0.060000*%
%ADD23R,1.050000X0.650000*%
%ADD24R,1.700000X1.700000*%
%ADD25C,1.700000*%
%ADD26RoundRect,0.087500X-0.087500X0.537500X-0.087500X-0.537500X0.087500X-0.537500X0.087500X0.537500X0*%
%ADD27RoundRect,0.140000X0.140000X0.170000X-0.140000X0.170000X-0.140000X-0.170000X0.140000X-0.170000X0*%
%ADD28RoundRect,0.135000X-0.135000X-0.185000X0.135000X-0.185000X0.135000X0.185000X-0.135000X0.185000X0*%
%ADD29FreePoly0,270.000000*%
%ADD30R,1.500000X1.000000*%
%ADD31FreePoly1,270.000000*%
%ADD32RoundRect,0.218750X0.218750X0.256250X-0.218750X0.256250X-0.218750X-0.256250X0.218750X-0.256250X0*%
%ADD33FreePoly2,90.000000*%
%ADD34RoundRect,0.050000X0.050000X-0.387500X0.050000X0.387500X-0.050000X0.387500X-0.050000X-0.387500X0*%
%ADD35FreePoly3,90.000000*%
%ADD36FreePoly4,90.000000*%
%ADD37RoundRect,0.050000X0.387500X-0.050000X0.387500X0.050000X-0.387500X0.050000X-0.387500X-0.050000X0*%
%ADD38FreePoly5,90.000000*%
%ADD39FreePoly6,90.000000*%
%ADD40FreePoly7,90.000000*%
%ADD41FreePoly8,90.000000*%
%ADD42FreePoly9,90.000000*%
%ADD43RoundRect,0.153000X1.547000X1.547000X-1.547000X1.547000X-1.547000X-1.547000X1.547000X-1.547000X0*%
%ADD44RoundRect,0.150000X0.150000X-0.512500X0.150000X0.512500X-0.150000X0.512500X-0.150000X-0.512500X0*%
%ADD45R,1.700000X0.700000*%
%ADD46RoundRect,0.375000X0.625000X0.375000X-0.625000X0.375000X-0.625000X-0.375000X0.625000X-0.375000X0*%
%ADD47RoundRect,0.500000X0.500000X1.400000X-0.500000X1.400000X-0.500000X-1.400000X0.500000X-1.400000X0*%
%ADD48RoundRect,0.150000X-0.625000X0.150000X-0.625000X-0.150000X0.625000X-0.150000X0.625000X0.150000X0*%
%ADD49RoundRect,0.250000X-0.650000X0.350000X-0.650000X-0.350000X0.650000X-0.350000X0.650000X0.350000X0*%
%ADD50R,1.000000X1.000000*%
%ADD51C,1.000000*%
%ADD52RoundRect,0.150000X-0.650000X-0.150000X0.650000X-0.150000X0.650000X0.150000X-0.650000X0.150000X0*%
%ADD53R,1.400000X1.400000*%
%ADD54C,1.450000*%
%ADD55RoundRect,0.140000X-0.170000X0.140000X-0.170000X-0.140000X0.170000X-0.140000X0.170000X0.140000X0*%
%ADD56C,1.600000*%
%ADD57C,3.000000*%
%ADD58RoundRect,0.250000X-0.350000X0.450000X-0.350000X-0.450000X0.350000X-0.450000X0.350000X0.450000X0*%
%ADD59C,2.700000*%
G04 APERTURE END LIST*
D10*
X150620000Y-140860000D02*
G75*
G02*
X150474398Y-140860000I-72801J0D01*
G01*
X150474398Y-140860000D02*
G75*
G02*
X150620000Y-140860000I72801J0D01*
G01*
X154532801Y-132380000D02*
G75*
G02*
X154387199Y-132380000I-72801J0D01*
G01*
X154387199Y-132380000D02*
G75*
G02*
X154532801Y-132380000I72801J0D01*
G01*
X157740000Y-103940000D02*
X157950000Y-103940000D01*
X160500000Y-140870000D02*
G75*
G02*
X160354398Y-140870000I-72801J0D01*
G01*
X160354398Y-140870000D02*
G75*
G02*
X160500000Y-140870000I72801J0D01*
G01*
X162072801Y-104280000D02*
G75*
G02*
X161927199Y-104280000I-72801J0D01*
G01*
X161927199Y-104280000D02*
G75*
G02*
X162072801Y-104280000I72801J0D01*
G01*
X163010000Y-129160000D02*
G75*
G02*
X162864398Y-129160000I-72801J0D01*
G01*
X162864398Y-129160000D02*
G75*
G02*
X163010000Y-129160000I72801J0D01*
G01*
D11*
X157322242Y-142307407D02*
X157539385Y-142307407D01*
X157430813Y-142707407D02*
X157430813Y-142307407D01*
X157629861Y-142307407D02*
X157883195Y-142707407D01*
X157883195Y-142307407D02*
X157629861Y-142707407D01*
X158009861Y-142688360D02*
X158064147Y-142707407D01*
X158064147Y-142707407D02*
X158154623Y-142707407D01*
X158154623Y-142707407D02*
X158190814Y-142688360D01*
X158190814Y-142688360D02*
X158208909Y-142669312D01*
X158208909Y-142669312D02*
X158227004Y-142631217D01*
X158227004Y-142631217D02*
X158227004Y-142593121D01*
X158227004Y-142593121D02*
X158208909Y-142555026D01*
X158208909Y-142555026D02*
X158190814Y-142535979D01*
X158190814Y-142535979D02*
X158154623Y-142516931D01*
X158154623Y-142516931D02*
X158082242Y-142497883D01*
X158082242Y-142497883D02*
X158046052Y-142478836D01*
X158046052Y-142478836D02*
X158027957Y-142459788D01*
X158027957Y-142459788D02*
X158009861Y-142421693D01*
X158009861Y-142421693D02*
X158009861Y-142383598D01*
X158009861Y-142383598D02*
X158027957Y-142345502D01*
X158027957Y-142345502D02*
X158046052Y-142326455D01*
X158046052Y-142326455D02*
X158082242Y-142307407D01*
X158082242Y-142307407D02*
X158172719Y-142307407D01*
X158172719Y-142307407D02*
X158227004Y-142326455D01*
X158462243Y-142307407D02*
X158498433Y-142307407D01*
X158498433Y-142307407D02*
X158534624Y-142326455D01*
X158534624Y-142326455D02*
X158552719Y-142345502D01*
X158552719Y-142345502D02*
X158570814Y-142383598D01*
X158570814Y-142383598D02*
X158588909Y-142459788D01*
X158588909Y-142459788D02*
X158588909Y-142555026D01*
X158588909Y-142555026D02*
X158570814Y-142631217D01*
X158570814Y-142631217D02*
X158552719Y-142669312D01*
X158552719Y-142669312D02*
X158534624Y-142688360D01*
X158534624Y-142688360D02*
X158498433Y-142707407D01*
X158498433Y-142707407D02*
X158462243Y-142707407D01*
X158462243Y-142707407D02*
X158426052Y-142688360D01*
X158426052Y-142688360D02*
X158407957Y-142669312D01*
X158407957Y-142669312D02*
X158389862Y-142631217D01*
X158389862Y-142631217D02*
X158371766Y-142555026D01*
X158371766Y-142555026D02*
X158371766Y-142459788D01*
X158371766Y-142459788D02*
X158389862Y-142383598D01*
X158389862Y-142383598D02*
X158407957Y-142345502D01*
X158407957Y-142345502D02*
X158426052Y-142326455D01*
X158426052Y-142326455D02*
X158462243Y-142307407D01*
X158950814Y-142707407D02*
X158733671Y-142707407D01*
X158842243Y-142707407D02*
X158842243Y-142307407D01*
X158842243Y-142307407D02*
X158806052Y-142364550D01*
X158806052Y-142364550D02*
X158769862Y-142402645D01*
X158769862Y-142402645D02*
X158733671Y-142421693D01*
X159186053Y-142307407D02*
X159222243Y-142307407D01*
X159222243Y-142307407D02*
X159258434Y-142326455D01*
X159258434Y-142326455D02*
X159276529Y-142345502D01*
X159276529Y-142345502D02*
X159294624Y-142383598D01*
X159294624Y-142383598D02*
X159312719Y-142459788D01*
X159312719Y-142459788D02*
X159312719Y-142555026D01*
X159312719Y-142555026D02*
X159294624Y-142631217D01*
X159294624Y-142631217D02*
X159276529Y-142669312D01*
X159276529Y-142669312D02*
X159258434Y-142688360D01*
X159258434Y-142688360D02*
X159222243Y-142707407D01*
X159222243Y-142707407D02*
X159186053Y-142707407D01*
X159186053Y-142707407D02*
X159149862Y-142688360D01*
X159149862Y-142688360D02*
X159131767Y-142669312D01*
X159131767Y-142669312D02*
X159113672Y-142631217D01*
X159113672Y-142631217D02*
X159095576Y-142555026D01*
X159095576Y-142555026D02*
X159095576Y-142459788D01*
X159095576Y-142459788D02*
X159113672Y-142383598D01*
X159113672Y-142383598D02*
X159131767Y-142345502D01*
X159131767Y-142345502D02*
X159149862Y-142326455D01*
X159149862Y-142326455D02*
X159186053Y-142307407D01*
X159457481Y-142345502D02*
X159475577Y-142326455D01*
X159475577Y-142326455D02*
X159511767Y-142307407D01*
X159511767Y-142307407D02*
X159602243Y-142307407D01*
X159602243Y-142307407D02*
X159638434Y-142326455D01*
X159638434Y-142326455D02*
X159656529Y-142345502D01*
X159656529Y-142345502D02*
X159674624Y-142383598D01*
X159674624Y-142383598D02*
X159674624Y-142421693D01*
X159674624Y-142421693D02*
X159656529Y-142478836D01*
X159656529Y-142478836D02*
X159439386Y-142707407D01*
X159439386Y-142707407D02*
X159674624Y-142707407D01*
D12*
X157046428Y-107300865D02*
X157046428Y-107746103D01*
X157046428Y-107746103D02*
X157072618Y-107798484D01*
X157072618Y-107798484D02*
X157098809Y-107824675D01*
X157098809Y-107824675D02*
X157151190Y-107850865D01*
X157151190Y-107850865D02*
X157255952Y-107850865D01*
X157255952Y-107850865D02*
X157308333Y-107824675D01*
X157308333Y-107824675D02*
X157334523Y-107798484D01*
X157334523Y-107798484D02*
X157360714Y-107746103D01*
X157360714Y-107746103D02*
X157360714Y-107300865D01*
X157596427Y-107824675D02*
X157674999Y-107850865D01*
X157674999Y-107850865D02*
X157805951Y-107850865D01*
X157805951Y-107850865D02*
X157858332Y-107824675D01*
X157858332Y-107824675D02*
X157884523Y-107798484D01*
X157884523Y-107798484D02*
X157910713Y-107746103D01*
X157910713Y-107746103D02*
X157910713Y-107693722D01*
X157910713Y-107693722D02*
X157884523Y-107641341D01*
X157884523Y-107641341D02*
X157858332Y-107615151D01*
X157858332Y-107615151D02*
X157805951Y-107588960D01*
X157805951Y-107588960D02*
X157701189Y-107562770D01*
X157701189Y-107562770D02*
X157648808Y-107536579D01*
X157648808Y-107536579D02*
X157622618Y-107510389D01*
X157622618Y-107510389D02*
X157596427Y-107458008D01*
X157596427Y-107458008D02*
X157596427Y-107405627D01*
X157596427Y-107405627D02*
X157622618Y-107353246D01*
X157622618Y-107353246D02*
X157648808Y-107327055D01*
X157648808Y-107327055D02*
X157701189Y-107300865D01*
X157701189Y-107300865D02*
X157832142Y-107300865D01*
X157832142Y-107300865D02*
X157910713Y-107327055D01*
X158329761Y-107562770D02*
X158408333Y-107588960D01*
X158408333Y-107588960D02*
X158434523Y-107615151D01*
X158434523Y-107615151D02*
X158460714Y-107667532D01*
X158460714Y-107667532D02*
X158460714Y-107746103D01*
X158460714Y-107746103D02*
X158434523Y-107798484D01*
X158434523Y-107798484D02*
X158408333Y-107824675D01*
X158408333Y-107824675D02*
X158355952Y-107850865D01*
X158355952Y-107850865D02*
X158146428Y-107850865D01*
X158146428Y-107850865D02*
X158146428Y-107300865D01*
X158146428Y-107300865D02*
X158329761Y-107300865D01*
X158329761Y-107300865D02*
X158382142Y-107327055D01*
X158382142Y-107327055D02*
X158408333Y-107353246D01*
X158408333Y-107353246D02*
X158434523Y-107405627D01*
X158434523Y-107405627D02*
X158434523Y-107458008D01*
X158434523Y-107458008D02*
X158408333Y-107510389D01*
X158408333Y-107510389D02*
X158382142Y-107536579D01*
X158382142Y-107536579D02*
X158329761Y-107562770D01*
X158329761Y-107562770D02*
X158146428Y-107562770D01*
X158958333Y-107850865D02*
X158696428Y-107850865D01*
X158696428Y-107850865D02*
X158696428Y-107300865D01*
X159455952Y-107798484D02*
X159429761Y-107824675D01*
X159429761Y-107824675D02*
X159351190Y-107850865D01*
X159351190Y-107850865D02*
X159298809Y-107850865D01*
X159298809Y-107850865D02*
X159220237Y-107824675D01*
X159220237Y-107824675D02*
X159167856Y-107772294D01*
X159167856Y-107772294D02*
X159141666Y-107719913D01*
X159141666Y-107719913D02*
X159115475Y-107615151D01*
X159115475Y-107615151D02*
X159115475Y-107536579D01*
X159115475Y-107536579D02*
X159141666Y-107431817D01*
X159141666Y-107431817D02*
X159167856Y-107379436D01*
X159167856Y-107379436D02*
X159220237Y-107327055D01*
X159220237Y-107327055D02*
X159298809Y-107300865D01*
X159298809Y-107300865D02*
X159351190Y-107300865D01*
X159351190Y-107300865D02*
X159429761Y-107327055D01*
X159429761Y-107327055D02*
X159455952Y-107353246D01*
X159927380Y-107300865D02*
X159822618Y-107300865D01*
X159822618Y-107300865D02*
X159770237Y-107327055D01*
X159770237Y-107327055D02*
X159744047Y-107353246D01*
X159744047Y-107353246D02*
X159691666Y-107431817D01*
X159691666Y-107431817D02*
X159665475Y-107536579D01*
X159665475Y-107536579D02*
X159665475Y-107746103D01*
X159665475Y-107746103D02*
X159691666Y-107798484D01*
X159691666Y-107798484D02*
X159717856Y-107824675D01*
X159717856Y-107824675D02*
X159770237Y-107850865D01*
X159770237Y-107850865D02*
X159874999Y-107850865D01*
X159874999Y-107850865D02*
X159927380Y-107824675D01*
X159927380Y-107824675D02*
X159953571Y-107798484D01*
X159953571Y-107798484D02*
X159979761Y-107746103D01*
X159979761Y-107746103D02*
X159979761Y-107615151D01*
X159979761Y-107615151D02*
X159953571Y-107562770D01*
X159953571Y-107562770D02*
X159927380Y-107536579D01*
X159927380Y-107536579D02*
X159874999Y-107510389D01*
X159874999Y-107510389D02*
X159770237Y-107510389D01*
X159770237Y-107510389D02*
X159717856Y-107536579D01*
X159717856Y-107536579D02*
X159691666Y-107562770D01*
X159691666Y-107562770D02*
X159665475Y-107615151D01*
D13*
X155952368Y-138038613D02*
X156119034Y-138738613D01*
X156119034Y-138738613D02*
X156252368Y-138238613D01*
X156252368Y-138238613D02*
X156385701Y-138738613D01*
X156385701Y-138738613D02*
X156552368Y-138038613D01*
X156785701Y-138105280D02*
X156819034Y-138071946D01*
X156819034Y-138071946D02*
X156885701Y-138038613D01*
X156885701Y-138038613D02*
X157052368Y-138038613D01*
X157052368Y-138038613D02*
X157119034Y-138071946D01*
X157119034Y-138071946D02*
X157152368Y-138105280D01*
X157152368Y-138105280D02*
X157185701Y-138171946D01*
X157185701Y-138171946D02*
X157185701Y-138238613D01*
X157185701Y-138238613D02*
X157152368Y-138338613D01*
X157152368Y-138338613D02*
X156752368Y-138738613D01*
X156752368Y-138738613D02*
X157185701Y-138738613D01*
X157819035Y-138038613D02*
X157485701Y-138038613D01*
X157485701Y-138038613D02*
X157452368Y-138371946D01*
X157452368Y-138371946D02*
X157485701Y-138338613D01*
X157485701Y-138338613D02*
X157552368Y-138305280D01*
X157552368Y-138305280D02*
X157719035Y-138305280D01*
X157719035Y-138305280D02*
X157785701Y-138338613D01*
X157785701Y-138338613D02*
X157819035Y-138371946D01*
X157819035Y-138371946D02*
X157852368Y-138438613D01*
X157852368Y-138438613D02*
X157852368Y-138605280D01*
X157852368Y-138605280D02*
X157819035Y-138671946D01*
X157819035Y-138671946D02*
X157785701Y-138705280D01*
X157785701Y-138705280D02*
X157719035Y-138738613D01*
X157719035Y-138738613D02*
X157552368Y-138738613D01*
X157552368Y-138738613D02*
X157485701Y-138705280D01*
X157485701Y-138705280D02*
X157452368Y-138671946D01*
X158619035Y-138805280D02*
X158552368Y-138771946D01*
X158552368Y-138771946D02*
X158485702Y-138705280D01*
X158485702Y-138705280D02*
X158385702Y-138605280D01*
X158385702Y-138605280D02*
X158319035Y-138571946D01*
X158319035Y-138571946D02*
X158252368Y-138571946D01*
X158285702Y-138738613D02*
X158219035Y-138705280D01*
X158219035Y-138705280D02*
X158152368Y-138638613D01*
X158152368Y-138638613D02*
X158119035Y-138505280D01*
X158119035Y-138505280D02*
X158119035Y-138271946D01*
X158119035Y-138271946D02*
X158152368Y-138138613D01*
X158152368Y-138138613D02*
X158219035Y-138071946D01*
X158219035Y-138071946D02*
X158285702Y-138038613D01*
X158285702Y-138038613D02*
X158419035Y-138038613D01*
X158419035Y-138038613D02*
X158485702Y-138071946D01*
X158485702Y-138071946D02*
X158552368Y-138138613D01*
X158552368Y-138138613D02*
X158585702Y-138271946D01*
X158585702Y-138271946D02*
X158585702Y-138505280D01*
X158585702Y-138505280D02*
X158552368Y-138638613D01*
X158552368Y-138638613D02*
X158485702Y-138705280D01*
X158485702Y-138705280D02*
X158419035Y-138738613D01*
X158419035Y-138738613D02*
X158285702Y-138738613D01*
X159252368Y-138738613D02*
X158852368Y-138738613D01*
X159052368Y-138738613D02*
X159052368Y-138038613D01*
X159052368Y-138038613D02*
X158985701Y-138138613D01*
X158985701Y-138138613D02*
X158919035Y-138205280D01*
X158919035Y-138205280D02*
X158852368Y-138238613D01*
X159852368Y-138038613D02*
X159719035Y-138038613D01*
X159719035Y-138038613D02*
X159652368Y-138071946D01*
X159652368Y-138071946D02*
X159619035Y-138105280D01*
X159619035Y-138105280D02*
X159552368Y-138205280D01*
X159552368Y-138205280D02*
X159519035Y-138338613D01*
X159519035Y-138338613D02*
X159519035Y-138605280D01*
X159519035Y-138605280D02*
X159552368Y-138671946D01*
X159552368Y-138671946D02*
X159585702Y-138705280D01*
X159585702Y-138705280D02*
X159652368Y-138738613D01*
X159652368Y-138738613D02*
X159785702Y-138738613D01*
X159785702Y-138738613D02*
X159852368Y-138705280D01*
X159852368Y-138705280D02*
X159885702Y-138671946D01*
X159885702Y-138671946D02*
X159919035Y-138605280D01*
X159919035Y-138605280D02*
X159919035Y-138438613D01*
X159919035Y-138438613D02*
X159885702Y-138371946D01*
X159885702Y-138371946D02*
X159852368Y-138338613D01*
X159852368Y-138338613D02*
X159785702Y-138305280D01*
X159785702Y-138305280D02*
X159652368Y-138305280D01*
X159652368Y-138305280D02*
X159585702Y-138338613D01*
X159585702Y-138338613D02*
X159552368Y-138371946D01*
X159552368Y-138371946D02*
X159519035Y-138438613D01*
X160419035Y-138038613D02*
X160419035Y-138538613D01*
X160419035Y-138538613D02*
X160385702Y-138638613D01*
X160385702Y-138638613D02*
X160319035Y-138705280D01*
X160319035Y-138705280D02*
X160219035Y-138738613D01*
X160219035Y-138738613D02*
X160152369Y-138738613D01*
X160652368Y-138038613D02*
X160885702Y-138738613D01*
X160885702Y-138738613D02*
X161119035Y-138038613D01*
D14*
X156021428Y-119498368D02*
X156402381Y-119498368D01*
X155945238Y-119726940D02*
X156211905Y-118926940D01*
X156211905Y-118926940D02*
X156478571Y-119726940D01*
X156745238Y-119726940D02*
X156745238Y-118926940D01*
X156745238Y-118926940D02*
X157011904Y-119498368D01*
X157011904Y-119498368D02*
X157278571Y-118926940D01*
X157278571Y-118926940D02*
X157278571Y-119726940D01*
X157621428Y-119688845D02*
X157735714Y-119726940D01*
X157735714Y-119726940D02*
X157926190Y-119726940D01*
X157926190Y-119726940D02*
X158002381Y-119688845D01*
X158002381Y-119688845D02*
X158040476Y-119650749D01*
X158040476Y-119650749D02*
X158078571Y-119574559D01*
X158078571Y-119574559D02*
X158078571Y-119498368D01*
X158078571Y-119498368D02*
X158040476Y-119422178D01*
X158040476Y-119422178D02*
X158002381Y-119384083D01*
X158002381Y-119384083D02*
X157926190Y-119345987D01*
X157926190Y-119345987D02*
X157773809Y-119307892D01*
X157773809Y-119307892D02*
X157697619Y-119269797D01*
X157697619Y-119269797D02*
X157659524Y-119231702D01*
X157659524Y-119231702D02*
X157621428Y-119155511D01*
X157621428Y-119155511D02*
X157621428Y-119079321D01*
X157621428Y-119079321D02*
X157659524Y-119003130D01*
X157659524Y-119003130D02*
X157697619Y-118965035D01*
X157697619Y-118965035D02*
X157773809Y-118926940D01*
X157773809Y-118926940D02*
X157964286Y-118926940D01*
X157964286Y-118926940D02*
X158078571Y-118965035D01*
X156135713Y-121014895D02*
X155678570Y-121014895D01*
X155907142Y-121014895D02*
X155907142Y-120214895D01*
X155907142Y-120214895D02*
X155830951Y-120329180D01*
X155830951Y-120329180D02*
X155754761Y-120405371D01*
X155754761Y-120405371D02*
X155678570Y-120443466D01*
X156897618Y-121014895D02*
X156440475Y-121014895D01*
X156669047Y-121014895D02*
X156669047Y-120214895D01*
X156669047Y-120214895D02*
X156592856Y-120329180D01*
X156592856Y-120329180D02*
X156516666Y-120405371D01*
X156516666Y-120405371D02*
X156440475Y-120443466D01*
X157659523Y-121014895D02*
X157202380Y-121014895D01*
X157430952Y-121014895D02*
X157430952Y-120214895D01*
X157430952Y-120214895D02*
X157354761Y-120329180D01*
X157354761Y-120329180D02*
X157278571Y-120405371D01*
X157278571Y-120405371D02*
X157202380Y-120443466D01*
X157926190Y-120214895D02*
X158459524Y-120214895D01*
X158459524Y-120214895D02*
X158116666Y-121014895D01*
X156211904Y-121502850D02*
X156707142Y-121502850D01*
X156707142Y-121502850D02*
X156440476Y-121807612D01*
X156440476Y-121807612D02*
X156554761Y-121807612D01*
X156554761Y-121807612D02*
X156630952Y-121845707D01*
X156630952Y-121845707D02*
X156669047Y-121883802D01*
X156669047Y-121883802D02*
X156707142Y-121959993D01*
X156707142Y-121959993D02*
X156707142Y-122150469D01*
X156707142Y-122150469D02*
X156669047Y-122226659D01*
X156669047Y-122226659D02*
X156630952Y-122264755D01*
X156630952Y-122264755D02*
X156554761Y-122302850D01*
X156554761Y-122302850D02*
X156326190Y-122302850D01*
X156326190Y-122302850D02*
X156249999Y-122264755D01*
X156249999Y-122264755D02*
X156211904Y-122226659D01*
X157050000Y-122226659D02*
X157088095Y-122264755D01*
X157088095Y-122264755D02*
X157050000Y-122302850D01*
X157050000Y-122302850D02*
X157011904Y-122264755D01*
X157011904Y-122264755D02*
X157050000Y-122226659D01*
X157050000Y-122226659D02*
X157050000Y-122302850D01*
X157354761Y-121502850D02*
X157849999Y-121502850D01*
X157849999Y-121502850D02*
X157583333Y-121807612D01*
X157583333Y-121807612D02*
X157697618Y-121807612D01*
X157697618Y-121807612D02*
X157773809Y-121845707D01*
X157773809Y-121845707D02*
X157811904Y-121883802D01*
X157811904Y-121883802D02*
X157849999Y-121959993D01*
X157849999Y-121959993D02*
X157849999Y-122150469D01*
X157849999Y-122150469D02*
X157811904Y-122226659D01*
X157811904Y-122226659D02*
X157773809Y-122264755D01*
X157773809Y-122264755D02*
X157697618Y-122302850D01*
X157697618Y-122302850D02*
X157469047Y-122302850D01*
X157469047Y-122302850D02*
X157392856Y-122264755D01*
X157392856Y-122264755D02*
X157354761Y-122226659D01*
D15*
X156193232Y-110655855D02*
X156688470Y-110655855D01*
X156688470Y-110655855D02*
X156421804Y-110960617D01*
X156421804Y-110960617D02*
X156536089Y-110960617D01*
X156536089Y-110960617D02*
X156612280Y-110998712D01*
X156612280Y-110998712D02*
X156650375Y-111036807D01*
X156650375Y-111036807D02*
X156688470Y-111112998D01*
X156688470Y-111112998D02*
X156688470Y-111303474D01*
X156688470Y-111303474D02*
X156650375Y-111379664D01*
X156650375Y-111379664D02*
X156612280Y-111417760D01*
X156612280Y-111417760D02*
X156536089Y-111455855D01*
X156536089Y-111455855D02*
X156307518Y-111455855D01*
X156307518Y-111455855D02*
X156231327Y-111417760D01*
X156231327Y-111417760D02*
X156193232Y-111379664D01*
X157069423Y-111417760D02*
X157069423Y-111455855D01*
X157069423Y-111455855D02*
X157031328Y-111532045D01*
X157031328Y-111532045D02*
X156993232Y-111570140D01*
X157336089Y-110655855D02*
X157831327Y-110655855D01*
X157831327Y-110655855D02*
X157564661Y-110960617D01*
X157564661Y-110960617D02*
X157678946Y-110960617D01*
X157678946Y-110960617D02*
X157755137Y-110998712D01*
X157755137Y-110998712D02*
X157793232Y-111036807D01*
X157793232Y-111036807D02*
X157831327Y-111112998D01*
X157831327Y-111112998D02*
X157831327Y-111303474D01*
X157831327Y-111303474D02*
X157793232Y-111379664D01*
X157793232Y-111379664D02*
X157755137Y-111417760D01*
X157755137Y-111417760D02*
X157678946Y-111455855D01*
X157678946Y-111455855D02*
X157450375Y-111455855D01*
X157450375Y-111455855D02*
X157374184Y-111417760D01*
X157374184Y-111417760D02*
X157336089Y-111379664D01*
X158059899Y-110655855D02*
X158326566Y-111455855D01*
X158326566Y-111455855D02*
X158593232Y-110655855D01*
X156421804Y-111955855D02*
X156574185Y-111955855D01*
X156574185Y-111955855D02*
X156650375Y-111993950D01*
X156650375Y-111993950D02*
X156726566Y-112070140D01*
X156726566Y-112070140D02*
X156764661Y-112222521D01*
X156764661Y-112222521D02*
X156764661Y-112489188D01*
X156764661Y-112489188D02*
X156726566Y-112641569D01*
X156726566Y-112641569D02*
X156650375Y-112717760D01*
X156650375Y-112717760D02*
X156574185Y-112755855D01*
X156574185Y-112755855D02*
X156421804Y-112755855D01*
X156421804Y-112755855D02*
X156345613Y-112717760D01*
X156345613Y-112717760D02*
X156269423Y-112641569D01*
X156269423Y-112641569D02*
X156231327Y-112489188D01*
X156231327Y-112489188D02*
X156231327Y-112222521D01*
X156231327Y-112222521D02*
X156269423Y-112070140D01*
X156269423Y-112070140D02*
X156345613Y-111993950D01*
X156345613Y-111993950D02*
X156421804Y-111955855D01*
X157488470Y-112755855D02*
X157107518Y-112755855D01*
X157107518Y-112755855D02*
X157107518Y-111955855D01*
X157755137Y-112336807D02*
X158021803Y-112336807D01*
X158136089Y-112755855D02*
X157755137Y-112755855D01*
X157755137Y-112755855D02*
X157755137Y-111955855D01*
X157755137Y-111955855D02*
X158136089Y-111955855D01*
X158478947Y-112755855D02*
X158478947Y-111955855D01*
X158478947Y-111955855D02*
X158669423Y-111955855D01*
X158669423Y-111955855D02*
X158783709Y-111993950D01*
X158783709Y-111993950D02*
X158859899Y-112070140D01*
X158859899Y-112070140D02*
X158897994Y-112146331D01*
X158897994Y-112146331D02*
X158936090Y-112298712D01*
X158936090Y-112298712D02*
X158936090Y-112412998D01*
X158936090Y-112412998D02*
X158897994Y-112565379D01*
X158897994Y-112565379D02*
X158859899Y-112641569D01*
X158859899Y-112641569D02*
X158783709Y-112717760D01*
X158783709Y-112717760D02*
X158669423Y-112755855D01*
X158669423Y-112755855D02*
X158478947Y-112755855D01*
X156269423Y-113751093D02*
X156878947Y-113751093D01*
X156574185Y-114055855D02*
X156574185Y-113446331D01*
X157640851Y-113255855D02*
X157259899Y-113255855D01*
X157259899Y-113255855D02*
X157221803Y-113636807D01*
X157221803Y-113636807D02*
X157259899Y-113598712D01*
X157259899Y-113598712D02*
X157336089Y-113560617D01*
X157336089Y-113560617D02*
X157526565Y-113560617D01*
X157526565Y-113560617D02*
X157602756Y-113598712D01*
X157602756Y-113598712D02*
X157640851Y-113636807D01*
X157640851Y-113636807D02*
X157678946Y-113712998D01*
X157678946Y-113712998D02*
X157678946Y-113903474D01*
X157678946Y-113903474D02*
X157640851Y-113979664D01*
X157640851Y-113979664D02*
X157602756Y-114017760D01*
X157602756Y-114017760D02*
X157526565Y-114055855D01*
X157526565Y-114055855D02*
X157336089Y-114055855D01*
X157336089Y-114055855D02*
X157259899Y-114017760D01*
X157259899Y-114017760D02*
X157221803Y-113979664D01*
X157907518Y-113255855D02*
X158174185Y-114055855D01*
X158174185Y-114055855D02*
X158440851Y-113255855D01*
X150677618Y-138021950D02*
X150601428Y-137983855D01*
X150601428Y-137983855D02*
X150487142Y-137983855D01*
X150487142Y-137983855D02*
X150372856Y-138021950D01*
X150372856Y-138021950D02*
X150296666Y-138098140D01*
X150296666Y-138098140D02*
X150258571Y-138174331D01*
X150258571Y-138174331D02*
X150220475Y-138326712D01*
X150220475Y-138326712D02*
X150220475Y-138440998D01*
X150220475Y-138440998D02*
X150258571Y-138593379D01*
X150258571Y-138593379D02*
X150296666Y-138669569D01*
X150296666Y-138669569D02*
X150372856Y-138745760D01*
X150372856Y-138745760D02*
X150487142Y-138783855D01*
X150487142Y-138783855D02*
X150563333Y-138783855D01*
X150563333Y-138783855D02*
X150677618Y-138745760D01*
X150677618Y-138745760D02*
X150715714Y-138707664D01*
X150715714Y-138707664D02*
X150715714Y-138440998D01*
X150715714Y-138440998D02*
X150563333Y-138440998D01*
X151058571Y-138783855D02*
X151058571Y-137983855D01*
X151058571Y-137983855D02*
X151363333Y-137983855D01*
X151363333Y-137983855D02*
X151439523Y-138021950D01*
X151439523Y-138021950D02*
X151477618Y-138060045D01*
X151477618Y-138060045D02*
X151515714Y-138136236D01*
X151515714Y-138136236D02*
X151515714Y-138250521D01*
X151515714Y-138250521D02*
X151477618Y-138326712D01*
X151477618Y-138326712D02*
X151439523Y-138364807D01*
X151439523Y-138364807D02*
X151363333Y-138402902D01*
X151363333Y-138402902D02*
X151058571Y-138402902D01*
X151820475Y-138060045D02*
X151858571Y-138021950D01*
X151858571Y-138021950D02*
X151934761Y-137983855D01*
X151934761Y-137983855D02*
X152125237Y-137983855D01*
X152125237Y-137983855D02*
X152201428Y-138021950D01*
X152201428Y-138021950D02*
X152239523Y-138060045D01*
X152239523Y-138060045D02*
X152277618Y-138136236D01*
X152277618Y-138136236D02*
X152277618Y-138212426D01*
X152277618Y-138212426D02*
X152239523Y-138326712D01*
X152239523Y-138326712D02*
X151782380Y-138783855D01*
X151782380Y-138783855D02*
X152277618Y-138783855D01*
X153001428Y-137983855D02*
X152620476Y-137983855D01*
X152620476Y-137983855D02*
X152582380Y-138364807D01*
X152582380Y-138364807D02*
X152620476Y-138326712D01*
X152620476Y-138326712D02*
X152696666Y-138288617D01*
X152696666Y-138288617D02*
X152887142Y-138288617D01*
X152887142Y-138288617D02*
X152963333Y-138326712D01*
X152963333Y-138326712D02*
X153001428Y-138364807D01*
X153001428Y-138364807D02*
X153039523Y-138440998D01*
X153039523Y-138440998D02*
X153039523Y-138631474D01*
X153039523Y-138631474D02*
X153001428Y-138707664D01*
X153001428Y-138707664D02*
X152963333Y-138745760D01*
X152963333Y-138745760D02*
X152887142Y-138783855D01*
X152887142Y-138783855D02*
X152696666Y-138783855D01*
X152696666Y-138783855D02*
X152620476Y-138745760D01*
X152620476Y-138745760D02*
X152582380Y-138707664D01*
X152627619Y-107917664D02*
X152589523Y-107955760D01*
X152589523Y-107955760D02*
X152475238Y-107993855D01*
X152475238Y-107993855D02*
X152399047Y-107993855D01*
X152399047Y-107993855D02*
X152284761Y-107955760D01*
X152284761Y-107955760D02*
X152208571Y-107879569D01*
X152208571Y-107879569D02*
X152170476Y-107803379D01*
X152170476Y-107803379D02*
X152132380Y-107650998D01*
X152132380Y-107650998D02*
X152132380Y-107536712D01*
X152132380Y-107536712D02*
X152170476Y-107384331D01*
X152170476Y-107384331D02*
X152208571Y-107308140D01*
X152208571Y-107308140D02*
X152284761Y-107231950D01*
X152284761Y-107231950D02*
X152399047Y-107193855D01*
X152399047Y-107193855D02*
X152475238Y-107193855D01*
X152475238Y-107193855D02*
X152589523Y-107231950D01*
X152589523Y-107231950D02*
X152627619Y-107270045D01*
X152589523Y-108501950D02*
X152513333Y-108463855D01*
X152513333Y-108463855D02*
X152399047Y-108463855D01*
X152399047Y-108463855D02*
X152284761Y-108501950D01*
X152284761Y-108501950D02*
X152208571Y-108578140D01*
X152208571Y-108578140D02*
X152170476Y-108654331D01*
X152170476Y-108654331D02*
X152132380Y-108806712D01*
X152132380Y-108806712D02*
X152132380Y-108920998D01*
X152132380Y-108920998D02*
X152170476Y-109073379D01*
X152170476Y-109073379D02*
X152208571Y-109149569D01*
X152208571Y-109149569D02*
X152284761Y-109225760D01*
X152284761Y-109225760D02*
X152399047Y-109263855D01*
X152399047Y-109263855D02*
X152475238Y-109263855D01*
X152475238Y-109263855D02*
X152589523Y-109225760D01*
X152589523Y-109225760D02*
X152627619Y-109187664D01*
X152627619Y-109187664D02*
X152627619Y-108920998D01*
X152627619Y-108920998D02*
X152475238Y-108920998D01*
X152170476Y-110533855D02*
X152170476Y-109733855D01*
X152170476Y-109733855D02*
X152360952Y-109733855D01*
X152360952Y-109733855D02*
X152475238Y-109771950D01*
X152475238Y-109771950D02*
X152551428Y-109848140D01*
X152551428Y-109848140D02*
X152589523Y-109924331D01*
X152589523Y-109924331D02*
X152627619Y-110076712D01*
X152627619Y-110076712D02*
X152627619Y-110190998D01*
X152627619Y-110190998D02*
X152589523Y-110343379D01*
X152589523Y-110343379D02*
X152551428Y-110419569D01*
X152551428Y-110419569D02*
X152475238Y-110495760D01*
X152475238Y-110495760D02*
X152360952Y-110533855D01*
X152360952Y-110533855D02*
X152170476Y-110533855D01*
X152151428Y-111003855D02*
X152608571Y-111003855D01*
X152379999Y-111803855D02*
X152379999Y-111003855D01*
X152589523Y-112311950D02*
X152513333Y-112273855D01*
X152513333Y-112273855D02*
X152399047Y-112273855D01*
X152399047Y-112273855D02*
X152284761Y-112311950D01*
X152284761Y-112311950D02*
X152208571Y-112388140D01*
X152208571Y-112388140D02*
X152170476Y-112464331D01*
X152170476Y-112464331D02*
X152132380Y-112616712D01*
X152132380Y-112616712D02*
X152132380Y-112730998D01*
X152132380Y-112730998D02*
X152170476Y-112883379D01*
X152170476Y-112883379D02*
X152208571Y-112959569D01*
X152208571Y-112959569D02*
X152284761Y-113035760D01*
X152284761Y-113035760D02*
X152399047Y-113073855D01*
X152399047Y-113073855D02*
X152475238Y-113073855D01*
X152475238Y-113073855D02*
X152589523Y-113035760D01*
X152589523Y-113035760D02*
X152627619Y-112997664D01*
X152627619Y-112997664D02*
X152627619Y-112730998D01*
X152627619Y-112730998D02*
X152475238Y-112730998D01*
X152627619Y-114343855D02*
X152360952Y-113962902D01*
X152170476Y-114343855D02*
X152170476Y-113543855D01*
X152170476Y-113543855D02*
X152475238Y-113543855D01*
X152475238Y-113543855D02*
X152551428Y-113581950D01*
X152551428Y-113581950D02*
X152589523Y-113620045D01*
X152589523Y-113620045D02*
X152627619Y-113696236D01*
X152627619Y-113696236D02*
X152627619Y-113810521D01*
X152627619Y-113810521D02*
X152589523Y-113886712D01*
X152589523Y-113886712D02*
X152551428Y-113924807D01*
X152551428Y-113924807D02*
X152475238Y-113962902D01*
X152475238Y-113962902D02*
X152170476Y-113962902D01*
X156005952Y-131138855D02*
X155739285Y-130757902D01*
X155548809Y-131138855D02*
X155548809Y-130338855D01*
X155548809Y-130338855D02*
X155853571Y-130338855D01*
X155853571Y-130338855D02*
X155929761Y-130376950D01*
X155929761Y-130376950D02*
X155967856Y-130415045D01*
X155967856Y-130415045D02*
X156005952Y-130491236D01*
X156005952Y-130491236D02*
X156005952Y-130605521D01*
X156005952Y-130605521D02*
X155967856Y-130681712D01*
X155967856Y-130681712D02*
X155929761Y-130719807D01*
X155929761Y-130719807D02*
X155853571Y-130757902D01*
X155853571Y-130757902D02*
X155548809Y-130757902D01*
X156348809Y-131138855D02*
X156348809Y-130338855D01*
X156348809Y-130338855D02*
X156653571Y-130338855D01*
X156653571Y-130338855D02*
X156729761Y-130376950D01*
X156729761Y-130376950D02*
X156767856Y-130415045D01*
X156767856Y-130415045D02*
X156805952Y-130491236D01*
X156805952Y-130491236D02*
X156805952Y-130605521D01*
X156805952Y-130605521D02*
X156767856Y-130681712D01*
X156767856Y-130681712D02*
X156729761Y-130719807D01*
X156729761Y-130719807D02*
X156653571Y-130757902D01*
X156653571Y-130757902D02*
X156348809Y-130757902D01*
X157110713Y-130415045D02*
X157148809Y-130376950D01*
X157148809Y-130376950D02*
X157224999Y-130338855D01*
X157224999Y-130338855D02*
X157415475Y-130338855D01*
X157415475Y-130338855D02*
X157491666Y-130376950D01*
X157491666Y-130376950D02*
X157529761Y-130415045D01*
X157529761Y-130415045D02*
X157567856Y-130491236D01*
X157567856Y-130491236D02*
X157567856Y-130567426D01*
X157567856Y-130567426D02*
X157529761Y-130681712D01*
X157529761Y-130681712D02*
X157072618Y-131138855D01*
X157072618Y-131138855D02*
X157567856Y-131138855D01*
X157834523Y-130338855D02*
X158329761Y-130338855D01*
X158329761Y-130338855D02*
X158063095Y-130643617D01*
X158063095Y-130643617D02*
X158177380Y-130643617D01*
X158177380Y-130643617D02*
X158253571Y-130681712D01*
X158253571Y-130681712D02*
X158291666Y-130719807D01*
X158291666Y-130719807D02*
X158329761Y-130795998D01*
X158329761Y-130795998D02*
X158329761Y-130986474D01*
X158329761Y-130986474D02*
X158291666Y-131062664D01*
X158291666Y-131062664D02*
X158253571Y-131100760D01*
X158253571Y-131100760D02*
X158177380Y-131138855D01*
X158177380Y-131138855D02*
X157948809Y-131138855D01*
X157948809Y-131138855D02*
X157872618Y-131100760D01*
X157872618Y-131100760D02*
X157834523Y-131062664D01*
X159053571Y-130338855D02*
X158672619Y-130338855D01*
X158672619Y-130338855D02*
X158634523Y-130719807D01*
X158634523Y-130719807D02*
X158672619Y-130681712D01*
X158672619Y-130681712D02*
X158748809Y-130643617D01*
X158748809Y-130643617D02*
X158939285Y-130643617D01*
X158939285Y-130643617D02*
X159015476Y-130681712D01*
X159015476Y-130681712D02*
X159053571Y-130719807D01*
X159053571Y-130719807D02*
X159091666Y-130795998D01*
X159091666Y-130795998D02*
X159091666Y-130986474D01*
X159091666Y-130986474D02*
X159053571Y-131062664D01*
X159053571Y-131062664D02*
X159015476Y-131100760D01*
X159015476Y-131100760D02*
X158939285Y-131138855D01*
X158939285Y-131138855D02*
X158748809Y-131138855D01*
X158748809Y-131138855D02*
X158672619Y-131100760D01*
X158672619Y-131100760D02*
X158634523Y-131062664D01*
X159586905Y-130338855D02*
X159663095Y-130338855D01*
X159663095Y-130338855D02*
X159739286Y-130376950D01*
X159739286Y-130376950D02*
X159777381Y-130415045D01*
X159777381Y-130415045D02*
X159815476Y-130491236D01*
X159815476Y-130491236D02*
X159853571Y-130643617D01*
X159853571Y-130643617D02*
X159853571Y-130834093D01*
X159853571Y-130834093D02*
X159815476Y-130986474D01*
X159815476Y-130986474D02*
X159777381Y-131062664D01*
X159777381Y-131062664D02*
X159739286Y-131100760D01*
X159739286Y-131100760D02*
X159663095Y-131138855D01*
X159663095Y-131138855D02*
X159586905Y-131138855D01*
X159586905Y-131138855D02*
X159510714Y-131100760D01*
X159510714Y-131100760D02*
X159472619Y-131062664D01*
X159472619Y-131062664D02*
X159434524Y-130986474D01*
X159434524Y-130986474D02*
X159396428Y-130834093D01*
X159396428Y-130834093D02*
X159396428Y-130643617D01*
X159396428Y-130643617D02*
X159434524Y-130491236D01*
X159434524Y-130491236D02*
X159472619Y-130415045D01*
X159472619Y-130415045D02*
X159510714Y-130376950D01*
X159510714Y-130376950D02*
X159586905Y-130338855D01*
X160158333Y-130910283D02*
X160539286Y-130910283D01*
X160082143Y-131138855D02*
X160348810Y-130338855D01*
X160348810Y-130338855D02*
X160615476Y-131138855D01*
X161521429Y-118759093D02*
X162130953Y-118759093D01*
X161826191Y-119063855D02*
X161826191Y-118454331D01*
X162892857Y-118263855D02*
X162511905Y-118263855D01*
X162511905Y-118263855D02*
X162473809Y-118644807D01*
X162473809Y-118644807D02*
X162511905Y-118606712D01*
X162511905Y-118606712D02*
X162588095Y-118568617D01*
X162588095Y-118568617D02*
X162778571Y-118568617D01*
X162778571Y-118568617D02*
X162854762Y-118606712D01*
X162854762Y-118606712D02*
X162892857Y-118644807D01*
X162892857Y-118644807D02*
X162930952Y-118720998D01*
X162930952Y-118720998D02*
X162930952Y-118911474D01*
X162930952Y-118911474D02*
X162892857Y-118987664D01*
X162892857Y-118987664D02*
X162854762Y-119025760D01*
X162854762Y-119025760D02*
X162778571Y-119063855D01*
X162778571Y-119063855D02*
X162588095Y-119063855D01*
X162588095Y-119063855D02*
X162511905Y-119025760D01*
X162511905Y-119025760D02*
X162473809Y-118987664D01*
X163159524Y-118263855D02*
X163426191Y-119063855D01*
X163426191Y-119063855D02*
X163692857Y-118263855D01*
X162020476Y-105601950D02*
X161944286Y-105563855D01*
X161944286Y-105563855D02*
X161830000Y-105563855D01*
X161830000Y-105563855D02*
X161715714Y-105601950D01*
X161715714Y-105601950D02*
X161639524Y-105678140D01*
X161639524Y-105678140D02*
X161601429Y-105754331D01*
X161601429Y-105754331D02*
X161563333Y-105906712D01*
X161563333Y-105906712D02*
X161563333Y-106020998D01*
X161563333Y-106020998D02*
X161601429Y-106173379D01*
X161601429Y-106173379D02*
X161639524Y-106249569D01*
X161639524Y-106249569D02*
X161715714Y-106325760D01*
X161715714Y-106325760D02*
X161830000Y-106363855D01*
X161830000Y-106363855D02*
X161906191Y-106363855D01*
X161906191Y-106363855D02*
X162020476Y-106325760D01*
X162020476Y-106325760D02*
X162058572Y-106287664D01*
X162058572Y-106287664D02*
X162058572Y-106020998D01*
X162058572Y-106020998D02*
X161906191Y-106020998D01*
X162401429Y-106363855D02*
X162401429Y-105563855D01*
X162401429Y-105563855D02*
X162858572Y-106363855D01*
X162858572Y-106363855D02*
X162858572Y-105563855D01*
X163239524Y-106363855D02*
X163239524Y-105563855D01*
X163239524Y-105563855D02*
X163430000Y-105563855D01*
X163430000Y-105563855D02*
X163544286Y-105601950D01*
X163544286Y-105601950D02*
X163620476Y-105678140D01*
X163620476Y-105678140D02*
X163658571Y-105754331D01*
X163658571Y-105754331D02*
X163696667Y-105906712D01*
X163696667Y-105906712D02*
X163696667Y-106020998D01*
X163696667Y-106020998D02*
X163658571Y-106173379D01*
X163658571Y-106173379D02*
X163620476Y-106249569D01*
X163620476Y-106249569D02*
X163544286Y-106325760D01*
X163544286Y-106325760D02*
X163430000Y-106363855D01*
X163430000Y-106363855D02*
X163239524Y-106363855D01*
X162020476Y-115761950D02*
X161944286Y-115723855D01*
X161944286Y-115723855D02*
X161830000Y-115723855D01*
X161830000Y-115723855D02*
X161715714Y-115761950D01*
X161715714Y-115761950D02*
X161639524Y-115838140D01*
X161639524Y-115838140D02*
X161601429Y-115914331D01*
X161601429Y-115914331D02*
X161563333Y-116066712D01*
X161563333Y-116066712D02*
X161563333Y-116180998D01*
X161563333Y-116180998D02*
X161601429Y-116333379D01*
X161601429Y-116333379D02*
X161639524Y-116409569D01*
X161639524Y-116409569D02*
X161715714Y-116485760D01*
X161715714Y-116485760D02*
X161830000Y-116523855D01*
X161830000Y-116523855D02*
X161906191Y-116523855D01*
X161906191Y-116523855D02*
X162020476Y-116485760D01*
X162020476Y-116485760D02*
X162058572Y-116447664D01*
X162058572Y-116447664D02*
X162058572Y-116180998D01*
X162058572Y-116180998D02*
X161906191Y-116180998D01*
X162401429Y-116523855D02*
X162401429Y-115723855D01*
X162401429Y-115723855D02*
X162858572Y-116523855D01*
X162858572Y-116523855D02*
X162858572Y-115723855D01*
X163239524Y-116523855D02*
X163239524Y-115723855D01*
X163239524Y-115723855D02*
X163430000Y-115723855D01*
X163430000Y-115723855D02*
X163544286Y-115761950D01*
X163544286Y-115761950D02*
X163620476Y-115838140D01*
X163620476Y-115838140D02*
X163658571Y-115914331D01*
X163658571Y-115914331D02*
X163696667Y-116066712D01*
X163696667Y-116066712D02*
X163696667Y-116180998D01*
X163696667Y-116180998D02*
X163658571Y-116333379D01*
X163658571Y-116333379D02*
X163620476Y-116409569D01*
X163620476Y-116409569D02*
X163544286Y-116485760D01*
X163544286Y-116485760D02*
X163430000Y-116523855D01*
X163430000Y-116523855D02*
X163239524Y-116523855D01*
X161697618Y-111405760D02*
X161811904Y-111443855D01*
X161811904Y-111443855D02*
X162002380Y-111443855D01*
X162002380Y-111443855D02*
X162078571Y-111405760D01*
X162078571Y-111405760D02*
X162116666Y-111367664D01*
X162116666Y-111367664D02*
X162154761Y-111291474D01*
X162154761Y-111291474D02*
X162154761Y-111215283D01*
X162154761Y-111215283D02*
X162116666Y-111139093D01*
X162116666Y-111139093D02*
X162078571Y-111100998D01*
X162078571Y-111100998D02*
X162002380Y-111062902D01*
X162002380Y-111062902D02*
X161849999Y-111024807D01*
X161849999Y-111024807D02*
X161773809Y-110986712D01*
X161773809Y-110986712D02*
X161735714Y-110948617D01*
X161735714Y-110948617D02*
X161697618Y-110872426D01*
X161697618Y-110872426D02*
X161697618Y-110796236D01*
X161697618Y-110796236D02*
X161735714Y-110720045D01*
X161735714Y-110720045D02*
X161773809Y-110681950D01*
X161773809Y-110681950D02*
X161849999Y-110643855D01*
X161849999Y-110643855D02*
X162040476Y-110643855D01*
X162040476Y-110643855D02*
X162154761Y-110681950D01*
X162954762Y-111367664D02*
X162916666Y-111405760D01*
X162916666Y-111405760D02*
X162802381Y-111443855D01*
X162802381Y-111443855D02*
X162726190Y-111443855D01*
X162726190Y-111443855D02*
X162611904Y-111405760D01*
X162611904Y-111405760D02*
X162535714Y-111329569D01*
X162535714Y-111329569D02*
X162497619Y-111253379D01*
X162497619Y-111253379D02*
X162459523Y-111100998D01*
X162459523Y-111100998D02*
X162459523Y-110986712D01*
X162459523Y-110986712D02*
X162497619Y-110834331D01*
X162497619Y-110834331D02*
X162535714Y-110758140D01*
X162535714Y-110758140D02*
X162611904Y-110681950D01*
X162611904Y-110681950D02*
X162726190Y-110643855D01*
X162726190Y-110643855D02*
X162802381Y-110643855D01*
X162802381Y-110643855D02*
X162916666Y-110681950D01*
X162916666Y-110681950D02*
X162954762Y-110720045D01*
X163678571Y-111443855D02*
X163297619Y-111443855D01*
X163297619Y-111443855D02*
X163297619Y-110643855D01*
X161678571Y-113945760D02*
X161792857Y-113983855D01*
X161792857Y-113983855D02*
X161983333Y-113983855D01*
X161983333Y-113983855D02*
X162059524Y-113945760D01*
X162059524Y-113945760D02*
X162097619Y-113907664D01*
X162097619Y-113907664D02*
X162135714Y-113831474D01*
X162135714Y-113831474D02*
X162135714Y-113755283D01*
X162135714Y-113755283D02*
X162097619Y-113679093D01*
X162097619Y-113679093D02*
X162059524Y-113640998D01*
X162059524Y-113640998D02*
X161983333Y-113602902D01*
X161983333Y-113602902D02*
X161830952Y-113564807D01*
X161830952Y-113564807D02*
X161754762Y-113526712D01*
X161754762Y-113526712D02*
X161716667Y-113488617D01*
X161716667Y-113488617D02*
X161678571Y-113412426D01*
X161678571Y-113412426D02*
X161678571Y-113336236D01*
X161678571Y-113336236D02*
X161716667Y-113260045D01*
X161716667Y-113260045D02*
X161754762Y-113221950D01*
X161754762Y-113221950D02*
X161830952Y-113183855D01*
X161830952Y-113183855D02*
X162021429Y-113183855D01*
X162021429Y-113183855D02*
X162135714Y-113221950D01*
X162478572Y-113983855D02*
X162478572Y-113183855D01*
X162478572Y-113183855D02*
X162669048Y-113183855D01*
X162669048Y-113183855D02*
X162783334Y-113221950D01*
X162783334Y-113221950D02*
X162859524Y-113298140D01*
X162859524Y-113298140D02*
X162897619Y-113374331D01*
X162897619Y-113374331D02*
X162935715Y-113526712D01*
X162935715Y-113526712D02*
X162935715Y-113640998D01*
X162935715Y-113640998D02*
X162897619Y-113793379D01*
X162897619Y-113793379D02*
X162859524Y-113869569D01*
X162859524Y-113869569D02*
X162783334Y-113945760D01*
X162783334Y-113945760D02*
X162669048Y-113983855D01*
X162669048Y-113983855D02*
X162478572Y-113983855D01*
X163240476Y-113755283D02*
X163621429Y-113755283D01*
X163164286Y-113983855D02*
X163430953Y-113183855D01*
X163430953Y-113183855D02*
X163697619Y-113983855D01*
X162088571Y-123381950D02*
X162012381Y-123343855D01*
X162012381Y-123343855D02*
X161898095Y-123343855D01*
X161898095Y-123343855D02*
X161783809Y-123381950D01*
X161783809Y-123381950D02*
X161707619Y-123458140D01*
X161707619Y-123458140D02*
X161669524Y-123534331D01*
X161669524Y-123534331D02*
X161631428Y-123686712D01*
X161631428Y-123686712D02*
X161631428Y-123800998D01*
X161631428Y-123800998D02*
X161669524Y-123953379D01*
X161669524Y-123953379D02*
X161707619Y-124029569D01*
X161707619Y-124029569D02*
X161783809Y-124105760D01*
X161783809Y-124105760D02*
X161898095Y-124143855D01*
X161898095Y-124143855D02*
X161974286Y-124143855D01*
X161974286Y-124143855D02*
X162088571Y-124105760D01*
X162088571Y-124105760D02*
X162126667Y-124067664D01*
X162126667Y-124067664D02*
X162126667Y-123800998D01*
X162126667Y-123800998D02*
X161974286Y-123800998D01*
X162469524Y-124143855D02*
X162469524Y-123343855D01*
X162469524Y-123343855D02*
X162774286Y-123343855D01*
X162774286Y-123343855D02*
X162850476Y-123381950D01*
X162850476Y-123381950D02*
X162888571Y-123420045D01*
X162888571Y-123420045D02*
X162926667Y-123496236D01*
X162926667Y-123496236D02*
X162926667Y-123610521D01*
X162926667Y-123610521D02*
X162888571Y-123686712D01*
X162888571Y-123686712D02*
X162850476Y-123724807D01*
X162850476Y-123724807D02*
X162774286Y-123762902D01*
X162774286Y-123762902D02*
X162469524Y-123762902D01*
X163383809Y-123686712D02*
X163307619Y-123648617D01*
X163307619Y-123648617D02*
X163269524Y-123610521D01*
X163269524Y-123610521D02*
X163231428Y-123534331D01*
X163231428Y-123534331D02*
X163231428Y-123496236D01*
X163231428Y-123496236D02*
X163269524Y-123420045D01*
X163269524Y-123420045D02*
X163307619Y-123381950D01*
X163307619Y-123381950D02*
X163383809Y-123343855D01*
X163383809Y-123343855D02*
X163536190Y-123343855D01*
X163536190Y-123343855D02*
X163612381Y-123381950D01*
X163612381Y-123381950D02*
X163650476Y-123420045D01*
X163650476Y-123420045D02*
X163688571Y-123496236D01*
X163688571Y-123496236D02*
X163688571Y-123534331D01*
X163688571Y-123534331D02*
X163650476Y-123610521D01*
X163650476Y-123610521D02*
X163612381Y-123648617D01*
X163612381Y-123648617D02*
X163536190Y-123686712D01*
X163536190Y-123686712D02*
X163383809Y-123686712D01*
X163383809Y-123686712D02*
X163307619Y-123724807D01*
X163307619Y-123724807D02*
X163269524Y-123762902D01*
X163269524Y-123762902D02*
X163231428Y-123839093D01*
X163231428Y-123839093D02*
X163231428Y-123991474D01*
X163231428Y-123991474D02*
X163269524Y-124067664D01*
X163269524Y-124067664D02*
X163307619Y-124105760D01*
X163307619Y-124105760D02*
X163383809Y-124143855D01*
X163383809Y-124143855D02*
X163536190Y-124143855D01*
X163536190Y-124143855D02*
X163612381Y-124105760D01*
X163612381Y-124105760D02*
X163650476Y-124067664D01*
X163650476Y-124067664D02*
X163688571Y-123991474D01*
X163688571Y-123991474D02*
X163688571Y-123839093D01*
X163688571Y-123839093D02*
X163650476Y-123762902D01*
X163650476Y-123762902D02*
X163612381Y-123724807D01*
X163612381Y-123724807D02*
X163536190Y-123686712D01*
X161643333Y-108103855D02*
X161910000Y-108903855D01*
X161910000Y-108903855D02*
X162176666Y-108103855D01*
X162443333Y-108903855D02*
X162443333Y-108103855D01*
X162443333Y-108103855D02*
X162633809Y-108103855D01*
X162633809Y-108103855D02*
X162748095Y-108141950D01*
X162748095Y-108141950D02*
X162824285Y-108218140D01*
X162824285Y-108218140D02*
X162862380Y-108294331D01*
X162862380Y-108294331D02*
X162900476Y-108446712D01*
X162900476Y-108446712D02*
X162900476Y-108560998D01*
X162900476Y-108560998D02*
X162862380Y-108713379D01*
X162862380Y-108713379D02*
X162824285Y-108789569D01*
X162824285Y-108789569D02*
X162748095Y-108865760D01*
X162748095Y-108865760D02*
X162633809Y-108903855D01*
X162633809Y-108903855D02*
X162443333Y-108903855D01*
X163243333Y-108903855D02*
X163243333Y-108103855D01*
X163243333Y-108103855D02*
X163433809Y-108103855D01*
X163433809Y-108103855D02*
X163548095Y-108141950D01*
X163548095Y-108141950D02*
X163624285Y-108218140D01*
X163624285Y-108218140D02*
X163662380Y-108294331D01*
X163662380Y-108294331D02*
X163700476Y-108446712D01*
X163700476Y-108446712D02*
X163700476Y-108560998D01*
X163700476Y-108560998D02*
X163662380Y-108713379D01*
X163662380Y-108713379D02*
X163624285Y-108789569D01*
X163624285Y-108789569D02*
X163548095Y-108865760D01*
X163548095Y-108865760D02*
X163433809Y-108903855D01*
X163433809Y-108903855D02*
X163243333Y-108903855D01*
X162138571Y-125911950D02*
X162062381Y-125873855D01*
X162062381Y-125873855D02*
X161948095Y-125873855D01*
X161948095Y-125873855D02*
X161833809Y-125911950D01*
X161833809Y-125911950D02*
X161757619Y-125988140D01*
X161757619Y-125988140D02*
X161719524Y-126064331D01*
X161719524Y-126064331D02*
X161681428Y-126216712D01*
X161681428Y-126216712D02*
X161681428Y-126330998D01*
X161681428Y-126330998D02*
X161719524Y-126483379D01*
X161719524Y-126483379D02*
X161757619Y-126559569D01*
X161757619Y-126559569D02*
X161833809Y-126635760D01*
X161833809Y-126635760D02*
X161948095Y-126673855D01*
X161948095Y-126673855D02*
X162024286Y-126673855D01*
X162024286Y-126673855D02*
X162138571Y-126635760D01*
X162138571Y-126635760D02*
X162176667Y-126597664D01*
X162176667Y-126597664D02*
X162176667Y-126330998D01*
X162176667Y-126330998D02*
X162024286Y-126330998D01*
X162519524Y-126673855D02*
X162519524Y-125873855D01*
X162519524Y-125873855D02*
X162824286Y-125873855D01*
X162824286Y-125873855D02*
X162900476Y-125911950D01*
X162900476Y-125911950D02*
X162938571Y-125950045D01*
X162938571Y-125950045D02*
X162976667Y-126026236D01*
X162976667Y-126026236D02*
X162976667Y-126140521D01*
X162976667Y-126140521D02*
X162938571Y-126216712D01*
X162938571Y-126216712D02*
X162900476Y-126254807D01*
X162900476Y-126254807D02*
X162824286Y-126292902D01*
X162824286Y-126292902D02*
X162519524Y-126292902D01*
X163357619Y-126673855D02*
X163510000Y-126673855D01*
X163510000Y-126673855D02*
X163586190Y-126635760D01*
X163586190Y-126635760D02*
X163624286Y-126597664D01*
X163624286Y-126597664D02*
X163700476Y-126483379D01*
X163700476Y-126483379D02*
X163738571Y-126330998D01*
X163738571Y-126330998D02*
X163738571Y-126026236D01*
X163738571Y-126026236D02*
X163700476Y-125950045D01*
X163700476Y-125950045D02*
X163662381Y-125911950D01*
X163662381Y-125911950D02*
X163586190Y-125873855D01*
X163586190Y-125873855D02*
X163433809Y-125873855D01*
X163433809Y-125873855D02*
X163357619Y-125911950D01*
X163357619Y-125911950D02*
X163319524Y-125950045D01*
X163319524Y-125950045D02*
X163281428Y-126026236D01*
X163281428Y-126026236D02*
X163281428Y-126216712D01*
X163281428Y-126216712D02*
X163319524Y-126292902D01*
X163319524Y-126292902D02*
X163357619Y-126330998D01*
X163357619Y-126330998D02*
X163433809Y-126369093D01*
X163433809Y-126369093D02*
X163586190Y-126369093D01*
X163586190Y-126369093D02*
X163662381Y-126330998D01*
X163662381Y-126330998D02*
X163700476Y-126292902D01*
X163700476Y-126292902D02*
X163738571Y-126216712D01*
X161749523Y-120803855D02*
X162244761Y-120803855D01*
X162244761Y-120803855D02*
X161978095Y-121108617D01*
X161978095Y-121108617D02*
X162092380Y-121108617D01*
X162092380Y-121108617D02*
X162168571Y-121146712D01*
X162168571Y-121146712D02*
X162206666Y-121184807D01*
X162206666Y-121184807D02*
X162244761Y-121260998D01*
X162244761Y-121260998D02*
X162244761Y-121451474D01*
X162244761Y-121451474D02*
X162206666Y-121527664D01*
X162206666Y-121527664D02*
X162168571Y-121565760D01*
X162168571Y-121565760D02*
X162092380Y-121603855D01*
X162092380Y-121603855D02*
X161863809Y-121603855D01*
X161863809Y-121603855D02*
X161787618Y-121565760D01*
X161787618Y-121565760D02*
X161749523Y-121527664D01*
X162473333Y-120803855D02*
X162740000Y-121603855D01*
X162740000Y-121603855D02*
X163006666Y-120803855D01*
X163197142Y-120803855D02*
X163692380Y-120803855D01*
X163692380Y-120803855D02*
X163425714Y-121108617D01*
X163425714Y-121108617D02*
X163539999Y-121108617D01*
X163539999Y-121108617D02*
X163616190Y-121146712D01*
X163616190Y-121146712D02*
X163654285Y-121184807D01*
X163654285Y-121184807D02*
X163692380Y-121260998D01*
X163692380Y-121260998D02*
X163692380Y-121451474D01*
X163692380Y-121451474D02*
X163654285Y-121527664D01*
X163654285Y-121527664D02*
X163616190Y-121565760D01*
X163616190Y-121565760D02*
X163539999Y-121603855D01*
X163539999Y-121603855D02*
X163311428Y-121603855D01*
X163311428Y-121603855D02*
X163235237Y-121565760D01*
X163235237Y-121565760D02*
X163197142Y-121527664D01*
X153101950Y-150079523D02*
X153063855Y-150155713D01*
X153063855Y-150155713D02*
X153063855Y-150269999D01*
X153063855Y-150269999D02*
X153101950Y-150384285D01*
X153101950Y-150384285D02*
X153178140Y-150460475D01*
X153178140Y-150460475D02*
X153254331Y-150498570D01*
X153254331Y-150498570D02*
X153406712Y-150536666D01*
X153406712Y-150536666D02*
X153520998Y-150536666D01*
X153520998Y-150536666D02*
X153673379Y-150498570D01*
X153673379Y-150498570D02*
X153749569Y-150460475D01*
X153749569Y-150460475D02*
X153825760Y-150384285D01*
X153825760Y-150384285D02*
X153863855Y-150269999D01*
X153863855Y-150269999D02*
X153863855Y-150193808D01*
X153863855Y-150193808D02*
X153825760Y-150079523D01*
X153825760Y-150079523D02*
X153787664Y-150041427D01*
X153787664Y-150041427D02*
X153520998Y-150041427D01*
X153520998Y-150041427D02*
X153520998Y-150193808D01*
X153863855Y-149698570D02*
X153063855Y-149698570D01*
X153063855Y-149698570D02*
X153863855Y-149241427D01*
X153863855Y-149241427D02*
X153063855Y-149241427D01*
X153863855Y-148860475D02*
X153063855Y-148860475D01*
X153063855Y-148860475D02*
X153063855Y-148669999D01*
X153063855Y-148669999D02*
X153101950Y-148555713D01*
X153101950Y-148555713D02*
X153178140Y-148479523D01*
X153178140Y-148479523D02*
X153254331Y-148441428D01*
X153254331Y-148441428D02*
X153406712Y-148403332D01*
X153406712Y-148403332D02*
X153520998Y-148403332D01*
X153520998Y-148403332D02*
X153673379Y-148441428D01*
X153673379Y-148441428D02*
X153749569Y-148479523D01*
X153749569Y-148479523D02*
X153825760Y-148555713D01*
X153825760Y-148555713D02*
X153863855Y-148669999D01*
X153863855Y-148669999D02*
X153863855Y-148860475D01*
X156059093Y-150678570D02*
X156059093Y-150069047D01*
X156363855Y-150373808D02*
X155754331Y-150373808D01*
X155563855Y-149307142D02*
X155563855Y-149688094D01*
X155563855Y-149688094D02*
X155944807Y-149726190D01*
X155944807Y-149726190D02*
X155906712Y-149688094D01*
X155906712Y-149688094D02*
X155868617Y-149611904D01*
X155868617Y-149611904D02*
X155868617Y-149421428D01*
X155868617Y-149421428D02*
X155906712Y-149345237D01*
X155906712Y-149345237D02*
X155944807Y-149307142D01*
X155944807Y-149307142D02*
X156020998Y-149269047D01*
X156020998Y-149269047D02*
X156211474Y-149269047D01*
X156211474Y-149269047D02*
X156287664Y-149307142D01*
X156287664Y-149307142D02*
X156325760Y-149345237D01*
X156325760Y-149345237D02*
X156363855Y-149421428D01*
X156363855Y-149421428D02*
X156363855Y-149611904D01*
X156363855Y-149611904D02*
X156325760Y-149688094D01*
X156325760Y-149688094D02*
X156287664Y-149726190D01*
X155563855Y-149040475D02*
X156363855Y-148773808D01*
X156363855Y-148773808D02*
X155563855Y-148507142D01*
X158851634Y-152603451D02*
X158051634Y-152603451D01*
X158851634Y-152146308D02*
X158394491Y-152489166D01*
X158051634Y-152146308D02*
X158508777Y-152603451D01*
X158432586Y-151536785D02*
X158470681Y-151422499D01*
X158470681Y-151422499D02*
X158508777Y-151384404D01*
X158508777Y-151384404D02*
X158584967Y-151346308D01*
X158584967Y-151346308D02*
X158699253Y-151346308D01*
X158699253Y-151346308D02*
X158775443Y-151384404D01*
X158775443Y-151384404D02*
X158813539Y-151422499D01*
X158813539Y-151422499D02*
X158851634Y-151498689D01*
X158851634Y-151498689D02*
X158851634Y-151803451D01*
X158851634Y-151803451D02*
X158051634Y-151803451D01*
X158051634Y-151803451D02*
X158051634Y-151536785D01*
X158051634Y-151536785D02*
X158089729Y-151460594D01*
X158089729Y-151460594D02*
X158127824Y-151422499D01*
X158127824Y-151422499D02*
X158204015Y-151384404D01*
X158204015Y-151384404D02*
X158280205Y-151384404D01*
X158280205Y-151384404D02*
X158356396Y-151422499D01*
X158356396Y-151422499D02*
X158394491Y-151460594D01*
X158394491Y-151460594D02*
X158432586Y-151536785D01*
X158432586Y-151536785D02*
X158432586Y-151803451D01*
X158851634Y-151003451D02*
X158051634Y-151003451D01*
X158051634Y-151003451D02*
X158051634Y-150812975D01*
X158051634Y-150812975D02*
X158089729Y-150698689D01*
X158089729Y-150698689D02*
X158165919Y-150622499D01*
X158165919Y-150622499D02*
X158242110Y-150584404D01*
X158242110Y-150584404D02*
X158394491Y-150546308D01*
X158394491Y-150546308D02*
X158508777Y-150546308D01*
X158508777Y-150546308D02*
X158661158Y-150584404D01*
X158661158Y-150584404D02*
X158737348Y-150622499D01*
X158737348Y-150622499D02*
X158813539Y-150698689D01*
X158813539Y-150698689D02*
X158851634Y-150812975D01*
X158851634Y-150812975D02*
X158851634Y-151003451D01*
X160601950Y-150081428D02*
X160563855Y-150157618D01*
X160563855Y-150157618D02*
X160563855Y-150271904D01*
X160563855Y-150271904D02*
X160601950Y-150386190D01*
X160601950Y-150386190D02*
X160678140Y-150462380D01*
X160678140Y-150462380D02*
X160754331Y-150500475D01*
X160754331Y-150500475D02*
X160906712Y-150538571D01*
X160906712Y-150538571D02*
X161020998Y-150538571D01*
X161020998Y-150538571D02*
X161173379Y-150500475D01*
X161173379Y-150500475D02*
X161249569Y-150462380D01*
X161249569Y-150462380D02*
X161325760Y-150386190D01*
X161325760Y-150386190D02*
X161363855Y-150271904D01*
X161363855Y-150271904D02*
X161363855Y-150195713D01*
X161363855Y-150195713D02*
X161325760Y-150081428D01*
X161325760Y-150081428D02*
X161287664Y-150043332D01*
X161287664Y-150043332D02*
X161020998Y-150043332D01*
X161020998Y-150043332D02*
X161020998Y-150195713D01*
X161363855Y-149700475D02*
X160563855Y-149700475D01*
X160563855Y-149700475D02*
X160563855Y-149395713D01*
X160563855Y-149395713D02*
X160601950Y-149319523D01*
X160601950Y-149319523D02*
X160640045Y-149281428D01*
X160640045Y-149281428D02*
X160716236Y-149243332D01*
X160716236Y-149243332D02*
X160830521Y-149243332D01*
X160830521Y-149243332D02*
X160906712Y-149281428D01*
X160906712Y-149281428D02*
X160944807Y-149319523D01*
X160944807Y-149319523D02*
X160982902Y-149395713D01*
X160982902Y-149395713D02*
X160982902Y-149700475D01*
X160563855Y-148976666D02*
X160563855Y-148443332D01*
X160563855Y-148443332D02*
X161363855Y-148786190D01*
X163958761Y-150529523D02*
X163158761Y-150529523D01*
X163958761Y-150072380D02*
X163501618Y-150415238D01*
X163158761Y-150072380D02*
X163615904Y-150529523D01*
X163539713Y-149462857D02*
X163577808Y-149348571D01*
X163577808Y-149348571D02*
X163615904Y-149310476D01*
X163615904Y-149310476D02*
X163692094Y-149272380D01*
X163692094Y-149272380D02*
X163806380Y-149272380D01*
X163806380Y-149272380D02*
X163882570Y-149310476D01*
X163882570Y-149310476D02*
X163920666Y-149348571D01*
X163920666Y-149348571D02*
X163958761Y-149424761D01*
X163958761Y-149424761D02*
X163958761Y-149729523D01*
X163958761Y-149729523D02*
X163158761Y-149729523D01*
X163158761Y-149729523D02*
X163158761Y-149462857D01*
X163158761Y-149462857D02*
X163196856Y-149386666D01*
X163196856Y-149386666D02*
X163234951Y-149348571D01*
X163234951Y-149348571D02*
X163311142Y-149310476D01*
X163311142Y-149310476D02*
X163387332Y-149310476D01*
X163387332Y-149310476D02*
X163463523Y-149348571D01*
X163463523Y-149348571D02*
X163501618Y-149386666D01*
X163501618Y-149386666D02*
X163539713Y-149462857D01*
X163539713Y-149462857D02*
X163539713Y-149729523D01*
X163882570Y-148472380D02*
X163920666Y-148510476D01*
X163920666Y-148510476D02*
X163958761Y-148624761D01*
X163958761Y-148624761D02*
X163958761Y-148700952D01*
X163958761Y-148700952D02*
X163920666Y-148815238D01*
X163920666Y-148815238D02*
X163844475Y-148891428D01*
X163844475Y-148891428D02*
X163768285Y-148929523D01*
X163768285Y-148929523D02*
X163615904Y-148967619D01*
X163615904Y-148967619D02*
X163501618Y-148967619D01*
X163501618Y-148967619D02*
X163349237Y-148929523D01*
X163349237Y-148929523D02*
X163273046Y-148891428D01*
X163273046Y-148891428D02*
X163196856Y-148815238D01*
X163196856Y-148815238D02*
X163158761Y-148700952D01*
X163158761Y-148700952D02*
X163158761Y-148624761D01*
X163158761Y-148624761D02*
X163196856Y-148510476D01*
X163196856Y-148510476D02*
X163234951Y-148472380D01*
D16*
X155869285Y-101633318D02*
X155808809Y-101693795D01*
X155808809Y-101693795D02*
X155627380Y-101754271D01*
X155627380Y-101754271D02*
X155506428Y-101754271D01*
X155506428Y-101754271D02*
X155324999Y-101693795D01*
X155324999Y-101693795D02*
X155204047Y-101572842D01*
X155204047Y-101572842D02*
X155143570Y-101451890D01*
X155143570Y-101451890D02*
X155083094Y-101209985D01*
X155083094Y-101209985D02*
X155083094Y-101028556D01*
X155083094Y-101028556D02*
X155143570Y-100786652D01*
X155143570Y-100786652D02*
X155204047Y-100665699D01*
X155204047Y-100665699D02*
X155324999Y-100544747D01*
X155324999Y-100544747D02*
X155506428Y-100484271D01*
X155506428Y-100484271D02*
X155627380Y-100484271D01*
X155627380Y-100484271D02*
X155808809Y-100544747D01*
X155808809Y-100544747D02*
X155869285Y-100605223D01*
X156957856Y-100907604D02*
X156957856Y-101754271D01*
X156655475Y-100423795D02*
X156353094Y-101330937D01*
X156353094Y-101330937D02*
X157139285Y-101330937D01*
X157562618Y-100605223D02*
X157623094Y-100544747D01*
X157623094Y-100544747D02*
X157744047Y-100484271D01*
X157744047Y-100484271D02*
X158046428Y-100484271D01*
X158046428Y-100484271D02*
X158167380Y-100544747D01*
X158167380Y-100544747D02*
X158227856Y-100605223D01*
X158227856Y-100605223D02*
X158288333Y-100726175D01*
X158288333Y-100726175D02*
X158288333Y-100847128D01*
X158288333Y-100847128D02*
X158227856Y-101028556D01*
X158227856Y-101028556D02*
X157502142Y-101754271D01*
X157502142Y-101754271D02*
X158288333Y-101754271D01*
X159376904Y-100484271D02*
X159134999Y-100484271D01*
X159134999Y-100484271D02*
X159014047Y-100544747D01*
X159014047Y-100544747D02*
X158953571Y-100605223D01*
X158953571Y-100605223D02*
X158832618Y-100786652D01*
X158832618Y-100786652D02*
X158772142Y-101028556D01*
X158772142Y-101028556D02*
X158772142Y-101512366D01*
X158772142Y-101512366D02*
X158832618Y-101633318D01*
X158832618Y-101633318D02*
X158893095Y-101693795D01*
X158893095Y-101693795D02*
X159014047Y-101754271D01*
X159014047Y-101754271D02*
X159255952Y-101754271D01*
X159255952Y-101754271D02*
X159376904Y-101693795D01*
X159376904Y-101693795D02*
X159437380Y-101633318D01*
X159437380Y-101633318D02*
X159497857Y-101512366D01*
X159497857Y-101512366D02*
X159497857Y-101209985D01*
X159497857Y-101209985D02*
X159437380Y-101089033D01*
X159437380Y-101089033D02*
X159376904Y-101028556D01*
X159376904Y-101028556D02*
X159255952Y-100968080D01*
X159255952Y-100968080D02*
X159014047Y-100968080D01*
X159014047Y-100968080D02*
X158893095Y-101028556D01*
X158893095Y-101028556D02*
X158832618Y-101089033D01*
X158832618Y-101089033D02*
X158772142Y-101209985D01*
X160707381Y-101754271D02*
X159981666Y-101754271D01*
X160344523Y-101754271D02*
X160344523Y-100484271D01*
X160344523Y-100484271D02*
X160223571Y-100665699D01*
X160223571Y-100665699D02*
X160102619Y-100786652D01*
X160102619Y-100786652D02*
X159981666Y-100847128D01*
X161795952Y-100907604D02*
X161795952Y-101754271D01*
X161493571Y-100423795D02*
X161191190Y-101330937D01*
X161191190Y-101330937D02*
X161977381Y-101330937D01*
D17*
G36*
X151415584Y-146398000D02*
G01*
X151110848Y-146398000D01*
X151081631Y-146186974D01*
X150853868Y-146186974D01*
X150824650Y-146398000D01*
X150519915Y-146398000D01*
X150619292Y-145952501D01*
X150887720Y-145952501D01*
X151047779Y-145952501D01*
X150969261Y-145443840D01*
X150966238Y-145443840D01*
X150887720Y-145952501D01*
X150619292Y-145952501D01*
X150787709Y-145197497D01*
X151147790Y-145197497D01*
X151415584Y-146398000D01*
G37*
G36*
X151452324Y-145197497D02*
G01*
X151861706Y-145197497D01*
X151977098Y-145908683D01*
X151980188Y-145908683D01*
X152095580Y-145197497D01*
X152504962Y-145197497D01*
X152504962Y-146398000D01*
X152237168Y-146398000D01*
X152237168Y-145503484D01*
X152234078Y-145503484D01*
X152081744Y-146398000D01*
X151875475Y-146398000D01*
X151723141Y-145503484D01*
X151720051Y-145503484D01*
X151720051Y-146398000D01*
X151452324Y-146398000D01*
X151452324Y-145197497D01*
G37*
G36*
X152619414Y-145197497D02*
G01*
X152905612Y-145197497D01*
X152905612Y-146398000D01*
X152619414Y-146398000D01*
X152619414Y-145197497D01*
G37*
G36*
X153399288Y-145746164D02*
G01*
X153768638Y-145746164D01*
X153768638Y-146398000D01*
X153574727Y-146398000D01*
X153568615Y-146292487D01*
X153565525Y-146292487D01*
X153548555Y-146328073D01*
X153526300Y-146356161D01*
X153499360Y-146378531D01*
X153469343Y-146395508D01*
X153436900Y-146407550D01*
X153401571Y-146415585D01*
X153328494Y-146421447D01*
X153256337Y-146416094D01*
X153199904Y-146401550D01*
X153156077Y-146379461D01*
X153117742Y-146347621D01*
X153086082Y-146307635D01*
X153060700Y-146258415D01*
X153035150Y-146173874D01*
X153019930Y-146063362D01*
X153013719Y-145943189D01*
X153011467Y-145797748D01*
X153015772Y-145650789D01*
X153027587Y-145530449D01*
X153042332Y-145454433D01*
X153063048Y-145389972D01*
X153089179Y-145335470D01*
X153123157Y-145287034D01*
X153164437Y-145247150D01*
X153213840Y-145215229D01*
X153268044Y-145193534D01*
X153336066Y-145179265D01*
X153420848Y-145174050D01*
X153494359Y-145179651D01*
X153560085Y-145195812D01*
X153619814Y-145224462D01*
X153670104Y-145266154D01*
X153710608Y-145320497D01*
X153742443Y-145391084D01*
X153761581Y-145472054D01*
X153768638Y-145576464D01*
X153491642Y-145576464D01*
X153487097Y-145488637D01*
X153476261Y-145437099D01*
X153461002Y-145407729D01*
X153439569Y-145390976D01*
X153410034Y-145385076D01*
X153377293Y-145390049D01*
X153353883Y-145403614D01*
X153336860Y-145427139D01*
X153323120Y-145469339D01*
X153315272Y-145520611D01*
X153310023Y-145596468D01*
X153306933Y-145797748D01*
X153310023Y-145999029D01*
X153315271Y-146074895D01*
X153323120Y-146126230D01*
X153336509Y-146168562D01*
X153352338Y-146191883D01*
X153374064Y-146205503D01*
X153403922Y-146210421D01*
X153425981Y-146207802D01*
X153444625Y-146200309D01*
X153460313Y-146186617D01*
X153474649Y-146162354D01*
X153485045Y-146131541D01*
X153493926Y-146085491D01*
X153498901Y-146032749D01*
X153500844Y-145957190D01*
X153399288Y-145957190D01*
X153399288Y-145746164D01*
G37*
G36*
X154693323Y-146398000D02*
G01*
X154388587Y-146398000D01*
X154359370Y-146186974D01*
X154131607Y-146186974D01*
X154102390Y-146398000D01*
X153797654Y-146398000D01*
X153897031Y-145952501D01*
X154165459Y-145952501D01*
X154325518Y-145952501D01*
X154247000Y-145443840D01*
X154243977Y-145443840D01*
X154165459Y-145952501D01*
X153897031Y-145952501D01*
X154065448Y-145197497D01*
X154425529Y-145197497D01*
X154693323Y-146398000D01*
G37*
G36*
X154716227Y-145788369D02*
G01*
X155196335Y-145788369D01*
X155196335Y-146041600D01*
X154716227Y-146041600D01*
X154716227Y-145788369D01*
G37*
G36*
X155307160Y-145197497D02*
G01*
X155593425Y-145197497D01*
X155593425Y-145638307D01*
X155768865Y-145638307D01*
X155768865Y-145197497D01*
X156055062Y-145197497D01*
X156055062Y-146398000D01*
X155768865Y-146398000D01*
X155768865Y-145905606D01*
X155593425Y-145905606D01*
X155593425Y-146398000D01*
X155307160Y-146398000D01*
X155307160Y-145197497D01*
G37*
G36*
X156179791Y-145197497D02*
G01*
X156465989Y-145197497D01*
X156465989Y-146398000D01*
X156179791Y-146398000D01*
X156179791Y-145197497D01*
G37*
G36*
X157088026Y-145203865D02*
G01*
X157151353Y-145221072D01*
X157199719Y-145247103D01*
X157242073Y-145283952D01*
X157276501Y-145327965D01*
X157303558Y-145379946D01*
X157331001Y-145467397D01*
X157345873Y-145571628D01*
X157351627Y-145681217D01*
X157353598Y-145797748D01*
X157351627Y-145914280D01*
X157345873Y-146023868D01*
X157331001Y-146128099D01*
X157303558Y-146215550D01*
X157276501Y-146267532D01*
X157242073Y-146311544D01*
X157199719Y-146348394D01*
X157151353Y-146374424D01*
X157088026Y-146391631D01*
X157005808Y-146398000D01*
X156590314Y-146398000D01*
X156590314Y-146172905D01*
X156876579Y-146172905D01*
X156933537Y-146172905D01*
X156972653Y-146169392D01*
X156999629Y-146160302D01*
X157020452Y-146142027D01*
X157037309Y-146107326D01*
X157047469Y-146062612D01*
X157054235Y-145992947D01*
X157058131Y-145797748D01*
X157054235Y-145602623D01*
X157047468Y-145532894D01*
X157037309Y-145488170D01*
X157020452Y-145453470D01*
X156999629Y-145435194D01*
X156972653Y-145426105D01*
X156933537Y-145422591D01*
X156876579Y-145422591D01*
X156876579Y-146172905D01*
X156590314Y-146172905D01*
X156590314Y-145197497D01*
X157005808Y-145197497D01*
X157088026Y-145203865D01*
G37*
G36*
X158399428Y-145203853D02*
G01*
X158460573Y-145221164D01*
X158513701Y-145250272D01*
X158554405Y-145287916D01*
X158585415Y-145334674D01*
X158606728Y-145390131D01*
X158618753Y-145450878D01*
X158622915Y-145518505D01*
X158617368Y-145598368D01*
X158602045Y-145662711D01*
X158578250Y-145714510D01*
X158543726Y-145756605D01*
X158497089Y-145787055D01*
X158435184Y-145805735D01*
X158435184Y-145809106D01*
X158486190Y-145818871D01*
X158525272Y-145835811D01*
X158554902Y-145859021D01*
X158576772Y-145888607D01*
X158597049Y-145936739D01*
X158610368Y-145998364D01*
X158615258Y-146076771D01*
X158615258Y-146178840D01*
X158616803Y-146275854D01*
X158621356Y-146321788D01*
X158629095Y-146344437D01*
X158641386Y-146363708D01*
X158661402Y-146381293D01*
X158661402Y-146398000D01*
X158356666Y-146398000D01*
X158340546Y-146342825D01*
X158332822Y-146279297D01*
X158329732Y-146218261D01*
X158328994Y-146170561D01*
X158328994Y-146090254D01*
X158324359Y-146006649D01*
X158317629Y-145975400D01*
X158308239Y-145953966D01*
X158294949Y-145937469D01*
X158278954Y-145927221D01*
X158260086Y-145921722D01*
X158235162Y-145919674D01*
X158159733Y-145919674D01*
X158159733Y-146398000D01*
X157873469Y-146398000D01*
X157873469Y-145708648D01*
X158159733Y-145708648D01*
X158216691Y-145708648D01*
X158256006Y-145703690D01*
X158285440Y-145690139D01*
X158307433Y-145668642D01*
X158323233Y-145640373D01*
X158333169Y-145605989D01*
X158336718Y-145563935D01*
X158332926Y-145514790D01*
X158322981Y-145479962D01*
X158308239Y-145455784D01*
X158287154Y-145438420D01*
X158257151Y-145426932D01*
X158215146Y-145422591D01*
X158159733Y-145422591D01*
X158159733Y-145708648D01*
X157873469Y-145708648D01*
X157873469Y-145197497D01*
X158321269Y-145197497D01*
X158399428Y-145203853D01*
G37*
G36*
X158970772Y-146398000D02*
G01*
X158970772Y-145586722D01*
X158764570Y-145586722D01*
X158764570Y-145389765D01*
X158828444Y-145387283D01*
X158878418Y-145380606D01*
X158923797Y-145368128D01*
X158959958Y-145350711D01*
X158990805Y-145326350D01*
X159015371Y-145295023D01*
X159034385Y-145257070D01*
X159050835Y-145206876D01*
X159257037Y-145206876D01*
X159257037Y-146398000D01*
X158970772Y-146398000D01*
G37*
G36*
X159560564Y-146065048D02*
G01*
X159819089Y-146065048D01*
X159819089Y-146398000D01*
X159560564Y-146398000D01*
X159560564Y-146065048D01*
G37*
G36*
X160171177Y-146398000D02*
G01*
X160171177Y-145586722D01*
X159964975Y-145586722D01*
X159964975Y-145389765D01*
X160028849Y-145387283D01*
X160078823Y-145380606D01*
X160124201Y-145368128D01*
X160160363Y-145350711D01*
X160191210Y-145326350D01*
X160215776Y-145295023D01*
X160234790Y-145257070D01*
X160251240Y-145206876D01*
X160457442Y-145206876D01*
X160457442Y-146398000D01*
X160171177Y-146398000D01*
G37*
G36*
X161128438Y-145610170D02*
G01*
X161133064Y-145520237D01*
X161143013Y-145444646D01*
X161163085Y-145375800D01*
X161196142Y-145317811D01*
X161225315Y-145285454D01*
X161261389Y-145258000D01*
X161305422Y-145235452D01*
X161352363Y-145220477D01*
X161411550Y-145210527D01*
X161485429Y-145206876D01*
X161587842Y-145214137D01*
X161660869Y-145233034D01*
X161723124Y-145264654D01*
X161767799Y-145302937D01*
X161800920Y-145350507D01*
X161821666Y-145405665D01*
X161832559Y-145465922D01*
X161836309Y-145531914D01*
X161831787Y-145612028D01*
X161819135Y-145679294D01*
X161799367Y-145735759D01*
X161756486Y-145814158D01*
X161700900Y-145885602D01*
X161531640Y-146065854D01*
X161490870Y-146111356D01*
X161471808Y-146137712D01*
X161460846Y-146163526D01*
X161836309Y-146163526D01*
X161836309Y-146398000D01*
X161119169Y-146398000D01*
X161123077Y-146315789D01*
X161134643Y-146237041D01*
X161153760Y-146161255D01*
X161182207Y-146089504D01*
X161224420Y-146016943D01*
X161282317Y-145942902D01*
X161473138Y-145731290D01*
X161510072Y-145685031D01*
X161532379Y-145644828D01*
X161545213Y-145599917D01*
X161550111Y-145536531D01*
X161544055Y-145467595D01*
X161530095Y-145432410D01*
X161506715Y-145411028D01*
X161476228Y-145403833D01*
X161446943Y-145409695D01*
X161434093Y-145417832D01*
X161421554Y-145432117D01*
X161411673Y-145450987D01*
X161403083Y-145479524D01*
X161398107Y-145512701D01*
X161396165Y-145560271D01*
X161396165Y-145610170D01*
X161128438Y-145610170D01*
G37*
G36*
X162382451Y-145214062D02*
G01*
X162456124Y-145233840D01*
X162499907Y-145256321D01*
X162538175Y-145287980D01*
X162571584Y-145329681D01*
X162597797Y-145377744D01*
X162620595Y-145439099D01*
X162639288Y-145516381D01*
X162655407Y-145641871D01*
X162661587Y-145814161D01*
X162655407Y-145986452D01*
X162639288Y-146111942D01*
X162620595Y-146189223D01*
X162597797Y-146250579D01*
X162571584Y-146298642D01*
X162538178Y-146340349D01*
X162499909Y-146372033D01*
X162456124Y-146394556D01*
X162382454Y-146414280D01*
X162290692Y-146421447D01*
X162198921Y-146414281D01*
X162125193Y-146394556D01*
X162081451Y-146372037D01*
X162043204Y-146340354D01*
X162009801Y-146298642D01*
X161983587Y-146250579D01*
X161960789Y-146189223D01*
X161942096Y-146111942D01*
X161925977Y-145986452D01*
X161919797Y-145814161D01*
X161925977Y-145641871D01*
X161929014Y-145618230D01*
X162206062Y-145618230D01*
X162206062Y-146010093D01*
X162210629Y-146114800D01*
X162217231Y-146153489D01*
X162226010Y-146180159D01*
X162238514Y-146201568D01*
X162252205Y-146214451D01*
X162268895Y-146221814D01*
X162290692Y-146224489D01*
X162312489Y-146221814D01*
X162329179Y-146214451D01*
X162342857Y-146201565D01*
X162355306Y-146180159D01*
X162364121Y-146153483D01*
X162370688Y-146114800D01*
X162375322Y-146010093D01*
X162375322Y-145618230D01*
X162370688Y-145513523D01*
X162364118Y-145474850D01*
X162355306Y-145448237D01*
X162342852Y-145426769D01*
X162329179Y-145413872D01*
X162312489Y-145406509D01*
X162290692Y-145403833D01*
X162268895Y-145406509D01*
X162252205Y-145413872D01*
X162238519Y-145426766D01*
X162226010Y-145448237D01*
X162217234Y-145474844D01*
X162210629Y-145513523D01*
X162206062Y-145618230D01*
X161929014Y-145618230D01*
X161942096Y-145516381D01*
X161960789Y-145439099D01*
X161983587Y-145377744D01*
X162009801Y-145329681D01*
X162043206Y-145287975D01*
X162081453Y-145256317D01*
X162125193Y-145233840D01*
X162198925Y-145214060D01*
X162290692Y-145206876D01*
X162382451Y-145214062D01*
G37*
G36*
X162729694Y-145610170D02*
G01*
X162734320Y-145520237D01*
X162744269Y-145444646D01*
X162764341Y-145375800D01*
X162797398Y-145317811D01*
X162826571Y-145285454D01*
X162862645Y-145258000D01*
X162906679Y-145235452D01*
X162953619Y-145220477D01*
X163012806Y-145210527D01*
X163086686Y-145206876D01*
X163189098Y-145214137D01*
X163262125Y-145233034D01*
X163324380Y-145264654D01*
X163369055Y-145302937D01*
X163402176Y-145350507D01*
X163422922Y-145405665D01*
X163433815Y-145465922D01*
X163437565Y-145531914D01*
X163433043Y-145612028D01*
X163420391Y-145679294D01*
X163400623Y-145735759D01*
X163357742Y-145814158D01*
X163302157Y-145885602D01*
X163132896Y-146065854D01*
X163092126Y-146111356D01*
X163073065Y-146137712D01*
X163062103Y-146163526D01*
X163437565Y-146163526D01*
X163437565Y-146398000D01*
X162720425Y-146398000D01*
X162724333Y-146315789D01*
X162735899Y-146237041D01*
X162755016Y-146161255D01*
X162783463Y-146089504D01*
X162825676Y-146016943D01*
X162883573Y-145942902D01*
X163074394Y-145731290D01*
X163111328Y-145685031D01*
X163133635Y-145644828D01*
X163146469Y-145599917D01*
X163151367Y-145536531D01*
X163145311Y-145467595D01*
X163131351Y-145432410D01*
X163107972Y-145411028D01*
X163077484Y-145403833D01*
X163048199Y-145409695D01*
X163035349Y-145417832D01*
X163022810Y-145432117D01*
X163012930Y-145450987D01*
X163004339Y-145479524D01*
X162999364Y-145512701D01*
X162997421Y-145560271D01*
X162997421Y-145610170D01*
X162729694Y-145610170D01*
G37*
G36*
X163997488Y-145213871D02*
G01*
X164068933Y-145232009D01*
X164129792Y-145262596D01*
X164173578Y-145299859D01*
X164206214Y-145345907D01*
X164226640Y-145397825D01*
X164237605Y-145453785D01*
X164241283Y-145511691D01*
X163973489Y-145511691D01*
X163965591Y-145456603D01*
X163951928Y-145426695D01*
X163930735Y-145410178D01*
X163894971Y-145403833D01*
X163866370Y-145410505D01*
X163840364Y-145431384D01*
X163823137Y-145463989D01*
X163816520Y-145515648D01*
X163816520Y-145704252D01*
X163819609Y-145704252D01*
X163834822Y-145678085D01*
X163857395Y-145655182D01*
X163888858Y-145635376D01*
X163941856Y-145616665D01*
X164002773Y-145610170D01*
X164059505Y-145614750D01*
X164108897Y-145627829D01*
X164153279Y-145651327D01*
X164191243Y-145686740D01*
X164220957Y-145733295D01*
X164244372Y-145797895D01*
X164257772Y-145872199D01*
X164262843Y-145972064D01*
X164256385Y-146088402D01*
X164238999Y-146178254D01*
X164208621Y-146257171D01*
X164168205Y-146317986D01*
X164116332Y-146364898D01*
X164053551Y-146397047D01*
X163982896Y-146415020D01*
X163898127Y-146421447D01*
X163807512Y-146414971D01*
X163733435Y-146397047D01*
X163688515Y-146376741D01*
X163649514Y-146349099D01*
X163615691Y-146313809D01*
X163588019Y-146272252D01*
X163564299Y-146220937D01*
X163544897Y-146158177D01*
X163527628Y-146055129D01*
X163526442Y-146029877D01*
X163816520Y-146029877D01*
X163822074Y-146134621D01*
X163834185Y-146184263D01*
X163848930Y-146206542D01*
X163869115Y-146219758D01*
X163896583Y-146224489D01*
X163921061Y-146219999D01*
X163940642Y-146206971D01*
X163956563Y-146184263D01*
X163970308Y-146134472D01*
X163976578Y-146029877D01*
X163971002Y-145925146D01*
X163958846Y-145875564D01*
X163944137Y-145853236D01*
X163923996Y-145840000D01*
X163896583Y-145835264D01*
X163872065Y-145839764D01*
X163852464Y-145852815D01*
X163836536Y-145875564D01*
X163822792Y-145925291D01*
X163816520Y-146029877D01*
X163526442Y-146029877D01*
X163521053Y-145915131D01*
X163521053Y-145782214D01*
X163524544Y-145648059D01*
X163534151Y-145537410D01*
X163546486Y-145467283D01*
X163564355Y-145407789D01*
X163587212Y-145357452D01*
X163617498Y-145312684D01*
X163655173Y-145275560D01*
X163701127Y-145245564D01*
X163751691Y-145225243D01*
X163815847Y-145211808D01*
X163896583Y-145206876D01*
X163997488Y-145213871D01*
G37*
G36*
X164335585Y-145788369D02*
G01*
X164815693Y-145788369D01*
X164815693Y-146041600D01*
X164335585Y-146041600D01*
X164335585Y-145788369D01*
G37*
G36*
X165350685Y-145214062D02*
G01*
X165424358Y-145233840D01*
X165468142Y-145256321D01*
X165506410Y-145287980D01*
X165539818Y-145329681D01*
X165566032Y-145377744D01*
X165588830Y-145439099D01*
X165607522Y-145516381D01*
X165623641Y-145641871D01*
X165629821Y-145814161D01*
X165623641Y-145986452D01*
X165607522Y-146111942D01*
X165588830Y-146189223D01*
X165566032Y-146250579D01*
X165539818Y-146298642D01*
X165506412Y-146340349D01*
X165468143Y-146372033D01*
X165424358Y-146394556D01*
X165350689Y-146414280D01*
X165258926Y-146421447D01*
X165167156Y-146414281D01*
X165093428Y-146394556D01*
X165049686Y-146372037D01*
X165011438Y-146340354D01*
X164978035Y-146298642D01*
X164951821Y-146250579D01*
X164929023Y-146189223D01*
X164910331Y-146111942D01*
X164894212Y-145986452D01*
X164888032Y-145814161D01*
X164894212Y-145641871D01*
X164897249Y-145618230D01*
X165174296Y-145618230D01*
X165174296Y-146010093D01*
X165178864Y-146114800D01*
X165185466Y-146153489D01*
X165194245Y-146180159D01*
X165206749Y-146201568D01*
X165220440Y-146214451D01*
X165237130Y-146221814D01*
X165258926Y-146224489D01*
X165280723Y-146221814D01*
X165297413Y-146214451D01*
X165311091Y-146201565D01*
X165323541Y-146180159D01*
X165332355Y-146153483D01*
X165338922Y-146114800D01*
X165343557Y-146010093D01*
X165343557Y-145618230D01*
X165338922Y-145513523D01*
X165332353Y-145474850D01*
X165323541Y-145448237D01*
X165311087Y-145426769D01*
X165297413Y-145413872D01*
X165280723Y-145406509D01*
X165258926Y-145403833D01*
X165237130Y-145406509D01*
X165220440Y-145413872D01*
X165206753Y-145426766D01*
X165194245Y-145448237D01*
X165185468Y-145474844D01*
X165178864Y-145513523D01*
X165174296Y-145618230D01*
X164897249Y-145618230D01*
X164910331Y-145516381D01*
X164929023Y-145439099D01*
X164951821Y-145377744D01*
X164978035Y-145329681D01*
X165011440Y-145287975D01*
X165049687Y-145256317D01*
X165093428Y-145233840D01*
X165167160Y-145214060D01*
X165258926Y-145206876D01*
X165350685Y-145214062D01*
G37*
G36*
X165722579Y-145235013D02*
G01*
X166355021Y-145235013D01*
X166355021Y-145469486D01*
X165941072Y-145469486D01*
X165928781Y-145669154D01*
X165971300Y-145633121D01*
X166018784Y-145605480D01*
X166070856Y-145588073D01*
X166130348Y-145582033D01*
X166195432Y-145588422D01*
X166249520Y-145606416D01*
X166294764Y-145635155D01*
X166332655Y-145675016D01*
X166361076Y-145722764D01*
X166382979Y-145783881D01*
X166397417Y-145861415D01*
X166402710Y-145959022D01*
X166397968Y-146070980D01*
X166384978Y-146161768D01*
X166360607Y-146243328D01*
X166325737Y-146306702D01*
X166295449Y-146341620D01*
X166259056Y-146370329D01*
X166215717Y-146393017D01*
X166142614Y-146413716D01*
X166045651Y-146421447D01*
X165949112Y-146414585D01*
X165874110Y-146396009D01*
X165816379Y-146367969D01*
X165772484Y-146331541D01*
X165736907Y-146283986D01*
X165710895Y-146227536D01*
X165694489Y-146160421D01*
X165688660Y-146080288D01*
X165688660Y-146041600D01*
X165956454Y-146041600D01*
X165956454Y-146081534D01*
X165962807Y-146157220D01*
X165977208Y-146194594D01*
X166001788Y-146216874D01*
X166034971Y-146224489D01*
X166070301Y-146217016D01*
X166083778Y-146205721D01*
X166096496Y-146182870D01*
X166105189Y-146153090D01*
X166111877Y-146106227D01*
X166116512Y-145971258D01*
X166110154Y-145879371D01*
X166095690Y-145832187D01*
X166079406Y-145810150D01*
X166059571Y-145797442D01*
X166034971Y-145793059D01*
X166002484Y-145799169D01*
X165978014Y-145816579D01*
X165962562Y-145845133D01*
X165956454Y-145893736D01*
X165697929Y-145893736D01*
X165722579Y-145235013D01*
G37*
D10*
X152416667Y-140307200D02*
X152559524Y-140354819D01*
X152559524Y-140354819D02*
X152797619Y-140354819D01*
X152797619Y-140354819D02*
X152892857Y-140307200D01*
X152892857Y-140307200D02*
X152940476Y-140259580D01*
X152940476Y-140259580D02*
X152988095Y-140164342D01*
X152988095Y-140164342D02*
X152988095Y-140069104D01*
X152988095Y-140069104D02*
X152940476Y-139973866D01*
X152940476Y-139973866D02*
X152892857Y-139926247D01*
X152892857Y-139926247D02*
X152797619Y-139878628D01*
X152797619Y-139878628D02*
X152607143Y-139831009D01*
X152607143Y-139831009D02*
X152511905Y-139783390D01*
X152511905Y-139783390D02*
X152464286Y-139735771D01*
X152464286Y-139735771D02*
X152416667Y-139640533D01*
X152416667Y-139640533D02*
X152416667Y-139545295D01*
X152416667Y-139545295D02*
X152464286Y-139450057D01*
X152464286Y-139450057D02*
X152511905Y-139402438D01*
X152511905Y-139402438D02*
X152607143Y-139354819D01*
X152607143Y-139354819D02*
X152845238Y-139354819D01*
X152845238Y-139354819D02*
X152988095Y-139402438D01*
X153321429Y-139354819D02*
X153559524Y-140354819D01*
X153559524Y-140354819D02*
X153750000Y-139640533D01*
X153750000Y-139640533D02*
X153940476Y-140354819D01*
X153940476Y-140354819D02*
X154178572Y-139354819D01*
X155083333Y-140354819D02*
X154511905Y-140354819D01*
X154797619Y-140354819D02*
X154797619Y-139354819D01*
X154797619Y-139354819D02*
X154702381Y-139497676D01*
X154702381Y-139497676D02*
X154607143Y-139592914D01*
X154607143Y-139592914D02*
X154511905Y-139640533D01*
D15*
X165923855Y-128696666D02*
X166495283Y-128696666D01*
X166495283Y-128696666D02*
X166609569Y-128734761D01*
X166609569Y-128734761D02*
X166685760Y-128810952D01*
X166685760Y-128810952D02*
X166723855Y-128925237D01*
X166723855Y-128925237D02*
X166723855Y-129001428D01*
X166190521Y-127972856D02*
X166723855Y-127972856D01*
X165885760Y-128163332D02*
X166457188Y-128353809D01*
X166457188Y-128353809D02*
X166457188Y-127858570D01*
X157890476Y-139313855D02*
X157890476Y-139961474D01*
X157890476Y-139961474D02*
X157928571Y-140037664D01*
X157928571Y-140037664D02*
X157966666Y-140075760D01*
X157966666Y-140075760D02*
X158042857Y-140113855D01*
X158042857Y-140113855D02*
X158195238Y-140113855D01*
X158195238Y-140113855D02*
X158271428Y-140075760D01*
X158271428Y-140075760D02*
X158309523Y-140037664D01*
X158309523Y-140037664D02*
X158347619Y-139961474D01*
X158347619Y-139961474D02*
X158347619Y-139313855D01*
X159109523Y-139313855D02*
X158728571Y-139313855D01*
X158728571Y-139313855D02*
X158690475Y-139694807D01*
X158690475Y-139694807D02*
X158728571Y-139656712D01*
X158728571Y-139656712D02*
X158804761Y-139618617D01*
X158804761Y-139618617D02*
X158995237Y-139618617D01*
X158995237Y-139618617D02*
X159071428Y-139656712D01*
X159071428Y-139656712D02*
X159109523Y-139694807D01*
X159109523Y-139694807D02*
X159147618Y-139770998D01*
X159147618Y-139770998D02*
X159147618Y-139961474D01*
X159147618Y-139961474D02*
X159109523Y-140037664D01*
X159109523Y-140037664D02*
X159071428Y-140075760D01*
X159071428Y-140075760D02*
X158995237Y-140113855D01*
X158995237Y-140113855D02*
X158804761Y-140113855D01*
X158804761Y-140113855D02*
X158728571Y-140075760D01*
X158728571Y-140075760D02*
X158690475Y-140037664D01*
X151346667Y-127277664D02*
X151308571Y-127315760D01*
X151308571Y-127315760D02*
X151194286Y-127353855D01*
X151194286Y-127353855D02*
X151118095Y-127353855D01*
X151118095Y-127353855D02*
X151003809Y-127315760D01*
X151003809Y-127315760D02*
X150927619Y-127239569D01*
X150927619Y-127239569D02*
X150889524Y-127163379D01*
X150889524Y-127163379D02*
X150851428Y-127010998D01*
X150851428Y-127010998D02*
X150851428Y-126896712D01*
X150851428Y-126896712D02*
X150889524Y-126744331D01*
X150889524Y-126744331D02*
X150927619Y-126668140D01*
X150927619Y-126668140D02*
X151003809Y-126591950D01*
X151003809Y-126591950D02*
X151118095Y-126553855D01*
X151118095Y-126553855D02*
X151194286Y-126553855D01*
X151194286Y-126553855D02*
X151308571Y-126591950D01*
X151308571Y-126591950D02*
X151346667Y-126630045D01*
X151803809Y-126896712D02*
X151727619Y-126858617D01*
X151727619Y-126858617D02*
X151689524Y-126820521D01*
X151689524Y-126820521D02*
X151651428Y-126744331D01*
X151651428Y-126744331D02*
X151651428Y-126706236D01*
X151651428Y-126706236D02*
X151689524Y-126630045D01*
X151689524Y-126630045D02*
X151727619Y-126591950D01*
X151727619Y-126591950D02*
X151803809Y-126553855D01*
X151803809Y-126553855D02*
X151956190Y-126553855D01*
X151956190Y-126553855D02*
X152032381Y-126591950D01*
X152032381Y-126591950D02*
X152070476Y-126630045D01*
X152070476Y-126630045D02*
X152108571Y-126706236D01*
X152108571Y-126706236D02*
X152108571Y-126744331D01*
X152108571Y-126744331D02*
X152070476Y-126820521D01*
X152070476Y-126820521D02*
X152032381Y-126858617D01*
X152032381Y-126858617D02*
X151956190Y-126896712D01*
X151956190Y-126896712D02*
X151803809Y-126896712D01*
X151803809Y-126896712D02*
X151727619Y-126934807D01*
X151727619Y-126934807D02*
X151689524Y-126972902D01*
X151689524Y-126972902D02*
X151651428Y-127049093D01*
X151651428Y-127049093D02*
X151651428Y-127201474D01*
X151651428Y-127201474D02*
X151689524Y-127277664D01*
X151689524Y-127277664D02*
X151727619Y-127315760D01*
X151727619Y-127315760D02*
X151803809Y-127353855D01*
X151803809Y-127353855D02*
X151956190Y-127353855D01*
X151956190Y-127353855D02*
X152032381Y-127315760D01*
X152032381Y-127315760D02*
X152070476Y-127277664D01*
X152070476Y-127277664D02*
X152108571Y-127201474D01*
X152108571Y-127201474D02*
X152108571Y-127049093D01*
X152108571Y-127049093D02*
X152070476Y-126972902D01*
X152070476Y-126972902D02*
X152032381Y-126934807D01*
X152032381Y-126934807D02*
X151956190Y-126896712D01*
X150576667Y-129212773D02*
X150310000Y-128831820D01*
X150119524Y-129212773D02*
X150119524Y-128412773D01*
X150119524Y-128412773D02*
X150424286Y-128412773D01*
X150424286Y-128412773D02*
X150500476Y-128450868D01*
X150500476Y-128450868D02*
X150538571Y-128488963D01*
X150538571Y-128488963D02*
X150576667Y-128565154D01*
X150576667Y-128565154D02*
X150576667Y-128679439D01*
X150576667Y-128679439D02*
X150538571Y-128755630D01*
X150538571Y-128755630D02*
X150500476Y-128793725D01*
X150500476Y-128793725D02*
X150424286Y-128831820D01*
X150424286Y-128831820D02*
X150119524Y-128831820D01*
X150957619Y-129212773D02*
X151110000Y-129212773D01*
X151110000Y-129212773D02*
X151186190Y-129174678D01*
X151186190Y-129174678D02*
X151224286Y-129136582D01*
X151224286Y-129136582D02*
X151300476Y-129022297D01*
X151300476Y-129022297D02*
X151338571Y-128869916D01*
X151338571Y-128869916D02*
X151338571Y-128565154D01*
X151338571Y-128565154D02*
X151300476Y-128488963D01*
X151300476Y-128488963D02*
X151262381Y-128450868D01*
X151262381Y-128450868D02*
X151186190Y-128412773D01*
X151186190Y-128412773D02*
X151033809Y-128412773D01*
X151033809Y-128412773D02*
X150957619Y-128450868D01*
X150957619Y-128450868D02*
X150919524Y-128488963D01*
X150919524Y-128488963D02*
X150881428Y-128565154D01*
X150881428Y-128565154D02*
X150881428Y-128755630D01*
X150881428Y-128755630D02*
X150919524Y-128831820D01*
X150919524Y-128831820D02*
X150957619Y-128869916D01*
X150957619Y-128869916D02*
X151033809Y-128908011D01*
X151033809Y-128908011D02*
X151186190Y-128908011D01*
X151186190Y-128908011D02*
X151262381Y-128869916D01*
X151262381Y-128869916D02*
X151300476Y-128831820D01*
X151300476Y-128831820D02*
X151338571Y-128755630D01*
X159335713Y-115425760D02*
X159449999Y-115463855D01*
X159449999Y-115463855D02*
X159640475Y-115463855D01*
X159640475Y-115463855D02*
X159716666Y-115425760D01*
X159716666Y-115425760D02*
X159754761Y-115387664D01*
X159754761Y-115387664D02*
X159792856Y-115311474D01*
X159792856Y-115311474D02*
X159792856Y-115235283D01*
X159792856Y-115235283D02*
X159754761Y-115159093D01*
X159754761Y-115159093D02*
X159716666Y-115120998D01*
X159716666Y-115120998D02*
X159640475Y-115082902D01*
X159640475Y-115082902D02*
X159488094Y-115044807D01*
X159488094Y-115044807D02*
X159411904Y-115006712D01*
X159411904Y-115006712D02*
X159373809Y-114968617D01*
X159373809Y-114968617D02*
X159335713Y-114892426D01*
X159335713Y-114892426D02*
X159335713Y-114816236D01*
X159335713Y-114816236D02*
X159373809Y-114740045D01*
X159373809Y-114740045D02*
X159411904Y-114701950D01*
X159411904Y-114701950D02*
X159488094Y-114663855D01*
X159488094Y-114663855D02*
X159678571Y-114663855D01*
X159678571Y-114663855D02*
X159792856Y-114701950D01*
X160364285Y-114663855D02*
X160364285Y-115235283D01*
X160364285Y-115235283D02*
X160326190Y-115349569D01*
X160326190Y-115349569D02*
X160249999Y-115425760D01*
X160249999Y-115425760D02*
X160135714Y-115463855D01*
X160135714Y-115463855D02*
X160059523Y-115463855D01*
X161164285Y-115463855D02*
X160707142Y-115463855D01*
X160935714Y-115463855D02*
X160935714Y-114663855D01*
X160935714Y-114663855D02*
X160859523Y-114778140D01*
X160859523Y-114778140D02*
X160783333Y-114854331D01*
X160783333Y-114854331D02*
X160707142Y-114892426D01*
X164479761Y-135975800D02*
X164098809Y-135975800D01*
X164098809Y-135975800D02*
X164098809Y-135175800D01*
X164746428Y-135556752D02*
X165013094Y-135556752D01*
X165127380Y-135975800D02*
X164746428Y-135975800D01*
X164746428Y-135975800D02*
X164746428Y-135175800D01*
X164746428Y-135175800D02*
X165127380Y-135175800D01*
X165470238Y-135975800D02*
X165470238Y-135175800D01*
X165470238Y-135175800D02*
X165660714Y-135175800D01*
X165660714Y-135175800D02*
X165775000Y-135213895D01*
X165775000Y-135213895D02*
X165851190Y-135290085D01*
X165851190Y-135290085D02*
X165889285Y-135366276D01*
X165889285Y-135366276D02*
X165927381Y-135518657D01*
X165927381Y-135518657D02*
X165927381Y-135632943D01*
X165927381Y-135632943D02*
X165889285Y-135785324D01*
X165889285Y-135785324D02*
X165851190Y-135861514D01*
X165851190Y-135861514D02*
X165775000Y-135937705D01*
X165775000Y-135937705D02*
X165660714Y-135975800D01*
X165660714Y-135975800D02*
X165470238Y-135975800D01*
X166232142Y-135251990D02*
X166270238Y-135213895D01*
X166270238Y-135213895D02*
X166346428Y-135175800D01*
X166346428Y-135175800D02*
X166536904Y-135175800D01*
X166536904Y-135175800D02*
X166613095Y-135213895D01*
X166613095Y-135213895D02*
X166651190Y-135251990D01*
X166651190Y-135251990D02*
X166689285Y-135328181D01*
X166689285Y-135328181D02*
X166689285Y-135404371D01*
X166689285Y-135404371D02*
X166651190Y-135518657D01*
X166651190Y-135518657D02*
X166194047Y-135975800D01*
X166194047Y-135975800D02*
X166689285Y-135975800D01*
X164422618Y-138073895D02*
X164346428Y-138035800D01*
X164346428Y-138035800D02*
X164232142Y-138035800D01*
X164232142Y-138035800D02*
X164117856Y-138073895D01*
X164117856Y-138073895D02*
X164041666Y-138150085D01*
X164041666Y-138150085D02*
X164003571Y-138226276D01*
X164003571Y-138226276D02*
X163965475Y-138378657D01*
X163965475Y-138378657D02*
X163965475Y-138492943D01*
X163965475Y-138492943D02*
X164003571Y-138645324D01*
X164003571Y-138645324D02*
X164041666Y-138721514D01*
X164041666Y-138721514D02*
X164117856Y-138797705D01*
X164117856Y-138797705D02*
X164232142Y-138835800D01*
X164232142Y-138835800D02*
X164308333Y-138835800D01*
X164308333Y-138835800D02*
X164422618Y-138797705D01*
X164422618Y-138797705D02*
X164460714Y-138759609D01*
X164460714Y-138759609D02*
X164460714Y-138492943D01*
X164460714Y-138492943D02*
X164308333Y-138492943D01*
X164803571Y-138835800D02*
X164803571Y-138035800D01*
X164803571Y-138035800D02*
X165108333Y-138035800D01*
X165108333Y-138035800D02*
X165184523Y-138073895D01*
X165184523Y-138073895D02*
X165222618Y-138111990D01*
X165222618Y-138111990D02*
X165260714Y-138188181D01*
X165260714Y-138188181D02*
X165260714Y-138302466D01*
X165260714Y-138302466D02*
X165222618Y-138378657D01*
X165222618Y-138378657D02*
X165184523Y-138416752D01*
X165184523Y-138416752D02*
X165108333Y-138454847D01*
X165108333Y-138454847D02*
X164803571Y-138454847D01*
X166022618Y-138835800D02*
X165565475Y-138835800D01*
X165794047Y-138835800D02*
X165794047Y-138035800D01*
X165794047Y-138035800D02*
X165717856Y-138150085D01*
X165717856Y-138150085D02*
X165641666Y-138226276D01*
X165641666Y-138226276D02*
X165565475Y-138264371D01*
X166708333Y-138035800D02*
X166555952Y-138035800D01*
X166555952Y-138035800D02*
X166479761Y-138073895D01*
X166479761Y-138073895D02*
X166441666Y-138111990D01*
X166441666Y-138111990D02*
X166365476Y-138226276D01*
X166365476Y-138226276D02*
X166327380Y-138378657D01*
X166327380Y-138378657D02*
X166327380Y-138683419D01*
X166327380Y-138683419D02*
X166365476Y-138759609D01*
X166365476Y-138759609D02*
X166403571Y-138797705D01*
X166403571Y-138797705D02*
X166479761Y-138835800D01*
X166479761Y-138835800D02*
X166632142Y-138835800D01*
X166632142Y-138835800D02*
X166708333Y-138797705D01*
X166708333Y-138797705D02*
X166746428Y-138759609D01*
X166746428Y-138759609D02*
X166784523Y-138683419D01*
X166784523Y-138683419D02*
X166784523Y-138492943D01*
X166784523Y-138492943D02*
X166746428Y-138416752D01*
X166746428Y-138416752D02*
X166708333Y-138378657D01*
X166708333Y-138378657D02*
X166632142Y-138340562D01*
X166632142Y-138340562D02*
X166479761Y-138340562D01*
X166479761Y-138340562D02*
X166403571Y-138378657D01*
X166403571Y-138378657D02*
X166365476Y-138416752D01*
X166365476Y-138416752D02*
X166327380Y-138492943D01*
X152750476Y-131393855D02*
X152750476Y-132041474D01*
X152750476Y-132041474D02*
X152788571Y-132117664D01*
X152788571Y-132117664D02*
X152826666Y-132155760D01*
X152826666Y-132155760D02*
X152902857Y-132193855D01*
X152902857Y-132193855D02*
X153055238Y-132193855D01*
X153055238Y-132193855D02*
X153131428Y-132155760D01*
X153131428Y-132155760D02*
X153169523Y-132117664D01*
X153169523Y-132117664D02*
X153207619Y-132041474D01*
X153207619Y-132041474D02*
X153207619Y-131393855D01*
X153931428Y-131660521D02*
X153931428Y-132193855D01*
X153740952Y-131355760D02*
X153550475Y-131927188D01*
X153550475Y-131927188D02*
X154045714Y-131927188D01*
X157890476Y-104413855D02*
X157890476Y-105061474D01*
X157890476Y-105061474D02*
X157928571Y-105137664D01*
X157928571Y-105137664D02*
X157966666Y-105175760D01*
X157966666Y-105175760D02*
X158042857Y-105213855D01*
X158042857Y-105213855D02*
X158195238Y-105213855D01*
X158195238Y-105213855D02*
X158271428Y-105175760D01*
X158271428Y-105175760D02*
X158309523Y-105137664D01*
X158309523Y-105137664D02*
X158347619Y-105061474D01*
X158347619Y-105061474D02*
X158347619Y-104413855D01*
X159147618Y-105213855D02*
X158690475Y-105213855D01*
X158919047Y-105213855D02*
X158919047Y-104413855D01*
X158919047Y-104413855D02*
X158842856Y-104528140D01*
X158842856Y-104528140D02*
X158766666Y-104604331D01*
X158766666Y-104604331D02*
X158690475Y-104642426D01*
X150727240Y-125609495D02*
X150346288Y-125609495D01*
X150346288Y-125609495D02*
X150346288Y-124809495D01*
X151412954Y-125609495D02*
X150955811Y-125609495D01*
X151184383Y-125609495D02*
X151184383Y-124809495D01*
X151184383Y-124809495D02*
X151108192Y-124923780D01*
X151108192Y-124923780D02*
X151032002Y-124999971D01*
X151032002Y-124999971D02*
X150955811Y-125038066D01*
X153380476Y-117593855D02*
X153380476Y-118241474D01*
X153380476Y-118241474D02*
X153418571Y-118317664D01*
X153418571Y-118317664D02*
X153456666Y-118355760D01*
X153456666Y-118355760D02*
X153532857Y-118393855D01*
X153532857Y-118393855D02*
X153685238Y-118393855D01*
X153685238Y-118393855D02*
X153761428Y-118355760D01*
X153761428Y-118355760D02*
X153799523Y-118317664D01*
X153799523Y-118317664D02*
X153837619Y-118241474D01*
X153837619Y-118241474D02*
X153837619Y-117593855D01*
X154180475Y-117670045D02*
X154218571Y-117631950D01*
X154218571Y-117631950D02*
X154294761Y-117593855D01*
X154294761Y-117593855D02*
X154485237Y-117593855D01*
X154485237Y-117593855D02*
X154561428Y-117631950D01*
X154561428Y-117631950D02*
X154599523Y-117670045D01*
X154599523Y-117670045D02*
X154637618Y-117746236D01*
X154637618Y-117746236D02*
X154637618Y-117822426D01*
X154637618Y-117822426D02*
X154599523Y-117936712D01*
X154599523Y-117936712D02*
X154142380Y-118393855D01*
X154142380Y-118393855D02*
X154637618Y-118393855D01*
X164896667Y-128981355D02*
X164630000Y-128600402D01*
X164439524Y-128981355D02*
X164439524Y-128181355D01*
X164439524Y-128181355D02*
X164744286Y-128181355D01*
X164744286Y-128181355D02*
X164820476Y-128219450D01*
X164820476Y-128219450D02*
X164858571Y-128257545D01*
X164858571Y-128257545D02*
X164896667Y-128333736D01*
X164896667Y-128333736D02*
X164896667Y-128448021D01*
X164896667Y-128448021D02*
X164858571Y-128524212D01*
X164858571Y-128524212D02*
X164820476Y-128562307D01*
X164820476Y-128562307D02*
X164744286Y-128600402D01*
X164744286Y-128600402D02*
X164439524Y-128600402D01*
X165582381Y-128448021D02*
X165582381Y-128981355D01*
X165391905Y-128143260D02*
X165201428Y-128714688D01*
X165201428Y-128714688D02*
X165696667Y-128714688D01*
X150576667Y-128197664D02*
X150538571Y-128235760D01*
X150538571Y-128235760D02*
X150424286Y-128273855D01*
X150424286Y-128273855D02*
X150348095Y-128273855D01*
X150348095Y-128273855D02*
X150233809Y-128235760D01*
X150233809Y-128235760D02*
X150157619Y-128159569D01*
X150157619Y-128159569D02*
X150119524Y-128083379D01*
X150119524Y-128083379D02*
X150081428Y-127930998D01*
X150081428Y-127930998D02*
X150081428Y-127816712D01*
X150081428Y-127816712D02*
X150119524Y-127664331D01*
X150119524Y-127664331D02*
X150157619Y-127588140D01*
X150157619Y-127588140D02*
X150233809Y-127511950D01*
X150233809Y-127511950D02*
X150348095Y-127473855D01*
X150348095Y-127473855D02*
X150424286Y-127473855D01*
X150424286Y-127473855D02*
X150538571Y-127511950D01*
X150538571Y-127511950D02*
X150576667Y-127550045D01*
X150957619Y-128273855D02*
X151110000Y-128273855D01*
X151110000Y-128273855D02*
X151186190Y-128235760D01*
X151186190Y-128235760D02*
X151224286Y-128197664D01*
X151224286Y-128197664D02*
X151300476Y-128083379D01*
X151300476Y-128083379D02*
X151338571Y-127930998D01*
X151338571Y-127930998D02*
X151338571Y-127626236D01*
X151338571Y-127626236D02*
X151300476Y-127550045D01*
X151300476Y-127550045D02*
X151262381Y-127511950D01*
X151262381Y-127511950D02*
X151186190Y-127473855D01*
X151186190Y-127473855D02*
X151033809Y-127473855D01*
X151033809Y-127473855D02*
X150957619Y-127511950D01*
X150957619Y-127511950D02*
X150919524Y-127550045D01*
X150919524Y-127550045D02*
X150881428Y-127626236D01*
X150881428Y-127626236D02*
X150881428Y-127816712D01*
X150881428Y-127816712D02*
X150919524Y-127892902D01*
X150919524Y-127892902D02*
X150957619Y-127930998D01*
X150957619Y-127930998D02*
X151033809Y-127969093D01*
X151033809Y-127969093D02*
X151186190Y-127969093D01*
X151186190Y-127969093D02*
X151262381Y-127930998D01*
X151262381Y-127930998D02*
X151300476Y-127892902D01*
X151300476Y-127892902D02*
X151338571Y-127816712D01*
X155373333Y-105023855D02*
X155373333Y-105595283D01*
X155373333Y-105595283D02*
X155335238Y-105709569D01*
X155335238Y-105709569D02*
X155259047Y-105785760D01*
X155259047Y-105785760D02*
X155144762Y-105823855D01*
X155144762Y-105823855D02*
X155068571Y-105823855D01*
X156135238Y-105023855D02*
X155754286Y-105023855D01*
X155754286Y-105023855D02*
X155716190Y-105404807D01*
X155716190Y-105404807D02*
X155754286Y-105366712D01*
X155754286Y-105366712D02*
X155830476Y-105328617D01*
X155830476Y-105328617D02*
X156020952Y-105328617D01*
X156020952Y-105328617D02*
X156097143Y-105366712D01*
X156097143Y-105366712D02*
X156135238Y-105404807D01*
X156135238Y-105404807D02*
X156173333Y-105480998D01*
X156173333Y-105480998D02*
X156173333Y-105671474D01*
X156173333Y-105671474D02*
X156135238Y-105747664D01*
X156135238Y-105747664D02*
X156097143Y-105785760D01*
X156097143Y-105785760D02*
X156020952Y-105823855D01*
X156020952Y-105823855D02*
X155830476Y-105823855D01*
X155830476Y-105823855D02*
X155754286Y-105785760D01*
X155754286Y-105785760D02*
X155716190Y-105747664D01*
X150739761Y-135933855D02*
X150358809Y-135933855D01*
X150358809Y-135933855D02*
X150358809Y-135133855D01*
X151006428Y-135514807D02*
X151273094Y-135514807D01*
X151387380Y-135933855D02*
X151006428Y-135933855D01*
X151006428Y-135933855D02*
X151006428Y-135133855D01*
X151006428Y-135133855D02*
X151387380Y-135133855D01*
X151730238Y-135933855D02*
X151730238Y-135133855D01*
X151730238Y-135133855D02*
X151920714Y-135133855D01*
X151920714Y-135133855D02*
X152035000Y-135171950D01*
X152035000Y-135171950D02*
X152111190Y-135248140D01*
X152111190Y-135248140D02*
X152149285Y-135324331D01*
X152149285Y-135324331D02*
X152187381Y-135476712D01*
X152187381Y-135476712D02*
X152187381Y-135590998D01*
X152187381Y-135590998D02*
X152149285Y-135743379D01*
X152149285Y-135743379D02*
X152111190Y-135819569D01*
X152111190Y-135819569D02*
X152035000Y-135895760D01*
X152035000Y-135895760D02*
X151920714Y-135933855D01*
X151920714Y-135933855D02*
X151730238Y-135933855D01*
X152949285Y-135933855D02*
X152492142Y-135933855D01*
X152720714Y-135933855D02*
X152720714Y-135133855D01*
X152720714Y-135133855D02*
X152644523Y-135248140D01*
X152644523Y-135248140D02*
X152568333Y-135324331D01*
X152568333Y-135324331D02*
X152492142Y-135362426D01*
X150576667Y-130157692D02*
X150310000Y-129776739D01*
X150119524Y-130157692D02*
X150119524Y-129357692D01*
X150119524Y-129357692D02*
X150424286Y-129357692D01*
X150424286Y-129357692D02*
X150500476Y-129395787D01*
X150500476Y-129395787D02*
X150538571Y-129433882D01*
X150538571Y-129433882D02*
X150576667Y-129510073D01*
X150576667Y-129510073D02*
X150576667Y-129624358D01*
X150576667Y-129624358D02*
X150538571Y-129700549D01*
X150538571Y-129700549D02*
X150500476Y-129738644D01*
X150500476Y-129738644D02*
X150424286Y-129776739D01*
X150424286Y-129776739D02*
X150119524Y-129776739D01*
X151033809Y-129700549D02*
X150957619Y-129662454D01*
X150957619Y-129662454D02*
X150919524Y-129624358D01*
X150919524Y-129624358D02*
X150881428Y-129548168D01*
X150881428Y-129548168D02*
X150881428Y-129510073D01*
X150881428Y-129510073D02*
X150919524Y-129433882D01*
X150919524Y-129433882D02*
X150957619Y-129395787D01*
X150957619Y-129395787D02*
X151033809Y-129357692D01*
X151033809Y-129357692D02*
X151186190Y-129357692D01*
X151186190Y-129357692D02*
X151262381Y-129395787D01*
X151262381Y-129395787D02*
X151300476Y-129433882D01*
X151300476Y-129433882D02*
X151338571Y-129510073D01*
X151338571Y-129510073D02*
X151338571Y-129548168D01*
X151338571Y-129548168D02*
X151300476Y-129624358D01*
X151300476Y-129624358D02*
X151262381Y-129662454D01*
X151262381Y-129662454D02*
X151186190Y-129700549D01*
X151186190Y-129700549D02*
X151033809Y-129700549D01*
X151033809Y-129700549D02*
X150957619Y-129738644D01*
X150957619Y-129738644D02*
X150919524Y-129776739D01*
X150919524Y-129776739D02*
X150881428Y-129852930D01*
X150881428Y-129852930D02*
X150881428Y-130005311D01*
X150881428Y-130005311D02*
X150919524Y-130081501D01*
X150919524Y-130081501D02*
X150957619Y-130119597D01*
X150957619Y-130119597D02*
X151033809Y-130157692D01*
X151033809Y-130157692D02*
X151186190Y-130157692D01*
X151186190Y-130157692D02*
X151262381Y-130119597D01*
X151262381Y-130119597D02*
X151300476Y-130081501D01*
X151300476Y-130081501D02*
X151338571Y-130005311D01*
X151338571Y-130005311D02*
X151338571Y-129852930D01*
X151338571Y-129852930D02*
X151300476Y-129776739D01*
X151300476Y-129776739D02*
X151262381Y-129738644D01*
X151262381Y-129738644D02*
X151186190Y-129700549D01*
X154190476Y-132863855D02*
X154190476Y-133511474D01*
X154190476Y-133511474D02*
X154228571Y-133587664D01*
X154228571Y-133587664D02*
X154266666Y-133625760D01*
X154266666Y-133625760D02*
X154342857Y-133663855D01*
X154342857Y-133663855D02*
X154495238Y-133663855D01*
X154495238Y-133663855D02*
X154571428Y-133625760D01*
X154571428Y-133625760D02*
X154609523Y-133587664D01*
X154609523Y-133587664D02*
X154647619Y-133511474D01*
X154647619Y-133511474D02*
X154647619Y-132863855D01*
X154952380Y-132863855D02*
X155447618Y-132863855D01*
X155447618Y-132863855D02*
X155180952Y-133168617D01*
X155180952Y-133168617D02*
X155295237Y-133168617D01*
X155295237Y-133168617D02*
X155371428Y-133206712D01*
X155371428Y-133206712D02*
X155409523Y-133244807D01*
X155409523Y-133244807D02*
X155447618Y-133320998D01*
X155447618Y-133320998D02*
X155447618Y-133511474D01*
X155447618Y-133511474D02*
X155409523Y-133587664D01*
X155409523Y-133587664D02*
X155371428Y-133625760D01*
X155371428Y-133625760D02*
X155295237Y-133663855D01*
X155295237Y-133663855D02*
X155066666Y-133663855D01*
X155066666Y-133663855D02*
X154990475Y-133625760D01*
X154990475Y-133625760D02*
X154952380Y-133587664D01*
X163578634Y-134087663D02*
X163540538Y-134125759D01*
X163540538Y-134125759D02*
X163426253Y-134163854D01*
X163426253Y-134163854D02*
X163350062Y-134163854D01*
X163350062Y-134163854D02*
X163235776Y-134125759D01*
X163235776Y-134125759D02*
X163159586Y-134049568D01*
X163159586Y-134049568D02*
X163121491Y-133973378D01*
X163121491Y-133973378D02*
X163083395Y-133820997D01*
X163083395Y-133820997D02*
X163083395Y-133706711D01*
X163083395Y-133706711D02*
X163121491Y-133554330D01*
X163121491Y-133554330D02*
X163159586Y-133478139D01*
X163159586Y-133478139D02*
X163235776Y-133401949D01*
X163235776Y-133401949D02*
X163350062Y-133363854D01*
X163350062Y-133363854D02*
X163426253Y-133363854D01*
X163426253Y-133363854D02*
X163540538Y-133401949D01*
X163540538Y-133401949D02*
X163578634Y-133440044D01*
X163845300Y-133363854D02*
X164378634Y-133363854D01*
X164378634Y-133363854D02*
X164035776Y-134163854D01*
D18*
X158076667Y-148526818D02*
X158076667Y-149433961D01*
X158076667Y-149433961D02*
X158016190Y-149615389D01*
X158016190Y-149615389D02*
X157895238Y-149736342D01*
X157895238Y-149736342D02*
X157713809Y-149796818D01*
X157713809Y-149796818D02*
X157592857Y-149796818D01*
X158620952Y-148647770D02*
X158681428Y-148587294D01*
X158681428Y-148587294D02*
X158802381Y-148526818D01*
X158802381Y-148526818D02*
X159104762Y-148526818D01*
X159104762Y-148526818D02*
X159225714Y-148587294D01*
X159225714Y-148587294D02*
X159286190Y-148647770D01*
X159286190Y-148647770D02*
X159346667Y-148768722D01*
X159346667Y-148768722D02*
X159346667Y-148889675D01*
X159346667Y-148889675D02*
X159286190Y-149071103D01*
X159286190Y-149071103D02*
X158560476Y-149796818D01*
X158560476Y-149796818D02*
X159346667Y-149796818D01*
D15*
X163017664Y-131983332D02*
X163055760Y-132021428D01*
X163055760Y-132021428D02*
X163093855Y-132135713D01*
X163093855Y-132135713D02*
X163093855Y-132211904D01*
X163093855Y-132211904D02*
X163055760Y-132326190D01*
X163055760Y-132326190D02*
X162979569Y-132402380D01*
X162979569Y-132402380D02*
X162903379Y-132440475D01*
X162903379Y-132440475D02*
X162750998Y-132478571D01*
X162750998Y-132478571D02*
X162636712Y-132478571D01*
X162636712Y-132478571D02*
X162484331Y-132440475D01*
X162484331Y-132440475D02*
X162408140Y-132402380D01*
X162408140Y-132402380D02*
X162331950Y-132326190D01*
X162331950Y-132326190D02*
X162293855Y-132211904D01*
X162293855Y-132211904D02*
X162293855Y-132135713D01*
X162293855Y-132135713D02*
X162331950Y-132021428D01*
X162331950Y-132021428D02*
X162370045Y-131983332D01*
X162293855Y-131297618D02*
X162293855Y-131449999D01*
X162293855Y-131449999D02*
X162331950Y-131526190D01*
X162331950Y-131526190D02*
X162370045Y-131564285D01*
X162370045Y-131564285D02*
X162484331Y-131640475D01*
X162484331Y-131640475D02*
X162636712Y-131678571D01*
X162636712Y-131678571D02*
X162941474Y-131678571D01*
X162941474Y-131678571D02*
X163017664Y-131640475D01*
X163017664Y-131640475D02*
X163055760Y-131602380D01*
X163055760Y-131602380D02*
X163093855Y-131526190D01*
X163093855Y-131526190D02*
X163093855Y-131373809D01*
X163093855Y-131373809D02*
X163055760Y-131297618D01*
X163055760Y-131297618D02*
X163017664Y-131259523D01*
X163017664Y-131259523D02*
X162941474Y-131221428D01*
X162941474Y-131221428D02*
X162750998Y-131221428D01*
X162750998Y-131221428D02*
X162674807Y-131259523D01*
X162674807Y-131259523D02*
X162636712Y-131297618D01*
X162636712Y-131297618D02*
X162598617Y-131373809D01*
X162598617Y-131373809D02*
X162598617Y-131526190D01*
X162598617Y-131526190D02*
X162636712Y-131602380D01*
X162636712Y-131602380D02*
X162674807Y-131640475D01*
X162674807Y-131640475D02*
X162750998Y-131678571D01*
X165703855Y-104486666D02*
X166275283Y-104486666D01*
X166275283Y-104486666D02*
X166389569Y-104524761D01*
X166389569Y-104524761D02*
X166465760Y-104600952D01*
X166465760Y-104600952D02*
X166503855Y-104715237D01*
X166503855Y-104715237D02*
X166503855Y-104791428D01*
X165703855Y-104181904D02*
X165703855Y-103686666D01*
X165703855Y-103686666D02*
X166008617Y-103953332D01*
X166008617Y-103953332D02*
X166008617Y-103839047D01*
X166008617Y-103839047D02*
X166046712Y-103762856D01*
X166046712Y-103762856D02*
X166084807Y-103724761D01*
X166084807Y-103724761D02*
X166160998Y-103686666D01*
X166160998Y-103686666D02*
X166351474Y-103686666D01*
X166351474Y-103686666D02*
X166427664Y-103724761D01*
X166427664Y-103724761D02*
X166465760Y-103762856D01*
X166465760Y-103762856D02*
X166503855Y-103839047D01*
X166503855Y-103839047D02*
X166503855Y-104067618D01*
X166503855Y-104067618D02*
X166465760Y-104143809D01*
X166465760Y-104143809D02*
X166427664Y-104181904D01*
X155333333Y-115783855D02*
X155333333Y-116355283D01*
X155333333Y-116355283D02*
X155295238Y-116469569D01*
X155295238Y-116469569D02*
X155219047Y-116545760D01*
X155219047Y-116545760D02*
X155104762Y-116583855D01*
X155104762Y-116583855D02*
X155028571Y-116583855D01*
X156057143Y-115783855D02*
X155904762Y-115783855D01*
X155904762Y-115783855D02*
X155828571Y-115821950D01*
X155828571Y-115821950D02*
X155790476Y-115860045D01*
X155790476Y-115860045D02*
X155714286Y-115974331D01*
X155714286Y-115974331D02*
X155676190Y-116126712D01*
X155676190Y-116126712D02*
X155676190Y-116431474D01*
X155676190Y-116431474D02*
X155714286Y-116507664D01*
X155714286Y-116507664D02*
X155752381Y-116545760D01*
X155752381Y-116545760D02*
X155828571Y-116583855D01*
X155828571Y-116583855D02*
X155980952Y-116583855D01*
X155980952Y-116583855D02*
X156057143Y-116545760D01*
X156057143Y-116545760D02*
X156095238Y-116507664D01*
X156095238Y-116507664D02*
X156133333Y-116431474D01*
X156133333Y-116431474D02*
X156133333Y-116240998D01*
X156133333Y-116240998D02*
X156095238Y-116164807D01*
X156095238Y-116164807D02*
X156057143Y-116126712D01*
X156057143Y-116126712D02*
X155980952Y-116088617D01*
X155980952Y-116088617D02*
X155828571Y-116088617D01*
X155828571Y-116088617D02*
X155752381Y-116126712D01*
X155752381Y-116126712D02*
X155714286Y-116164807D01*
X155714286Y-116164807D02*
X155676190Y-116240998D01*
X150933333Y-103193855D02*
X150933333Y-103765283D01*
X150933333Y-103765283D02*
X150895238Y-103879569D01*
X150895238Y-103879569D02*
X150819047Y-103955760D01*
X150819047Y-103955760D02*
X150704762Y-103993855D01*
X150704762Y-103993855D02*
X150628571Y-103993855D01*
X151733333Y-103993855D02*
X151276190Y-103993855D01*
X151504762Y-103993855D02*
X151504762Y-103193855D01*
X151504762Y-103193855D02*
X151428571Y-103308140D01*
X151428571Y-103308140D02*
X151352381Y-103384331D01*
X151352381Y-103384331D02*
X151276190Y-103422426D01*
X164559048Y-131162902D02*
X164559048Y-131543855D01*
X164292381Y-130743855D02*
X164559048Y-131162902D01*
X164559048Y-131162902D02*
X164825714Y-130743855D01*
X165511428Y-131543855D02*
X165054285Y-131543855D01*
X165282857Y-131543855D02*
X165282857Y-130743855D01*
X165282857Y-130743855D02*
X165206666Y-130858140D01*
X165206666Y-130858140D02*
X165130476Y-130934331D01*
X165130476Y-130934331D02*
X165054285Y-130972426D01*
D10*
X157738095Y-136644819D02*
X157738095Y-135644819D01*
X157738095Y-136121009D02*
X158309523Y-136121009D01*
X158309523Y-136644819D02*
X158309523Y-135644819D01*
X159309523Y-136644819D02*
X158738095Y-136644819D01*
X159023809Y-136644819D02*
X159023809Y-135644819D01*
X159023809Y-135644819D02*
X158928571Y-135787676D01*
X158928571Y-135787676D02*
X158833333Y-135882914D01*
X158833333Y-135882914D02*
X158738095Y-135930533D01*
X162316667Y-140307200D02*
X162459524Y-140354819D01*
X162459524Y-140354819D02*
X162697619Y-140354819D01*
X162697619Y-140354819D02*
X162792857Y-140307200D01*
X162792857Y-140307200D02*
X162840476Y-140259580D01*
X162840476Y-140259580D02*
X162888095Y-140164342D01*
X162888095Y-140164342D02*
X162888095Y-140069104D01*
X162888095Y-140069104D02*
X162840476Y-139973866D01*
X162840476Y-139973866D02*
X162792857Y-139926247D01*
X162792857Y-139926247D02*
X162697619Y-139878628D01*
X162697619Y-139878628D02*
X162507143Y-139831009D01*
X162507143Y-139831009D02*
X162411905Y-139783390D01*
X162411905Y-139783390D02*
X162364286Y-139735771D01*
X162364286Y-139735771D02*
X162316667Y-139640533D01*
X162316667Y-139640533D02*
X162316667Y-139545295D01*
X162316667Y-139545295D02*
X162364286Y-139450057D01*
X162364286Y-139450057D02*
X162411905Y-139402438D01*
X162411905Y-139402438D02*
X162507143Y-139354819D01*
X162507143Y-139354819D02*
X162745238Y-139354819D01*
X162745238Y-139354819D02*
X162888095Y-139402438D01*
X163221429Y-139354819D02*
X163459524Y-140354819D01*
X163459524Y-140354819D02*
X163650000Y-139640533D01*
X163650000Y-139640533D02*
X163840476Y-140354819D01*
X163840476Y-140354819D02*
X164078572Y-139354819D01*
X164411905Y-139450057D02*
X164459524Y-139402438D01*
X164459524Y-139402438D02*
X164554762Y-139354819D01*
X164554762Y-139354819D02*
X164792857Y-139354819D01*
X164792857Y-139354819D02*
X164888095Y-139402438D01*
X164888095Y-139402438D02*
X164935714Y-139450057D01*
X164935714Y-139450057D02*
X164983333Y-139545295D01*
X164983333Y-139545295D02*
X164983333Y-139640533D01*
X164983333Y-139640533D02*
X164935714Y-139783390D01*
X164935714Y-139783390D02*
X164364286Y-140354819D01*
X164364286Y-140354819D02*
X164983333Y-140354819D01*
%TO.C,SW1*%
D15*
X151400000Y-142550000D02*
X151400000Y-142450000D01*
X151400000Y-144250000D02*
X155800000Y-144250000D01*
X155800000Y-140750000D02*
X151400000Y-140750000D01*
X155800000Y-142550000D02*
X155800000Y-142450000D01*
%TO.C,J4*%
X164020000Y-114780000D02*
X165400000Y-114780000D01*
X164020000Y-116160000D02*
X164020000Y-114780000D01*
X164020000Y-117430000D02*
X164020000Y-127700000D01*
X164020000Y-117430000D02*
X166780000Y-117430000D01*
X164020000Y-127700000D02*
X166780000Y-127700000D01*
X166780000Y-117430000D02*
X166780000Y-127700000D01*
%TO.C,U5*%
X157315000Y-143760000D02*
X157315000Y-141240000D01*
X159685000Y-141394432D02*
X159685000Y-143760000D01*
X159880000Y-141240000D02*
X159690000Y-141100000D01*
X159880000Y-140960000D01*
X159880000Y-141240000D01*
G36*
X159880000Y-141240000D02*
G01*
X159690000Y-141100000D01*
X159880000Y-140960000D01*
X159880000Y-141240000D01*
G37*
%TO.C,C8*%
X153087836Y-126630000D02*
X152872164Y-126630000D01*
X153087836Y-127350000D02*
X152872164Y-127350000D01*
%TO.C,R9*%
X152056359Y-128468918D02*
X152363641Y-128468918D01*
X152056359Y-129228918D02*
X152363641Y-129228918D01*
%TO.C,SJ1*%
X158750000Y-110850000D02*
X158750000Y-111450000D01*
X159050000Y-111150000D02*
X158750000Y-110850000D01*
X159050000Y-111150000D02*
X158750000Y-111450000D01*
X159250000Y-113750000D02*
X159250000Y-110950000D01*
X159950000Y-110300000D02*
X160550000Y-110300000D01*
X160550000Y-114400000D02*
X159950000Y-114400000D01*
X161250000Y-110950000D02*
X161250000Y-113750000D01*
X159250000Y-111000000D02*
G75*
G02*
X159950000Y-110300000I699999J1D01*
G01*
X159950000Y-114400000D02*
G75*
G02*
X159250000Y-113700000I0J700000D01*
G01*
X160550000Y-110300000D02*
G75*
G02*
X161250000Y-111000000I1J-699999D01*
G01*
X161250000Y-113700000D02*
G75*
G02*
X160550000Y-114400000I-700000J0D01*
G01*
%TO.C,LED2*%
X164575000Y-137776945D02*
X166860000Y-137776945D01*
X166860000Y-136306945D02*
X164575000Y-136306945D01*
X166860000Y-137776945D02*
X166860000Y-136306945D01*
%TO.C,U4*%
X154470000Y-124777500D02*
X154920000Y-124777500D01*
X154470000Y-125227500D02*
X154470000Y-124777500D01*
X154470000Y-131547500D02*
X154470000Y-131997500D01*
X161690000Y-124777500D02*
X161240000Y-124777500D01*
X161690000Y-125227500D02*
X161690000Y-124777500D01*
X161690000Y-131547500D02*
X161690000Y-131997500D01*
X161690000Y-131997500D02*
X161240000Y-131997500D01*
%TO.C,U1*%
X156940000Y-106690000D02*
X156990000Y-106690000D01*
X156940000Y-108510000D02*
X156940000Y-106690000D01*
X156990000Y-108510000D02*
X156940000Y-108510000D01*
X160010000Y-106690000D02*
X160060000Y-106690000D01*
X160060000Y-106690000D02*
X160060000Y-108510000D01*
X160060000Y-108510000D02*
X160010000Y-108510000D01*
X156990000Y-109050000D02*
X156660000Y-109290000D01*
X156660000Y-108810000D01*
X156990000Y-109050000D01*
G36*
X156990000Y-109050000D02*
G01*
X156660000Y-109290000D01*
X156660000Y-108810000D01*
X156990000Y-109050000D01*
G37*
%TO.C,L1*%
D19*
X154006284Y-124345640D02*
G75*
G02*
X153814864Y-124345640I-95710J0D01*
G01*
X153814864Y-124345640D02*
G75*
G02*
X154006284Y-124345640I95710J0D01*
G01*
%TO.C,U2*%
D15*
X155140000Y-117240000D02*
X155140000Y-118500000D01*
X155140000Y-124060000D02*
X155140000Y-122800000D01*
X158900000Y-117240000D02*
X155140000Y-117240000D01*
X158900000Y-124060000D02*
X155140000Y-124060000D01*
X160420000Y-124290000D02*
X159940000Y-124290000D01*
X160180000Y-123960000D01*
X160420000Y-124290000D01*
G36*
X160420000Y-124290000D02*
G01*
X159940000Y-124290000D01*
X160180000Y-123960000D01*
X160420000Y-124290000D01*
G37*
%TO.C,R4*%
X163126359Y-128237500D02*
X163433641Y-128237500D01*
X163126359Y-128997500D02*
X163433641Y-128997500D01*
%TO.C,C9*%
X152317836Y-127550000D02*
X152102164Y-127550000D01*
X152317836Y-128270000D02*
X152102164Y-128270000D01*
%TO.C,J5*%
X150390000Y-106160000D02*
X150390000Y-109040000D01*
X152360000Y-104990000D02*
X154860000Y-104990000D01*
X152360000Y-110210000D02*
X154860000Y-110210000D01*
X154860000Y-104990000D02*
X154860000Y-106040000D01*
X154860000Y-106040000D02*
X155850000Y-106040000D01*
X154860000Y-110210000D02*
X154860000Y-109160000D01*
%TO.C,LED1*%
X150835000Y-137735000D02*
X153120000Y-137735000D01*
X153120000Y-136265000D02*
X150835000Y-136265000D01*
X153120000Y-137735000D02*
X153120000Y-136265000D01*
%TO.C,R8*%
X152056359Y-129413837D02*
X152363641Y-129413837D01*
X152056359Y-130173837D02*
X152363641Y-130173837D01*
%TO.C,U3*%
X155775000Y-133475000D02*
X155775000Y-133735000D01*
X155775000Y-138925000D02*
X155775000Y-138665000D01*
X158500000Y-133475000D02*
X155775000Y-133475000D01*
X158500000Y-133475000D02*
X161225000Y-133475000D01*
X158500000Y-138925000D02*
X155775000Y-138925000D01*
X158500000Y-138925000D02*
X161225000Y-138925000D01*
X161225000Y-133475000D02*
X161225000Y-133735000D01*
X161225000Y-138925000D02*
X161225000Y-138665000D01*
X162247500Y-138995000D02*
X161767500Y-138995000D01*
X162007500Y-138665000D01*
X162247500Y-138995000D01*
G36*
X162247500Y-138995000D02*
G01*
X161767500Y-138995000D01*
X162007500Y-138665000D01*
X162247500Y-138995000D01*
G37*
%TO.C,C7*%
X165419803Y-133439999D02*
X165204131Y-133439999D01*
X165419803Y-134159999D02*
X165204131Y-134159999D01*
%TO.C,J2*%
D20*
X150950000Y-147492500D02*
X150950000Y-154787500D01*
X150950000Y-154787500D02*
X166050000Y-154787500D01*
X152500000Y-147492500D02*
X150950000Y-147492500D01*
D14*
D21*
X153500000Y-146172500D02*
X153499999Y-146172500D01*
X153499999Y-146172500D01*
X153499999Y-146172500D01*
X153499999Y-146172500D01*
X153499999Y-146172500D01*
X153499999Y-146172500D01*
X153499999Y-146172500D01*
X153499999Y-146172499D01*
X153499999Y-146172499D01*
X153499999Y-146172499D01*
X153499999Y-146172499D01*
X153499999Y-146172499D01*
X153500000Y-146172499D01*
X153500000Y-146172499D01*
X153500000Y-146172499D01*
X153500000Y-146172499D01*
X153500000Y-146172499D01*
X153500000Y-146172499D01*
X153500000Y-146172499D01*
X153500000Y-146172499D01*
X153500000Y-146172499D01*
X153500000Y-146172499D01*
X153500000Y-146172499D01*
X153500000Y-146172499D01*
X153500001Y-146172499D01*
X153500001Y-146172499D01*
X153500001Y-146172499D01*
X153500001Y-146172499D01*
X153500001Y-146172499D01*
X153500001Y-146172499D01*
X153500001Y-146172500D01*
X153500001Y-146172500D01*
X153500001Y-146172500D01*
X153500001Y-146172500D01*
X153500001Y-146172500D01*
X153500001Y-146172500D01*
X153500001Y-146172500D01*
X153500000Y-146172500D01*
X153500000Y-146172500D02*
X153500001Y-146172500D01*
X153500001Y-146172500D01*
X153500001Y-146172500D01*
X153500001Y-146172500D01*
X153500001Y-146172500D01*
X153500001Y-146172500D01*
X153500001Y-146172501D01*
X153500001Y-146172501D01*
X153500001Y-146172501D01*
X153500001Y-146172501D01*
X153500001Y-146172501D01*
X153500001Y-146172501D01*
X153500001Y-146172501D01*
X153500000Y-146172501D01*
X153500000Y-146172501D01*
X153500000Y-146172501D01*
X153500000Y-146172501D01*
X153500000Y-146172501D01*
X153500000Y-146172501D01*
X153500000Y-146172501D01*
X153500000Y-146172501D01*
X153500000Y-146172501D01*
X153500000Y-146172501D01*
X153500000Y-146172501D01*
X153500000Y-146172501D01*
X153499999Y-146172501D01*
X153499999Y-146172501D01*
X153499999Y-146172501D01*
X153499999Y-146172501D01*
X153499999Y-146172501D01*
X153499999Y-146172501D01*
X153499999Y-146172500D01*
X153499999Y-146172500D01*
X153499999Y-146172500D01*
X153499999Y-146172500D01*
X153499999Y-146172500D01*
X153499999Y-146172500D01*
X153500000Y-146172500D01*
D14*
D21*
X153500000Y-146272500D02*
X153499999Y-146272500D01*
X153499999Y-146272500D01*
X153499999Y-146272500D01*
X153499999Y-146272500D01*
X153499999Y-146272500D01*
X153499999Y-146272500D01*
X153499999Y-146272500D01*
X153499999Y-146272499D01*
X153499999Y-146272499D01*
X153499999Y-146272499D01*
X153499999Y-146272499D01*
X153499999Y-146272499D01*
X153500000Y-146272499D01*
X153500000Y-146272499D01*
X153500000Y-146272499D01*
X153500000Y-146272499D01*
X153500000Y-146272499D01*
X153500000Y-146272499D01*
X153500000Y-146272499D01*
X153500000Y-146272499D01*
X153500000Y-146272499D01*
X153500000Y-146272499D01*
X153500000Y-146272499D01*
X153500000Y-146272499D01*
X153500001Y-146272499D01*
X153500001Y-146272499D01*
X153500001Y-146272499D01*
X153500001Y-146272499D01*
X153500001Y-146272499D01*
X153500001Y-146272499D01*
X153500001Y-146272500D01*
X153500001Y-146272500D01*
X153500001Y-146272500D01*
X153500001Y-146272500D01*
X153500001Y-146272500D01*
X153500001Y-146272500D01*
X153500001Y-146272500D01*
X153500000Y-146272500D01*
X153500000Y-146272500D02*
X153500001Y-146272500D01*
X153500001Y-146272500D01*
X153500001Y-146272500D01*
X153500001Y-146272500D01*
X153500001Y-146272500D01*
X153500001Y-146272500D01*
X153500001Y-146272501D01*
X153500001Y-146272501D01*
X153500001Y-146272501D01*
X153500001Y-146272501D01*
X153500001Y-146272501D01*
X153500001Y-146272501D01*
X153500001Y-146272501D01*
X153500000Y-146272501D01*
X153500000Y-146272501D01*
X153500000Y-146272501D01*
X153500000Y-146272501D01*
X153500000Y-146272501D01*
X153500000Y-146272501D01*
X153500000Y-146272501D01*
X153500000Y-146272501D01*
X153500000Y-146272501D01*
X153500000Y-146272501D01*
X153500000Y-146272501D01*
X153500000Y-146272501D01*
X153499999Y-146272501D01*
X153499999Y-146272501D01*
X153499999Y-146272501D01*
X153499999Y-146272501D01*
X153499999Y-146272501D01*
X153499999Y-146272501D01*
X153499999Y-146272500D01*
X153499999Y-146272500D01*
X153499999Y-146272500D01*
X153499999Y-146272500D01*
X153499999Y-146272500D01*
X153499999Y-146272500D01*
X153500000Y-146272500D01*
D20*
X166050000Y-147492500D02*
X164500000Y-147492500D01*
X166050000Y-154787500D02*
X166050000Y-147492500D01*
D14*
X153500000Y-146172500D02*
G75*
G02*
X153500000Y-146272500I0J-50000D01*
G01*
X153500000Y-146272500D02*
G75*
G02*
X153500000Y-146172500I0J50000D01*
G01*
%TO.C,C6*%
D15*
X162370000Y-129992164D02*
X162370000Y-130207836D01*
X163090000Y-129992164D02*
X163090000Y-130207836D01*
%TO.C,J3*%
X164020000Y-104620000D02*
X165400000Y-104620000D01*
X164020000Y-106000000D02*
X164020000Y-104620000D01*
X164020000Y-107270000D02*
X164020000Y-115000000D01*
X164020000Y-107270000D02*
X166780000Y-107270000D01*
X164020000Y-115000000D02*
X166780000Y-115000000D01*
X166780000Y-107270000D02*
X166780000Y-115000000D01*
%TO.C,J6*%
X150390000Y-112560000D02*
X150390000Y-115440000D01*
X152360000Y-111390000D02*
X154860000Y-111390000D01*
X152360000Y-116610000D02*
X154860000Y-116610000D01*
X154860000Y-111390000D02*
X154860000Y-112440000D01*
X154860000Y-112440000D02*
X155850000Y-112440000D01*
X154860000Y-116610000D02*
X154860000Y-115560000D01*
%TO.C,J1*%
D10*
X151950000Y-99750000D02*
X151950000Y-89600000D01*
X151950000Y-103940000D02*
X151950000Y-103220000D01*
X154760000Y-103940000D02*
X151950000Y-103940000D01*
X157260000Y-103940000D02*
X155240000Y-103940000D01*
X159260000Y-103940000D02*
X157740000Y-103940000D01*
X161760000Y-103940000D02*
X159740000Y-103940000D01*
X165050000Y-89440000D02*
X151950000Y-89440000D01*
X165050000Y-99420000D02*
X151950000Y-99420000D01*
X165050000Y-99750000D02*
X165050000Y-89440000D01*
X165050000Y-103940000D02*
X162240000Y-103940000D01*
X165050000Y-103940000D02*
X165050000Y-103220000D01*
D22*
X166530000Y-104060000D02*
G75*
G02*
X166470000Y-104060000I-30000J0D01*
G01*
X166470000Y-104060000D02*
G75*
G02*
X166530000Y-104060000I30000J0D01*
G01*
%TO.C,Y1*%
D15*
X163230000Y-129120000D02*
X163230000Y-133240000D01*
X166650000Y-129120000D02*
X163230000Y-129120000D01*
%TO.C,SW2*%
X161300000Y-142550000D02*
X161300000Y-142450000D01*
X161300000Y-144250000D02*
X165700000Y-144250000D01*
X165700000Y-140750000D02*
X161300000Y-140750000D01*
X165700000Y-142550000D02*
X165700000Y-142450000D01*
%TD*%
%LPC*%
%TO.C,SJ1*%
G36*
X159500000Y-111600000D02*
G01*
X161000000Y-111600000D01*
X161000000Y-113100000D01*
X159500000Y-113100000D01*
X159500000Y-111600000D01*
G37*
%TD*%
D23*
%TO.C,SW1*%
X151525000Y-141425000D03*
X155675000Y-141425000D03*
X151525000Y-143575000D03*
X155650000Y-143575000D03*
%TD*%
D24*
%TO.C,J4*%
X165400000Y-116160000D03*
D25*
X165400000Y-118700000D03*
X165400000Y-121240000D03*
X165400000Y-123780000D03*
X165400000Y-126320000D03*
%TD*%
D26*
%TO.C,U5*%
X159250000Y-141100000D03*
X158750000Y-141100000D03*
X158250000Y-141100000D03*
X157750000Y-141100000D03*
X157750000Y-143900000D03*
X158250000Y-143900000D03*
X158750000Y-143900000D03*
X159250000Y-143900000D03*
%TD*%
D27*
%TO.C,C8*%
X153460000Y-126990000D03*
X152500000Y-126990000D03*
%TD*%
D28*
%TO.C,R9*%
X151700000Y-128848918D03*
X152720000Y-128848918D03*
%TD*%
D29*
%TO.C,SJ1*%
X160250000Y-111050000D03*
D30*
X160250000Y-112350000D03*
D31*
X160250000Y-113650000D03*
%TD*%
D32*
%TO.C,LED2*%
X166162500Y-137041945D03*
X164587500Y-137041945D03*
%TD*%
D33*
%TO.C,U4*%
X155280000Y-131825000D03*
D34*
X155680000Y-131825000D03*
X156080000Y-131825000D03*
X156480000Y-131825000D03*
X156880000Y-131825000D03*
X157280000Y-131825000D03*
X157680000Y-131825000D03*
X158080000Y-131825000D03*
X158480000Y-131825000D03*
X158880000Y-131825000D03*
X159280000Y-131825000D03*
X159680000Y-131825000D03*
X160080000Y-131825000D03*
X160480000Y-131825000D03*
D35*
X160880000Y-131825000D03*
D36*
X161517500Y-131187500D03*
D37*
X161517500Y-130787500D03*
X161517500Y-130387500D03*
X161517500Y-129987500D03*
X161517500Y-129587500D03*
X161517500Y-129187500D03*
X161517500Y-128787500D03*
X161517500Y-128387500D03*
X161517500Y-127987500D03*
X161517500Y-127587500D03*
X161517500Y-127187500D03*
X161517500Y-126787500D03*
X161517500Y-126387500D03*
X161517500Y-125987500D03*
D38*
X161517500Y-125587500D03*
D39*
X160880000Y-124950000D03*
D34*
X160480000Y-124950000D03*
X160080000Y-124950000D03*
X159680000Y-124950000D03*
X159280000Y-124950000D03*
X158880000Y-124950000D03*
X158480000Y-124950000D03*
X158080000Y-124950000D03*
X157680000Y-124950000D03*
X157280000Y-124950000D03*
X156880000Y-124950000D03*
X156480000Y-124950000D03*
X156080000Y-124950000D03*
X155680000Y-124950000D03*
D40*
X155280000Y-124950000D03*
D41*
X154642500Y-125587500D03*
D37*
X154642500Y-125987500D03*
X154642500Y-126387500D03*
X154642500Y-126787500D03*
X154642500Y-127187500D03*
X154642500Y-127587500D03*
X154642500Y-127987500D03*
X154642500Y-128387500D03*
X154642500Y-128787500D03*
X154642500Y-129187500D03*
X154642500Y-129587500D03*
X154642500Y-129987500D03*
X154642500Y-130387500D03*
X154642500Y-130787500D03*
D42*
X154642500Y-131187500D03*
D43*
X158080000Y-128387500D03*
%TD*%
D44*
%TO.C,U1*%
X157550000Y-108737500D03*
X158500000Y-108737500D03*
X159450000Y-108737500D03*
X159450000Y-106462500D03*
X158500000Y-106462500D03*
X157550000Y-106462500D03*
%TD*%
D45*
%TO.C,L1*%
X152610574Y-124545640D03*
X152610574Y-125945640D03*
%TD*%
D46*
%TO.C,U2*%
X160200000Y-122950000D03*
X160200000Y-120650000D03*
D47*
X153900000Y-120650000D03*
D46*
X160200000Y-118350000D03*
%TD*%
D28*
%TO.C,R4*%
X162770000Y-128617500D03*
X163790000Y-128617500D03*
%TD*%
D27*
%TO.C,C9*%
X152690000Y-127910000D03*
X151730000Y-127910000D03*
%TD*%
D48*
%TO.C,J5*%
X155075000Y-106600000D03*
X155075000Y-107600000D03*
X155075000Y-108600000D03*
D49*
X151200000Y-105300000D03*
X151200000Y-109900000D03*
%TD*%
D32*
%TO.C,LED1*%
X152422500Y-137000000D03*
X150847500Y-137000000D03*
%TD*%
D50*
%TO.C,J7*%
X153220000Y-107630000D03*
D51*
X153220000Y-108900000D03*
X153220000Y-110170000D03*
X153220000Y-111440000D03*
X153220000Y-112710000D03*
X153220000Y-113980000D03*
%TD*%
D28*
%TO.C,R8*%
X151700000Y-129793837D03*
X152720000Y-129793837D03*
%TD*%
D52*
%TO.C,U3*%
X162100000Y-138105000D03*
X162100000Y-136835000D03*
X162100000Y-135565000D03*
X162100000Y-134295000D03*
X154900000Y-134295000D03*
X154900000Y-135565000D03*
X154900000Y-136835000D03*
X154900000Y-138105000D03*
%TD*%
D27*
%TO.C,C7*%
X165791967Y-133799999D03*
X164831967Y-133799999D03*
%TD*%
D53*
%TO.C,J2*%
X153500000Y-147372500D03*
D54*
X156000000Y-147372500D03*
X158500000Y-147372500D03*
X161000000Y-147372500D03*
X163500000Y-147372500D03*
%TD*%
D55*
%TO.C,C6*%
X162730000Y-129620000D03*
X162730000Y-130580000D03*
%TD*%
D24*
%TO.C,J3*%
X165400000Y-106000000D03*
D25*
X165400000Y-108540000D03*
X165400000Y-111080000D03*
X165400000Y-113620000D03*
%TD*%
D48*
%TO.C,J6*%
X155075000Y-113000000D03*
X155075000Y-114000000D03*
X155075000Y-115000000D03*
D49*
X151200000Y-111700000D03*
X151200000Y-116300000D03*
%TD*%
D56*
%TO.C,J1*%
X162000000Y-102940000D03*
X159500000Y-102940000D03*
X157500000Y-102940000D03*
X155000000Y-102940000D03*
D57*
X165000000Y-101480000D03*
X152000000Y-101480000D03*
%TD*%
D58*
%TO.C,Y1*%
X164090000Y-130080000D03*
X164090000Y-132280000D03*
X165790000Y-132280000D03*
X165790000Y-130080000D03*
%TD*%
D59*
%TO.C,H1*%
X158500000Y-136190000D03*
%TD*%
D23*
%TO.C,SW2*%
X161425000Y-141425000D03*
X165575000Y-141425000D03*
X161425000Y-143575000D03*
X165550000Y-143575000D03*
%TD*%
%LPD*%
M02*
