%TF.GenerationSoftware,KiCad,Pcbnew,10.0.1*%
%TF.CreationDate,2026-07-01T20:36:16+02:00*%
%TF.ProjectId,Amiga-HID_rev1.1,416d6967-612d-4484-9944-5f726576312e,1.1*%
%TF.SameCoordinates,Original*%
%TF.FileFunction,Copper,L2,Inr*%
%TF.FilePolarity,Positive*%
%FSLAX46Y46*%
G04 Gerber Fmt 4.6, Leading zero omitted, Abs format (unit mm)*
G04 Created by KiCad (PCBNEW 10.0.1) date 2026-07-01 20:36:16*
%MOMM*%
%LPD*%
G01*
G04 APERTURE LIST*
%TA.AperFunction,ComponentPad*%
%ADD10R,1.700000X1.700000*%
%TD*%
%TA.AperFunction,ComponentPad*%
%ADD11C,1.700000*%
%TD*%
%TA.AperFunction,ComponentPad*%
%ADD12C,0.600000*%
%TD*%
%TA.AperFunction,ComponentPad*%
%ADD13R,1.000000X1.000000*%
%TD*%
%TA.AperFunction,ComponentPad*%
%ADD14C,1.000000*%
%TD*%
%TA.AperFunction,ComponentPad*%
%ADD15R,1.400000X1.400000*%
%TD*%
%TA.AperFunction,ComponentPad*%
%ADD16C,1.450000*%
%TD*%
%TA.AperFunction,ComponentPad*%
%ADD17C,1.600000*%
%TD*%
%TA.AperFunction,ComponentPad*%
%ADD18C,3.000000*%
%TD*%
%TA.AperFunction,ViaPad*%
%ADD19C,0.500000*%
%TD*%
%TA.AperFunction,ViaPad*%
%ADD20C,0.600000*%
%TD*%
%TA.AperFunction,ViaPad*%
%ADD21C,0.800000*%
%TD*%
%TA.AperFunction,Conductor*%
%ADD22C,0.300000*%
%TD*%
%TA.AperFunction,Conductor*%
%ADD23C,0.150000*%
%TD*%
G04 APERTURE END LIST*
D10*
%TO.N,GND*%
%TO.C,J4*%
X165400000Y-116160000D03*
D11*
%TO.N,VSYS*%
X165400000Y-118700000D03*
%TO.N,+3V3*%
X165400000Y-121240000D03*
%TO.N,/GPIO8*%
X165400000Y-123780000D03*
%TO.N,/GPIO9*%
X165400000Y-126320000D03*
%TD*%
D12*
%TO.N,GND*%
%TO.C,U4*%
X156705000Y-129762500D03*
X158080000Y-129762500D03*
X159455000Y-129762500D03*
X156705000Y-128387500D03*
X158080000Y-128387500D03*
X159455000Y-128387500D03*
X156705000Y-127012500D03*
X158080000Y-127012500D03*
X159455000Y-127012500D03*
%TD*%
D13*
%TO.N,/SWCLK*%
%TO.C,J7*%
X153220000Y-107630000D03*
D14*
%TO.N,GND*%
X153220000Y-108900000D03*
%TO.N,/SWDIO*%
X153220000Y-110170000D03*
%TO.N,/UART_TX*%
X153220000Y-111440000D03*
%TO.N,GND*%
X153220000Y-112710000D03*
%TO.N,/UART_RX*%
X153220000Y-113980000D03*
%TD*%
D15*
%TO.N,GND*%
%TO.C,J2*%
X153500000Y-147372500D03*
D16*
%TO.N,+5V_AMIGA*%
X156000000Y-147372500D03*
%TO.N,/KB_DATA_5V*%
X158500000Y-147372500D03*
%TO.N,/GPIO7*%
X161000000Y-147372500D03*
%TO.N,/KB_CLOCK_5V*%
X163500000Y-147372500D03*
%TD*%
D10*
%TO.N,GND*%
%TO.C,J3*%
X165400000Y-106000000D03*
D11*
%TO.N,Net-(J3-Pin_2)*%
X165400000Y-108540000D03*
%TO.N,/I2C1_SCL*%
X165400000Y-111080000D03*
%TO.N,/I2C1_SDA*%
X165400000Y-113620000D03*
%TD*%
D17*
%TO.N,VBUS*%
%TO.C,J1*%
X162000000Y-102940000D03*
%TO.N,/USB_DN*%
X159500000Y-102940000D03*
%TO.N,/USB_DP*%
X157500000Y-102940000D03*
%TO.N,GND*%
X155000000Y-102940000D03*
D18*
X165000000Y-101480000D03*
X152000000Y-101480000D03*
%TD*%
D19*
%TO.N,GND*%
X152270000Y-121660000D03*
D20*
X157080000Y-141090000D03*
D19*
X152420000Y-131824269D03*
X156730000Y-137420000D03*
X153700000Y-125240000D03*
X162120000Y-109270000D03*
X163740000Y-103620000D03*
X166360000Y-112360000D03*
X151830000Y-118580000D03*
X161840000Y-107060000D03*
X166160000Y-137860000D03*
X160200000Y-122950000D03*
D20*
X162440000Y-122190000D03*
X156180000Y-145490000D03*
D19*
X151850000Y-126720000D03*
X163510000Y-141425000D03*
D20*
X151220000Y-146780000D03*
D19*
X156420000Y-110020000D03*
X156530000Y-117380000D03*
D20*
X151000000Y-154000000D03*
X162300000Y-148470000D03*
D19*
X163930000Y-113110000D03*
X163430000Y-144710000D03*
X154500000Y-101240000D03*
D20*
X165690000Y-146960000D03*
D19*
X158500000Y-109652500D03*
X160800000Y-134240000D03*
X160470000Y-137320000D03*
X151700000Y-113940000D03*
X151850000Y-130820000D03*
D20*
X157260000Y-148520000D03*
X157940000Y-132880000D03*
D19*
X160100000Y-144860000D03*
D20*
X159820000Y-148460000D03*
X151310000Y-134480000D03*
D19*
X153750000Y-139010000D03*
X154780000Y-118300000D03*
X151370000Y-138630000D03*
X164831967Y-134620000D03*
X166410000Y-122550000D03*
X166440000Y-119970000D03*
X150770000Y-106650000D03*
X165790000Y-130080000D03*
X161680000Y-113770000D03*
X165720000Y-140010000D03*
X159170000Y-142490000D03*
X154390000Y-110800000D03*
X155340000Y-119900000D03*
X162410000Y-101360000D03*
D20*
X164000000Y-126800000D03*
D19*
X152850000Y-116210000D03*
X164110000Y-117830000D03*
X160860000Y-138580000D03*
D20*
X166000000Y-154000000D03*
X154640000Y-142430000D03*
X161750000Y-142640000D03*
D19*
X166390000Y-109820000D03*
X166420000Y-125130000D03*
D20*
X153360000Y-105470000D03*
D19*
X165050000Y-127780000D03*
X166160000Y-135660000D03*
X162680000Y-132380000D03*
X157160000Y-134660000D03*
X161760000Y-140220000D03*
%TO.N,/~{USB_BOOT}*%
X153460000Y-143575000D03*
D21*
%TO.N,VSYS*%
X160240000Y-118350000D03*
D19*
X158820000Y-118340000D03*
D21*
X157620000Y-115650000D03*
X156790000Y-116400000D03*
D20*
X160250000Y-114840000D03*
D21*
X157620000Y-117410000D03*
D20*
X159114000Y-113640000D03*
D19*
X158750000Y-144730000D03*
D21*
X156870000Y-114840000D03*
X161710000Y-118360000D03*
D19*
%TO.N,+3V3*%
X158240000Y-142400000D03*
D21*
X158100000Y-125887000D03*
X158620000Y-120650000D03*
D20*
X159110000Y-111050000D03*
D21*
X161620000Y-111050000D03*
X161517500Y-124850000D03*
X161730000Y-120650000D03*
X155470000Y-123980000D03*
D19*
X160841535Y-129590000D03*
D21*
X155760000Y-120650000D03*
X155460000Y-128600000D03*
D19*
X155440000Y-126890000D03*
D21*
X153900000Y-120650000D03*
D19*
X153700000Y-138100000D03*
D20*
X153900000Y-122900000D03*
D19*
X154870000Y-131825000D03*
X153780000Y-128940000D03*
X154900000Y-138820000D03*
X154900000Y-140760000D03*
X159280000Y-131050000D03*
%TO.N,/GPIO8*%
X158671206Y-130514500D03*
%TO.N,/GPIO9*%
X160290000Y-129000000D03*
D21*
%TO.N,Net-(J3-Pin_2)*%
X161690000Y-112350000D03*
D20*
X159114000Y-112360000D03*
D19*
%TO.N,Net-(LED2-A)*%
X166060000Y-139155937D03*
%TO.N,Net-(U4-GPIO0)*%
X155290000Y-132760000D03*
%TO.N,Net-(U4-GPIO1)*%
X156120000Y-132760000D03*
%TO.N,/I2C1_SDA*%
X156480000Y-131150000D03*
%TO.N,/I2C1_SCL*%
X156880000Y-132510000D03*
%TO.N,+1V1*%
X160840000Y-128387500D03*
D20*
X153264888Y-127724996D03*
X155493814Y-127750167D03*
D21*
X157680000Y-123940000D03*
D19*
X157280000Y-130520000D03*
%TO.N,/GPIO7*%
X161810000Y-132370000D03*
%TO.N,/RUN*%
X160700000Y-127400000D03*
%TO.N,/LED2*%
X160590000Y-126600000D03*
%TO.N,/LED1*%
X158700000Y-123930000D03*
%TO.N,/VREG_AVDD*%
X156280000Y-125770000D03*
%TO.N,/QSPI_SS*%
X155800000Y-140010000D03*
D21*
%TO.N,VBUS*%
X157630000Y-111910000D03*
X158500000Y-105552500D03*
X157620000Y-113560000D03*
D20*
X160240000Y-106840000D03*
D19*
%TO.N,Net-(LED1-A)*%
X151490000Y-139690000D03*
D21*
%TO.N,+5V_AMIGA*%
X154370000Y-116082000D03*
X154370000Y-117180000D03*
D20*
%TO.N,Net-(R7-Pad2)*%
X163500000Y-143572667D03*
D21*
%TO.N,Net-(D3-K)*%
X156350000Y-118390000D03*
X161650000Y-105600000D03*
X160251917Y-104430000D03*
X155530000Y-117780000D03*
%TD*%
%TO.N,GND*%
D22*
X165400000Y-116160000D02*
X166550000Y-116160000D01*
D23*
X166625000Y-116120000D02*
X166625000Y-117740000D01*
X166625000Y-116120000D02*
X166625000Y-114620000D01*
%TD*%
%TA.AperFunction,Conductor*%
%TO.N,GND*%
G36*
X166642539Y-100320185D02*
G01*
X166688294Y-100372989D01*
X166699500Y-100424500D01*
X166699500Y-154575500D01*
X166679815Y-154642539D01*
X166627011Y-154688294D01*
X166575500Y-154699500D01*
X150424500Y-154699500D01*
X150357461Y-154679815D01*
X150311706Y-154627011D01*
X150300500Y-154575500D01*
X150300500Y-147288531D01*
X155147500Y-147288531D01*
X155147500Y-147456468D01*
X155180259Y-147621157D01*
X155180262Y-147621169D01*
X155244520Y-147776303D01*
X155244527Y-147776316D01*
X155337819Y-147915936D01*
X155337822Y-147915940D01*
X155456559Y-148034677D01*
X155456563Y-148034680D01*
X155596183Y-148127972D01*
X155596196Y-148127979D01*
X155751330Y-148192237D01*
X155751335Y-148192239D01*
X155916031Y-148224999D01*
X155916035Y-148225000D01*
X155916036Y-148225000D01*
X156083965Y-148225000D01*
X156083966Y-148224999D01*
X156248665Y-148192239D01*
X156403810Y-148127976D01*
X156543437Y-148034680D01*
X156662180Y-147915937D01*
X156755476Y-147776310D01*
X156819739Y-147621165D01*
X156852500Y-147456464D01*
X156852500Y-147288536D01*
X156852499Y-147288531D01*
X157647500Y-147288531D01*
X157647500Y-147456468D01*
X157680259Y-147621157D01*
X157680262Y-147621169D01*
X157744520Y-147776303D01*
X157744527Y-147776316D01*
X157837819Y-147915936D01*
X157837822Y-147915940D01*
X157956559Y-148034677D01*
X157956563Y-148034680D01*
X158096183Y-148127972D01*
X158096196Y-148127979D01*
X158251330Y-148192237D01*
X158251335Y-148192239D01*
X158416031Y-148224999D01*
X158416035Y-148225000D01*
X158416036Y-148225000D01*
X158583965Y-148225000D01*
X158583966Y-148224999D01*
X158748665Y-148192239D01*
X158903810Y-148127976D01*
X159043437Y-148034680D01*
X159162180Y-147915937D01*
X159255476Y-147776310D01*
X159319739Y-147621165D01*
X159352500Y-147456464D01*
X159352500Y-147288536D01*
X159352499Y-147288531D01*
X160147500Y-147288531D01*
X160147500Y-147456468D01*
X160180259Y-147621157D01*
X160180262Y-147621169D01*
X160244520Y-147776303D01*
X160244527Y-147776316D01*
X160337819Y-147915936D01*
X160337822Y-147915940D01*
X160456559Y-148034677D01*
X160456563Y-148034680D01*
X160596183Y-148127972D01*
X160596196Y-148127979D01*
X160751330Y-148192237D01*
X160751335Y-148192239D01*
X160916031Y-148224999D01*
X160916035Y-148225000D01*
X160916036Y-148225000D01*
X161083965Y-148225000D01*
X161083966Y-148224999D01*
X161248665Y-148192239D01*
X161403810Y-148127976D01*
X161543437Y-148034680D01*
X161662180Y-147915937D01*
X161755476Y-147776310D01*
X161819739Y-147621165D01*
X161852500Y-147456464D01*
X161852500Y-147288536D01*
X161852499Y-147288531D01*
X162647500Y-147288531D01*
X162647500Y-147456468D01*
X162680259Y-147621157D01*
X162680262Y-147621169D01*
X162744520Y-147776303D01*
X162744527Y-147776316D01*
X162837819Y-147915936D01*
X162837822Y-147915940D01*
X162956559Y-148034677D01*
X162956563Y-148034680D01*
X163096183Y-148127972D01*
X163096196Y-148127979D01*
X163251330Y-148192237D01*
X163251335Y-148192239D01*
X163416031Y-148224999D01*
X163416035Y-148225000D01*
X163416036Y-148225000D01*
X163583965Y-148225000D01*
X163583966Y-148224999D01*
X163748665Y-148192239D01*
X163903810Y-148127976D01*
X164043437Y-148034680D01*
X164162180Y-147915937D01*
X164255476Y-147776310D01*
X164319739Y-147621165D01*
X164352500Y-147456464D01*
X164352500Y-147288536D01*
X164319739Y-147123835D01*
X164319737Y-147123830D01*
X164255479Y-146968696D01*
X164255472Y-146968683D01*
X164162180Y-146829063D01*
X164162177Y-146829059D01*
X164043440Y-146710322D01*
X164043436Y-146710319D01*
X163903816Y-146617027D01*
X163903803Y-146617020D01*
X163748669Y-146552762D01*
X163748657Y-146552759D01*
X163583968Y-146520000D01*
X163583964Y-146520000D01*
X163416036Y-146520000D01*
X163416031Y-146520000D01*
X163251342Y-146552759D01*
X163251330Y-146552762D01*
X163096196Y-146617020D01*
X163096183Y-146617027D01*
X162956563Y-146710319D01*
X162956559Y-146710322D01*
X162837822Y-146829059D01*
X162837819Y-146829063D01*
X162744527Y-146968683D01*
X162744520Y-146968696D01*
X162680262Y-147123830D01*
X162680259Y-147123842D01*
X162647500Y-147288531D01*
X161852499Y-147288531D01*
X161819739Y-147123835D01*
X161819737Y-147123830D01*
X161755479Y-146968696D01*
X161755472Y-146968683D01*
X161662180Y-146829063D01*
X161662177Y-146829059D01*
X161543440Y-146710322D01*
X161543436Y-146710319D01*
X161403816Y-146617027D01*
X161403803Y-146617020D01*
X161248669Y-146552762D01*
X161248657Y-146552759D01*
X161083968Y-146520000D01*
X161083964Y-146520000D01*
X160916036Y-146520000D01*
X160916031Y-146520000D01*
X160751342Y-146552759D01*
X160751330Y-146552762D01*
X160596196Y-146617020D01*
X160596183Y-146617027D01*
X160456563Y-146710319D01*
X160456559Y-146710322D01*
X160337822Y-146829059D01*
X160337819Y-146829063D01*
X160244527Y-146968683D01*
X160244520Y-146968696D01*
X160180262Y-147123830D01*
X160180259Y-147123842D01*
X160147500Y-147288531D01*
X159352499Y-147288531D01*
X159319739Y-147123835D01*
X159319737Y-147123830D01*
X159255479Y-146968696D01*
X159255472Y-146968683D01*
X159162180Y-146829063D01*
X159162177Y-146829059D01*
X159043440Y-146710322D01*
X159043436Y-146710319D01*
X158903816Y-146617027D01*
X158903803Y-146617020D01*
X158748669Y-146552762D01*
X158748657Y-146552759D01*
X158583968Y-146520000D01*
X158583964Y-146520000D01*
X158416036Y-146520000D01*
X158416031Y-146520000D01*
X158251342Y-146552759D01*
X158251330Y-146552762D01*
X158096196Y-146617020D01*
X158096183Y-146617027D01*
X157956563Y-146710319D01*
X157956559Y-146710322D01*
X157837822Y-146829059D01*
X157837819Y-146829063D01*
X157744527Y-146968683D01*
X157744520Y-146968696D01*
X157680262Y-147123830D01*
X157680259Y-147123842D01*
X157647500Y-147288531D01*
X156852499Y-147288531D01*
X156819739Y-147123835D01*
X156819737Y-147123830D01*
X156755479Y-146968696D01*
X156755472Y-146968683D01*
X156662180Y-146829063D01*
X156662177Y-146829059D01*
X156543440Y-146710322D01*
X156543436Y-146710319D01*
X156403816Y-146617027D01*
X156403803Y-146617020D01*
X156248669Y-146552762D01*
X156248657Y-146552759D01*
X156083968Y-146520000D01*
X156083964Y-146520000D01*
X155916036Y-146520000D01*
X155916031Y-146520000D01*
X155751342Y-146552759D01*
X155751330Y-146552762D01*
X155596196Y-146617020D01*
X155596183Y-146617027D01*
X155456563Y-146710319D01*
X155456559Y-146710322D01*
X155337822Y-146829059D01*
X155337819Y-146829063D01*
X155244527Y-146968683D01*
X155244520Y-146968696D01*
X155180262Y-147123830D01*
X155180259Y-147123842D01*
X155147500Y-147288531D01*
X150300500Y-147288531D01*
X150300500Y-144677273D01*
X158349500Y-144677273D01*
X158349500Y-144782727D01*
X158376793Y-144884587D01*
X158429520Y-144975913D01*
X158504087Y-145050480D01*
X158595413Y-145103207D01*
X158697273Y-145130500D01*
X158697275Y-145130500D01*
X158802725Y-145130500D01*
X158802727Y-145130500D01*
X158904587Y-145103207D01*
X158995913Y-145050480D01*
X159070480Y-144975913D01*
X159123207Y-144884587D01*
X159150500Y-144782727D01*
X159150500Y-144677273D01*
X159123207Y-144575413D01*
X159070480Y-144484087D01*
X158995913Y-144409520D01*
X158904587Y-144356793D01*
X158802727Y-144329500D01*
X158697273Y-144329500D01*
X158595413Y-144356793D01*
X158595410Y-144356794D01*
X158504085Y-144409521D01*
X158429521Y-144484085D01*
X158376794Y-144575410D01*
X158376793Y-144575413D01*
X158349500Y-144677273D01*
X150300500Y-144677273D01*
X150300500Y-143522273D01*
X153059500Y-143522273D01*
X153059500Y-143627727D01*
X153086793Y-143729587D01*
X153139520Y-143820913D01*
X153214087Y-143895480D01*
X153305413Y-143948207D01*
X153407273Y-143975500D01*
X153407275Y-143975500D01*
X153512725Y-143975500D01*
X153512727Y-143975500D01*
X153614587Y-143948207D01*
X153705913Y-143895480D01*
X153780480Y-143820913D01*
X153833207Y-143729587D01*
X153860500Y-143627727D01*
X153860500Y-143522273D01*
X153858923Y-143516386D01*
X163072500Y-143516386D01*
X163072500Y-143628947D01*
X163101633Y-143737677D01*
X163129774Y-143786417D01*
X163157915Y-143835158D01*
X163237509Y-143914752D01*
X163334991Y-143971034D01*
X163443719Y-144000167D01*
X163443721Y-144000167D01*
X163556279Y-144000167D01*
X163556281Y-144000167D01*
X163665009Y-143971034D01*
X163762491Y-143914752D01*
X163842085Y-143835158D01*
X163898367Y-143737676D01*
X163927500Y-143628948D01*
X163927500Y-143516386D01*
X163898367Y-143407658D01*
X163842085Y-143310176D01*
X163762491Y-143230582D01*
X163712628Y-143201793D01*
X163665010Y-143174300D01*
X163610645Y-143159733D01*
X163556281Y-143145167D01*
X163443719Y-143145167D01*
X163334989Y-143174300D01*
X163237509Y-143230582D01*
X163237506Y-143230584D01*
X163157917Y-143310173D01*
X163157915Y-143310176D01*
X163101633Y-143407656D01*
X163072500Y-143516386D01*
X153858923Y-143516386D01*
X153833207Y-143420413D01*
X153780480Y-143329087D01*
X153705913Y-143254520D01*
X153614587Y-143201793D01*
X153512727Y-143174500D01*
X153407273Y-143174500D01*
X153305413Y-143201793D01*
X153305410Y-143201794D01*
X153214085Y-143254521D01*
X153139521Y-143329085D01*
X153086794Y-143420410D01*
X153086793Y-143420413D01*
X153059500Y-143522273D01*
X150300500Y-143522273D01*
X150300500Y-142347273D01*
X157839500Y-142347273D01*
X157839500Y-142452727D01*
X157866793Y-142554587D01*
X157919520Y-142645913D01*
X157994087Y-142720480D01*
X158085413Y-142773207D01*
X158187273Y-142800500D01*
X158187275Y-142800500D01*
X158292725Y-142800500D01*
X158292727Y-142800500D01*
X158394587Y-142773207D01*
X158485913Y-142720480D01*
X158560480Y-142645913D01*
X158613207Y-142554587D01*
X158640500Y-142452727D01*
X158640500Y-142347273D01*
X158613207Y-142245413D01*
X158560480Y-142154087D01*
X158485913Y-142079520D01*
X158394587Y-142026793D01*
X158292727Y-141999500D01*
X158187273Y-141999500D01*
X158085413Y-142026793D01*
X158085410Y-142026794D01*
X157994085Y-142079521D01*
X157919521Y-142154085D01*
X157866794Y-142245410D01*
X157866793Y-142245413D01*
X157839500Y-142347273D01*
X150300500Y-142347273D01*
X150300500Y-140707273D01*
X154499500Y-140707273D01*
X154499500Y-140812727D01*
X154526793Y-140914587D01*
X154579520Y-141005913D01*
X154654087Y-141080480D01*
X154745413Y-141133207D01*
X154847273Y-141160500D01*
X154847275Y-141160500D01*
X154952725Y-141160500D01*
X154952727Y-141160500D01*
X155054587Y-141133207D01*
X155145913Y-141080480D01*
X155220480Y-141005913D01*
X155273207Y-140914587D01*
X155300500Y-140812727D01*
X155300500Y-140707273D01*
X155273207Y-140605413D01*
X155220480Y-140514087D01*
X155145913Y-140439520D01*
X155054587Y-140386793D01*
X154952727Y-140359500D01*
X154847273Y-140359500D01*
X154745413Y-140386793D01*
X154745410Y-140386794D01*
X154654085Y-140439521D01*
X154579521Y-140514085D01*
X154526794Y-140605410D01*
X154526793Y-140605413D01*
X154499500Y-140707273D01*
X150300500Y-140707273D01*
X150300500Y-139637273D01*
X151089500Y-139637273D01*
X151089500Y-139742727D01*
X151116793Y-139844587D01*
X151169520Y-139935913D01*
X151244087Y-140010480D01*
X151335413Y-140063207D01*
X151437273Y-140090500D01*
X151437275Y-140090500D01*
X151542725Y-140090500D01*
X151542727Y-140090500D01*
X151644587Y-140063207D01*
X151735913Y-140010480D01*
X151789120Y-139957273D01*
X155399500Y-139957273D01*
X155399500Y-140062727D01*
X155426793Y-140164587D01*
X155479520Y-140255913D01*
X155554087Y-140330480D01*
X155645413Y-140383207D01*
X155747273Y-140410500D01*
X155747275Y-140410500D01*
X155852725Y-140410500D01*
X155852727Y-140410500D01*
X155954587Y-140383207D01*
X156045913Y-140330480D01*
X156120480Y-140255913D01*
X156173207Y-140164587D01*
X156200500Y-140062727D01*
X156200500Y-139957273D01*
X156173207Y-139855413D01*
X156120480Y-139764087D01*
X156045913Y-139689520D01*
X155955422Y-139637275D01*
X155954589Y-139636794D01*
X155954588Y-139636793D01*
X155954587Y-139636793D01*
X155852727Y-139609500D01*
X155747273Y-139609500D01*
X155645413Y-139636793D01*
X155645410Y-139636794D01*
X155554085Y-139689521D01*
X155479521Y-139764085D01*
X155426794Y-139855410D01*
X155426793Y-139855413D01*
X155399500Y-139957273D01*
X151789120Y-139957273D01*
X151810480Y-139935913D01*
X151863207Y-139844587D01*
X151890500Y-139742727D01*
X151890500Y-139637273D01*
X151863207Y-139535413D01*
X151810480Y-139444087D01*
X151735913Y-139369520D01*
X151644587Y-139316793D01*
X151542727Y-139289500D01*
X151437273Y-139289500D01*
X151335413Y-139316793D01*
X151335410Y-139316794D01*
X151244085Y-139369521D01*
X151169521Y-139444085D01*
X151116794Y-139535410D01*
X151116793Y-139535413D01*
X151089500Y-139637273D01*
X150300500Y-139637273D01*
X150300500Y-138767273D01*
X154499500Y-138767273D01*
X154499500Y-138872727D01*
X154526793Y-138974587D01*
X154579520Y-139065913D01*
X154654087Y-139140480D01*
X154745413Y-139193207D01*
X154847273Y-139220500D01*
X154847275Y-139220500D01*
X154952725Y-139220500D01*
X154952727Y-139220500D01*
X155054587Y-139193207D01*
X155145913Y-139140480D01*
X155183183Y-139103210D01*
X165659500Y-139103210D01*
X165659500Y-139208664D01*
X165686793Y-139310524D01*
X165739520Y-139401850D01*
X165814087Y-139476417D01*
X165905413Y-139529144D01*
X166007273Y-139556437D01*
X166007275Y-139556437D01*
X166112725Y-139556437D01*
X166112727Y-139556437D01*
X166214587Y-139529144D01*
X166305913Y-139476417D01*
X166380480Y-139401850D01*
X166433207Y-139310524D01*
X166460500Y-139208664D01*
X166460500Y-139103210D01*
X166433207Y-139001350D01*
X166380480Y-138910024D01*
X166305913Y-138835457D01*
X166214587Y-138782730D01*
X166112727Y-138755437D01*
X166007273Y-138755437D01*
X165905413Y-138782730D01*
X165905410Y-138782731D01*
X165814085Y-138835458D01*
X165739521Y-138910022D01*
X165686794Y-139001347D01*
X165686793Y-139001350D01*
X165659500Y-139103210D01*
X155183183Y-139103210D01*
X155220480Y-139065913D01*
X155273207Y-138974587D01*
X155300500Y-138872727D01*
X155300500Y-138767273D01*
X155273207Y-138665413D01*
X155220480Y-138574087D01*
X155145913Y-138499520D01*
X155054587Y-138446793D01*
X154952727Y-138419500D01*
X154847273Y-138419500D01*
X154745413Y-138446793D01*
X154745410Y-138446794D01*
X154654085Y-138499521D01*
X154579521Y-138574085D01*
X154526794Y-138665410D01*
X154526793Y-138665413D01*
X154499500Y-138767273D01*
X150300500Y-138767273D01*
X150300500Y-138047273D01*
X153299500Y-138047273D01*
X153299500Y-138152727D01*
X153326793Y-138254587D01*
X153379520Y-138345913D01*
X153454087Y-138420480D01*
X153545413Y-138473207D01*
X153647273Y-138500500D01*
X153647275Y-138500500D01*
X153752725Y-138500500D01*
X153752727Y-138500500D01*
X153854587Y-138473207D01*
X153945913Y-138420480D01*
X154020480Y-138345913D01*
X154073207Y-138254587D01*
X154100500Y-138152727D01*
X154100500Y-138047273D01*
X154073207Y-137945413D01*
X154020480Y-137854087D01*
X153945913Y-137779520D01*
X153854587Y-137726793D01*
X153752727Y-137699500D01*
X153647273Y-137699500D01*
X153545413Y-137726793D01*
X153545410Y-137726794D01*
X153454085Y-137779521D01*
X153379521Y-137854085D01*
X153326794Y-137945410D01*
X153326793Y-137945413D01*
X153299500Y-138047273D01*
X150300500Y-138047273D01*
X150300500Y-136064038D01*
X156899500Y-136064038D01*
X156899500Y-136315961D01*
X156938910Y-136564785D01*
X157016760Y-136804383D01*
X157131132Y-137028848D01*
X157279201Y-137232649D01*
X157279205Y-137232654D01*
X157457345Y-137410794D01*
X157457350Y-137410798D01*
X157635117Y-137539952D01*
X157661155Y-137558870D01*
X157804184Y-137631747D01*
X157885616Y-137673239D01*
X157885618Y-137673239D01*
X157885621Y-137673241D01*
X158125215Y-137751090D01*
X158374038Y-137790500D01*
X158374039Y-137790500D01*
X158625961Y-137790500D01*
X158625962Y-137790500D01*
X158874785Y-137751090D01*
X159114379Y-137673241D01*
X159338845Y-137558870D01*
X159542656Y-137410793D01*
X159720793Y-137232656D01*
X159868870Y-137028845D01*
X159983241Y-136804379D01*
X160061090Y-136564785D01*
X160100500Y-136315962D01*
X160100500Y-136064038D01*
X160061090Y-135815215D01*
X159983241Y-135575621D01*
X159983239Y-135575618D01*
X159983239Y-135575616D01*
X159941747Y-135494184D01*
X159868870Y-135351155D01*
X159849952Y-135325117D01*
X159720798Y-135147350D01*
X159720794Y-135147345D01*
X159542654Y-134969205D01*
X159542649Y-134969201D01*
X159338848Y-134821132D01*
X159338847Y-134821131D01*
X159338845Y-134821130D01*
X159268747Y-134785413D01*
X159114383Y-134706760D01*
X158874785Y-134628910D01*
X158625962Y-134589500D01*
X158374038Y-134589500D01*
X158249626Y-134609205D01*
X158125214Y-134628910D01*
X157885616Y-134706760D01*
X157661151Y-134821132D01*
X157457350Y-134969201D01*
X157457345Y-134969205D01*
X157279205Y-135147345D01*
X157279201Y-135147350D01*
X157131132Y-135351151D01*
X157016760Y-135575616D01*
X156938910Y-135815214D01*
X156899500Y-136064038D01*
X150300500Y-136064038D01*
X150300500Y-132707273D01*
X154889500Y-132707273D01*
X154889500Y-132812727D01*
X154916793Y-132914587D01*
X154969520Y-133005913D01*
X155044087Y-133080480D01*
X155135413Y-133133207D01*
X155237273Y-133160500D01*
X155237275Y-133160500D01*
X155342725Y-133160500D01*
X155342727Y-133160500D01*
X155444587Y-133133207D01*
X155535913Y-133080480D01*
X155610480Y-133005913D01*
X155610480Y-133005912D01*
X155616227Y-133000166D01*
X155618403Y-133002342D01*
X155663017Y-132969746D01*
X155732762Y-132965571D01*
X155793693Y-132999765D01*
X155795775Y-133002168D01*
X155799520Y-133005913D01*
X155874087Y-133080480D01*
X155965413Y-133133207D01*
X156067273Y-133160500D01*
X156067275Y-133160500D01*
X156172725Y-133160500D01*
X156172727Y-133160500D01*
X156274587Y-133133207D01*
X156365913Y-133080480D01*
X156440480Y-133005913D01*
X156493207Y-132914587D01*
X156493209Y-132914579D01*
X156494399Y-132911708D01*
X156496057Y-132909649D01*
X156497271Y-132907548D01*
X156497598Y-132907737D01*
X156538238Y-132857303D01*
X156604531Y-132835235D01*
X156670958Y-132851767D01*
X156725413Y-132883207D01*
X156827273Y-132910500D01*
X156827275Y-132910500D01*
X156932725Y-132910500D01*
X156932727Y-132910500D01*
X157034587Y-132883207D01*
X157125913Y-132830480D01*
X157200480Y-132755913D01*
X157253207Y-132664587D01*
X157280500Y-132562727D01*
X157280500Y-132457273D01*
X157253207Y-132355413D01*
X157231187Y-132317273D01*
X161409500Y-132317273D01*
X161409500Y-132422727D01*
X161436793Y-132524587D01*
X161489520Y-132615913D01*
X161564087Y-132690480D01*
X161655413Y-132743207D01*
X161757273Y-132770500D01*
X161757275Y-132770500D01*
X161862725Y-132770500D01*
X161862727Y-132770500D01*
X161964587Y-132743207D01*
X162055913Y-132690480D01*
X162130480Y-132615913D01*
X162183207Y-132524587D01*
X162210500Y-132422727D01*
X162210500Y-132317273D01*
X162183207Y-132215413D01*
X162130480Y-132124087D01*
X162055913Y-132049520D01*
X161964587Y-131996793D01*
X161862727Y-131969500D01*
X161757273Y-131969500D01*
X161655413Y-131996793D01*
X161655410Y-131996794D01*
X161564085Y-132049521D01*
X161489521Y-132124085D01*
X161436794Y-132215410D01*
X161436793Y-132215413D01*
X161409500Y-132317273D01*
X157231187Y-132317273D01*
X157200480Y-132264087D01*
X157125913Y-132189520D01*
X157034587Y-132136793D01*
X156932727Y-132109500D01*
X156827273Y-132109500D01*
X156725413Y-132136793D01*
X156725410Y-132136794D01*
X156634085Y-132189521D01*
X156559521Y-132264085D01*
X156506792Y-132355414D01*
X156505595Y-132358304D01*
X156503934Y-132360364D01*
X156502729Y-132362452D01*
X156502403Y-132362263D01*
X156461749Y-132412704D01*
X156395454Y-132434764D01*
X156329038Y-132418230D01*
X156274587Y-132386793D01*
X156172727Y-132359500D01*
X156067273Y-132359500D01*
X155965413Y-132386793D01*
X155965410Y-132386794D01*
X155874085Y-132439521D01*
X155793773Y-132519834D01*
X155791600Y-132517661D01*
X155746943Y-132550267D01*
X155677197Y-132554419D01*
X155616278Y-132520204D01*
X155614207Y-132517814D01*
X155535914Y-132439521D01*
X155535913Y-132439520D01*
X155444587Y-132386793D01*
X155342727Y-132359500D01*
X155237273Y-132359500D01*
X155237271Y-132359500D01*
X155233496Y-132360511D01*
X155233489Y-132360513D01*
X155135413Y-132386793D01*
X155044087Y-132439520D01*
X155036617Y-132446989D01*
X155036616Y-132446990D01*
X154969521Y-132514085D01*
X154916794Y-132605410D01*
X154916793Y-132605413D01*
X154889500Y-132707273D01*
X150300500Y-132707273D01*
X150300500Y-131772273D01*
X154469500Y-131772273D01*
X154469500Y-131877727D01*
X154496793Y-131979587D01*
X154549520Y-132070913D01*
X154624087Y-132145480D01*
X154715413Y-132198207D01*
X154817273Y-132225500D01*
X154817275Y-132225500D01*
X154922725Y-132225500D01*
X154922727Y-132225500D01*
X155024587Y-132198207D01*
X155115913Y-132145480D01*
X155190480Y-132070913D01*
X155243207Y-131979587D01*
X155270500Y-131877727D01*
X155270500Y-131772273D01*
X155243207Y-131670413D01*
X155190480Y-131579087D01*
X155115913Y-131504520D01*
X155024587Y-131451793D01*
X154922727Y-131424500D01*
X154817273Y-131424500D01*
X154715413Y-131451793D01*
X154715410Y-131451794D01*
X154624085Y-131504521D01*
X154549521Y-131579085D01*
X154496794Y-131670410D01*
X154496793Y-131670413D01*
X154469500Y-131772273D01*
X150300500Y-131772273D01*
X150300500Y-131097273D01*
X156079500Y-131097273D01*
X156079500Y-131202727D01*
X156106793Y-131304587D01*
X156159520Y-131395913D01*
X156234087Y-131470480D01*
X156325413Y-131523207D01*
X156427273Y-131550500D01*
X156427275Y-131550500D01*
X156532725Y-131550500D01*
X156532727Y-131550500D01*
X156634587Y-131523207D01*
X156725913Y-131470480D01*
X156800480Y-131395913D01*
X156853207Y-131304587D01*
X156880500Y-131202727D01*
X156880500Y-131097273D01*
X156853207Y-130995413D01*
X156853205Y-130995409D01*
X156851798Y-130992011D01*
X156851464Y-130988912D01*
X156851103Y-130987562D01*
X156851313Y-130987505D01*
X156844329Y-130922542D01*
X156875605Y-130860063D01*
X156935694Y-130824411D01*
X157005519Y-130826905D01*
X157028360Y-130837172D01*
X157034083Y-130840476D01*
X157034087Y-130840480D01*
X157125413Y-130893207D01*
X157227273Y-130920500D01*
X157227275Y-130920500D01*
X157332725Y-130920500D01*
X157332727Y-130920500D01*
X157434587Y-130893207D01*
X157525913Y-130840480D01*
X157600480Y-130765913D01*
X157653207Y-130674587D01*
X157680500Y-130572727D01*
X157680500Y-130467273D01*
X157679026Y-130461773D01*
X158270706Y-130461773D01*
X158270706Y-130567227D01*
X158281773Y-130608528D01*
X158297999Y-130669086D01*
X158298000Y-130669089D01*
X158312128Y-130693559D01*
X158350726Y-130760413D01*
X158425293Y-130834980D01*
X158516619Y-130887707D01*
X158618479Y-130915000D01*
X158618481Y-130915000D01*
X158723931Y-130915000D01*
X158723933Y-130915000D01*
X158723934Y-130914999D01*
X158731989Y-130913939D01*
X158732174Y-130915350D01*
X158793248Y-130916800D01*
X158851113Y-130955959D01*
X158878622Y-131020185D01*
X158879500Y-131034915D01*
X158879500Y-131102727D01*
X158906793Y-131204587D01*
X158959520Y-131295913D01*
X159034087Y-131370480D01*
X159125413Y-131423207D01*
X159227273Y-131450500D01*
X159227275Y-131450500D01*
X159332725Y-131450500D01*
X159332727Y-131450500D01*
X159434587Y-131423207D01*
X159525913Y-131370480D01*
X159600480Y-131295913D01*
X159653207Y-131204587D01*
X159680500Y-131102727D01*
X159680500Y-130997273D01*
X159653207Y-130895413D01*
X159600480Y-130804087D01*
X159525913Y-130729520D01*
X159459059Y-130690922D01*
X159434589Y-130676794D01*
X159434588Y-130676793D01*
X159434587Y-130676793D01*
X159332727Y-130649500D01*
X159227273Y-130649500D01*
X159227271Y-130649500D01*
X159219217Y-130650561D01*
X159219031Y-130649151D01*
X159157943Y-130647694D01*
X159100083Y-130608528D01*
X159072582Y-130544298D01*
X159071706Y-130529584D01*
X159071706Y-130461775D01*
X159071706Y-130461773D01*
X159044413Y-130359913D01*
X158991686Y-130268587D01*
X158917119Y-130194020D01*
X158825793Y-130141293D01*
X158723933Y-130114000D01*
X158618479Y-130114000D01*
X158516619Y-130141293D01*
X158516616Y-130141294D01*
X158425291Y-130194021D01*
X158350727Y-130268585D01*
X158298000Y-130359910D01*
X158297999Y-130359913D01*
X158270706Y-130461773D01*
X157679026Y-130461773D01*
X157653207Y-130365413D01*
X157600480Y-130274087D01*
X157525913Y-130199520D01*
X157434587Y-130146793D01*
X157332727Y-130119500D01*
X157227273Y-130119500D01*
X157125413Y-130146793D01*
X157125410Y-130146794D01*
X157034085Y-130199521D01*
X156959521Y-130274085D01*
X156906794Y-130365410D01*
X156906793Y-130365413D01*
X156879500Y-130467273D01*
X156879500Y-130572727D01*
X156905319Y-130669087D01*
X156906795Y-130674593D01*
X156908203Y-130677993D01*
X156908535Y-130681090D01*
X156908897Y-130682438D01*
X156908686Y-130682494D01*
X156915669Y-130747463D01*
X156884391Y-130809940D01*
X156824300Y-130845590D01*
X156754475Y-130843092D01*
X156731640Y-130832827D01*
X156725914Y-130829521D01*
X156725913Y-130829520D01*
X156634587Y-130776793D01*
X156532727Y-130749500D01*
X156427273Y-130749500D01*
X156325413Y-130776793D01*
X156325410Y-130776794D01*
X156234085Y-130829521D01*
X156159521Y-130904085D01*
X156106794Y-130995410D01*
X156106793Y-130995413D01*
X156079500Y-131097273D01*
X150300500Y-131097273D01*
X150300500Y-128887273D01*
X153379500Y-128887273D01*
X153379500Y-128992727D01*
X153406793Y-129094587D01*
X153459520Y-129185913D01*
X153534087Y-129260480D01*
X153625413Y-129313207D01*
X153727273Y-129340500D01*
X153727275Y-129340500D01*
X153832725Y-129340500D01*
X153832727Y-129340500D01*
X153934587Y-129313207D01*
X154025913Y-129260480D01*
X154100480Y-129185913D01*
X154153207Y-129094587D01*
X154180500Y-128992727D01*
X154180500Y-128887273D01*
X154153207Y-128785413D01*
X154100480Y-128694087D01*
X154025913Y-128619520D01*
X153934587Y-128566793D01*
X153832727Y-128539500D01*
X153727273Y-128539500D01*
X153625413Y-128566793D01*
X153625410Y-128566794D01*
X153534085Y-128619521D01*
X153459521Y-128694085D01*
X153406794Y-128785410D01*
X153406793Y-128785413D01*
X153379500Y-128887273D01*
X150300500Y-128887273D01*
X150300500Y-128530553D01*
X154932500Y-128530553D01*
X154932500Y-128669447D01*
X154956953Y-128760705D01*
X154968448Y-128803606D01*
X154968449Y-128803609D01*
X155037892Y-128923889D01*
X155037894Y-128923892D01*
X155037895Y-128923893D01*
X155136107Y-129022105D01*
X155256393Y-129091552D01*
X155390553Y-129127500D01*
X155390555Y-129127500D01*
X155529445Y-129127500D01*
X155529447Y-129127500D01*
X155663607Y-129091552D01*
X155783893Y-129022105D01*
X155858725Y-128947273D01*
X159889500Y-128947273D01*
X159889500Y-129052727D01*
X159916793Y-129154587D01*
X159969520Y-129245913D01*
X160044087Y-129320480D01*
X160135413Y-129373207D01*
X160237273Y-129400500D01*
X160237275Y-129400500D01*
X160317647Y-129400500D01*
X160384686Y-129420185D01*
X160430441Y-129472989D01*
X160438855Y-129529146D01*
X160441035Y-129529146D01*
X160441035Y-129537273D01*
X160441035Y-129642727D01*
X160468328Y-129744587D01*
X160521055Y-129835913D01*
X160595622Y-129910480D01*
X160686948Y-129963207D01*
X160788808Y-129990500D01*
X160788810Y-129990500D01*
X160894260Y-129990500D01*
X160894262Y-129990500D01*
X160996122Y-129963207D01*
X161087448Y-129910480D01*
X161162015Y-129835913D01*
X161214742Y-129744587D01*
X161242035Y-129642727D01*
X161242035Y-129537273D01*
X161214742Y-129435413D01*
X161162015Y-129344087D01*
X161087448Y-129269520D01*
X160996122Y-129216793D01*
X160894262Y-129189500D01*
X160813888Y-129189500D01*
X160746849Y-129169815D01*
X160701094Y-129117011D01*
X160689940Y-129069105D01*
X160689565Y-129056216D01*
X160690500Y-129052727D01*
X160690500Y-128947273D01*
X160685896Y-128930091D01*
X160685475Y-128915605D01*
X160690810Y-128895262D01*
X160691312Y-128874239D01*
X160699497Y-128862146D01*
X160703202Y-128848022D01*
X160718688Y-128833793D01*
X160730477Y-128816378D01*
X160743901Y-128810630D01*
X160754654Y-128800751D01*
X160775373Y-128797154D01*
X160794707Y-128788876D01*
X160809423Y-128788000D01*
X160892725Y-128788000D01*
X160892727Y-128788000D01*
X160994587Y-128760707D01*
X161085913Y-128707980D01*
X161160480Y-128633413D01*
X161213207Y-128542087D01*
X161240500Y-128440227D01*
X161240500Y-128334773D01*
X161213207Y-128232913D01*
X161160480Y-128141587D01*
X161085913Y-128067020D01*
X161005546Y-128020620D01*
X160994589Y-128014294D01*
X160994588Y-128014293D01*
X160994587Y-128014293D01*
X160902916Y-127989730D01*
X160843257Y-127953366D01*
X160812728Y-127890519D01*
X160821023Y-127821144D01*
X160865508Y-127767266D01*
X160872992Y-127762580D01*
X160945913Y-127720480D01*
X161020480Y-127645913D01*
X161073207Y-127554587D01*
X161100500Y-127452727D01*
X161100500Y-127347273D01*
X161073207Y-127245413D01*
X161020480Y-127154087D01*
X160945913Y-127079520D01*
X160915294Y-127061842D01*
X160867081Y-127011276D01*
X160853859Y-126942669D01*
X160879827Y-126877804D01*
X160889601Y-126866791D01*
X160910480Y-126845913D01*
X160963207Y-126754587D01*
X160990500Y-126652727D01*
X160990500Y-126547273D01*
X160963207Y-126445413D01*
X160910480Y-126354087D01*
X160835913Y-126279520D01*
X160744587Y-126226793D01*
X160733118Y-126223720D01*
X164422500Y-126223720D01*
X164422500Y-126416279D01*
X164460062Y-126605118D01*
X164460066Y-126605132D01*
X164533746Y-126783013D01*
X164533753Y-126783026D01*
X164640725Y-126943119D01*
X164640728Y-126943123D01*
X164776876Y-127079271D01*
X164776880Y-127079274D01*
X164936973Y-127186246D01*
X164936986Y-127186253D01*
X165079805Y-127245410D01*
X165114874Y-127259936D01*
X165268533Y-127290500D01*
X165303720Y-127297499D01*
X165303724Y-127297500D01*
X165303725Y-127297500D01*
X165496276Y-127297500D01*
X165496277Y-127297499D01*
X165685126Y-127259936D01*
X165863020Y-127186250D01*
X166023120Y-127079274D01*
X166159274Y-126943120D01*
X166266250Y-126783020D01*
X166339936Y-126605126D01*
X166377500Y-126416275D01*
X166377500Y-126223725D01*
X166339936Y-126034874D01*
X166294254Y-125924587D01*
X166266253Y-125856986D01*
X166266246Y-125856973D01*
X166159274Y-125696880D01*
X166159271Y-125696876D01*
X166023123Y-125560728D01*
X166023119Y-125560725D01*
X165863026Y-125453753D01*
X165863013Y-125453746D01*
X165685132Y-125380066D01*
X165685128Y-125380064D01*
X165685126Y-125380064D01*
X165685122Y-125380063D01*
X165685118Y-125380062D01*
X165496279Y-125342500D01*
X165496275Y-125342500D01*
X165303725Y-125342500D01*
X165303720Y-125342500D01*
X165114881Y-125380062D01*
X165114867Y-125380066D01*
X164936986Y-125453746D01*
X164936973Y-125453753D01*
X164776880Y-125560725D01*
X164776876Y-125560728D01*
X164640728Y-125696876D01*
X164640725Y-125696880D01*
X164533753Y-125856973D01*
X164533746Y-125856986D01*
X164460066Y-126034867D01*
X164460062Y-126034881D01*
X164422500Y-126223720D01*
X160733118Y-126223720D01*
X160642727Y-126199500D01*
X160537273Y-126199500D01*
X160435413Y-126226793D01*
X160435410Y-126226794D01*
X160344085Y-126279521D01*
X160269521Y-126354085D01*
X160216794Y-126445410D01*
X160216793Y-126445413D01*
X160189500Y-126547273D01*
X160189500Y-126652727D01*
X160216793Y-126754587D01*
X160269520Y-126845913D01*
X160344087Y-126920480D01*
X160374703Y-126938156D01*
X160422918Y-126988722D01*
X160436141Y-127057329D01*
X160410173Y-127122194D01*
X160400385Y-127133222D01*
X160379520Y-127154087D01*
X160326794Y-127245410D01*
X160326793Y-127245413D01*
X160299500Y-127347273D01*
X160299500Y-127452727D01*
X160308865Y-127487676D01*
X160326793Y-127554586D01*
X160326794Y-127554589D01*
X160329911Y-127559987D01*
X160379520Y-127645913D01*
X160454087Y-127720480D01*
X160545413Y-127773207D01*
X160637082Y-127797769D01*
X160696741Y-127834132D01*
X160727271Y-127896979D01*
X160718977Y-127966355D01*
X160674492Y-128020233D01*
X160666989Y-128024929D01*
X160594086Y-128067020D01*
X160519521Y-128141585D01*
X160466794Y-128232910D01*
X160466793Y-128232913D01*
X160439500Y-128334773D01*
X160439500Y-128440229D01*
X160440353Y-128443411D01*
X160440286Y-128446198D01*
X160440561Y-128448283D01*
X160440235Y-128448325D01*
X160438688Y-128513261D01*
X160399523Y-128571122D01*
X160335293Y-128598624D01*
X160320577Y-128599500D01*
X160237273Y-128599500D01*
X160135413Y-128626793D01*
X160135410Y-128626794D01*
X160044085Y-128679521D01*
X159969521Y-128754085D01*
X159916794Y-128845410D01*
X159916793Y-128845413D01*
X159889500Y-128947273D01*
X155858725Y-128947273D01*
X155882105Y-128923893D01*
X155898635Y-128895262D01*
X155909095Y-128877146D01*
X155934124Y-128833793D01*
X155951552Y-128803607D01*
X155987500Y-128669447D01*
X155987500Y-128530553D01*
X155951552Y-128396393D01*
X155882105Y-128276107D01*
X155814958Y-128208960D01*
X155781473Y-128147637D01*
X155786457Y-128077945D01*
X155814955Y-128033601D01*
X155835899Y-128012658D01*
X155892181Y-127915176D01*
X155921314Y-127806448D01*
X155921314Y-127693886D01*
X155892181Y-127585158D01*
X155835899Y-127487676D01*
X155756305Y-127408082D01*
X155726350Y-127390787D01*
X155678136Y-127340218D01*
X155664915Y-127271611D01*
X155690884Y-127206747D01*
X155700656Y-127195736D01*
X155760480Y-127135913D01*
X155813207Y-127044587D01*
X155840500Y-126942727D01*
X155840500Y-126837273D01*
X155813207Y-126735413D01*
X155760480Y-126644087D01*
X155685913Y-126569520D01*
X155594587Y-126516793D01*
X155492727Y-126489500D01*
X155387273Y-126489500D01*
X155285413Y-126516793D01*
X155285410Y-126516794D01*
X155194085Y-126569521D01*
X155119521Y-126644085D01*
X155066794Y-126735410D01*
X155066793Y-126735413D01*
X155039500Y-126837273D01*
X155039500Y-126942727D01*
X155066793Y-127044587D01*
X155119520Y-127135913D01*
X155194087Y-127210480D01*
X155203020Y-127215637D01*
X155251234Y-127266201D01*
X155264458Y-127334808D01*
X155238491Y-127399673D01*
X155228701Y-127410704D01*
X155151728Y-127487676D01*
X155095447Y-127585156D01*
X155066314Y-127693886D01*
X155066314Y-127806447D01*
X155095447Y-127915177D01*
X155117496Y-127953366D01*
X155137197Y-127987489D01*
X155155793Y-128019696D01*
X155154192Y-128020620D01*
X155175682Y-128076213D01*
X155161642Y-128144657D01*
X155139794Y-128174208D01*
X155037892Y-128276110D01*
X154968449Y-128396390D01*
X154968448Y-128396393D01*
X154932500Y-128530553D01*
X150300500Y-128530553D01*
X150300500Y-127668715D01*
X152837388Y-127668715D01*
X152837388Y-127781277D01*
X152848070Y-127821144D01*
X152866521Y-127890006D01*
X152881054Y-127915177D01*
X152922803Y-127987487D01*
X153002397Y-128067081D01*
X153099879Y-128123363D01*
X153208607Y-128152496D01*
X153208609Y-128152496D01*
X153321167Y-128152496D01*
X153321169Y-128152496D01*
X153429897Y-128123363D01*
X153527379Y-128067081D01*
X153606973Y-127987487D01*
X153663255Y-127890005D01*
X153692388Y-127781277D01*
X153692388Y-127668715D01*
X153663255Y-127559987D01*
X153660138Y-127554589D01*
X153655713Y-127546924D01*
X153606973Y-127462505D01*
X153527379Y-127382911D01*
X153473494Y-127351800D01*
X153429898Y-127326629D01*
X153375533Y-127312062D01*
X153321169Y-127297496D01*
X153208607Y-127297496D01*
X153099877Y-127326629D01*
X153002397Y-127382911D01*
X153002394Y-127382913D01*
X152922805Y-127462502D01*
X152922803Y-127462505D01*
X152866521Y-127559985D01*
X152843498Y-127645913D01*
X152837388Y-127668715D01*
X150300500Y-127668715D01*
X150300500Y-125717273D01*
X155879500Y-125717273D01*
X155879500Y-125822727D01*
X155906793Y-125924587D01*
X155959520Y-126015913D01*
X156034087Y-126090480D01*
X156125413Y-126143207D01*
X156227273Y-126170500D01*
X156227275Y-126170500D01*
X156332725Y-126170500D01*
X156332727Y-126170500D01*
X156434587Y-126143207D01*
X156525913Y-126090480D01*
X156600480Y-126015913D01*
X156653207Y-125924587D01*
X156680500Y-125822727D01*
X156680500Y-125817553D01*
X157572500Y-125817553D01*
X157572500Y-125956447D01*
X157608414Y-126090478D01*
X157608448Y-126090606D01*
X157608449Y-126090609D01*
X157677892Y-126210889D01*
X157677894Y-126210892D01*
X157677895Y-126210893D01*
X157776107Y-126309105D01*
X157896393Y-126378552D01*
X158030553Y-126414500D01*
X158030555Y-126414500D01*
X158169445Y-126414500D01*
X158169447Y-126414500D01*
X158303607Y-126378552D01*
X158423893Y-126309105D01*
X158522105Y-126210893D01*
X158591552Y-126090607D01*
X158627500Y-125956447D01*
X158627500Y-125817553D01*
X158591552Y-125683393D01*
X158522105Y-125563107D01*
X158423893Y-125464895D01*
X158423892Y-125464894D01*
X158423889Y-125464892D01*
X158303609Y-125395449D01*
X158303608Y-125395448D01*
X158303607Y-125395448D01*
X158169447Y-125359500D01*
X158030553Y-125359500D01*
X157896393Y-125395448D01*
X157896390Y-125395449D01*
X157776110Y-125464892D01*
X157776105Y-125464896D01*
X157677896Y-125563105D01*
X157677892Y-125563110D01*
X157608449Y-125683390D01*
X157608448Y-125683393D01*
X157572500Y-125817553D01*
X156680500Y-125817553D01*
X156680500Y-125717273D01*
X156653207Y-125615413D01*
X156600480Y-125524087D01*
X156525913Y-125449520D01*
X156434587Y-125396793D01*
X156332727Y-125369500D01*
X156227273Y-125369500D01*
X156125413Y-125396793D01*
X156125410Y-125396794D01*
X156034085Y-125449521D01*
X155959521Y-125524085D01*
X155906794Y-125615410D01*
X155906793Y-125615413D01*
X155879500Y-125717273D01*
X150300500Y-125717273D01*
X150300500Y-124780553D01*
X160990000Y-124780553D01*
X160990000Y-124919446D01*
X161025948Y-125053606D01*
X161025949Y-125053609D01*
X161095392Y-125173889D01*
X161095394Y-125173892D01*
X161095395Y-125173893D01*
X161193607Y-125272105D01*
X161313893Y-125341552D01*
X161448053Y-125377500D01*
X161448055Y-125377500D01*
X161586945Y-125377500D01*
X161586947Y-125377500D01*
X161721107Y-125341552D01*
X161841393Y-125272105D01*
X161939605Y-125173893D01*
X162009052Y-125053607D01*
X162045000Y-124919447D01*
X162045000Y-124780553D01*
X162009052Y-124646393D01*
X161939605Y-124526107D01*
X161841393Y-124427895D01*
X161841392Y-124427894D01*
X161841389Y-124427892D01*
X161721109Y-124358449D01*
X161721108Y-124358448D01*
X161721107Y-124358448D01*
X161586947Y-124322500D01*
X161448053Y-124322500D01*
X161313893Y-124358448D01*
X161313890Y-124358449D01*
X161193610Y-124427892D01*
X161193605Y-124427896D01*
X161095396Y-124526105D01*
X161095392Y-124526110D01*
X161025949Y-124646390D01*
X161025948Y-124646393D01*
X160990000Y-124780553D01*
X150300500Y-124780553D01*
X150300500Y-123910553D01*
X154942500Y-123910553D01*
X154942500Y-124049447D01*
X154976387Y-124175913D01*
X154978448Y-124183606D01*
X154978449Y-124183609D01*
X155047892Y-124303889D01*
X155047894Y-124303892D01*
X155047895Y-124303893D01*
X155146107Y-124402105D01*
X155266393Y-124471552D01*
X155400553Y-124507500D01*
X155400555Y-124507500D01*
X155539445Y-124507500D01*
X155539447Y-124507500D01*
X155673607Y-124471552D01*
X155793893Y-124402105D01*
X155892105Y-124303893D01*
X155961552Y-124183607D01*
X155997500Y-124049447D01*
X155997500Y-123910553D01*
X155986782Y-123870553D01*
X157152500Y-123870553D01*
X157152500Y-124009447D01*
X157172634Y-124084586D01*
X157188448Y-124143606D01*
X157188449Y-124143609D01*
X157257892Y-124263889D01*
X157257894Y-124263892D01*
X157257895Y-124263893D01*
X157356107Y-124362105D01*
X157476393Y-124431552D01*
X157610553Y-124467500D01*
X157610555Y-124467500D01*
X157749445Y-124467500D01*
X157749447Y-124467500D01*
X157883607Y-124431552D01*
X158003893Y-124362105D01*
X158102105Y-124263893D01*
X158158824Y-124165651D01*
X158209389Y-124117438D01*
X158277996Y-124104214D01*
X158342861Y-124130182D01*
X158373595Y-124165650D01*
X158379520Y-124175913D01*
X158454087Y-124250480D01*
X158545413Y-124303207D01*
X158647273Y-124330500D01*
X158647275Y-124330500D01*
X158752725Y-124330500D01*
X158752727Y-124330500D01*
X158854587Y-124303207D01*
X158945913Y-124250480D01*
X159020480Y-124175913D01*
X159073207Y-124084587D01*
X159100500Y-123982727D01*
X159100500Y-123877273D01*
X159073207Y-123775413D01*
X159020480Y-123684087D01*
X159020113Y-123683720D01*
X164422500Y-123683720D01*
X164422500Y-123876279D01*
X164460062Y-124065118D01*
X164460066Y-124065132D01*
X164533746Y-124243013D01*
X164533753Y-124243026D01*
X164640725Y-124403119D01*
X164640728Y-124403123D01*
X164776876Y-124539271D01*
X164776880Y-124539274D01*
X164936973Y-124646246D01*
X164936986Y-124646253D01*
X165085806Y-124707896D01*
X165114874Y-124719936D01*
X165303720Y-124757499D01*
X165303724Y-124757500D01*
X165303725Y-124757500D01*
X165496276Y-124757500D01*
X165496277Y-124757499D01*
X165685126Y-124719936D01*
X165863020Y-124646250D01*
X166023120Y-124539274D01*
X166159274Y-124403120D01*
X166266250Y-124243020D01*
X166339936Y-124065126D01*
X166377500Y-123876275D01*
X166377500Y-123683725D01*
X166339936Y-123494874D01*
X166270608Y-123327500D01*
X166266253Y-123316986D01*
X166266246Y-123316973D01*
X166159274Y-123156880D01*
X166159271Y-123156876D01*
X166023123Y-123020728D01*
X166023119Y-123020725D01*
X165863026Y-122913753D01*
X165863013Y-122913746D01*
X165685132Y-122840066D01*
X165685128Y-122840064D01*
X165685126Y-122840064D01*
X165685122Y-122840063D01*
X165685118Y-122840062D01*
X165496279Y-122802500D01*
X165496275Y-122802500D01*
X165303725Y-122802500D01*
X165303720Y-122802500D01*
X165114881Y-122840062D01*
X165114867Y-122840066D01*
X164936986Y-122913746D01*
X164936973Y-122913753D01*
X164776880Y-123020725D01*
X164776876Y-123020728D01*
X164640728Y-123156876D01*
X164640725Y-123156880D01*
X164533753Y-123316973D01*
X164533746Y-123316986D01*
X164460066Y-123494867D01*
X164460062Y-123494881D01*
X164422500Y-123683720D01*
X159020113Y-123683720D01*
X158945913Y-123609520D01*
X158879059Y-123570922D01*
X158854589Y-123556794D01*
X158854588Y-123556793D01*
X158854587Y-123556793D01*
X158752727Y-123529500D01*
X158647273Y-123529500D01*
X158545413Y-123556793D01*
X158545410Y-123556794D01*
X158454085Y-123609521D01*
X158379520Y-123684086D01*
X158367821Y-123704349D01*
X158317253Y-123752563D01*
X158248645Y-123765784D01*
X158183781Y-123739814D01*
X158153051Y-123704348D01*
X158102105Y-123616107D01*
X158003893Y-123517895D01*
X158003892Y-123517894D01*
X158003889Y-123517892D01*
X157883609Y-123448449D01*
X157883608Y-123448448D01*
X157883607Y-123448448D01*
X157749447Y-123412500D01*
X157610553Y-123412500D01*
X157476393Y-123448448D01*
X157476390Y-123448449D01*
X157356110Y-123517892D01*
X157356105Y-123517896D01*
X157257896Y-123616105D01*
X157257892Y-123616110D01*
X157188449Y-123736390D01*
X157188448Y-123736393D01*
X157152500Y-123870553D01*
X155986782Y-123870553D01*
X155961552Y-123776393D01*
X155926828Y-123716250D01*
X155892107Y-123656110D01*
X155892103Y-123656105D01*
X155793894Y-123557896D01*
X155793889Y-123557892D01*
X155673609Y-123488449D01*
X155673608Y-123488448D01*
X155673607Y-123488448D01*
X155539447Y-123452500D01*
X155400553Y-123452500D01*
X155266393Y-123488448D01*
X155266390Y-123488449D01*
X155146110Y-123557892D01*
X155146105Y-123557896D01*
X155047896Y-123656105D01*
X155047892Y-123656110D01*
X154978449Y-123776390D01*
X154978448Y-123776393D01*
X154942500Y-123910553D01*
X150300500Y-123910553D01*
X150300500Y-122843719D01*
X153472500Y-122843719D01*
X153472500Y-122956280D01*
X153501633Y-123065010D01*
X153529774Y-123113750D01*
X153557915Y-123162491D01*
X153637509Y-123242085D01*
X153734991Y-123298367D01*
X153843719Y-123327500D01*
X153843721Y-123327500D01*
X153956279Y-123327500D01*
X153956281Y-123327500D01*
X154065009Y-123298367D01*
X154162491Y-123242085D01*
X154242085Y-123162491D01*
X154298367Y-123065009D01*
X154327500Y-122956281D01*
X154327500Y-122843719D01*
X154298367Y-122734991D01*
X154242085Y-122637509D01*
X154162491Y-122557915D01*
X154113750Y-122529774D01*
X154065010Y-122501633D01*
X154010645Y-122487066D01*
X153956281Y-122472500D01*
X153843719Y-122472500D01*
X153734989Y-122501633D01*
X153637509Y-122557915D01*
X153637506Y-122557917D01*
X153557917Y-122637506D01*
X153557915Y-122637509D01*
X153501633Y-122734989D01*
X153472500Y-122843719D01*
X150300500Y-122843719D01*
X150300500Y-120580553D01*
X153372500Y-120580553D01*
X153372500Y-120719446D01*
X153408448Y-120853606D01*
X153408449Y-120853609D01*
X153477892Y-120973889D01*
X153477894Y-120973892D01*
X153477895Y-120973893D01*
X153576107Y-121072105D01*
X153696393Y-121141552D01*
X153830553Y-121177500D01*
X153830555Y-121177500D01*
X153969445Y-121177500D01*
X153969447Y-121177500D01*
X154103607Y-121141552D01*
X154223893Y-121072105D01*
X154322105Y-120973893D01*
X154391552Y-120853607D01*
X154427500Y-120719447D01*
X154427500Y-120580553D01*
X155232500Y-120580553D01*
X155232500Y-120719446D01*
X155268448Y-120853606D01*
X155268449Y-120853609D01*
X155337892Y-120973889D01*
X155337894Y-120973892D01*
X155337895Y-120973893D01*
X155436107Y-121072105D01*
X155556393Y-121141552D01*
X155690553Y-121177500D01*
X155690555Y-121177500D01*
X155829445Y-121177500D01*
X155829447Y-121177500D01*
X155963607Y-121141552D01*
X156083893Y-121072105D01*
X156182105Y-120973893D01*
X156251552Y-120853607D01*
X156287500Y-120719447D01*
X156287500Y-120580553D01*
X158092500Y-120580553D01*
X158092500Y-120719446D01*
X158128448Y-120853606D01*
X158128449Y-120853609D01*
X158197892Y-120973889D01*
X158197894Y-120973892D01*
X158197895Y-120973893D01*
X158296107Y-121072105D01*
X158416393Y-121141552D01*
X158550553Y-121177500D01*
X158550555Y-121177500D01*
X158689445Y-121177500D01*
X158689447Y-121177500D01*
X158823607Y-121141552D01*
X158943893Y-121072105D01*
X159042105Y-120973893D01*
X159111552Y-120853607D01*
X159147500Y-120719447D01*
X159147500Y-120580553D01*
X161202500Y-120580553D01*
X161202500Y-120719446D01*
X161238448Y-120853606D01*
X161238449Y-120853609D01*
X161307892Y-120973889D01*
X161307894Y-120973892D01*
X161307895Y-120973893D01*
X161406107Y-121072105D01*
X161526393Y-121141552D01*
X161660553Y-121177500D01*
X161660555Y-121177500D01*
X161799445Y-121177500D01*
X161799447Y-121177500D01*
X161925516Y-121143720D01*
X164422500Y-121143720D01*
X164422500Y-121336279D01*
X164460062Y-121525118D01*
X164460066Y-121525132D01*
X164533746Y-121703013D01*
X164533753Y-121703026D01*
X164640725Y-121863119D01*
X164640728Y-121863123D01*
X164776876Y-121999271D01*
X164776880Y-121999274D01*
X164936973Y-122106246D01*
X164936986Y-122106253D01*
X165085806Y-122167896D01*
X165114874Y-122179936D01*
X165303720Y-122217499D01*
X165303724Y-122217500D01*
X165303725Y-122217500D01*
X165496276Y-122217500D01*
X165496277Y-122217499D01*
X165685126Y-122179936D01*
X165863020Y-122106250D01*
X166023120Y-121999274D01*
X166159274Y-121863120D01*
X166266250Y-121703020D01*
X166339936Y-121525126D01*
X166377500Y-121336275D01*
X166377500Y-121143725D01*
X166339936Y-120954874D01*
X166297990Y-120853607D01*
X166266253Y-120776986D01*
X166266246Y-120776973D01*
X166159274Y-120616880D01*
X166159271Y-120616876D01*
X166023123Y-120480728D01*
X166023119Y-120480725D01*
X165863026Y-120373753D01*
X165863013Y-120373746D01*
X165685132Y-120300066D01*
X165685128Y-120300064D01*
X165685126Y-120300064D01*
X165685122Y-120300063D01*
X165685118Y-120300062D01*
X165496279Y-120262500D01*
X165496275Y-120262500D01*
X165303725Y-120262500D01*
X165303720Y-120262500D01*
X165114881Y-120300062D01*
X165114867Y-120300066D01*
X164936986Y-120373746D01*
X164936973Y-120373753D01*
X164776880Y-120480725D01*
X164776876Y-120480728D01*
X164640728Y-120616876D01*
X164640725Y-120616880D01*
X164533753Y-120776973D01*
X164533746Y-120776986D01*
X164460066Y-120954867D01*
X164460062Y-120954881D01*
X164422500Y-121143720D01*
X161925516Y-121143720D01*
X161933607Y-121141552D01*
X162053893Y-121072105D01*
X162152105Y-120973893D01*
X162221552Y-120853607D01*
X162257500Y-120719447D01*
X162257500Y-120580553D01*
X162221552Y-120446393D01*
X162152105Y-120326107D01*
X162053893Y-120227895D01*
X162053892Y-120227894D01*
X162053889Y-120227892D01*
X161933609Y-120158449D01*
X161933608Y-120158448D01*
X161933607Y-120158448D01*
X161799447Y-120122500D01*
X161660553Y-120122500D01*
X161526393Y-120158448D01*
X161526390Y-120158449D01*
X161406110Y-120227892D01*
X161406105Y-120227896D01*
X161307896Y-120326105D01*
X161307892Y-120326110D01*
X161238449Y-120446390D01*
X161238448Y-120446393D01*
X161202500Y-120580553D01*
X159147500Y-120580553D01*
X159111552Y-120446393D01*
X159042105Y-120326107D01*
X158943893Y-120227895D01*
X158943892Y-120227894D01*
X158943889Y-120227892D01*
X158823609Y-120158449D01*
X158823608Y-120158448D01*
X158823607Y-120158448D01*
X158689447Y-120122500D01*
X158550553Y-120122500D01*
X158416393Y-120158448D01*
X158416390Y-120158449D01*
X158296110Y-120227892D01*
X158296105Y-120227896D01*
X158197896Y-120326105D01*
X158197892Y-120326110D01*
X158128449Y-120446390D01*
X158128448Y-120446393D01*
X158092500Y-120580553D01*
X156287500Y-120580553D01*
X156251552Y-120446393D01*
X156182105Y-120326107D01*
X156083893Y-120227895D01*
X156083892Y-120227894D01*
X156083889Y-120227892D01*
X155963609Y-120158449D01*
X155963608Y-120158448D01*
X155963607Y-120158448D01*
X155829447Y-120122500D01*
X155690553Y-120122500D01*
X155556393Y-120158448D01*
X155556390Y-120158449D01*
X155436110Y-120227892D01*
X155436105Y-120227896D01*
X155337896Y-120326105D01*
X155337892Y-120326110D01*
X155268449Y-120446390D01*
X155268448Y-120446393D01*
X155232500Y-120580553D01*
X154427500Y-120580553D01*
X154391552Y-120446393D01*
X154322105Y-120326107D01*
X154223893Y-120227895D01*
X154223892Y-120227894D01*
X154223889Y-120227892D01*
X154103609Y-120158449D01*
X154103608Y-120158448D01*
X154103607Y-120158448D01*
X153969447Y-120122500D01*
X153830553Y-120122500D01*
X153696393Y-120158448D01*
X153696390Y-120158449D01*
X153576110Y-120227892D01*
X153576105Y-120227896D01*
X153477896Y-120326105D01*
X153477892Y-120326110D01*
X153408449Y-120446390D01*
X153408448Y-120446393D01*
X153372500Y-120580553D01*
X150300500Y-120580553D01*
X150300500Y-117710553D01*
X155002500Y-117710553D01*
X155002500Y-117849447D01*
X155034239Y-117967896D01*
X155038448Y-117983606D01*
X155038449Y-117983609D01*
X155107892Y-118103889D01*
X155107894Y-118103892D01*
X155107895Y-118103893D01*
X155206107Y-118202105D01*
X155326393Y-118271552D01*
X155460553Y-118307500D01*
X155460555Y-118307500D01*
X155599443Y-118307500D01*
X155599447Y-118307500D01*
X155666410Y-118289557D01*
X155736255Y-118291220D01*
X155794118Y-118330382D01*
X155821623Y-118394610D01*
X155822500Y-118409332D01*
X155822500Y-118459447D01*
X155856387Y-118585913D01*
X155858448Y-118593606D01*
X155858449Y-118593609D01*
X155927892Y-118713889D01*
X155927894Y-118713892D01*
X155927895Y-118713893D01*
X156026107Y-118812105D01*
X156146393Y-118881552D01*
X156280553Y-118917500D01*
X156280555Y-118917500D01*
X156419445Y-118917500D01*
X156419447Y-118917500D01*
X156553607Y-118881552D01*
X156673893Y-118812105D01*
X156772105Y-118713893D01*
X156841552Y-118593607D01*
X156877500Y-118459447D01*
X156877500Y-118320553D01*
X156868583Y-118287273D01*
X158419500Y-118287273D01*
X158419500Y-118392727D01*
X158446793Y-118494587D01*
X158499520Y-118585913D01*
X158574087Y-118660480D01*
X158665413Y-118713207D01*
X158767273Y-118740500D01*
X158767275Y-118740500D01*
X158872725Y-118740500D01*
X158872727Y-118740500D01*
X158974587Y-118713207D01*
X159065913Y-118660480D01*
X159140480Y-118585913D01*
X159193207Y-118494587D01*
X159220500Y-118392727D01*
X159220500Y-118287273D01*
X159218699Y-118280553D01*
X159712500Y-118280553D01*
X159712500Y-118419447D01*
X159732634Y-118494586D01*
X159748448Y-118553606D01*
X159748449Y-118553609D01*
X159817892Y-118673889D01*
X159817894Y-118673892D01*
X159817895Y-118673893D01*
X159916107Y-118772105D01*
X159916108Y-118772106D01*
X159916110Y-118772107D01*
X159933431Y-118782107D01*
X160036393Y-118841552D01*
X160170553Y-118877500D01*
X160170555Y-118877500D01*
X160309445Y-118877500D01*
X160309447Y-118877500D01*
X160443607Y-118841552D01*
X160563893Y-118772105D01*
X160662105Y-118673893D01*
X160731552Y-118553607D01*
X160767500Y-118419447D01*
X160767500Y-118290553D01*
X161182500Y-118290553D01*
X161182500Y-118429447D01*
X161215769Y-118553606D01*
X161218448Y-118563606D01*
X161218449Y-118563609D01*
X161287892Y-118683889D01*
X161287894Y-118683892D01*
X161287895Y-118683893D01*
X161386107Y-118782105D01*
X161506393Y-118851552D01*
X161640553Y-118887500D01*
X161640555Y-118887500D01*
X161779445Y-118887500D01*
X161779447Y-118887500D01*
X161913607Y-118851552D01*
X162033893Y-118782105D01*
X162132105Y-118683893D01*
X162178393Y-118603720D01*
X164422500Y-118603720D01*
X164422500Y-118796279D01*
X164460062Y-118985118D01*
X164460066Y-118985132D01*
X164533746Y-119163013D01*
X164533753Y-119163026D01*
X164640725Y-119323119D01*
X164640728Y-119323123D01*
X164776876Y-119459271D01*
X164776880Y-119459274D01*
X164936973Y-119566246D01*
X164936986Y-119566253D01*
X165085806Y-119627896D01*
X165114874Y-119639936D01*
X165303720Y-119677499D01*
X165303724Y-119677500D01*
X165303725Y-119677500D01*
X165496276Y-119677500D01*
X165496277Y-119677499D01*
X165685126Y-119639936D01*
X165863020Y-119566250D01*
X166023120Y-119459274D01*
X166159274Y-119323120D01*
X166266250Y-119163020D01*
X166339936Y-118985126D01*
X166377500Y-118796275D01*
X166377500Y-118603725D01*
X166339936Y-118414874D01*
X166327896Y-118385806D01*
X166266253Y-118236986D01*
X166266246Y-118236973D01*
X166159274Y-118076880D01*
X166159271Y-118076876D01*
X166023123Y-117940728D01*
X166023119Y-117940725D01*
X165863026Y-117833753D01*
X165863013Y-117833746D01*
X165685132Y-117760066D01*
X165685128Y-117760064D01*
X165685126Y-117760064D01*
X165685122Y-117760063D01*
X165685118Y-117760062D01*
X165496279Y-117722500D01*
X165496275Y-117722500D01*
X165303725Y-117722500D01*
X165303720Y-117722500D01*
X165114881Y-117760062D01*
X165114867Y-117760066D01*
X164936986Y-117833746D01*
X164936973Y-117833753D01*
X164776880Y-117940725D01*
X164776876Y-117940728D01*
X164640728Y-118076876D01*
X164640725Y-118076880D01*
X164533753Y-118236973D01*
X164533746Y-118236986D01*
X164460066Y-118414867D01*
X164460062Y-118414881D01*
X164422500Y-118603720D01*
X162178393Y-118603720D01*
X162201552Y-118563607D01*
X162237500Y-118429447D01*
X162237500Y-118290553D01*
X162201552Y-118156393D01*
X162149427Y-118066110D01*
X162132107Y-118036110D01*
X162132103Y-118036105D01*
X162033894Y-117937896D01*
X162033889Y-117937892D01*
X161913609Y-117868449D01*
X161913608Y-117868448D01*
X161913607Y-117868448D01*
X161779447Y-117832500D01*
X161640553Y-117832500D01*
X161506393Y-117868448D01*
X161506390Y-117868449D01*
X161386110Y-117937892D01*
X161386105Y-117937896D01*
X161287896Y-118036105D01*
X161287892Y-118036110D01*
X161218449Y-118156390D01*
X161218448Y-118156393D01*
X161182500Y-118290553D01*
X160767500Y-118290553D01*
X160767500Y-118280553D01*
X160731552Y-118146393D01*
X160667880Y-118036110D01*
X160662107Y-118026110D01*
X160662103Y-118026105D01*
X160563894Y-117927896D01*
X160563889Y-117927892D01*
X160443609Y-117858449D01*
X160443608Y-117858448D01*
X160443607Y-117858448D01*
X160309447Y-117822500D01*
X160170553Y-117822500D01*
X160036393Y-117858448D01*
X160036390Y-117858449D01*
X159916110Y-117927892D01*
X159916105Y-117927896D01*
X159817896Y-118026105D01*
X159817892Y-118026110D01*
X159748449Y-118146390D01*
X159748448Y-118146393D01*
X159712500Y-118280553D01*
X159218699Y-118280553D01*
X159193207Y-118185413D01*
X159140480Y-118094087D01*
X159065913Y-118019520D01*
X158977312Y-117968366D01*
X158974589Y-117966794D01*
X158974588Y-117966793D01*
X158974587Y-117966793D01*
X158872727Y-117939500D01*
X158767273Y-117939500D01*
X158665413Y-117966793D01*
X158665410Y-117966794D01*
X158574085Y-118019521D01*
X158499521Y-118094085D01*
X158446794Y-118185410D01*
X158446793Y-118185413D01*
X158419500Y-118287273D01*
X156868583Y-118287273D01*
X156841552Y-118186393D01*
X156778325Y-118076880D01*
X156772107Y-118066110D01*
X156772103Y-118066105D01*
X156673894Y-117967896D01*
X156673889Y-117967892D01*
X156553609Y-117898449D01*
X156553608Y-117898448D01*
X156553607Y-117898448D01*
X156419447Y-117862500D01*
X156280553Y-117862500D01*
X156213592Y-117880441D01*
X156143743Y-117878779D01*
X156085881Y-117839616D01*
X156058377Y-117775388D01*
X156057500Y-117760667D01*
X156057500Y-117710555D01*
X156057500Y-117710553D01*
X156021552Y-117576393D01*
X155952105Y-117456107D01*
X155853893Y-117357895D01*
X155853892Y-117357894D01*
X155853889Y-117357892D01*
X155823857Y-117340553D01*
X157092500Y-117340553D01*
X157092500Y-117479447D01*
X157125367Y-117602106D01*
X157128448Y-117613606D01*
X157128449Y-117613609D01*
X157197892Y-117733889D01*
X157197894Y-117733892D01*
X157197895Y-117733893D01*
X157296107Y-117832105D01*
X157296108Y-117832106D01*
X157296110Y-117832107D01*
X157341736Y-117858449D01*
X157416393Y-117901552D01*
X157550553Y-117937500D01*
X157550555Y-117937500D01*
X157689445Y-117937500D01*
X157689447Y-117937500D01*
X157823607Y-117901552D01*
X157943893Y-117832105D01*
X158042105Y-117733893D01*
X158111552Y-117613607D01*
X158147500Y-117479447D01*
X158147500Y-117340553D01*
X158111552Y-117206393D01*
X158042105Y-117086107D01*
X157943893Y-116987895D01*
X157943892Y-116987894D01*
X157943889Y-116987892D01*
X157823609Y-116918449D01*
X157823608Y-116918448D01*
X157823607Y-116918448D01*
X157689447Y-116882500D01*
X157550553Y-116882500D01*
X157416393Y-116918448D01*
X157416390Y-116918449D01*
X157300804Y-116985182D01*
X157300800Y-116985185D01*
X157296107Y-116987895D01*
X157270362Y-117013639D01*
X157270347Y-117013654D01*
X157197893Y-117086109D01*
X157197892Y-117086110D01*
X157128449Y-117206390D01*
X157128448Y-117206393D01*
X157092500Y-117340553D01*
X155823857Y-117340553D01*
X155733609Y-117288449D01*
X155733608Y-117288448D01*
X155733607Y-117288448D01*
X155599447Y-117252500D01*
X155460553Y-117252500D01*
X155326393Y-117288448D01*
X155326390Y-117288449D01*
X155206110Y-117357892D01*
X155206105Y-117357896D01*
X155107896Y-117456105D01*
X155107892Y-117456110D01*
X155038449Y-117576390D01*
X155038448Y-117576393D01*
X155002500Y-117710553D01*
X150300500Y-117710553D01*
X150300500Y-116012553D01*
X153842500Y-116012553D01*
X153842500Y-116151447D01*
X153865154Y-116235991D01*
X153878448Y-116285606D01*
X153878449Y-116285609D01*
X153947892Y-116405889D01*
X153947894Y-116405892D01*
X153947895Y-116405893D01*
X154046107Y-116504105D01*
X154046108Y-116504106D01*
X154046110Y-116504107D01*
X154079895Y-116523613D01*
X154128111Y-116574180D01*
X154141333Y-116642787D01*
X154115365Y-116707652D01*
X154079895Y-116738387D01*
X154046110Y-116757892D01*
X154046105Y-116757896D01*
X153947896Y-116856105D01*
X153947892Y-116856110D01*
X153878449Y-116976390D01*
X153878448Y-116976393D01*
X153842500Y-117110553D01*
X153842500Y-117249447D01*
X153866913Y-117340555D01*
X153878448Y-117383606D01*
X153878449Y-117383609D01*
X153947892Y-117503889D01*
X153947894Y-117503892D01*
X153947895Y-117503893D01*
X154046107Y-117602105D01*
X154046108Y-117602106D01*
X154046110Y-117602107D01*
X154106250Y-117636828D01*
X154166393Y-117671552D01*
X154300553Y-117707500D01*
X154300555Y-117707500D01*
X154439445Y-117707500D01*
X154439447Y-117707500D01*
X154573607Y-117671552D01*
X154693893Y-117602105D01*
X154792105Y-117503893D01*
X154861552Y-117383607D01*
X154897500Y-117249447D01*
X154897500Y-117110553D01*
X154861552Y-116976393D01*
X154792105Y-116856107D01*
X154693893Y-116757895D01*
X154693892Y-116757894D01*
X154677849Y-116748632D01*
X154660104Y-116738386D01*
X154611889Y-116687821D01*
X154598665Y-116619214D01*
X154624633Y-116554349D01*
X154660103Y-116523613D01*
X154693893Y-116504105D01*
X154792105Y-116405893D01*
X154835602Y-116330553D01*
X156262500Y-116330553D01*
X156262500Y-116469447D01*
X156285250Y-116554349D01*
X156298448Y-116603606D01*
X156298449Y-116603609D01*
X156367892Y-116723889D01*
X156367894Y-116723892D01*
X156367895Y-116723893D01*
X156466107Y-116822105D01*
X156466108Y-116822106D01*
X156466110Y-116822107D01*
X156524997Y-116856105D01*
X156586393Y-116891552D01*
X156720553Y-116927500D01*
X156720555Y-116927500D01*
X156859445Y-116927500D01*
X156859447Y-116927500D01*
X156993607Y-116891552D01*
X157113893Y-116822105D01*
X157212105Y-116723893D01*
X157281552Y-116603607D01*
X157317500Y-116469447D01*
X157317500Y-116330553D01*
X157310878Y-116305839D01*
X157312539Y-116235991D01*
X157351701Y-116178128D01*
X157415929Y-116150623D01*
X157462739Y-116153970D01*
X157550553Y-116177500D01*
X157550556Y-116177500D01*
X157689445Y-116177500D01*
X157689447Y-116177500D01*
X157823607Y-116141552D01*
X157943893Y-116072105D01*
X158042105Y-115973893D01*
X158111552Y-115853607D01*
X158147500Y-115719447D01*
X158147500Y-115580553D01*
X158111552Y-115446393D01*
X158042105Y-115326107D01*
X157943893Y-115227895D01*
X157943892Y-115227894D01*
X157943889Y-115227892D01*
X157823609Y-115158449D01*
X157823608Y-115158448D01*
X157823607Y-115158448D01*
X157689447Y-115122500D01*
X157550553Y-115122500D01*
X157550551Y-115122500D01*
X157531612Y-115127575D01*
X157461762Y-115125912D01*
X157403900Y-115086748D01*
X157376397Y-115022520D01*
X157376072Y-114996115D01*
X157377052Y-114985759D01*
X157397500Y-114909447D01*
X157397500Y-114783719D01*
X159822500Y-114783719D01*
X159822500Y-114896281D01*
X159826028Y-114909447D01*
X159851633Y-115005010D01*
X159861743Y-115022520D01*
X159907915Y-115102491D01*
X159987509Y-115182085D01*
X160084991Y-115238367D01*
X160193719Y-115267500D01*
X160193721Y-115267500D01*
X160306279Y-115267500D01*
X160306281Y-115267500D01*
X160415009Y-115238367D01*
X160512491Y-115182085D01*
X160592085Y-115102491D01*
X160648367Y-115005009D01*
X160677500Y-114896281D01*
X160677500Y-114783719D01*
X160648367Y-114674991D01*
X160592085Y-114577509D01*
X160512491Y-114497915D01*
X160459652Y-114467408D01*
X160415010Y-114441633D01*
X160360645Y-114427066D01*
X160306281Y-114412500D01*
X160193719Y-114412500D01*
X160084989Y-114441633D01*
X159987509Y-114497915D01*
X159987506Y-114497917D01*
X159907917Y-114577506D01*
X159907915Y-114577509D01*
X159851633Y-114674989D01*
X159826028Y-114770553D01*
X159822500Y-114783719D01*
X157397500Y-114783719D01*
X157397500Y-114770553D01*
X157361552Y-114636393D01*
X157292105Y-114516107D01*
X157193893Y-114417895D01*
X157193892Y-114417894D01*
X157193889Y-114417892D01*
X157073609Y-114348449D01*
X157073608Y-114348448D01*
X157073607Y-114348448D01*
X156939447Y-114312500D01*
X156800553Y-114312500D01*
X156666393Y-114348448D01*
X156666390Y-114348449D01*
X156546110Y-114417892D01*
X156546105Y-114417896D01*
X156447896Y-114516105D01*
X156447892Y-114516110D01*
X156378449Y-114636390D01*
X156378448Y-114636393D01*
X156342500Y-114770553D01*
X156342500Y-114909446D01*
X156378448Y-115043606D01*
X156378449Y-115043609D01*
X156447892Y-115163889D01*
X156447894Y-115163892D01*
X156447895Y-115163893D01*
X156546107Y-115262105D01*
X156546108Y-115262106D01*
X156546110Y-115262107D01*
X156555451Y-115267500D01*
X156666393Y-115331552D01*
X156800553Y-115367500D01*
X156800555Y-115367500D01*
X156939444Y-115367500D01*
X156939447Y-115367500D01*
X156958386Y-115362425D01*
X157028232Y-115364086D01*
X157086095Y-115403246D01*
X157113602Y-115467474D01*
X157110254Y-115514291D01*
X157092500Y-115580551D01*
X157092500Y-115719446D01*
X157099122Y-115744160D01*
X157097459Y-115814010D01*
X157058296Y-115871872D01*
X156994067Y-115899376D01*
X156947255Y-115896028D01*
X156859447Y-115872500D01*
X156720553Y-115872500D01*
X156586393Y-115908448D01*
X156586390Y-115908449D01*
X156466110Y-115977892D01*
X156466105Y-115977896D01*
X156367896Y-116076105D01*
X156367892Y-116076110D01*
X156298449Y-116196390D01*
X156298448Y-116196393D01*
X156262500Y-116330553D01*
X154835602Y-116330553D01*
X154861552Y-116285607D01*
X154897500Y-116151447D01*
X154897500Y-116012553D01*
X154861552Y-115878393D01*
X154792105Y-115758107D01*
X154693893Y-115659895D01*
X154693892Y-115659894D01*
X154693889Y-115659892D01*
X154573609Y-115590449D01*
X154573608Y-115590448D01*
X154573607Y-115590448D01*
X154439447Y-115554500D01*
X154300553Y-115554500D01*
X154166393Y-115590448D01*
X154166390Y-115590449D01*
X154046110Y-115659892D01*
X154046105Y-115659896D01*
X153947896Y-115758105D01*
X153947892Y-115758110D01*
X153878449Y-115878390D01*
X153878448Y-115878393D01*
X153842500Y-116012553D01*
X150300500Y-116012553D01*
X150300500Y-114041805D01*
X152592499Y-114041805D01*
X152616613Y-114163029D01*
X152616616Y-114163039D01*
X152663913Y-114277226D01*
X152663920Y-114277239D01*
X152732588Y-114380007D01*
X152732591Y-114380011D01*
X152819988Y-114467408D01*
X152819992Y-114467411D01*
X152922760Y-114536079D01*
X152922773Y-114536086D01*
X153022779Y-114577509D01*
X153036965Y-114583385D01*
X153036969Y-114583385D01*
X153036970Y-114583386D01*
X153158194Y-114607500D01*
X153158197Y-114607500D01*
X153281805Y-114607500D01*
X153363361Y-114591276D01*
X153403035Y-114583385D01*
X153517233Y-114536083D01*
X153620008Y-114467411D01*
X153707411Y-114380008D01*
X153776083Y-114277233D01*
X153823385Y-114163035D01*
X153838410Y-114087500D01*
X153847500Y-114041805D01*
X153847500Y-113918194D01*
X153823386Y-113796970D01*
X153823385Y-113796969D01*
X153823385Y-113796965D01*
X153809568Y-113763607D01*
X153776086Y-113682773D01*
X153776079Y-113682760D01*
X153707411Y-113579992D01*
X153707408Y-113579988D01*
X153620011Y-113492591D01*
X153620007Y-113492588D01*
X153616961Y-113490553D01*
X157092500Y-113490553D01*
X157092500Y-113629447D01*
X157115766Y-113716275D01*
X157128448Y-113763606D01*
X157128449Y-113763609D01*
X157197892Y-113883889D01*
X157197894Y-113883892D01*
X157197895Y-113883893D01*
X157296107Y-113982105D01*
X157416393Y-114051552D01*
X157550553Y-114087500D01*
X157550555Y-114087500D01*
X157689445Y-114087500D01*
X157689447Y-114087500D01*
X157823607Y-114051552D01*
X157943893Y-113982105D01*
X158042105Y-113883893D01*
X158111552Y-113763607D01*
X158147500Y-113629447D01*
X158147500Y-113583719D01*
X158686500Y-113583719D01*
X158686500Y-113696281D01*
X158701066Y-113750645D01*
X158715633Y-113805010D01*
X158743774Y-113853750D01*
X158771915Y-113902491D01*
X158851509Y-113982085D01*
X158948991Y-114038367D01*
X159057719Y-114067500D01*
X159057721Y-114067500D01*
X159170279Y-114067500D01*
X159170281Y-114067500D01*
X159279009Y-114038367D01*
X159376491Y-113982085D01*
X159456085Y-113902491D01*
X159512367Y-113805009D01*
X159541500Y-113696281D01*
X159541500Y-113583719D01*
X159525424Y-113523720D01*
X164422500Y-113523720D01*
X164422500Y-113716279D01*
X164460062Y-113905118D01*
X164460066Y-113905132D01*
X164533746Y-114083013D01*
X164533753Y-114083026D01*
X164640725Y-114243119D01*
X164640728Y-114243123D01*
X164776876Y-114379271D01*
X164776880Y-114379274D01*
X164936973Y-114486246D01*
X164936986Y-114486253D01*
X165057295Y-114536086D01*
X165114874Y-114559936D01*
X165232753Y-114583383D01*
X165303720Y-114597499D01*
X165303724Y-114597500D01*
X165303725Y-114597500D01*
X165496276Y-114597500D01*
X165496277Y-114597499D01*
X165685126Y-114559936D01*
X165863020Y-114486250D01*
X166023120Y-114379274D01*
X166159274Y-114243120D01*
X166266250Y-114083020D01*
X166339936Y-113905126D01*
X166377500Y-113716275D01*
X166377500Y-113523725D01*
X166339936Y-113334874D01*
X166324627Y-113297915D01*
X166266253Y-113156986D01*
X166266246Y-113156973D01*
X166159274Y-112996880D01*
X166159271Y-112996876D01*
X166023123Y-112860728D01*
X166023119Y-112860725D01*
X165863026Y-112753753D01*
X165863013Y-112753746D01*
X165685132Y-112680066D01*
X165685128Y-112680064D01*
X165685126Y-112680064D01*
X165685122Y-112680063D01*
X165685118Y-112680062D01*
X165496279Y-112642500D01*
X165496275Y-112642500D01*
X165303725Y-112642500D01*
X165303720Y-112642500D01*
X165114881Y-112680062D01*
X165114867Y-112680066D01*
X164936986Y-112753746D01*
X164936973Y-112753753D01*
X164776880Y-112860725D01*
X164776876Y-112860728D01*
X164640728Y-112996876D01*
X164640725Y-112996880D01*
X164533753Y-113156973D01*
X164533746Y-113156986D01*
X164460066Y-113334867D01*
X164460062Y-113334881D01*
X164422500Y-113523720D01*
X159525424Y-113523720D01*
X159512367Y-113474991D01*
X159456085Y-113377509D01*
X159376491Y-113297915D01*
X159327750Y-113269774D01*
X159279010Y-113241633D01*
X159224645Y-113227066D01*
X159170281Y-113212500D01*
X159057719Y-113212500D01*
X158948989Y-113241633D01*
X158851509Y-113297915D01*
X158851506Y-113297917D01*
X158771917Y-113377506D01*
X158771915Y-113377509D01*
X158715633Y-113474989D01*
X158710917Y-113492591D01*
X158686500Y-113583719D01*
X158147500Y-113583719D01*
X158147500Y-113490553D01*
X158111552Y-113356393D01*
X158076828Y-113296250D01*
X158042107Y-113236110D01*
X158042103Y-113236105D01*
X157943894Y-113137896D01*
X157943889Y-113137892D01*
X157823609Y-113068449D01*
X157823608Y-113068448D01*
X157823607Y-113068448D01*
X157689447Y-113032500D01*
X157550553Y-113032500D01*
X157416393Y-113068448D01*
X157416390Y-113068449D01*
X157296110Y-113137892D01*
X157296105Y-113137896D01*
X157197896Y-113236105D01*
X157197892Y-113236110D01*
X157128449Y-113356390D01*
X157128448Y-113356393D01*
X157092500Y-113490553D01*
X153616961Y-113490553D01*
X153517239Y-113423920D01*
X153517226Y-113423913D01*
X153403039Y-113376616D01*
X153403029Y-113376613D01*
X153281805Y-113352500D01*
X153281803Y-113352500D01*
X153158197Y-113352500D01*
X153158195Y-113352500D01*
X153036970Y-113376613D01*
X153036960Y-113376616D01*
X152922773Y-113423913D01*
X152922760Y-113423920D01*
X152819992Y-113492588D01*
X152819988Y-113492591D01*
X152732591Y-113579988D01*
X152732588Y-113579992D01*
X152663920Y-113682760D01*
X152663913Y-113682773D01*
X152616616Y-113796960D01*
X152616613Y-113796970D01*
X152592500Y-113918194D01*
X152592500Y-113918197D01*
X152592500Y-114041803D01*
X152592500Y-114041805D01*
X152592499Y-114041805D01*
X150300500Y-114041805D01*
X150300500Y-110231805D01*
X152592499Y-110231805D01*
X152616613Y-110353029D01*
X152616616Y-110353039D01*
X152663913Y-110467226D01*
X152663920Y-110467239D01*
X152732588Y-110570007D01*
X152732591Y-110570011D01*
X152819988Y-110657408D01*
X152819992Y-110657411D01*
X152886570Y-110701898D01*
X152931375Y-110755511D01*
X152940082Y-110824836D01*
X152909927Y-110887863D01*
X152886570Y-110908102D01*
X152819992Y-110952588D01*
X152819988Y-110952591D01*
X152732591Y-111039988D01*
X152732588Y-111039992D01*
X152663920Y-111142760D01*
X152663913Y-111142773D01*
X152616616Y-111256960D01*
X152616613Y-111256970D01*
X152592500Y-111378194D01*
X152592500Y-111378197D01*
X152592500Y-111501803D01*
X152592500Y-111501805D01*
X152592499Y-111501805D01*
X152616613Y-111623029D01*
X152616616Y-111623039D01*
X152663913Y-111737226D01*
X152663920Y-111737239D01*
X152732588Y-111840007D01*
X152732591Y-111840011D01*
X152819988Y-111927408D01*
X152819992Y-111927411D01*
X152922760Y-111996079D01*
X152922773Y-111996086D01*
X152995259Y-112026110D01*
X153036965Y-112043385D01*
X153036969Y-112043385D01*
X153036970Y-112043386D01*
X153158194Y-112067500D01*
X153158197Y-112067500D01*
X153281805Y-112067500D01*
X153363361Y-112051276D01*
X153403035Y-112043385D01*
X153517233Y-111996083D01*
X153620008Y-111927411D01*
X153706866Y-111840553D01*
X157102500Y-111840553D01*
X157102500Y-111979447D01*
X157119633Y-112043386D01*
X157138448Y-112113606D01*
X157138449Y-112113609D01*
X157207892Y-112233889D01*
X157207894Y-112233892D01*
X157207895Y-112233893D01*
X157306107Y-112332105D01*
X157426393Y-112401552D01*
X157560553Y-112437500D01*
X157560555Y-112437500D01*
X157699445Y-112437500D01*
X157699447Y-112437500D01*
X157833607Y-112401552D01*
X157953893Y-112332105D01*
X157982279Y-112303719D01*
X158686500Y-112303719D01*
X158686500Y-112416281D01*
X158692185Y-112437499D01*
X158715633Y-112525010D01*
X158732144Y-112553607D01*
X158771915Y-112622491D01*
X158851509Y-112702085D01*
X158948991Y-112758367D01*
X159057719Y-112787500D01*
X159057721Y-112787500D01*
X159170279Y-112787500D01*
X159170281Y-112787500D01*
X159279009Y-112758367D01*
X159376491Y-112702085D01*
X159456085Y-112622491D01*
X159512367Y-112525009D01*
X159541500Y-112416281D01*
X159541500Y-112303719D01*
X159535293Y-112280553D01*
X161162500Y-112280553D01*
X161162500Y-112419447D01*
X161190786Y-112525010D01*
X161198448Y-112553606D01*
X161198449Y-112553609D01*
X161267892Y-112673889D01*
X161267894Y-112673892D01*
X161267895Y-112673893D01*
X161366107Y-112772105D01*
X161486393Y-112841552D01*
X161620553Y-112877500D01*
X161620555Y-112877500D01*
X161759445Y-112877500D01*
X161759447Y-112877500D01*
X161893607Y-112841552D01*
X162013893Y-112772105D01*
X162112105Y-112673893D01*
X162181552Y-112553607D01*
X162217500Y-112419447D01*
X162217500Y-112280553D01*
X162181552Y-112146393D01*
X162122081Y-112043386D01*
X162112107Y-112026110D01*
X162112103Y-112026105D01*
X162013894Y-111927896D01*
X162013889Y-111927892D01*
X161893609Y-111858449D01*
X161893608Y-111858448D01*
X161893607Y-111858448D01*
X161759447Y-111822500D01*
X161620553Y-111822500D01*
X161610831Y-111825104D01*
X161610830Y-111825105D01*
X161565559Y-111837235D01*
X161486393Y-111858448D01*
X161486391Y-111858449D01*
X161486390Y-111858449D01*
X161366110Y-111927892D01*
X161366105Y-111927896D01*
X161267896Y-112026105D01*
X161267892Y-112026110D01*
X161198449Y-112146390D01*
X161198448Y-112146393D01*
X161162500Y-112280553D01*
X159535293Y-112280553D01*
X159512367Y-112194991D01*
X159456085Y-112097509D01*
X159376491Y-112017915D01*
X159327750Y-111989774D01*
X159279010Y-111961633D01*
X159221583Y-111946246D01*
X159170281Y-111932500D01*
X159057719Y-111932500D01*
X158948989Y-111961633D01*
X158851509Y-112017915D01*
X158851506Y-112017917D01*
X158771917Y-112097506D01*
X158771915Y-112097509D01*
X158715633Y-112194989D01*
X158705209Y-112233893D01*
X158686500Y-112303719D01*
X157982279Y-112303719D01*
X158052105Y-112233893D01*
X158121552Y-112113607D01*
X158157500Y-111979447D01*
X158157500Y-111840553D01*
X158121552Y-111706393D01*
X158052105Y-111586107D01*
X157953893Y-111487895D01*
X157953892Y-111487894D01*
X157953889Y-111487892D01*
X157833609Y-111418449D01*
X157833608Y-111418448D01*
X157833607Y-111418448D01*
X157699447Y-111382500D01*
X157560553Y-111382500D01*
X157426393Y-111418448D01*
X157426390Y-111418449D01*
X157306110Y-111487892D01*
X157306105Y-111487896D01*
X157207896Y-111586105D01*
X157207892Y-111586110D01*
X157138449Y-111706390D01*
X157138448Y-111706393D01*
X157102500Y-111840553D01*
X153706866Y-111840553D01*
X153707411Y-111840008D01*
X153776083Y-111737233D01*
X153823385Y-111623035D01*
X153839593Y-111541552D01*
X153847500Y-111501805D01*
X153847500Y-111378194D01*
X153823386Y-111256970D01*
X153823385Y-111256969D01*
X153823385Y-111256965D01*
X153806007Y-111215010D01*
X153776086Y-111142773D01*
X153776079Y-111142760D01*
X153717094Y-111054483D01*
X153707411Y-111039992D01*
X153707408Y-111039988D01*
X153661139Y-110993719D01*
X158682500Y-110993719D01*
X158682500Y-111106281D01*
X158686028Y-111119447D01*
X158711633Y-111215010D01*
X158739774Y-111263750D01*
X158767915Y-111312491D01*
X158847509Y-111392085D01*
X158944991Y-111448367D01*
X159053719Y-111477500D01*
X159053721Y-111477500D01*
X159166279Y-111477500D01*
X159166281Y-111477500D01*
X159275009Y-111448367D01*
X159372491Y-111392085D01*
X159452085Y-111312491D01*
X159508367Y-111215009D01*
X159537500Y-111106281D01*
X159537500Y-110993719D01*
X159533972Y-110980553D01*
X161092500Y-110980553D01*
X161092500Y-111119447D01*
X161107728Y-111176276D01*
X161128448Y-111253606D01*
X161128449Y-111253609D01*
X161197892Y-111373889D01*
X161197894Y-111373892D01*
X161197895Y-111373893D01*
X161296107Y-111472105D01*
X161296108Y-111472106D01*
X161296110Y-111472107D01*
X161347549Y-111501805D01*
X161416393Y-111541552D01*
X161550553Y-111577500D01*
X161550555Y-111577500D01*
X161591519Y-111577500D01*
X161689447Y-111577500D01*
X161823607Y-111541552D01*
X161943893Y-111472105D01*
X162042105Y-111373893D01*
X162111552Y-111253607D01*
X162147500Y-111119447D01*
X162147500Y-110983720D01*
X164422500Y-110983720D01*
X164422500Y-111176279D01*
X164460062Y-111365118D01*
X164460066Y-111365132D01*
X164533746Y-111543013D01*
X164533753Y-111543026D01*
X164640725Y-111703119D01*
X164640728Y-111703123D01*
X164776876Y-111839271D01*
X164776880Y-111839274D01*
X164936973Y-111946246D01*
X164936986Y-111946253D01*
X165057295Y-111996086D01*
X165114874Y-112019936D01*
X165232753Y-112043383D01*
X165303720Y-112057499D01*
X165303724Y-112057500D01*
X165303725Y-112057500D01*
X165496276Y-112057500D01*
X165496277Y-112057499D01*
X165685126Y-112019936D01*
X165863020Y-111946250D01*
X166023120Y-111839274D01*
X166159274Y-111703120D01*
X166266250Y-111543020D01*
X166266859Y-111541551D01*
X166328769Y-111392085D01*
X166339936Y-111365126D01*
X166377500Y-111176275D01*
X166377500Y-110983725D01*
X166339936Y-110794874D01*
X166303917Y-110707917D01*
X166266253Y-110616986D01*
X166266246Y-110616973D01*
X166159274Y-110456880D01*
X166159271Y-110456876D01*
X166023123Y-110320728D01*
X166023119Y-110320725D01*
X165863026Y-110213753D01*
X165863013Y-110213746D01*
X165685132Y-110140066D01*
X165685128Y-110140064D01*
X165685126Y-110140064D01*
X165685122Y-110140063D01*
X165685118Y-110140062D01*
X165496279Y-110102500D01*
X165496275Y-110102500D01*
X165303725Y-110102500D01*
X165303720Y-110102500D01*
X165114881Y-110140062D01*
X165114867Y-110140066D01*
X164936986Y-110213746D01*
X164936973Y-110213753D01*
X164776880Y-110320725D01*
X164776876Y-110320728D01*
X164640728Y-110456876D01*
X164640725Y-110456880D01*
X164533753Y-110616973D01*
X164533746Y-110616986D01*
X164460066Y-110794867D01*
X164460062Y-110794881D01*
X164422500Y-110983720D01*
X162147500Y-110983720D01*
X162147500Y-110980553D01*
X162111552Y-110846393D01*
X162069401Y-110773385D01*
X162042107Y-110726110D01*
X162042103Y-110726105D01*
X161943894Y-110627896D01*
X161943889Y-110627892D01*
X161823609Y-110558449D01*
X161823608Y-110558448D01*
X161823607Y-110558448D01*
X161689447Y-110522500D01*
X161550553Y-110522500D01*
X161416393Y-110558448D01*
X161416390Y-110558449D01*
X161296110Y-110627892D01*
X161296105Y-110627896D01*
X161197896Y-110726105D01*
X161197892Y-110726110D01*
X161128449Y-110846390D01*
X161128448Y-110846393D01*
X161092500Y-110980553D01*
X159533972Y-110980553D01*
X159508367Y-110884991D01*
X159452085Y-110787509D01*
X159372491Y-110707915D01*
X159285017Y-110657411D01*
X159275010Y-110651633D01*
X159220645Y-110637066D01*
X159166281Y-110622500D01*
X159053719Y-110622500D01*
X158944989Y-110651633D01*
X158847509Y-110707915D01*
X158847506Y-110707917D01*
X158767917Y-110787506D01*
X158767915Y-110787509D01*
X158711633Y-110884989D01*
X158693520Y-110952591D01*
X158682500Y-110993719D01*
X153661139Y-110993719D01*
X153620011Y-110952591D01*
X153620007Y-110952588D01*
X153553429Y-110908102D01*
X153508624Y-110854490D01*
X153499917Y-110785165D01*
X153530071Y-110722138D01*
X153553429Y-110701898D01*
X153577281Y-110685960D01*
X153620008Y-110657411D01*
X153707411Y-110570008D01*
X153776083Y-110467233D01*
X153823385Y-110353035D01*
X153847500Y-110231803D01*
X153847500Y-110108197D01*
X153847500Y-110108194D01*
X153823386Y-109986970D01*
X153823385Y-109986969D01*
X153823385Y-109986965D01*
X153823383Y-109986960D01*
X153776086Y-109872773D01*
X153776079Y-109872760D01*
X153707411Y-109769992D01*
X153707408Y-109769988D01*
X153620011Y-109682591D01*
X153620007Y-109682588D01*
X153517239Y-109613920D01*
X153517226Y-109613913D01*
X153403039Y-109566616D01*
X153403029Y-109566613D01*
X153281805Y-109542500D01*
X153281803Y-109542500D01*
X153158197Y-109542500D01*
X153158195Y-109542500D01*
X153036970Y-109566613D01*
X153036960Y-109566616D01*
X152922773Y-109613913D01*
X152922760Y-109613920D01*
X152819992Y-109682588D01*
X152819988Y-109682591D01*
X152732591Y-109769988D01*
X152732588Y-109769992D01*
X152663920Y-109872760D01*
X152663913Y-109872773D01*
X152616616Y-109986960D01*
X152616613Y-109986970D01*
X152592500Y-110108194D01*
X152592500Y-110108197D01*
X152592500Y-110231803D01*
X152592500Y-110231805D01*
X152592499Y-110231805D01*
X150300500Y-110231805D01*
X150300500Y-108443720D01*
X164422500Y-108443720D01*
X164422500Y-108636279D01*
X164460062Y-108825118D01*
X164460066Y-108825132D01*
X164533746Y-109003013D01*
X164533753Y-109003026D01*
X164640725Y-109163119D01*
X164640728Y-109163123D01*
X164776876Y-109299271D01*
X164776880Y-109299274D01*
X164936973Y-109406246D01*
X164936986Y-109406253D01*
X165085806Y-109467896D01*
X165114874Y-109479936D01*
X165303720Y-109517499D01*
X165303724Y-109517500D01*
X165303725Y-109517500D01*
X165496276Y-109517500D01*
X165496277Y-109517499D01*
X165685126Y-109479936D01*
X165863020Y-109406250D01*
X166023120Y-109299274D01*
X166159274Y-109163120D01*
X166266250Y-109003020D01*
X166339936Y-108825126D01*
X166377500Y-108636275D01*
X166377500Y-108443725D01*
X166339936Y-108254874D01*
X166308818Y-108179748D01*
X166266253Y-108076986D01*
X166266246Y-108076973D01*
X166159274Y-107916880D01*
X166159271Y-107916876D01*
X166023123Y-107780728D01*
X166023119Y-107780725D01*
X165863026Y-107673753D01*
X165863013Y-107673746D01*
X165685132Y-107600066D01*
X165685128Y-107600064D01*
X165685126Y-107600064D01*
X165685122Y-107600063D01*
X165685118Y-107600062D01*
X165496279Y-107562500D01*
X165496275Y-107562500D01*
X165303725Y-107562500D01*
X165303720Y-107562500D01*
X165114881Y-107600062D01*
X165114867Y-107600066D01*
X164936986Y-107673746D01*
X164936973Y-107673753D01*
X164776880Y-107780725D01*
X164776876Y-107780728D01*
X164640728Y-107916876D01*
X164640725Y-107916880D01*
X164533753Y-108076973D01*
X164533746Y-108076986D01*
X164460066Y-108254867D01*
X164460062Y-108254881D01*
X164422500Y-108443720D01*
X150300500Y-108443720D01*
X150300500Y-107117441D01*
X152592500Y-107117441D01*
X152592500Y-108142558D01*
X152599898Y-108179749D01*
X152628077Y-108221922D01*
X152670250Y-108250101D01*
X152670252Y-108250102D01*
X152698205Y-108255662D01*
X152707441Y-108257500D01*
X152707442Y-108257500D01*
X153732559Y-108257500D01*
X153739957Y-108256028D01*
X153769748Y-108250102D01*
X153811922Y-108221922D01*
X153840102Y-108179748D01*
X153847500Y-108142558D01*
X153847500Y-107117442D01*
X153840102Y-107080252D01*
X153840101Y-107080250D01*
X153811922Y-107038077D01*
X153769749Y-107009898D01*
X153732559Y-107002500D01*
X153732558Y-107002500D01*
X152707442Y-107002500D01*
X152707441Y-107002500D01*
X152670250Y-107009898D01*
X152628077Y-107038077D01*
X152599898Y-107080250D01*
X152592500Y-107117441D01*
X150300500Y-107117441D01*
X150300500Y-106783719D01*
X159812500Y-106783719D01*
X159812500Y-106896280D01*
X159841633Y-107005010D01*
X159869774Y-107053750D01*
X159897915Y-107102491D01*
X159977509Y-107182085D01*
X160074991Y-107238367D01*
X160183719Y-107267500D01*
X160183721Y-107267500D01*
X160296279Y-107267500D01*
X160296281Y-107267500D01*
X160405009Y-107238367D01*
X160502491Y-107182085D01*
X160582085Y-107102491D01*
X160638367Y-107005009D01*
X160667500Y-106896281D01*
X160667500Y-106783719D01*
X160638367Y-106674991D01*
X160582085Y-106577509D01*
X160502491Y-106497915D01*
X160453750Y-106469774D01*
X160405010Y-106441633D01*
X160350645Y-106427066D01*
X160296281Y-106412500D01*
X160183719Y-106412500D01*
X160074989Y-106441633D01*
X159977509Y-106497915D01*
X159977506Y-106497917D01*
X159897917Y-106577506D01*
X159897915Y-106577509D01*
X159841633Y-106674989D01*
X159812500Y-106783719D01*
X150300500Y-106783719D01*
X150300500Y-105483053D01*
X157972500Y-105483053D01*
X157972500Y-105621947D01*
X157985228Y-105669446D01*
X158008448Y-105756106D01*
X158008449Y-105756109D01*
X158077892Y-105876389D01*
X158077894Y-105876392D01*
X158077895Y-105876393D01*
X158176107Y-105974605D01*
X158296393Y-106044052D01*
X158430553Y-106080000D01*
X158430555Y-106080000D01*
X158569445Y-106080000D01*
X158569447Y-106080000D01*
X158703607Y-106044052D01*
X158823893Y-105974605D01*
X158922105Y-105876393D01*
X158991552Y-105756107D01*
X159027500Y-105621947D01*
X159027500Y-105530553D01*
X161122500Y-105530553D01*
X161122500Y-105669447D01*
X161145721Y-105756107D01*
X161158448Y-105803606D01*
X161158449Y-105803609D01*
X161227892Y-105923889D01*
X161227894Y-105923892D01*
X161227895Y-105923893D01*
X161326107Y-106022105D01*
X161446393Y-106091552D01*
X161580553Y-106127500D01*
X161580555Y-106127500D01*
X161719445Y-106127500D01*
X161719447Y-106127500D01*
X161853607Y-106091552D01*
X161973893Y-106022105D01*
X162072105Y-105923893D01*
X162141552Y-105803607D01*
X162177500Y-105669447D01*
X162177500Y-105530553D01*
X162141552Y-105396393D01*
X162072105Y-105276107D01*
X161973893Y-105177895D01*
X161973892Y-105177894D01*
X161973889Y-105177892D01*
X161853609Y-105108449D01*
X161853608Y-105108448D01*
X161853607Y-105108448D01*
X161719447Y-105072500D01*
X161580553Y-105072500D01*
X161446393Y-105108448D01*
X161446390Y-105108449D01*
X161326110Y-105177892D01*
X161326105Y-105177896D01*
X161227896Y-105276105D01*
X161227892Y-105276110D01*
X161158449Y-105396390D01*
X161158448Y-105396393D01*
X161122500Y-105530553D01*
X159027500Y-105530553D01*
X159027500Y-105483053D01*
X158991552Y-105348893D01*
X158922105Y-105228607D01*
X158823893Y-105130395D01*
X158823892Y-105130394D01*
X158823889Y-105130392D01*
X158703609Y-105060949D01*
X158703608Y-105060948D01*
X158703607Y-105060948D01*
X158569447Y-105025000D01*
X158430553Y-105025000D01*
X158296393Y-105060948D01*
X158296390Y-105060949D01*
X158176110Y-105130392D01*
X158176105Y-105130396D01*
X158077896Y-105228605D01*
X158077892Y-105228610D01*
X158008449Y-105348890D01*
X158008448Y-105348893D01*
X157972500Y-105483053D01*
X150300500Y-105483053D01*
X150300500Y-102848644D01*
X156572500Y-102848644D01*
X156572500Y-103031355D01*
X156608141Y-103210534D01*
X156608143Y-103210542D01*
X156678058Y-103379333D01*
X156678063Y-103379342D01*
X156779563Y-103531246D01*
X156779566Y-103531250D01*
X156908749Y-103660433D01*
X156908753Y-103660436D01*
X157060657Y-103761936D01*
X157060663Y-103761939D01*
X157060664Y-103761940D01*
X157229458Y-103831857D01*
X157405879Y-103866949D01*
X157408644Y-103867499D01*
X157408648Y-103867500D01*
X157408649Y-103867500D01*
X157591352Y-103867500D01*
X157591353Y-103867499D01*
X157770542Y-103831857D01*
X157939336Y-103761940D01*
X158091247Y-103660436D01*
X158220436Y-103531247D01*
X158321940Y-103379336D01*
X158385439Y-103226035D01*
X158429280Y-103171632D01*
X158495574Y-103149567D01*
X158563273Y-103166846D01*
X158610884Y-103217983D01*
X158614561Y-103226036D01*
X158678056Y-103379329D01*
X158678063Y-103379342D01*
X158779563Y-103531246D01*
X158779566Y-103531250D01*
X158908749Y-103660433D01*
X158908753Y-103660436D01*
X159060657Y-103761936D01*
X159060663Y-103761939D01*
X159060664Y-103761940D01*
X159229458Y-103831857D01*
X159405879Y-103866949D01*
X159408644Y-103867499D01*
X159408648Y-103867500D01*
X159408649Y-103867500D01*
X159591352Y-103867500D01*
X159591353Y-103867499D01*
X159679765Y-103849913D01*
X159770533Y-103831859D01*
X159770535Y-103831858D01*
X159770542Y-103831857D01*
X159770548Y-103831854D01*
X159775560Y-103830334D01*
X159845427Y-103829705D01*
X159904542Y-103866949D01*
X159934138Y-103930241D01*
X159924817Y-103999486D01*
X159899246Y-104036673D01*
X159829809Y-104106110D01*
X159760366Y-104226390D01*
X159760365Y-104226393D01*
X159724417Y-104360553D01*
X159724417Y-104499446D01*
X159760365Y-104633606D01*
X159760366Y-104633609D01*
X159829809Y-104753889D01*
X159829811Y-104753892D01*
X159829812Y-104753893D01*
X159928024Y-104852105D01*
X160048310Y-104921552D01*
X160182470Y-104957500D01*
X160182472Y-104957500D01*
X160321362Y-104957500D01*
X160321364Y-104957500D01*
X160455524Y-104921552D01*
X160575810Y-104852105D01*
X160674022Y-104753893D01*
X160743469Y-104633607D01*
X160779417Y-104499447D01*
X160779417Y-104360553D01*
X160743469Y-104226393D01*
X160674022Y-104106107D01*
X160575810Y-104007895D01*
X160575809Y-104007894D01*
X160575806Y-104007892D01*
X160455526Y-103938449D01*
X160455525Y-103938448D01*
X160455524Y-103938448D01*
X160321364Y-103902500D01*
X160182470Y-103902500D01*
X160182468Y-103902500D01*
X160150825Y-103910979D01*
X160080976Y-103909316D01*
X160023113Y-103870153D01*
X159995610Y-103805924D01*
X160007197Y-103737022D01*
X160049843Y-103688102D01*
X160076939Y-103669996D01*
X160091247Y-103660436D01*
X160220436Y-103531247D01*
X160321940Y-103379336D01*
X160391857Y-103210542D01*
X160427500Y-103031351D01*
X160427500Y-102848649D01*
X160427499Y-102848644D01*
X161072500Y-102848644D01*
X161072500Y-103031355D01*
X161108141Y-103210534D01*
X161108143Y-103210542D01*
X161178058Y-103379333D01*
X161178063Y-103379342D01*
X161279563Y-103531246D01*
X161279566Y-103531250D01*
X161408749Y-103660433D01*
X161408753Y-103660436D01*
X161560657Y-103761936D01*
X161560663Y-103761939D01*
X161560664Y-103761940D01*
X161729458Y-103831857D01*
X161905879Y-103866949D01*
X161908644Y-103867499D01*
X161908648Y-103867500D01*
X161908649Y-103867500D01*
X162091352Y-103867500D01*
X162091353Y-103867499D01*
X162270542Y-103831857D01*
X162439336Y-103761940D01*
X162591247Y-103660436D01*
X162720436Y-103531247D01*
X162821940Y-103379336D01*
X162891857Y-103210542D01*
X162927500Y-103031351D01*
X162927500Y-102848649D01*
X162891857Y-102669458D01*
X162821940Y-102500664D01*
X162821939Y-102500663D01*
X162821936Y-102500657D01*
X162720436Y-102348753D01*
X162720433Y-102348749D01*
X162591250Y-102219566D01*
X162591246Y-102219563D01*
X162439342Y-102118063D01*
X162439333Y-102118058D01*
X162270542Y-102048143D01*
X162270534Y-102048141D01*
X162091355Y-102012500D01*
X162091351Y-102012500D01*
X161908649Y-102012500D01*
X161908644Y-102012500D01*
X161729465Y-102048141D01*
X161729457Y-102048143D01*
X161560666Y-102118058D01*
X161560657Y-102118063D01*
X161408753Y-102219563D01*
X161408749Y-102219566D01*
X161279566Y-102348749D01*
X161279563Y-102348753D01*
X161178063Y-102500657D01*
X161178058Y-102500666D01*
X161108143Y-102669457D01*
X161108141Y-102669465D01*
X161072500Y-102848644D01*
X160427499Y-102848644D01*
X160391857Y-102669458D01*
X160321940Y-102500664D01*
X160321939Y-102500663D01*
X160321936Y-102500657D01*
X160220436Y-102348753D01*
X160220433Y-102348749D01*
X160091250Y-102219566D01*
X160091246Y-102219563D01*
X159939342Y-102118063D01*
X159939333Y-102118058D01*
X159770542Y-102048143D01*
X159770534Y-102048141D01*
X159591355Y-102012500D01*
X159591351Y-102012500D01*
X159408649Y-102012500D01*
X159408644Y-102012500D01*
X159229465Y-102048141D01*
X159229457Y-102048143D01*
X159060666Y-102118058D01*
X159060657Y-102118063D01*
X158908753Y-102219563D01*
X158908749Y-102219566D01*
X158779566Y-102348749D01*
X158779563Y-102348753D01*
X158678063Y-102500657D01*
X158678058Y-102500666D01*
X158614561Y-102653964D01*
X158570720Y-102708367D01*
X158504426Y-102730432D01*
X158436727Y-102713153D01*
X158389116Y-102662016D01*
X158385439Y-102653964D01*
X158321941Y-102500666D01*
X158321936Y-102500657D01*
X158220436Y-102348753D01*
X158220433Y-102348749D01*
X158091250Y-102219566D01*
X158091246Y-102219563D01*
X157939342Y-102118063D01*
X157939333Y-102118058D01*
X157770542Y-102048143D01*
X157770534Y-102048141D01*
X157591355Y-102012500D01*
X157591351Y-102012500D01*
X157408649Y-102012500D01*
X157408644Y-102012500D01*
X157229465Y-102048141D01*
X157229457Y-102048143D01*
X157060666Y-102118058D01*
X157060657Y-102118063D01*
X156908753Y-102219563D01*
X156908749Y-102219566D01*
X156779566Y-102348749D01*
X156779563Y-102348753D01*
X156678063Y-102500657D01*
X156678058Y-102500666D01*
X156608143Y-102669457D01*
X156608141Y-102669465D01*
X156572500Y-102848644D01*
X150300500Y-102848644D01*
X150300500Y-100424500D01*
X150320185Y-100357461D01*
X150372989Y-100311706D01*
X150424500Y-100300500D01*
X166575500Y-100300500D01*
X166642539Y-100320185D01*
G37*
%TD.AperFunction*%
%TD*%
M02*
